<?xml version="1.0" encoding="utf-8"?>
<!-- Generator: Adobe Illustrator 27.5.0, SVG Export Plug-In . SVG Version: 6.00 Build 0)  -->
<svg version="1.1" xmlns="http://www.w3.org/2000/svg" xmlns:xlink="http://www.w3.org/1999/xlink" x="0px" y="0px"
	 viewBox="0 0 500 500" style="enable-background:new 0 0 500 500;" xml:space="preserve">
<g id="Background_Complete">
	<g>
		<rect y="382.398" style="fill:#EBEBEB;" width="500" height="0.25"/>
		<rect x="396.833" y="398.494" style="fill:#EBEBEB;" width="53.068" height="0.25"/>
		<rect x="272.556" y="395.361" style="fill:#EBEBEB;" width="58.665" height="0.25"/>
		<rect x="380.195" y="393.917" style="fill:#EBEBEB;" width="19.192" height="0.25"/>
		<rect x="100.473" y="390.888" style="fill:#EBEBEB;" width="43.193" height="0.25"/>
		<rect x="79.459" y="390.888" style="fill:#EBEBEB;" width="15.444" height="0.25"/>
		<rect x="131.471" y="395.111" style="fill:#EBEBEB;" width="54.195" height="0.25"/>
		<path style="fill:#EBEBEB;" d="M237.014,337.8H43.915c-3.147,0-5.708-2.561-5.708-5.708V60.66c0-3.147,2.561-5.708,5.708-5.708
			h193.099c3.146,0,5.707,2.561,5.707,5.708v271.432C242.721,335.239,240.16,337.8,237.014,337.8z M43.915,55.203
			c-3.01,0-5.458,2.448-5.458,5.458v271.432c0,3.01,2.448,5.458,5.458,5.458h193.099c3.009,0,5.457-2.448,5.457-5.458V60.66
			c0-3.009-2.448-5.458-5.457-5.458H43.915z"/>
		<path style="fill:#EBEBEB;" d="M453.31,337.8H260.212c-3.147,0-5.707-2.561-5.707-5.708V60.66c0-3.147,2.561-5.708,5.707-5.708
			H453.31c3.148,0,5.708,2.561,5.708,5.708v271.432C459.019,335.239,456.458,337.8,453.31,337.8z M260.212,55.203
			c-3.009,0-5.457,2.448-5.457,5.458v271.432c0,3.01,2.448,5.458,5.457,5.458H453.31c3.01,0,5.458-2.448,5.458-5.458V60.66
			c0-3.009-2.448-5.458-5.458-5.458H260.212z"/>
	</g>
	<g>
		<g>
			
				<rect x="295.915" y="67.995" transform="matrix(-1 -1.224647e-16 1.224647e-16 -1 733.9908 371.2957)" style="fill:#E6E6E6;" width="142.161" height="235.305"/>
			
				<rect x="288.238" y="67.995" transform="matrix(-1 -1.224647e-16 1.224647e-16 -1 725.2805 371.2957)" style="fill:#F0F0F0;" width="148.805" height="235.305"/>
			
				<rect x="295.915" y="303.301" transform="matrix(-1 -1.224647e-16 1.224647e-16 -1 733.9908 613.152)" style="fill:#E6E6E6;" width="142.161" height="6.551"/>
			
				<rect x="275.448" y="303.301" transform="matrix(-1 -1.224647e-16 1.224647e-16 -1 699.7005 613.152)" style="fill:#F0F0F0;" width="148.805" height="6.551"/>
			
				<rect x="255.736" y="121.993" transform="matrix(-1.836970e-16 1 -1 -1.836970e-16 548.2883 -176.9924)" style="fill:#FAFAFA;" width="213.809" height="127.309"/>
			<polygon style="fill:#FFFFFF;" points="405.81,292.553 392.628,78.743 347.561,78.743 360.744,292.553 			"/>
			
				<rect x="192.764" y="184.965" transform="matrix(-1.836970e-16 1 -1 -1.836970e-16 485.3163 -114.0204)" style="fill:#E6E6E6;" width="213.809" height="1.365"/>
			<g style="opacity:0.4;">
				<polygon style="fill:#E0E0E0;" points="285.695,80.874 430.41,80.874 431.399,76.65 286.684,76.65 				"/>
				<polygon style="fill:#E0E0E0;" points="285.695,87.905 430.41,87.905 431.399,83.682 286.684,83.682 				"/>
				<polygon style="fill:#E0E0E0;" points="285.695,94.937 430.41,94.937 431.399,90.713 286.684,90.713 				"/>
				<polygon style="fill:#E0E0E0;" points="285.695,101.968 430.41,101.968 431.399,97.744 286.684,97.744 				"/>
				<polygon style="fill:#E0E0E0;" points="285.695,108.999 430.41,108.999 431.399,104.776 286.684,104.776 				"/>
				<polygon style="fill:#E0E0E0;" points="285.695,116.03 430.41,116.03 431.399,111.807 286.684,111.807 				"/>
				<polygon style="fill:#E0E0E0;" points="285.695,123.062 430.41,123.062 431.399,118.838 286.684,118.838 				"/>
				<polygon style="fill:#E0E0E0;" points="285.695,130.093 430.41,130.093 431.399,125.869 286.684,125.869 				"/>
				<polygon style="fill:#E0E0E0;" points="285.695,137.124 430.41,137.124 431.399,132.901 286.684,132.901 				"/>
				<polygon style="fill:#E0E0E0;" points="285.695,144.155 430.41,144.155 431.399,139.932 286.684,139.932 				"/>
				<polygon style="fill:#E0E0E0;" points="285.695,151.187 430.41,151.187 431.399,146.963 286.684,146.963 				"/>
				<polygon style="fill:#E0E0E0;" points="285.695,158.218 430.41,158.218 431.399,153.995 286.684,153.995 				"/>
				<polygon style="fill:#E0E0E0;" points="285.695,165.249 430.41,165.249 431.399,161.026 286.684,161.026 				"/>
				<polygon style="fill:#E0E0E0;" points="285.695,172.281 430.41,172.281 431.399,168.057 286.684,168.057 				"/>
				<polygon style="fill:#E0E0E0;" points="285.695,179.312 430.41,179.312 431.399,175.088 286.684,175.088 				"/>
				<polygon style="fill:#E0E0E0;" points="285.695,186.343 430.41,186.343 431.399,182.12 286.684,182.12 				"/>
				<polygon style="fill:#E0E0E0;" points="285.695,193.374 430.41,193.374 431.399,189.151 286.684,189.151 				"/>
				<polygon style="fill:#E0E0E0;" points="285.695,200.406 430.41,200.406 431.399,196.182 286.684,196.182 				"/>
			</g>
		</g>
		<g>
			<g>
				<g>
					
						<rect x="70.219" y="76.862" transform="matrix(-1 -1.224647e-16 1.224647e-16 -1 292.1738 223.2803)" style="fill:#E6E6E6;" width="151.735" height="69.557"/>
					
						<rect x="62.038" y="76.862" transform="matrix(-1 -1.224647e-16 1.224647e-16 -1 282.4439 223.2803)" style="fill:#F0F0F0;" width="158.368" height="69.557"/>
					
						<rect x="113.753" y="39.766" transform="matrix(-1.836970e-16 1 -1 -1.836970e-16 252.8622 -29.5818)" style="fill:#FFFFFF;" width="54.937" height="143.749"/>
					<g>
						<polygon style="fill:#EBEBEB;" points="128.67,122.703 129.195,124.003 154.798,124.003 154.798,99.277 						"/>
						<polygon style="fill:#FAFAFA;" points="153.81,122.703 128.67,122.703 129.658,99.277 154.798,99.277 						"/>
					</g>
					<g>
						<polygon style="fill:#EBEBEB;" points="171.579,122.703 172.104,124.003 197.708,124.003 197.708,99.277 						"/>
						<polygon style="fill:#FAFAFA;" points="196.72,122.703 171.579,122.703 172.568,99.277 197.708,99.277 						"/>
					</g>
					<g>
						<polygon style="fill:#EBEBEB;" points="85.76,122.703 86.285,124.003 111.889,124.003 111.889,99.277 						"/>
						<polygon style="fill:#FAFAFA;" points="110.901,122.703 85.76,122.703 86.749,99.277 111.889,99.277 						"/>
					</g>
					
						<rect x="42.327" y="111.192" transform="matrix(-1.836970e-16 1 -1 -1.836970e-16 181.4364 41.8441)" style="fill:#E6E6E6;" width="54.937" height="0.897"/>
				</g>
			</g>
		</g>
		<g>
			<g>
				<g>
					
						<rect x="233.997" y="259.101" transform="matrix(-1 -1.224647e-16 1.224647e-16 -1 496.5791 635.9432)" style="fill:#F0F0F0;" width="28.586" height="117.742"/>
					
						<rect x="56.722" y="376.842" transform="matrix(-1 -1.224647e-16 1.224647e-16 -1 313.8162 759.2409)" style="fill:#F0F0F0;" width="200.372" height="5.556"/>
					<rect x="51.234" y="259.101" style="fill:#F5F5F5;" width="182.763" height="117.742"/>
					<rect x="62.472" y="303.593" style="fill:#F0F0F0;" width="160.285" height="28.757"/>
					<rect x="62.472" y="337.595" style="fill:#F0F0F0;" width="160.285" height="28.757"/>
					<path style="fill:#F5F5F5;" d="M100.775,306.745h83.681c1.085,0,1.972-0.887,1.972-1.972l0,0c0-1.085-0.887-1.972-1.972-1.972
						h-83.681c-1.084,0-1.972,0.887-1.972,1.972l0,0C98.803,305.857,99.69,306.745,100.775,306.745z"/>
					<rect x="62.472" y="269.591" style="fill:#F0F0F0;" width="160.285" height="28.757"/>
					<path style="fill:#F5F5F5;" d="M100.775,272.742h83.681c1.085,0,1.972-0.887,1.972-1.972l0,0c0-1.085-0.887-1.972-1.972-1.972
						h-83.681c-1.084,0-1.972,0.887-1.972,1.972l0,0C98.803,271.855,99.69,272.742,100.775,272.742z"/>
					<path style="fill:#F5F5F5;" d="M100.775,340.747h83.681c1.085,0,1.972-0.887,1.972-1.972l0,0c0-1.085-0.887-1.972-1.972-1.972
						h-83.681c-1.084,0-1.972,0.887-1.972,1.972l0,0C98.803,339.86,99.69,340.747,100.775,340.747z"/>
				</g>
				
					<rect x="47.425" y="249.433" transform="matrix(-1 -1.224647e-16 1.224647e-16 -1 281.4211 508.5334)" style="fill:#F0F0F0;" width="186.572" height="9.668"/>
				<rect x="233.997" y="249.433" style="fill:#E6E6E6;" width="32.581" height="9.668"/>
			</g>
			<g>
				<path style="fill:#E6E6E6;" d="M101.048,230.991c0,10.188-8.951,18.439-19.974,18.439c-11.023,0-19.974-8.251-19.974-18.439
					c0-6.011,3.109-13.265,7.958-18.216h24.031C97.939,217.726,101.048,224.98,101.048,230.991z"/>
				<path style="fill:#F0F0F0;" d="M128.707,234.105c0,8.467-7.439,15.325-16.601,15.325c-9.162,0-16.601-6.858-16.601-15.325
					c0-4.996,2.584-11.025,6.614-15.14h19.973C126.123,223.08,128.707,229.109,128.707,234.105z"/>
			</g>
			<g>
				<polygon style="fill:#F0F0F0;" points="211.932,249.277 232.688,249.277 230.107,168.888 211.932,168.888 				"/>
				<g>
					<polygon style="fill:#E6E6E6;" points="147.873,249.277 226.442,249.277 232.688,156.896 154.119,156.896 					"/>
					<polygon style="fill:#F0F0F0;" points="146.692,249.277 225.261,249.277 231.506,156.896 152.937,156.896 					"/>
					<path style="fill:#FFFFFF;" d="M218.58,238.13l4.386-69.612c0.137-2.182-1.595-4.026-3.781-4.026H163.4
						c-2,0-3.655,1.554-3.781,3.55l-4.386,69.613c-0.137,2.181,1.595,4.026,3.781,4.026h55.785
						C216.799,241.68,218.454,240.126,218.58,238.13z"/>
				</g>
			</g>
		</g>
	</g>
</g>
<g id="Background_Simple" style="display:none;">
	<g style="display:inline;">
		<g>
			<path style="fill:#407BFF;" d="M432.688,111.028C383.27,26.78,254.866,89.989,214.324,150.88
				c-16.102,24.184-17.044,37.948-44.363,53.55c-19.849,11.336-45.256,5.94-64.701,20.27
				c-42.637,31.421-31.598,84.201-7.621,116.678c24.88,33.7,53.096,43.031,100.594,22.902c20.533-8.702,30.461-27.051,47.257-35.775
				c34.51-17.924,51.259-3.816,83.956-5.442C449.446,317.099,477.572,187.541,432.688,111.028z"/>
		</g>
		<g style="opacity:0.9;">
			<path style="fill:#FFFFFF;" d="M432.688,111.028C383.27,26.78,254.866,89.989,214.324,150.88
				c-16.102,24.184-17.044,37.948-44.363,53.55c-19.849,11.336-45.256,5.94-64.701,20.27
				c-42.637,31.421-31.598,84.201-7.621,116.678c24.88,33.7,53.096,43.031,100.594,22.902c20.533-8.702,30.461-27.051,47.257-35.775
				c34.51-17.924,51.259-3.816,83.956-5.442C449.446,317.099,477.572,187.541,432.688,111.028z"/>
		</g>
	</g>
</g>
<g id="Shadow_1_">
	<ellipse id="_x3C_Path_x3E__85_" style="fill:#F5F5F5;" cx="250" cy="416.238" rx="193.889" ry="11.323"/>
</g>
<g id="Character_1">
	<g>
		<path style="fill:#E0E0E0;" d="M107.737,139.658c-6.141,8.433-10.004,20.924,9.687,22.067l11.869-19.461
			C126.114,133.235,113.014,132.408,107.737,139.658z"/>
		<path style="fill:#407BFF;" d="M116.479,161.865c-0.532,0-1.009-0.373-1.12-0.915c-0.026-0.128-2.437-12.84,12.49-20.204
			c0.567-0.28,1.253-0.047,1.533,0.52c0.28,0.567,0.047,1.253-0.52,1.533c-13.361,6.592-11.283,17.582-11.26,17.693
			c0.127,0.619-0.273,1.224-0.892,1.351C116.632,161.857,116.555,161.865,116.479,161.865z"/>
		<path style="fill:#E0E0E0;" d="M138.534,140.896c6.725-2.003,12.068,2.524,15.977,8.632c5.084,7.944-3.72,13.449-3.72,13.449
			L138.534,140.896z"/>
		<path style="fill:#E0E0E0;" d="M123.102,145.977c-8.498,9.259-12.596,24.394,7.449,31.325c6.628-9.348,8.05-18.119,8.05-18.119
			L123.102,145.977z"/>
		<path style="fill:#7F3E3B;" d="M158.026,249.6c0,0,0,34.533-2.789,81.046c-4.624,45.501-2.441,79.843-2.441,79.843h-7.257
			c0,0-17.474-54.763-11.143-81.432c-7.01-34.21-4.298-78.529-4.298-78.529L158.026,249.6z"/>
		<path style="fill:#407BFF;" d="M163.173,197.199l1.008,1.665l1.084,1.751c0.733,1.167,1.492,2.324,2.271,3.463
			c1.557,2.28,3.158,4.518,4.835,6.653c3.336,4.247,7.025,8.211,10.902,10.859c0.241,0.163,0.484,0.337,0.713,0.466l0.348,0.212
			l0.174,0.108c0.054,0.035,0.16,0.095,0.03,0.03c-0.583-0.252-1.362-0.228-1.65-0.101c-0.282,0.092-0.185,0.163,0.058,0.042
			c0.242-0.112,0.599-0.347,0.976-0.655c0.77-0.616,1.599-1.511,2.434-2.463c0.833-0.959,1.652-2.02,2.448-3.122
			c3.217-4.41,6.189-9.444,9.102-14.335l0.05-0.085c0.943-1.585,2.993-2.104,4.578-1.161c1.304,0.777,1.885,2.307,1.524,3.706
			c-0.779,3.012-1.716,5.844-2.792,8.712c-1.073,2.858-2.292,5.678-3.734,8.493c-1.509,2.806-3.053,5.605-5.701,8.444
			c-0.679,0.711-1.443,1.433-2.419,2.141c-0.973,0.698-2.214,1.429-3.925,1.864c-0.878,0.204-1.852,0.328-2.901,0.253
			c-1.045-0.082-2.085-0.317-3.055-0.751c-0.303-0.128-0.356-0.161-0.464-0.213l-0.311-0.153l-0.622-0.309
			c-0.426-0.204-0.804-0.422-1.191-0.638c-3.112-1.723-5.759-3.81-8.193-5.998c-2.445-2.182-4.618-4.53-6.671-6.932
			c-2.034-2.415-3.934-4.899-5.683-7.473c-0.876-1.286-1.725-2.587-2.55-3.908c-0.411-0.661-0.825-1.324-1.216-2.005
			c-0.402-0.7-0.757-1.329-1.197-2.147c-1.747-3.254-0.525-7.308,2.729-9.054c3.146-1.689,7.04-0.603,8.874,2.412L163.173,197.199z"
			/>
		<path style="fill:#7F3E3B;" d="M209.903,198.956l-1.609-4.191c-0.537-1.399-2.135-2.055-3.44-1.411l0,0
			c-1.974,0.975-3.558,2.592-4.507,4.601l-2.988,6.329l0.624,4.896c4.241,0.754,8.188-4.53,8.188-4.53l3.143-2.979
			C210.039,200.986,210.271,199.913,209.903,198.956z"/>
		<path style="fill:#263238;" d="M151.959,189.694c-9.402-1.57-22.406-2.122-32.548-1.576c-6.9,0.372-11.913,6.443-11.075,13.336
			c2.684,22.077,2.831,25.535,2.259,40.363l48.866,0.953c0.268-15.995,5.063-27.592,2.898-42.54
			C161.583,194.876,157.301,190.586,151.959,189.694z"/>
		<path style="fill:#FFFFFF;" d="M143.093,188.692l-19.163-0.54c0,0,0.902,11.861,18.176,20.982
			C150.283,200.089,143.093,188.692,143.093,188.692z"/>
		<path style="fill:#7F3E3B;" d="M130.558,170.778c-0.614,5.864-3.623,13.781-6.628,17.373c0,0,7.984,12.773,16.826,15.441
			c4.596-4.127,2.337-14.9,2.337-14.9c-2.826-1.891-2.106-5.992-0.335-9.474L130.558,170.778z"/>
		<path style="opacity:0.2;" d="M132.794,172.324c-0.053,1.259,0.042,3.193,0.79,5.174c1.012,2.747,4.6,5.151,7.748,5.883
			c0.221-1.373,0.737-2.816,1.428-4.166L132.794,172.324z"/>
		<path style="fill:#7F3E3B;" d="M124.728,159.963c2.445,10.085,3.266,14.399,9.318,18.861c9.104,6.712,20.875,1.886,21.472-8.633
			c0.538-9.468-3.551-24.369-14.193-26.943C130.842,140.712,122.283,149.878,124.728,159.963z"/>
		<path style="opacity:0.2;" d="M137.861,160.807c0,0-2.336-1.005-4.167-0.038C135.965,161.242,137.861,160.807,137.861,160.807z"/>
		<path style="opacity:0.2;" d="M137.817,161.799c0,0-2.263-0.459-3.637,0.91C136.264,162.659,137.817,161.799,137.817,161.799z"/>
		<path style="fill:#E0E0E0;" d="M146.144,141.247c8.758,7.277-12.087,20.317-19.111,23.751c0,0-6.452,4.197-9.313-5.055
			C114.858,150.69,133.363,130.628,146.144,141.247z"/>
		<path style="fill:#263238;" d="M140.014,160.865c0.148,0.829,0.706,1.435,1.245,1.355c0.539-0.08,0.856-0.817,0.708-1.646
			c-0.148-0.829-0.706-1.435-1.245-1.355C140.182,159.3,139.866,160.037,140.014,160.865z"/>
		<path style="fill:#263238;" d="M150.581,159.329c0.148,0.829,0.706,1.435,1.245,1.355c0.539-0.08,0.856-0.817,0.708-1.646
			c-0.148-0.829-0.706-1.435-1.245-1.355C150.749,157.763,150.433,158.5,150.581,159.329z"/>
		<path style="fill:#263238;" d="M151.059,157.764l1.878-0.869C152.937,156.896,152.199,158.602,151.059,157.764z"/>
		<path style="fill:#630F0F;" d="M147.129,161.268c0,0,2.039,3.359,3.888,4.851c-0.906,1.183-2.841,0.992-2.841,0.992
			L147.129,161.268z"/>
		<path style="fill:#FFFFFF;" d="M137.864,164.726c-0.242,0-0.48-0.084-0.683-0.243c-0.318-0.25-0.522-0.658-0.559-1.118
			l-0.212-2.655c-0.012-0.152,0.101-0.286,0.254-0.298c0.156-0.012,0.286,0.102,0.298,0.254l0.212,2.655
			c0.024,0.303,0.155,0.575,0.349,0.728c0.09,0.07,0.235,0.149,0.42,0.119l5.894-0.942c0.399-0.064,0.699-0.576,0.656-1.118
			l-0.212-2.655c-0.07-0.891,2.936-1.14,2.967-1.142c0.384-0.031,0.713-0.029,0.951,0.004c0.392,0.054,0.6,0.208,0.62,0.457
			l0.212,2.655c0.024,0.303,0.155,0.575,0.349,0.727c0.09,0.07,0.236,0.148,0.42,0.119l5.894-0.942
			c0.399-0.064,0.699-0.575,0.656-1.118l-0.212-2.655c-0.012-0.152,0.101-0.286,0.254-0.298c0.155-0.013,0.286,0.102,0.298,0.254
			l0.212,2.655c0.066,0.833-0.436,1.599-1.12,1.708l-5.894,0.942c-0.298,0.047-0.6-0.034-0.849-0.23
			c-0.318-0.25-0.522-0.658-0.559-1.118l-0.206-2.581c-0.509-0.219-3.07,0.204-3.436,0.572l0.208,2.602
			c0.066,0.833-0.436,1.599-1.12,1.708l-5.894,0.942C137.975,164.722,137.919,164.726,137.864,164.726z"/>
		<path style="fill:#263238;" d="M145.706,170.566c0.441,0.012,0.91-0.013,1.405-0.086c0.134-0.02,0.222-0.145,0.199-0.28
			c-0.024-0.134-0.148-0.226-0.286-0.207c-3.617,0.541-5.766-1.749-5.787-1.772c-0.093-0.102-0.249-0.112-0.348-0.022
			c-0.099,0.09-0.104,0.246-0.011,0.347C140.959,168.636,142.688,170.481,145.706,170.566z"/>
		<path style="fill:#7F3E3B;" d="M122.784,166.345c0.919,1.954,2.646,3.33,4.314,3.942c2.508,0.92,3.902-1.238,3.322-3.685
			c-0.522-2.203-2.456-5.336-5.03-5.205C122.854,161.525,121.733,164.111,122.784,166.345z"/>
		<path style="fill:#E0E0E0;" d="M136.979,156.016c0.128-0.021,0.246-0.092,0.322-0.208c1.184-1.808,2.999-1.793,3.02-1.793
			c0.269,0.003,0.491-0.21,0.488-0.481c-0.003-0.271-0.226-0.494-0.499-0.5c-0.095-0.001-2.374-0.022-3.843,2.223
			c-0.146,0.224-0.079,0.529,0.151,0.681C136.73,156.011,136.859,156.036,136.979,156.016z"/>
		<path style="fill:#E0E0E0;" d="M153.624,154.018c0.12-0.013,0.235-0.072,0.316-0.173c0.168-0.21,0.132-0.522-0.079-0.698
			c-2.118-1.762-4.268-1.126-4.359-1.098c-0.256,0.08-0.395,0.356-0.309,0.617c0.085,0.261,0.362,0.409,0.617,0.331
			c0.084-0.026,1.758-0.495,3.442,0.907C153.362,153.995,153.496,154.032,153.624,154.018z"/>
		<path style="fill:#263238;" d="M140.492,159.301l1.878-0.869C142.37,158.432,141.632,160.138,140.492,159.301z"/>
		<path style="fill:#7F3E3B;" d="M139.879,250.124c0,0-5.579,35.226-13.404,81.34c-11.847,45.632-13.656,79.024-13.656,79.024
			h-7.257c0,0-10.17-53.874,0.384-80.62c-1.549-34.31,5.937-78.818,5.937-78.818L139.879,250.124z"/>
		<path style="fill:#263238;" d="M113.412,408.821l-8.522,0.11c-0.262,0.004-0.457,0.19-0.469,0.447l-0.28,5.723
			c-0.029,0.593,0.516,1.147,1.118,1.127c2.514-0.082,3.069-0.153,6.238-0.203c3.706-0.058,4.674,0.272,9.02,0.204
			c2.628-0.041,2.897-2.716,1.756-2.94c-5.197-1.019-4.838-2.264-7.232-3.992C114.56,408.95,113.964,408.813,113.412,408.821z"/>
		<path style="fill:#263238;" d="M152.972,408.821l-8.509,0.11c-0.261,0.004-0.435,0.19-0.417,0.447l0.384,5.723
			c0.04,0.593,0.649,1.147,1.249,1.127c2.505-0.082,3.051-0.153,6.214-0.203c3.699-0.058,6.448,0.272,10.786,0.204
			c2.623-0.041,2.582-2.716,1.415-2.94c-5.315-1.019-4.347-1.385-9.438-3.992C154.102,409.014,153.524,408.813,152.972,408.821z"/>
		<g>
			<path style="fill:#407BFF;" d="M159.461,242.77c9.178,26.424-0.297,46.88-2.704,97.517c-18.193,2.756-38.955,2.588-55.86-1.542
				c10.318-58.119-0.21-72.346,9.698-96.928L159.461,242.77z"/>
			<path style="opacity:0.5;fill:#FFFFFF;" d="M159.461,242.77c9.178,26.424-0.297,46.88-2.704,97.517
				c-18.193,2.756-38.955,2.588-55.86-1.542c10.318-58.119-0.21-72.346,9.698-96.928L159.461,242.77z"/>
		</g>
		<polygon style="opacity:0.2;" points="136.268,306.756 137.022,281.237 145.453,269.111 		"/>
		<path style="fill:#407BFF;" d="M122.785,188.459c-0.335-0.833-1.158-1.346-2.042-1.29c-9.443,0.604-16.375,7.686-16.155,18.749
			c0.231,11.573,1.844,39.044,0.072,47.565c8.547,4.96,22.72,2.544,22.72,2.544S127.241,199.544,122.785,188.459z"/>
		<path style="fill:#407BFF;" d="M119.235,201.258c-3.154,3.903-6.453,8.026-9.43,12.097c-1.503,2.038-2.924,4.107-4.215,6.136
			c-0.646,1.017-1.233,2.03-1.744,3.006c-0.513,0.966-0.967,1.921-1.226,2.658c-0.43,0.925-0.513,3.068-0.246,5.248
			c0.283,2.214,0.781,4.605,1.45,6.997c1.289,4.797,3.112,9.757,4.91,14.553l0.045,0.121c0.648,1.729-0.228,3.655-1.956,4.303
			c-1.395,0.523-2.921,0.049-3.798-1.06c-1.785-2.262-3.301-4.52-4.771-6.915c-1.456-2.385-2.796-4.857-4.006-7.461
			c-1.183-2.613-2.272-5.339-3.027-8.365c-0.381-1.51-0.694-3.11-0.827-4.852c-0.063-0.872-0.087-1.778-0.032-2.743
			c0.004-0.447,0.091-1.029,0.163-1.56c0.076-0.548,0.189-0.979,0.291-1.474c0.449-1.84,1.026-3.359,1.646-4.809
			c0.629-1.437,1.297-2.784,1.995-4.073c1.382-2.594,2.897-4.992,4.454-7.328c1.563-2.332,3.192-4.579,4.879-6.77
			c1.701-2.207,3.395-4.293,5.311-6.447c2.456-2.76,6.684-3.006,9.444-0.551c2.676,2.381,2.99,6.429,0.767,9.189L119.235,201.258z"
			/>
		<path style="fill:#7F3E3B;" d="M106.408,250.244l9.627,3.722l-9.329,4.919c0,0-2.451-1.538-4.067-3.792
			c-1.288-1.797-0.391-4.334,1.735-4.942l0,0C105.044,249.961,105.758,249.993,106.408,250.244z"/>
		<path style="fill:#7F3E3B;" d="M117.826,260.608l-3.971,2.934c-1.006,0.743-2.446,0.587-3.293-0.358l-3.856-4.3l9.329-4.919
			l2.315,4.216C118.81,259.019,118.588,260.046,117.826,260.608z"/>
		<path style="fill:#407BFF;" d="M145.38,189.326c-0.381-0.484-0.024-1.161,0.584-1.129c9.504,0.501,18.527,5.188,18.984,16.1
			c0.485,11.573,1.261,40.634,0.783,49.981c-3.453,4.165-13.057,1.749-13.057,1.749S154.71,201.174,145.38,189.326z"/>
	</g>
</g>
<g id="Character_2">
	<g>
		<g>
			<g>
				<path style="fill:#B55B52;" d="M338.139,106.273c0.487,2.444,1.814,4.372,3.225,5.4c2.122,1.547,3.782-0.691,3.694-3.644
					c-0.08-2.657-1.28-6.665-3.651-7.004C339.071,100.692,337.582,103.479,338.139,106.273z"/>
				<path style="opacity:0.2;" d="M338.139,106.273c0.487,2.444,1.814,4.372,3.225,5.4c2.122,1.547,3.782-0.691,3.694-3.644
					c-0.08-2.657-1.28-6.665-3.651-7.004C339.071,100.692,337.582,103.479,338.139,106.273z"/>
			</g>
			<polygon style="fill:#B55B52;" points="363.969,408.332 354.516,408.184 352.59,386.248 362.043,386.396 			"/>
			<path style="fill:#263238;" d="M353.97,405.323l10.328,0.162c0.387,0.006,0.721,0.28,0.805,0.658l1.865,8.434
				c0.193,0.874-0.469,1.69-1.361,1.661c-3.726-0.122-9.109-0.424-13.792-0.498c-5.475-0.086-4.918,0.139-11.339,0.038
				c-3.883-0.061-4.959-4.002-3.333-4.332c7.399-1.502,8.154-1.581,14.549-5.422C352.386,405.606,353.154,405.31,353.97,405.323z"/>
			<polygon style="opacity:0.2;" points="352.592,386.254 353.583,397.561 363.041,397.709 362.05,386.402 			"/>
			<g>
				<path style="fill:#407BFF;" d="M352.353,406.165c0.076-0.026,0.127-0.094,0.131-0.178c0.004-0.094-0.053-0.187-0.142-0.232
					c-0.452-0.229-4.449-2.215-5.537-1.593c-0.21,0.12-0.318,0.324-0.312,0.59v0c0.01,0.446,0.187,0.814,0.527,1.096
					c1.129,0.934,3.807,0.604,5.303,0.325C352.335,406.171,352.344,406.168,352.353,406.165z M347.141,404.522
					c0.69-0.236,2.832,0.582,4.404,1.321c-2.057,0.314-3.625,0.199-4.259-0.325c-0.223-0.184-0.335-0.421-0.341-0.724
					c-0.003-0.117,0.033-0.188,0.118-0.237C347.086,404.543,347.112,404.531,347.141,404.522z"/>
				<path style="fill:#407BFF;" d="M352.353,406.165c0.02-0.007,0.038-0.016,0.055-0.029c0.06-0.045,0.088-0.122,0.073-0.202
					c-0.021-0.108-0.526-2.659-1.828-3.665c-0.397-0.307-0.828-0.443-1.282-0.404l0,0c-0.611,0.053-0.758,0.362-0.774,0.613
					c-0.068,1.067,2.397,3.147,3.591,3.677C352.243,406.18,352.302,406.183,352.353,406.165z M349.235,402.355
					c0.056-0.019,0.129-0.034,0.225-0.043l0,0c0.336-0.029,0.644,0.069,0.942,0.299c0.856,0.661,1.342,2.19,1.537,2.935
					c-1.236-0.718-2.933-2.349-2.892-2.989C349.049,402.517,349.056,402.416,349.235,402.355z M349.415,402.089l-0.005,0.002
					L349.415,402.089z"/>
			</g>
			<g>
				<path style="fill:#263238;" d="M363.016,304.539c8.432-48.268,18.565-60.738,12.684-84.681l-33.308,0.398
					c0,0-9.471,57.184-4.854,85.497c4.797,29.438,12.624,85,12.624,85l15.233,0.217C365.394,390.97,370.811,337.421,363.016,304.539
					z"/>
				<path style="opacity:0.1;fill:#FFFFFF;" d="M363.016,304.539c8.432-48.268,18.565-60.738,12.684-84.681l-33.308,0.398
					c0,0-9.471,57.184-4.854,85.497c4.797,29.438,12.624,85,12.624,85l15.233,0.217C365.394,390.97,370.811,337.421,363.016,304.539
					z"/>
			</g>
			<polygon style="fill:#263238;" points="347.62,387.371 349.305,393.895 366.069,394.194 366.345,388.03 			"/>
			<polygon style="fill:#B55B52;" points="414.68,408.332 405.211,408.184 401.01,386.248 410.478,386.396 			"/>
			<path style="fill:#263238;" d="M404.392,405.323l10.318,0.162c0.386,0.006,0.703,0.28,0.762,0.658l1.313,8.434
				c0.136,0.874-0.579,1.69-1.47,1.661c-3.718-0.122-4.9-0.424-9.578-0.498c-5.47-0.086-2.936,0.139-9.351,0.038
				c-3.879-0.061-4.693-3.984-3.05-4.332c5.198-1.1,6.473-3.191,8.732-5.422C402.659,405.439,403.577,405.31,404.392,405.323z"/>
			<polygon style="opacity:0.2;" points="401.013,386.254 403.176,397.561 412.649,397.709 410.485,386.402 			"/>
			<g>
				<path style="fill:#407BFF;" d="M406.296,406.038c0.083,0.003,0.16-0.041,0.198-0.115c0.042-0.083,0.026-0.187-0.041-0.258
					c-0.339-0.361-3.353-3.521-4.646-3.335c-0.25,0.036-0.436,0.183-0.538,0.424c0,0,0,0,0,0c-0.172,0.404-0.152,0.797,0.058,1.167
					c0.699,1.228,3.394,1.851,4.939,2.113C406.275,406.037,406.285,406.038,406.296,406.038z M401.98,402.77
					c0.755,0.025,2.47,1.496,3.673,2.701c-2.095-0.424-3.547-1.065-3.94-1.755c-0.138-0.243-0.148-0.494-0.032-0.769
					c0.045-0.106,0.108-0.158,0.209-0.172C401.919,402.77,401.949,402.769,401.98,402.77z"/>
				<path style="fill:#407BFF;" d="M406.295,406.038c0.021,0.001,0.043-0.002,0.064-0.007c0.076-0.02,0.134-0.08,0.152-0.157
					c0.024-0.104,0.578-2.573-0.257-3.926c-0.255-0.413-0.612-0.683-1.061-0.803l0,0c-0.605-0.162-0.872,0.066-0.99,0.286
					c-0.499,0.936,1.012,3.655,1.938,4.541C406.184,406.013,406.239,406.037,406.295,406.038z M404.864,401.539
					c0.062,0.002,0.138,0.013,0.232,0.039l0,0c0.333,0.089,0.588,0.283,0.779,0.592c0.549,0.889,0.393,2.431,0.275,3.169
					c-0.889-1.07-1.849-3.121-1.549-3.683C404.62,401.621,404.667,401.533,404.864,401.539z M405.144,401.362l-0.006,0
					L405.144,401.362z"/>
			</g>
			<g>
				<path style="fill:#263238;" d="M396.99,304.539c2.803-48.268,8.255-61.274-0.418-85.217l-34.709,0.933
					c0,0,1.872,57.184,9.79,85.497c8.229,29.438,26.806,85,26.806,85l15.258,0.217C413.716,390.97,408.62,337.421,396.99,304.539z"
					/>
				<path style="opacity:0.2;fill:#FFFFFF;" d="M396.99,304.539c2.803-48.268,8.255-61.274-0.418-85.217l-34.709,0.933
					c0,0,1.872,57.184,9.79,85.497c8.229,29.438,26.806,85,26.806,85l15.258,0.217C413.716,390.97,408.62,337.421,396.99,304.539z"
					/>
			</g>
			<polygon style="fill:#263238;" points="396.068,387.371 397.387,393.895 414.496,394.194 415.158,388.03 			"/>
			<path style="fill:#B55B52;" d="M344.272,148.245c-2.391,2.538-4.825,4.863-7.281,7.252c-2.47,2.354-4.98,4.675-7.573,6.928
				c-2.578,2.269-5.211,4.49-7.972,6.641c-2.756,2.17-5.573,4.259-8.783,6.257l-0.349,0.217c-0.092,0.057-0.188,0.109-0.283,0.154
				c-2.342,1.107-4.577,1.496-6.573,1.593c-2.003,0.09-3.828-0.074-5.552-0.34c-3.442-0.54-6.503-1.552-9.443-2.664
				c-2.925-1.15-5.701-2.464-8.381-3.913c-2.689-1.471-5.227-2.989-7.785-4.813c-1.609-1.147-1.983-3.38-0.836-4.989
				c0.937-1.315,2.601-1.805,4.056-1.314l0.145,0.05c2.586,0.875,5.324,1.798,7.985,2.587c2.676,0.797,5.345,1.526,7.974,2.079
				c2.612,0.577,5.22,0.954,7.557,1.04c1.163,0.04,2.254-0.021,3.146-0.186c0.889-0.166,1.542-0.424,1.794-0.64l-0.632,0.371
				c2.365-1.751,4.789-3.872,7.196-5.989c2.401-2.143,4.79-4.379,7.173-6.633l7.12-6.848l7.068-6.88l0.012-0.012
				c2.837-2.761,7.376-2.7,10.137,0.137C346.877,141.087,346.882,145.467,344.272,148.245z"/>
			<path style="fill:#B55B52;" d="M279.559,160.611l-7.621-7.403L268,163.987c0,0,6.494,6.194,10.447,2.349L279.559,160.611z"/>
			<path style="fill:#B55B52;" d="M264.703,153.562l-2.276,4.18c-0.813,1.492-0.224,3.361,1.298,4.118l4.275,2.127l3.938-10.779
				l-3.768-1.092C266.818,151.724,265.376,152.326,264.703,153.562z"/>
			<g>
				<path style="fill:#407BFF;" d="M346.792,129.391c-10.793,1.515-21.417,15.91-21.417,15.91l7.962,22.32
					c0,0,9.012-4.767,13.532-12.41C348.46,152.522,357.755,127.852,346.792,129.391z"/>
			</g>
			<path style="fill:#407BFF;" d="M346.792,129.391c10.035-2.131,20.668-2.515,31.729-1.652c5.896,0.46,10.827,4.625,12.177,10.383
				c3.129,13.351,8.49,39.704,6.639,81.735c-4.832,2.023-19.472,3.2-31.173,3.383c-1.272,0.02-4.628-2.675-4.628-2.675
				s-2.572,2.665-4.197,2.612c-7.785-0.25-14.039-1.043-15.586-2.436c-2.163-8.85-3.75-35.223-0.598-44.104
				c-0.806-10.265-3.831-21.628-4.96-32.619C335.488,137.145,340.032,130.827,346.792,129.391z"/>
			<path style="fill:#B55B52;" d="M364.211,110.587c0.944,7.035,2.375,15.192,7.345,19.182c-1.857,4.862-6.506,9.216-13.353,9.573
				c-7.526,0.393-6.366-5.618-5.121-8.8c3.197-3.588,1.66-7.581,0.854-10.419L364.211,110.587z"/>
			<path style="opacity:0.2;" d="M362.128,114.024c-0.047-0.448-0.118-0.895-0.189-1.331l-7.999,7.434
				c0.483,1.696,1.225,3.817,1.06,6.008C358.97,123.473,362.611,118.289,362.128,114.024z"/>
			<path style="fill:#263238;" d="M344.003,107.423c4.235,2.85,6.507,2.879,6.507,2.879s-2.91-5.792-1.444-8.268
				c1.467-2.476,4.457-3.371,5.444-6.634c0.987-3.262-0.191-7.159-5.509-6.693c-5.318,0.465-7.545,2.741-8.3,7.415
				c-0.357,2.208,0.095,6.978,0.095,6.978S341.451,105.706,344.003,107.423z"/>
			<path style="fill:#B55B52;" d="M366.844,100.364c-1.185,9.299-1.405,14.806-6.44,19.25c-7.573,6.684-18.832,1.548-20.453-7.943
				c-1.459-8.543,0.724-22.314,10.117-25.351C359.322,83.328,368.029,91.065,366.844,100.364z"/>
			<path style="fill:#263238;" d="M346.366,112.856c-0.496-0.015-1.022-0.073-1.577-0.188c-0.15-0.031-0.246-0.178-0.215-0.328
				c0.031-0.149,0.174-0.245,0.328-0.215c4.05,0.843,6.534-1.598,6.558-1.622c0.108-0.109,0.284-0.11,0.392-0.002
				c0.109,0.108,0.11,0.284,0.002,0.392C351.759,110.989,349.761,112.955,346.366,112.856z"/>
			<path style="fill:#263238;" d="M364.366,109.229c-4.982,1.113-7.109,0.313-7.109,0.313s4.819-4.335,4.354-7.175
				c-0.465-2.84-2.924-4.763-2.655-8.16c0.268-3.398,2.951-5.812,7.735-3.443c4.784,2.37,5.884,7.151,4.864,9.142
				c-1.019,1.991-2.629,6.465-2.629,6.465S367.368,108.559,364.366,109.229z"/>
			<path style="fill:#263238;" d="M361.889,91.722c-0.203,0-0.395-0.125-0.469-0.327c-0.342-0.927-1.805-1.906-3.914-2.619
				c-3.448-1.166-8.465-1.546-10.973,0.045c-0.233,0.148-0.542,0.079-0.69-0.154c-0.148-0.233-0.079-0.542,0.154-0.69
				c2.8-1.776,8.07-1.419,11.829-0.148c1.427,0.483,3.913,1.543,4.532,3.22c0.096,0.259-0.037,0.547-0.296,0.642
				C362.005,91.712,361.947,91.722,361.889,91.722z"/>
			<path style="fill:#263238;" d="M365.237,91.278c-0.192,0-0.376-0.112-0.458-0.299c-0.801-1.821-3.045-3.566-5.857-4.553
				c-3.222-1.131-6.539-1.078-8.873,0.142c-0.245,0.128-0.547,0.033-0.675-0.212c-0.128-0.245-0.033-0.547,0.212-0.675
				c2.575-1.346,6.189-1.421,9.667-0.2c3.111,1.092,5.52,2.997,6.441,5.094c0.111,0.253-0.004,0.548-0.257,0.659
				C365.373,91.264,365.304,91.278,365.237,91.278z"/>
			<path style="opacity:0.2;" d="M354.308,101.581c0,0,2.094-1.083,3.894-0.294C356.121,101.869,354.308,101.581,354.308,101.581z"
				/>
			<path style="opacity:0.2;" d="M354.44,102.503c0,0,2.074-0.569,3.485,0.623C355.971,103.21,354.44,102.503,354.44,102.503z"/>
			<path style="fill:#B55B52;" d="M371.129,109.123c-1.182,2.225-3.288,3.69-5.287,4.254c-3.007,0.849-4.546-1.838-3.74-4.68
				c0.725-2.558,3.163-6.083,6.195-5.682C371.284,103.411,372.48,106.579,371.129,109.123z"/>
			<path style="fill:#263238;" d="M351.952,102.234c-0.05,0.761-0.493,1.347-0.991,1.31c-0.497-0.037-0.86-0.684-0.811-1.444
				c0.05-0.761,0.493-1.347,0.991-1.31C351.638,100.827,352.001,101.473,351.952,102.234z"/>
			<path style="fill:#263238;" d="M342.443,101.822c-0.05,0.761-0.493,1.347-0.991,1.31c-0.497-0.037-0.861-0.684-0.811-1.444
				c0.05-0.761,0.493-1.347,0.991-1.31C342.13,100.414,342.493,101.061,342.443,101.822z"/>
			<path style="fill:#A02724;" d="M345.204,102.789c0,0-2.275,4.128-4.436,5.975c1.179,1.431,3.526,1.171,3.526,1.171
				L345.204,102.789z"/>
			<path style="fill:#263238;" d="M353.737,99.266c0.075-0.006,0.15-0.035,0.217-0.091c0.208-0.172,0.266-0.529,0.129-0.796
				c-1.375-2.674-3.462-2.716-3.55-2.716c-0.25-0.002-0.451,0.255-0.45,0.573c0.001,0.317,0.203,0.575,0.452,0.578l0,0
				c0.069,0.001,1.695,0.056,2.793,2.19C353.421,99.184,353.58,99.277,353.737,99.266z"/>
			<path style="fill:#263238;" d="M339.819,98.991c0.146-0.012,0.284-0.114,0.361-0.288c0.978-2.201,2.601-2.364,2.669-2.37
				c0.248-0.021,0.436-0.294,0.418-0.609c-0.018-0.316-0.231-0.556-0.48-0.538c-0.09,0.009-2.171,0.188-3.397,2.946
				c-0.122,0.275-0.045,0.627,0.173,0.785C339.645,98.975,339.733,98.998,339.819,98.991z"/>
			<g>
				<path style="fill:#B55B52;" d="M391.121,137.455c0.951,1.868,1.735,3.535,2.515,5.323c0.775,1.76,1.521,3.529,2.242,5.31
					c1.423,3.567,2.723,7.194,3.859,10.896c0.566,1.853,1.102,3.722,1.603,5.608c0.477,1.896,0.919,3.808,1.314,5.743
					c0.79,3.874,1.335,7.857,1.516,11.988l0.018,0.417c0.037,0.836-0.128,1.66-0.433,2.383c-0.875,2.05-2.002,3.632-3.174,4.954
					c-1.176,1.323-2.394,2.416-3.618,3.402c-2.45,1.955-4.981,3.426-7.507,4.749c-2.543,1.295-5.105,2.396-7.703,3.35
					c-2.62,0.947-5.175,1.763-7.966,2.408c-1.928,0.445-3.852-0.756-4.297-2.684c-0.355-1.538,0.337-3.074,1.611-3.858l0.146-0.088
					c2.096-1.287,4.332-2.644,6.425-4.02c2.11-1.381,4.172-2.79,6.093-4.269c1.936-1.449,3.722-3.009,5.206-4.543
					c1.457-1.502,2.557-3.208,2.707-4.049l-0.414,2.8c-0.384-3.24-1.094-6.558-1.943-9.886c-0.881-3.326-1.927-6.66-3.075-9.982
					c-1.176-3.315-2.422-6.629-3.768-9.912c-0.662-1.645-1.349-3.282-2.058-4.905l-1.078-2.418l-1.051-2.321l-0.085-0.187
					c-1.632-3.605-0.033-7.851,3.572-9.483C385.278,132.592,389.391,134.069,391.121,137.455z"/>
				<g>
					<path style="fill:#407BFF;" d="M379.709,127.886c15.73,1.716,20.514,23.286,20.514,23.286l-14.917,14.638
						c0,0-6.583-7.284-11.343-16.433C370.25,142.24,368.704,126.686,379.709,127.886z"/>
				</g>
			</g>
			<path style="fill:#FFFFFF;" d="M368.916,126.284c0.225,2.16-2.356,9.805-11.388,13.076c3.485,0.031,7.241,3.933,7.241,3.933
				s9.749-7.307,8.325-15.014C372.661,126.252,368.916,126.284,368.916,126.284z"/>
			<path style="fill:#FFFFFF;" d="M354.729,126.873c0.221,2.111-2.225,6.545,2.798,12.487c-3.485,0.031-6.917,2.88-6.917,2.88
				s-3.294-5.991,0.353-13.63C352.831,126.988,354.729,126.873,354.729,126.873z"/>
		</g>
		<g>
			<g>
				<path style="fill:#263238;" d="M362.677,158.7l-90.485,1.911l-89.443-13.83c-2.768-0.428-5.163,1.482-5.347,4.267
					l-7.607,114.843c-0.185,2.785,1.911,5.389,4.679,5.817l89.443,13.83l90.485-1.911c2.801-0.06,5.221-2.365,5.406-5.15
					l7.607-114.843C367.599,160.85,365.478,158.641,362.677,158.7z"/>
				<path style="fill:#FFFFFF;" d="M355.69,160.693l-83.565,1.765l-82.602-12.772c-2.769-0.428-5.163,1.482-5.347,4.267
					l-7.158,108.057c-0.185,2.785,1.91,5.389,4.679,5.817l82.602,12.772l83.565-1.765c2.801-0.059,5.221-2.364,5.405-5.149
					l7.158-108.057C360.611,162.843,358.49,160.634,355.69,160.693z"/>
				<g>
					<polygon style="fill:#E0E0E0;" points="264.848,180.449 189.281,168.764 189.518,165.192 265.084,176.876 					"/>
					<polygon style="fill:#E0E0E0;" points="263.922,194.427 188.355,182.742 188.592,179.17 264.158,190.855 					"/>
					<polygon style="fill:#E0E0E0;" points="262.996,208.405 187.429,196.721 187.666,193.148 263.232,204.833 					"/>
					<polygon style="fill:#E0E0E0;" points="262.07,222.383 186.503,210.699 186.74,207.127 262.306,218.811 					"/>
					<polygon style="fill:#E0E0E0;" points="212.987,230.486 185.419,226.223 185.656,222.651 213.224,226.913 					"/>
					<polygon style="fill:#E0E0E0;" points="212.061,244.464 184.493,240.201 184.73,236.629 212.298,240.892 					"/>
					<polygon style="fill:#E0E0E0;" points="211.135,258.442 183.567,254.179 183.804,250.607 211.372,254.87 					"/>
				</g>
				<path style="fill:#407BFF;" d="M256.525,263.89l-36.027-5.571c-1.528-0.236-2.685-1.674-2.583-3.211l1.72-25.962
					c0.102-1.537,1.423-2.592,2.952-2.355l36.027,5.571c1.528,0.236,2.685,1.674,2.583,3.211l-1.72,25.962
					C259.375,263.072,258.053,264.127,256.525,263.89z"/>
				<g>
					<polygon style="fill:#E0E0E0;" points="271.647,261.549 348.094,259.934 347.858,263.506 271.41,265.121 					"/>
					<polygon style="fill:#E0E0E0;" points="272.573,247.57 349.02,245.956 348.784,249.528 272.336,251.143 					"/>
					<polygon style="fill:#E0E0E0;" points="273.499,233.592 349.946,231.977 349.71,235.549 273.262,237.164 					"/>
					<polygon style="fill:#E0E0E0;" points="274.425,219.614 350.872,217.999 350.636,221.571 274.188,223.186 					"/>
					<polygon style="fill:#E0E0E0;" points="313.574,204.828 275.35,205.636 275.114,209.208 313.338,208.4 					"/>
					<polygon style="fill:#E0E0E0;" points="314.5,190.85 276.276,191.658 276.04,195.23 314.264,194.422 					"/>
					<polygon style="fill:#E0E0E0;" points="353.65,176.064 277.202,177.679 276.966,181.251 353.413,179.637 					"/>
				</g>
				<path style="fill:#407BFF;" d="M350.635,190.087l-27.534,0.582c-1.153,0.024-2.15,0.974-2.226,2.121l-0.887,13.397
					c-0.076,1.147,0.797,2.057,1.951,2.032l27.534-0.582c1.154-0.024,2.15-0.974,2.226-2.121l0.887-13.397
					C352.663,190.972,351.789,190.062,350.635,190.087z"/>
			</g>
			<g>
				<path style="fill:#B55B52;" d="M376.429,196.554l-9.559-0.426l2.722,11.149c0,0,8.703-0.665,9.096-5.346L376.429,196.554z"/>
				<path style="fill:#B55B52;" d="M359.484,202.779l1.613,3.746c0.642,1.492,2.27,2.299,3.846,1.907l4.65-1.156l-2.722-11.149
					l-5.587,2.267C359.56,199.094,358.749,201.072,359.484,202.779z"/>
			</g>
		</g>
	</g>
</g>
</svg>
