<?xml version="1.0" encoding="UTF-8" standalone="no" ?>
<!DOCTYPE svg PUBLIC "-//W3C//DTD SVG 1.1//EN" "http://www.w3.org/Graphics/SVG/1.1/DTD/svg11.dtd">
<svg xmlns="http://www.w3.org/2000/svg" xmlns:xlink="http://www.w3.org/1999/xlink" version="1.1" width="1280" height="1024" viewBox="0 0 1280 1024" xml:space="preserve">
<desc>Created with Fabric.js 5.3.0</desc>
<defs>
</defs>
<g transform="matrix(1 0 0 1 640 512)" id="background-logo"  >
<rect style="stroke: none; stroke-width: 0; stroke-dasharray: none; stroke-linecap: butt; stroke-dashoffset: 0; stroke-linejoin: miter; stroke-miterlimit: 4; fill: rgb(255,255,255); fill-opacity: 0; fill-rule: nonzero; opacity: 1;"  paint-order="stroke"  x="-640" y="-512" rx="0" ry="0" width="1280" height="1024" />
</g>
<g transform="matrix(0.9846868382272156 0 0 0.9846868382272156 640 544.855720047686)" id="logo-logo"  >
<g style=""  paint-order="stroke"   >
		<g transform="matrix(1.0576801530245927 0 0 -1.0576801530245927 0 -44.59285423063332)"  >
<linearGradient id="SVGID_105_142373" gradientUnits="userSpaceOnUse" gradientTransform="matrix(0 -149.29649 -149.29649 0 162.5 194)"  x1="0" y1="0" x2="1" y2="0">
<stop offset="0%" style="stop-color:rgb(196,238,128);stop-opacity: 1"/>
<stop offset="0.000019999999999999998%" style="stop-color:rgb(196,238,128);stop-opacity: 1"/>
<stop offset="100%" style="stop-color:rgb(6,147,128);stop-opacity: 1"/>
</linearGradient>
<path style="stroke: none; stroke-width: 1; stroke-dasharray: none; stroke-linecap: butt; stroke-dashoffset: 0; stroke-linejoin: miter; stroke-miterlimit: 4; fill: url(#SVGID_105_142373); fill-rule: nonzero; opacity: 1;"  paint-order="stroke"  transform=" translate(-162.5, -172.28549999999998)" d="M 162.498 194.35 L 184.56099999999998 172.28799999999998 L 162.498 150.231 L 140.438 172.28799999999998 z M 205.874 172.28799999999998 L 162.498 215.65599999999998 L 119.12599999999999 172.28799999999998 L 162.498 128.915 z" stroke-linecap="round" />
</g>
		<g transform="matrix(1.0576801530245927 0 0 -1.0576801530245927 -57.11472969119626 59.32422340195984)"  >
<linearGradient id="SVGID_106_142374" gradientUnits="userSpaceOnUse" gradientTransform="matrix(0 -149.29649 -149.29649 0 108.58447 194)"  x1="0" y1="0" x2="1" y2="0">
<stop offset="0%" style="stop-color:rgb(196,238,128);stop-opacity: 1"/>
<stop offset="0.000019999999999999998%" style="stop-color:rgb(196,238,128);stop-opacity: 1"/>
<stop offset="100%" style="stop-color:rgb(6,147,128);stop-opacity: 1"/>
</linearGradient>
<path style="stroke: none; stroke-width: 1; stroke-dasharray: none; stroke-linecap: butt; stroke-dashoffset: 0; stroke-linejoin: miter; stroke-miterlimit: 4; fill: url(#SVGID_106_142374); fill-rule: nonzero; opacity: 1;"  paint-order="stroke"  transform=" translate(-108.58449999999999, -73.78649999999999)" d="M 130.663 59.051 L 108.58500000000001 59.051 L 86.50500000000001 59.051 L 86.50500000000001 103.229 L 71.088 87.809 L 71.088 47.233999999999995 L 71.088 44.343999999999994 L 86.505 44.343999999999994 L 108.585 44.343999999999994 L 130.66299999999998 44.343999999999994 L 146.081 44.343999999999994 L 146.081 47.233999999999995 L 146.081 87.809 L 130.66299999999998 103.229 z" stroke-linecap="round" />
</g>
		<g transform="matrix(1.0576801530245927 0 0 -1.0576801530245927 57.11472969119626 59.32422340195984)"  >
<linearGradient id="SVGID_107_142375" gradientUnits="userSpaceOnUse" gradientTransform="matrix(0 -149.29649 -149.29649 0 216.41553 194)"  x1="0" y1="0" x2="1" y2="0">
<stop offset="0%" style="stop-color:rgb(196,238,128);stop-opacity: 1"/>
<stop offset="0.000019999999999999998%" style="stop-color:rgb(196,238,128);stop-opacity: 1"/>
<stop offset="100%" style="stop-color:rgb(6,147,128);stop-opacity: 1"/>
</linearGradient>
<path style="stroke: none; stroke-width: 1; stroke-dasharray: none; stroke-linecap: butt; stroke-dashoffset: 0; stroke-linejoin: miter; stroke-miterlimit: 4; fill: url(#SVGID_107_142375); fill-rule: nonzero; opacity: 1;"  paint-order="stroke"  transform=" translate(-216.41549999999998, -73.78649999999999)" d="M 238.491 59.051 L 216.41400000000002 59.051 L 194.336 59.051 L 194.336 103.229 L 178.92 87.809 L 178.92 47.233999999999995 L 178.92 44.343999999999994 L 194.33599999999998 44.343999999999994 L 216.414 44.343999999999994 L 238.49099999999999 44.343999999999994 L 253.91099999999997 44.343999999999994 L 253.91099999999997 47.233999999999995 L 253.91099999999997 87.809 L 238.49099999999999 103.229 z" stroke-linecap="round" />
</g>
		<g transform="matrix(1.0576801530245927 0 0 -1.0576801530245927 0 6.175794383763332)"  >
<linearGradient id="SVGID_108_142376" gradientUnits="userSpaceOnUse" gradientTransform="matrix(0 -149.29649 -149.29649 0 162.5 194)"  x1="0" y1="0" x2="1" y2="0">
<stop offset="0%" style="stop-color:rgb(196,238,128);stop-opacity: 1"/>
<stop offset="0.000019999999999999998%" style="stop-color:rgb(196,238,128);stop-opacity: 1"/>
<stop offset="100%" style="stop-color:rgb(6,147,128);stop-opacity: 1"/>
</linearGradient>
<path style="stroke: none; stroke-width: 1; stroke-dasharray: none; stroke-linecap: butt; stroke-dashoffset: 0; stroke-linejoin: miter; stroke-miterlimit: 4; fill: url(#SVGID_108_142376); fill-rule: nonzero; opacity: 1;"  paint-order="stroke"  transform=" translate(-162.49999999999997, -123.89250000000001)" d="M 162.498 106.884 L 108.10799999999999 161.274 L 47.08699999999999 100.82900000000001 L 69.38999999999999 100.81200000000001 C 82.41299999999998 114.14100000000002 95.38699999999999 127.24700000000001 108.58499999999998 140.431 L 108.58499999999998 140.431 L 162.498 86.51100000000001 L 216.414 140.431 C 229.613 127.24700000000001 242.587 114.14100000000002 255.60899999999998 100.81200000000001 L 255.60899999999998 100.81200000000001 L 277.91299999999995 100.82900000000001 L 216.89199999999994 161.274 z" stroke-linecap="round" />
</g>
</g>
</g>
<g transform="matrix(0.7265485865847542 -1.7784710433187862 1.7784710433187862 0.7265485865847542 536.1693511060366 498.2592577646729)" id="tagline-2f802e51-0ec6-4af3-805b-e862746071ab-logo-0"  >
<g style=""  paint-order="stroke"   >
		<g transform="matrix(1 0 0 1 0 -3.55271e-15)" id="66da6a65-2d63-4fe4-9279-9668db57ea62-path-0"  >
<path style="stroke: rgb(192,234,137); stroke-width: 1.54492910219463; stroke-dasharray: none; stroke-linecap: butt; stroke-dashoffset: 0; stroke-linejoin: miter; stroke-miterlimit: 4; fill: rgb(92,224,230); fill-rule: nonzero; opacity: 1;"  paint-order="stroke"  transform=" translate(-7.925, 9.450000000000001)" d="M 8.1 0.27 C 12.42 0.27 15.09 -2.83 15.09 -5.48 C 15.09 -8.61 12.26 -10.48 8.88 -11.56 C 6.62 -12.31 5.97 -12.72 5.97 -13.61 C 5.97 -14.39 6.91 -14.85 7.94 -14.85 C 9.07 -14.85 9.94 -14.26 10.77 -12.69 L 14.58 -14.96 C 13.2 -17.25 10.69 -19.17 7.94 -19.17 C 4.7 -19.17 1.65 -16.66 1.65 -13.61 C 1.65 -10.1 4.46 -8.78 7.64 -7.72 C 9.77 -7.02 10.58 -6.48 10.58 -5.48 C 10.58 -4.67 9.77 -4.05 8.1 -4.05 C 6.64 -4.05 5.43 -4.51 4.43 -6.43 L 0.76 -4.24 C 2.19 -1.78 4.62 0.27 8.1 0.27 Z" stroke-linecap="round" />
</g>
</g>
</g>
<g transform="matrix(1.3888845268396806 -1.327340149207065 1.3273401492070651 1.3888845268396808 562.5220437791547 459.6070830049448)" id="tagline-2f802e51-0ec6-4af3-805b-e862746071ab-logo-1"  >
<g style=""  paint-order="stroke"   >
		<g transform="matrix(1 0 0 1 0 0)" id="dfa0bf65-17ac-400c-a527-81bb88b8daf3-path-0"  >
<path style="stroke: rgb(192,234,137); stroke-width: 1.54492910219463; stroke-dasharray: none; stroke-linecap: butt; stroke-dashoffset: 0; stroke-linejoin: miter; stroke-miterlimit: 4; fill: rgb(92,224,230); fill-rule: nonzero; opacity: 1;"  paint-order="stroke"  transform=" translate(-8.94, 9.45)" d="M 6.78 -6.43 L 6.78 0 L 11.1 0 L 11.1 -6.43 L 17.85 -18.9 L 12.99 -18.9 L 8.94 -10.72 L 4.89 -18.9 L 0.03 -18.9 Z" stroke-linecap="round" />
</g>
</g>
</g>
<g transform="matrix(1.839681646747799 -0.5535372970369953 0.5535372970369954 1.8396816467477992 607.8250245897739 433.2107379925253)" id="tagline-2f802e51-0ec6-4af3-805b-e862746071ab-logo-2"  >
<g style=""  paint-order="stroke"   >
		<g transform="matrix(1 0 0 1 0 -1.77636e-15)" id="30142950-624d-4412-9c70-dc0c212e5e0e-path-0"  >
<path style="stroke: rgb(192,234,137); stroke-width: 1.54492910219463; stroke-dasharray: none; stroke-linecap: butt; stroke-dashoffset: 0; stroke-linejoin: miter; stroke-miterlimit: 4; fill: rgb(92,224,230); fill-rule: nonzero; opacity: 1;"  paint-order="stroke"  transform=" translate(-9.450000000000001, 9.45)" d="M 13.34 0 L 17.17 0 L 17.17 -18.9 L 12.85 -18.9 L 12.85 -8.26 L 6.32 -18.9 L 1.73 -18.9 L 1.73 0 L 6.05 0 L 6.05 -11.88 Z" stroke-linecap="round" />
</g>
</g>
</g>
<g transform="matrix(1.8804871298891586 0.3931923891849264 -0.3931923891849264 1.8804871298891586 664.0528760458892 430.9928529583921)" id="tagline-2f802e51-0ec6-4af3-805b-e862746071ab-logo-3"  >
<g style=""  paint-order="stroke"   >
		<g transform="matrix(1 0 0 1 0 0)" id="c3317fe3-576f-4041-ad03-ce14bdbd0f8b-path-0"  >
<path style="stroke: rgb(192,234,137); stroke-width: 1.54492910219463; stroke-dasharray: none; stroke-linecap: butt; stroke-dashoffset: 0; stroke-linejoin: miter; stroke-miterlimit: 4; fill: rgb(92,224,230); fill-rule: nonzero; opacity: 1;"  paint-order="stroke"  transform=" translate(-9.75, 9.45)" d="M 1.73 0 L 8.61 0 C 13.74 0 17.77 -3.97 17.77 -9.56 C 17.77 -14.82 13.99 -18.9 8.61 -18.9 L 1.73 -18.9 Z M 6.05 -4.05 L 6.05 -14.85 L 8.05 -14.85 C 10.99 -14.85 13.18 -12.69 13.18 -9.5 C 13.18 -6.37 11.07 -4.05 7.96 -4.05 Z" stroke-linecap="round" />
</g>
</g>
</g>
<g transform="matrix(1.532787856512781 1.1581854288146913 -1.1581854288146913 1.532787856512781 708.6804533914625 451.6746694695009)" id="tagline-2f802e51-0ec6-4af3-805b-e862746071ab-logo-4"  >
<g style=""  paint-order="stroke"   >
		<g transform="matrix(1 0 0 1 0 -1.77636e-15)" id="9fb5d24f-359b-465e-a898-9665d2c3f9d2-path-0"  >
<path style="stroke: rgb(192,234,137); stroke-width: 1.54492910219463; stroke-dasharray: none; stroke-linecap: butt; stroke-dashoffset: 0; stroke-linejoin: miter; stroke-miterlimit: 4; fill: rgb(92,224,230); fill-rule: nonzero; opacity: 1;"  paint-order="stroke"  transform=" translate(-7.994999999999999, 9.45)" d="M 1.73 0 L 14.26 0 L 14.26 -4.05 L 6.05 -4.05 L 6.05 -7.42 L 13.15 -7.42 L 13.15 -11.47 L 6.05 -11.47 L 6.05 -14.85 L 13.99 -14.85 L 13.99 -18.9 L 1.73 -18.9 Z" stroke-linecap="round" />
</g>
</g>
</g>
<g transform="matrix(0.8398636681735845 1.7278486969274032 -1.7278486969274038 0.8398636681735848 741.3726336717834 491.75711763687076)" id="tagline-2f802e51-0ec6-4af3-805b-e862746071ab-logo-5"  >
<g style=""  paint-order="stroke"   >
		<g transform="matrix(1 0 0 1 0 -1.77636e-15)" id="c6b5fd54-ad6b-4b51-a4f9-35d7d5dfe56c-path-0"  >
<path style="stroke: rgb(192,234,137); stroke-width: 1.54492910219463; stroke-dasharray: none; stroke-linecap: butt; stroke-dashoffset: 0; stroke-linejoin: miter; stroke-miterlimit: 4; fill: rgb(92,224,230); fill-rule: nonzero; opacity: 1;"  paint-order="stroke"  transform=" translate(-10.61, 9.450000000000001)" d="M 10.61 0.27 C 16.25 0.27 20.33 -3.56 20.33 -9.45 C 20.33 -15.07 16.47 -19.17 10.61 -19.17 C 4.97 -19.17 0.89 -15.34 0.89 -9.45 C 0.89 -3.81 4.72 0.27 10.61 0.27 Z M 5.21 -9.45 C 5.21 -12.55 7.37 -14.85 10.61 -14.85 C 13.72 -14.85 16.01 -12.69 16.01 -9.45 C 16.01 -6.34 13.85 -4.05 10.61 -4.05 C 7.51 -4.05 5.21 -6.21 5.21 -9.45 Z" stroke-linecap="round" />
</g>
</g>
</g>
</svg>