<?xml version="1.0" encoding="utf-8"?>
<!-- Generator: Adobe Illustrator 27.5.0, SVG Export Plug-In . SVG Version: 6.00 Build 0)  -->
<svg version="1.1" xmlns="http://www.w3.org/2000/svg" xmlns:xlink="http://www.w3.org/1999/xlink" x="0px" y="0px"
	 viewBox="0 0 500 500" style="enable-background:new 0 0 500 500;" xml:space="preserve">
<g id="BACKGROUND">
	<rect style="fill:#FFFFFF;" width="500" height="500"/>
</g>
<g id="OBJECTS">
	<g>
		<g style="opacity:0.44;">
			<g>
				<g>
					<path style="fill:#9E88E1;" d="M99.863,358.945c-6.374-9.472-11.884-19.58-16.377-30.042l1.562-0.671
						c4.452,10.365,9.911,20.379,16.225,29.763L99.863,358.945z"/>
				</g>
				<g>
					<path style="fill:#9E88E1;" d="M209.059,435.165c-22.859-5.551-44.186-15.334-63.39-29.077l0.989-1.382
						c19.026,13.616,40.156,23.308,62.802,28.807L209.059,435.165z"/>
				</g>
				<g>
					<path style="fill:#9E88E1;" d="M392.863,375.493l-1.295-1.101c27.968-32.886,43.371-74.807,43.371-118.041
						c0-20.203-3.282-40.049-9.754-58.987l1.608-0.55c6.533,19.116,9.846,39.147,9.846,59.537c0,22.225-3.92,43.951-11.65,64.574
						C417.521,340.849,406.712,359.209,392.863,375.493z"/>
				</g>
				<g>
					<path style="fill:#9E88E1;" d="M376.461,122.55c-12.274-11.364-26.022-20.979-40.863-28.577l0.774-1.513
						c14.98,7.669,28.856,17.373,41.244,28.843L376.461,122.55z"/>
				</g>
				<g>
					<path style="fill:#9E88E1;" d="M165.738,96.048l-0.811-1.494c26.746-14.529,57.075-22.209,87.708-22.209
						c10.626,0,21.279,0.913,31.663,2.714l-0.291,1.675c-10.288-1.784-20.843-2.689-31.372-2.689
						C222.284,74.045,192.235,81.654,165.738,96.048z"/>
				</g>
			</g>
			<g>
				<g>
					<path style="fill:#9E88E1;" d="M82.809,326.895c-0.821-1.984-1.617-4.01-2.367-6.022l1.593-0.593
						c0.742,1.992,1.531,4,2.345,5.966L82.809,326.895z M78.291,314.771c-0.678-2.036-1.329-4.113-1.934-6.174l1.631-0.479
						c0.6,2.041,1.245,4.099,1.916,6.116L78.291,314.771z M74.642,302.358c-0.531-2.076-1.033-4.193-1.492-6.295l1.661-0.363
						c0.455,2.082,0.952,4.18,1.478,6.237L74.642,302.358z M71.881,289.719c-0.383-2.109-0.734-4.257-1.044-6.384l1.682-0.245
						c0.307,2.108,0.655,4.236,1.034,6.325L71.881,289.719z M70.019,276.918c-0.234-2.134-0.434-4.302-0.593-6.441l1.695-0.127
						c0.158,2.12,0.355,4.268,0.587,6.382L70.019,276.918z M69.058,264.019c-0.085-2.14-0.133-4.317-0.144-6.468l1.7-0.009
						c0.011,2.132,0.059,4.288,0.143,6.41L69.058,264.019z M70.692,251.132l-1.699-0.05c0.064-2.148,0.166-4.322,0.303-6.463
						l1.696,0.109C70.856,246.849,70.755,249.004,70.692,251.132z M71.516,238.339l-1.691-0.168
						c0.213-2.139,0.466-4.302,0.754-6.426l1.684,0.228C71.978,234.078,71.727,236.22,71.516,238.339z M73.233,225.635l-1.676-0.287
						c0.362-2.113,0.767-4.252,1.204-6.357l1.664,0.346C73.993,221.423,73.591,223.542,73.233,225.635z M75.845,213.071
						l-1.651-0.405c0.512-2.091,1.069-4.2,1.655-6.269l1.636,0.463C76.904,208.91,76.352,210.999,75.845,213.071z M79.343,200.712
						l-1.618-0.521c0.659-2.049,1.364-4.113,2.095-6.133l1.599,0.578C80.694,196.638,79.996,198.682,79.343,200.712z
						 M83.707,188.638l-1.577-0.634c0.802-1.994,1.651-4.002,2.523-5.968l1.554,0.689C85.342,184.674,84.501,186.663,83.707,188.638
						z M88.914,176.907l-1.528-0.744c0.94-1.932,1.929-3.874,2.938-5.773l1.501,0.798C90.825,173.07,89.846,174.994,88.914,176.907z
						 M94.936,165.576l-1.472-0.85c1.075-1.861,2.198-3.729,3.337-5.55l1.441,0.902C97.113,161.882,96.001,163.732,94.936,165.576z
						 M101.738,154.7l-1.409-0.951c1.202-1.78,2.453-3.563,3.718-5.3l1.374,1.001C104.168,151.17,102.929,152.937,101.738,154.7z
						 M109.286,144.33l-1.338-1.048c1.325-1.692,2.697-3.383,4.079-5.026l1.301,1.094
						C111.958,140.978,110.598,142.653,109.286,144.33z M117.539,134.516l-1.262-1.139c1.439-1.594,2.926-3.185,4.419-4.727
						l1.221,1.182C120.438,131.36,118.965,132.936,117.539,134.516z M126.456,125.304l-1.179-1.224
						c1.551-1.494,3.145-2.976,4.738-4.406l1.135,1.265C129.572,122.355,127.993,123.824,126.456,125.304z M135.993,116.739
						l-1.091-1.304c1.646-1.377,3.339-2.744,5.033-4.064l1.044,1.341C139.302,114.019,137.625,115.374,135.993,116.739z
						 M146.104,108.864l-0.997-1.377c1.739-1.259,3.524-2.505,5.304-3.701l0.948,1.411
						C149.595,106.382,147.827,107.616,146.104,108.864z M156.738,101.717l-0.898-1.443c1.822-1.134,3.69-2.251,5.551-3.32
						l0.847,1.474C160.393,99.487,158.543,100.593,156.738,101.717z"/>
				</g>
				<g>
					<path style="fill:#9E88E1;" d="M252.916,440.621c-1.532,0-3.075-0.019-4.586-0.056l0.042-1.7
						c2.112,0.052,4.277,0.068,6.413,0.047l0.017,1.7C254.175,440.618,253.546,440.621,252.916,440.621z M261.27,440.436
						l-0.076-1.698c2.138-0.096,4.291-0.23,6.399-0.398l0.135,1.694C265.6,440.204,263.427,440.339,261.27,440.436z
						 M241.863,440.295c-2.144-0.127-4.316-0.294-6.455-0.496l0.16-1.693c2.119,0.2,4.271,0.366,6.395,0.491L241.863,440.295z
						 M274.168,439.408l-0.194-1.688c2.117-0.244,4.255-0.528,6.355-0.845l0.253,1.681
						C278.462,438.875,276.304,439.162,274.168,439.408z M228.976,439.078c-2.137-0.278-4.292-0.596-6.404-0.947l0.278-1.677
						c2.092,0.347,4.227,0.663,6.344,0.938L228.976,439.078z M286.962,437.477l-0.312-1.671c2.085-0.39,4.198-0.824,6.279-1.29
						l0.372,1.658C291.2,436.646,289.067,437.084,286.962,437.477z M216.207,436.959c-2.105-0.426-4.231-0.896-6.321-1.396
						l0.396-1.653c2.07,0.496,4.177,0.961,6.262,1.383L216.207,436.959z M203.619,433.943c-2.072-0.575-4.16-1.194-6.206-1.841
						l0.512-1.621c2.027,0.641,4.095,1.254,6.148,1.823L203.619,433.943z M191.277,430.043c-0.449-0.16-0.898-0.321-1.346-0.484
						l0.581-1.598c0.444,0.162,0.889,0.322,1.334,0.48L191.277,430.043z"/>
				</g>
				<g>
					<path style="fill:#9E88E1;" d="M348.658,413.783l-0.886-1.451c1.816-1.109,3.637-2.265,5.412-3.436l0.936,1.418
						C352.329,411.497,350.49,412.664,348.658,413.783z M359.458,406.656l-0.985-1.385c1.735-1.234,3.47-2.515,5.158-3.807
						l1.034,1.35C362.961,404.118,361.209,405.411,359.458,406.656z M369.733,398.792l-1.08-1.313
						c1.643-1.351,3.285-2.751,4.88-4.159l1.125,1.274C373.048,396.015,371.391,397.427,369.733,398.792z M379.433,390.226
						l-1.169-1.234c1.549-1.467,3.088-2.978,4.577-4.49l1.211,1.193C382.551,387.22,380.996,388.745,379.433,390.226z
						 M388.511,381.004l-1.252-1.15c1.435-1.563,2.866-3.177,4.252-4.799l1.292,1.105
						C391.403,377.797,389.959,379.427,388.511,381.004z"/>
				</g>
				<g>
					<path style="fill:#9E88E1;" d="M425.213,196.891l-0.28-0.802l1.603-0.564l0.283,0.81L425.213,196.891z M422.698,190.08
						c-0.773-1.971-1.595-3.965-2.445-5.925l1.559-0.676c0.858,1.979,1.689,3.991,2.469,5.981L422.698,190.08z M417.599,178.319
						c-0.913-1.918-1.875-3.848-2.858-5.738l1.508-0.785c0.993,1.907,1.963,3.856,2.885,5.792L417.599,178.319z M411.681,166.947
						c-1.045-1.847-2.14-3.705-3.256-5.523l1.449-0.889c1.126,1.835,2.231,3.711,3.286,5.575L411.681,166.947z M404.978,156.02
						c-1.176-1.775-2.4-3.551-3.636-5.281l1.383-0.988c1.247,1.746,2.482,3.539,3.669,5.33L404.978,156.02z M397.524,145.589
						c-1.296-1.686-2.641-3.373-3.997-5.014l1.31-1.083c1.368,1.656,2.725,3.359,4.034,5.06L397.524,145.589z M389.357,135.704
						c-1.41-1.591-2.87-3.179-4.337-4.722l1.231-1.172c1.481,1.557,2.954,3.16,4.378,4.766L389.357,135.704z M380.52,126.415
						c-1.523-1.493-3.091-2.976-4.657-4.407l1.147-1.255c1.581,1.445,3.162,2.941,4.7,4.448L380.52,126.415z"/>
				</g>
			</g>
		</g>
		<g>
			<g>
				<ellipse style="fill:#B0B4E1;" cx="256.186" cy="429.128" rx="190.529" ry="25.727"/>
				<path style="opacity:0.6;fill:#E5EBFC;" d="M465.981,330.894c-11.884-26.874-47.866-47.138-54.469-77.919
					c-6.602-30.781,6.932-74.671-40.604-101.08s-122.472-29.05-139.143,9.243c-7.233,16.613-16.962,27.711-27.849,34.927
					c-33.314,22.08-64.268-10.062-100.648,3.351c-46.915,17.297-62.682,95.481-62.082,142.21
					c0.526,41.006,13.851,72.998,23.221,91.195c127.116,0,254.231,0,381.347,0C461.264,381.984,474.553,350.28,465.981,330.894z"/>
				<g>
					<g>
						<g>
							<rect x="433.535" y="218.526" style="fill:#FFFFFF;" width="11.799" height="1.962"/>
						</g>
					</g>
					<g>
						<g>
							<rect x="455.838" y="233.427" style="fill:#FFFFFF;" width="11.799" height="1.962"/>
						</g>
					</g>
					<g>
						<g>
							<rect x="461.737" y="241.7" style="fill:#FFFFFF;" width="5.899" height="1.962"/>
						</g>
					</g>
					<g>
						<g>
							<rect x="360.11" y="106.39" style="fill:#FFFFFF;" width="55.43" height="1.962"/>
						</g>
					</g>
					<g>
						<g>
							<rect x="61.285" y="366.644" style="fill:#FFFFFF;" width="11.799" height="1.962"/>
						</g>
					</g>
					<g>
						<g>
							<rect x="360.11" y="114.391" style="fill:#FFFFFF;" width="33.596" height="1.962"/>
						</g>
					</g>
					<g>
						<g>
							<rect x="83.588" y="381.545" style="fill:#FFFFFF;" width="11.799" height="1.962"/>
						</g>
					</g>
					<g>
						<g>
							<rect x="89.487" y="389.818" style="fill:#FFFFFF;" width="5.899" height="1.962"/>
						</g>
					</g>
					<g>
						<g>
							<rect x="347.529" y="382.676" style="fill:#FFFFFF;" width="17.564" height="2.921"/>
						</g>
					</g>
					<g>
						<g>
							<rect x="380.73" y="404.858" style="fill:#FFFFFF;" width="17.564" height="2.921"/>
						</g>
					</g>
					<g>
						<g>
							<rect x="389.512" y="417.173" style="fill:#FFFFFF;" width="8.782" height="2.921"/>
						</g>
					</g>
				</g>
			</g>
			<g style="opacity:0.46;">
				<path style="fill:#D8E1FB;" d="M296.355,130.015c-13.725-4.692-12.898-24.506,1.217-27.846c0.274-0.065,0.553-0.128,0.836-0.19
					c22.63-4.936,39.215,3.403,79.189-19.804c39.974-23.208,82.86-34.543,102.568-7.275c19.708,27.268-23.94,63.324-95.75,64.378
					C338.099,139.958,311.307,135.127,296.355,130.015z"/>
				<path style="fill:#D8E1FB;" d="M277.975,97.883c-0.135,12.505-15.129,18.81-24.192,10.193
					c-3.432-3.263-7.196-6.298-10.575-7.805c-9.365-4.178-26.921-21.949-12.833-33.58c14.088-11.631,46.179-8.301,47.517,25.831
					C277.967,94.432,277.993,96.217,277.975,97.883z"/>
			</g>
		</g>
		<g>
			<g>
				<path style="fill:#322B50;" d="M328.74,434.267H191.932c-6.708,0-12.146-5.438-12.146-12.146v-287.68
					c0-6.708,5.438-12.146,12.146-12.146H328.74c6.708,0,12.147,5.438,12.147,12.146v287.68
					C340.886,428.829,335.448,434.267,328.74,434.267z"/>
				<path style="fill:#7C9DFC;" d="M191.932,428.888c-3.732,0-6.766-3.037-6.766-6.766V134.44c0-3.73,3.035-6.766,6.766-6.766
					H328.74c3.73,0,6.764,3.036,6.764,6.766v287.681c0,3.73-3.035,6.766-6.764,6.766H191.932z"/>
				<linearGradient id="SVGID_1_" gradientUnits="userSpaceOnUse" x1="473.1239" y1="94.944" x2="208.2311" y2="190.6274">
					<stop  offset="0" style="stop-color:#4B70C1"/>
					<stop  offset="1" style="stop-color:#7C9DFC"/>
				</linearGradient>
				<path style="fill:url(#SVGID_1_);" d="M328.74,127.674H191.932c-3.732,0-6.766,3.036-6.766,6.766v127.435l150.338-47.952V134.44
					C335.504,130.711,332.469,127.674,328.74,127.674z"/>
				<path style="fill:#322B50;" d="M296.65,137.637h-72.63c-1.291,0-2.478-0.708-3.091-1.844l-4.888-9.05h88.588l-4.889,9.051
					C299.128,136.929,297.941,137.637,296.65,137.637z"/>
			</g>
			<g>
				<path style="fill-rule:evenodd;clip-rule:evenodd;fill:#703BBF;" d="M317.311,382.898c0,0,15.633-1.193,15.429-12.727
					c-0.205-11.533,10.085-1.88,19.015-11.095c8.929-9.214,10.496-10.267,9.822-20.869c-0.675-10.601,2.952-14.484,11.862-19.028
					c8.91-4.544,4.618-13.597,9.263-20.386c4.645-6.789-1.203-13.298-8.288-8.854c-7.003,3.797-7.51,10.64-21.342,15.307
					c-6.083,2.777-14.949,9.459-15.952,17.682c-1.257,10.3-16.792,13.2-18.223,32.78c-0.761,10.416-3.346,14.375-3.957,18.881
					C314.327,379.095,315.04,380.356,317.311,382.898L317.311,382.898z"/>
				<path style="fill-rule:evenodd;clip-rule:evenodd;fill:#703BBF;" d="M299.919,386.932c0,0-11.967-0.304-12.851-10.248
					c-0.884-9.944-8.852-0.692-17.383-7.801c-8.531-7.109-9.977-7.872-10.37-17.057c-0.393-9.186-3.871-12.194-11.957-15.286
					c-8.086-3.092-6.102-8.722-10.723-14.137c-4.621-5.417-1.302-10.025,6.318-8.382c10.198,2.658,33.567,11.892,36.005,22.408
					c2.029,8.749,15.664,9.816,18.695,26.536c1.612,8.894,4.2,12.064,5.141,15.886C303.734,382.673,301.64,384.536,299.919,386.932
					L299.919,386.932z"/>
				<path style="fill:#522B8F;" d="M366.495,307.79c-0.029,0.022-10.233,7.23-26.633,32.725
					c-16.385,25.471-23.949,49.414-23.953,49.452l-1.198-0.132c0.005-0.039,7.598-24.262,24.137-49.971
					c16.522-25.685,26.914-33.029,26.944-33.051L366.495,307.79L366.495,307.79z"/>
				<path style="fill:#522B8F;" d="M250.31,323.372c0.057,0.029,24.431,15.328,36.015,35.773
					c11.572,20.424,15.252,31.876,15.252,31.903l-1.251-0.005c0-0.025-3.685-11.148-15.091-31.279
					c-11.394-20.109-35.432-35.243-35.488-35.271L250.31,323.372L250.31,323.372z"/>
				<path style="fill-rule:evenodd;clip-rule:evenodd;fill:#703BBF;" d="M309.382,377.317c0,0-13.765-7.447-8.886-17.877
					c4.878-10.429-8.428-5.816-12.819-17.848c-4.391-12.031-5.391-13.629-0.463-23.017c4.928-9.388,3.202-14.403-3.071-22.17
					c-6.274-7.766,1.321-14.273-0.151-22.35c-1.471-8.078,6.506-11.632,11.156-4.699c4.839,6.31,2.517,12.754,13.227,22.635
					c4.415,5.006,9.778,14.703,7.348,22.606c-3.044,9.901,9.936,18.863,3.275,37.293c-3.543,9.803-2.797,14.463-4.074,18.82
					C313.648,375.065,312.485,375.924,309.382,377.317L309.382,377.317z"/>
				<path style="fill:#522B8F;" d="M296.271,288.171c0.018,0.031,6.308,10.625,10.783,39.86c4.478,29.255,2.192,65.335,2.18,65.373
					l-1.111-0.353c0.011-0.036,2.212-35.851-2.226-64.846c-4.441-29.015-10.619-39.419-10.637-39.449L296.271,288.171
					L296.271,288.171z"/>
				<path style="fill-rule:evenodd;clip-rule:evenodd;fill:#967DDA;" d="M332.171,389.205h-45.792c-1.929,0-3.507,1.578-3.507,3.507
					v0.001c0,1.929,1.578,3.507,3.507,3.507h0.669l8.505,38.804c0.251,1.147,1.267,1.965,2.442,1.965h11.28h11.28
					c1.174,0,2.19-0.817,2.442-1.965l8.505-38.804h0.669c1.929,0,3.507-1.578,3.507-3.507v-0.001
					C335.678,390.783,334.1,389.205,332.171,389.205z"/>
				<path style="fill-rule:evenodd;clip-rule:evenodd;fill:#522B8F;" d="M320.555,436.989c1.174,0,2.19-0.817,2.442-1.965
					l0.465-2.121c-1.358,0.875-2.92,1.368-4.516,1.368c-2.459,0-17.998,0-23.558,0l0.165,0.753c0.251,1.147,1.267,1.965,2.442,1.965
					h11.28H320.555z"/>
				<g>
					<path style="fill:#522B8F;" d="M289.02,396.516c0,0.163,0.132,0.296,0.296,0.296h42.057l0.13-0.592h-42.187
						C289.152,396.22,289.02,396.353,289.02,396.516z"/>
				</g>
				<g>
					<path style="fill:#522B8F;" d="M321.179,406.671c-1.091,0-2.182-0.345-3.092-1.035l-6.408-4.858
						c-1.573-1.194-3.773-1.194-5.346,0l-6.407,4.858c-1.821,1.38-4.363,1.38-6.185,0l-3.204-2.429
						c-0.152-0.116-0.182-0.333-0.067-0.486c0.115-0.152,0.332-0.183,0.486-0.067l3.204,2.429c1.574,1.194,3.772,1.194,5.347,0
						l6.407-4.858c1.821-1.38,4.364-1.38,6.184,0l6.408,4.858c1.573,1.194,3.773,1.194,5.346,0l3.204-2.429
						c0.153-0.116,0.37-0.085,0.486,0.067c0.116,0.153,0.086,0.37-0.067,0.486l-3.204,2.429
						C323.361,406.325,322.27,406.67,321.179,406.671z"/>
				</g>
				<g>
					<path style="fill:#522B8F;" d="M321.179,412.851c-1.091,0-2.182-0.345-3.092-1.035l-6.408-4.858
						c-1.574-1.193-3.773-1.193-5.346,0l-6.407,4.858c-1.821,1.38-4.363,1.38-6.185,0l-1.624-1.232
						c-0.152-0.116-0.182-0.333-0.067-0.486c0.115-0.152,0.333-0.183,0.486-0.067l1.624,1.232c1.574,1.193,3.773,1.193,5.347,0
						l6.407-4.858c1.82-1.38,4.363-1.381,6.184,0l6.408,4.858c1.574,1.193,3.773,1.193,5.346,0l1.624-1.232
						c0.152-0.116,0.37-0.085,0.486,0.067c0.116,0.153,0.086,0.37-0.067,0.486l-1.624,1.232
						C323.361,412.506,322.27,412.851,321.179,412.851z"/>
				</g>
			</g>
			<g>
				<path style="fill:#351431;" d="M257.566,431.217l22.442-7.866l0.05-12.968c4.836,0.018,13.759,0.053,19.52,0.075l-0.05,12.968
					c0,0,2.134,9.045-0.06,15.543l-51.33-0.197C248.138,438.772,249.252,431.185,257.566,431.217z"/>
				<path style="fill:#351431;" d="M196.8,431.217l22.442-7.866l0.05-12.968c4.836,0.018,13.759,0.053,19.52,0.075l-0.05,12.968
					c0,0,2.134,9.045-0.06,15.543l-51.33-0.197C187.373,438.772,188.486,431.185,196.8,431.217z"/>
				<path style="fill:#6F60B3;" d="M303.655,423.94l-20.563-95.749c0,0,6.001-62.29,2.559-90.074
					c-0.275-5.543-1.177-10.987-3.321-16.397c-2.906-7.332-5.677-14.713-8.516-22.075c-0.093-0.236-1.87-5.281-1.992-5.244
					c-34.256,10.093-49.997-0.556-49.997-0.556l-6.305,131.865c0,0,0.07,0.557,0.441,1.315l-0.441-0.006l-1.987,97.655
					c0.748-0.461,1.694-0.736,2.855-0.736h30.27l1.909-115.547l6.185,23.675v0l15.521,91.872H303.655z"/>
				<g>
					<path style="fill:#21263C;" d="M247.669,310.285c-0.14,0-0.265-0.134-0.294-0.33c-0.604-4.25-1.93-11.118-3.334-18.386
						c-1.792-9.275-3.644-18.865-4.232-24.219c-0.135-1.221-0.239-2.514-0.337-3.762c-0.27-3.361-0.549-6.834-1.456-9.783
						c-0.933-3.036-2.07-4.266-3.645-5.97c-0.461-0.497-0.957-1.034-1.495-1.664c-0.124-0.146-0.138-0.403-0.031-0.573
						c0.107-0.171,0.296-0.188,0.421-0.043c0.53,0.622,1.021,1.153,1.476,1.644c1.645,1.78,2.832,3.065,3.825,6.291
						c0.941,3.06,1.224,6.592,1.497,10.01c0.105,1.299,0.202,2.528,0.336,3.732c0.583,5.31,2.431,14.878,4.22,24.133
						c1.406,7.282,2.735,14.162,3.343,18.438c0.032,0.22-0.073,0.434-0.236,0.476C247.707,310.282,247.687,310.285,247.669,310.285z
						"/>
				</g>
				<g>
					<path style="fill:#21263C;" d="M266.429,242.464c-3.089,0-7.721-2.278-9.784-4.472c-2.755-2.931-3.16-8.411-3.195-13.383
						c0-0.21,0.168-0.38,0.376-0.383h0.004c0.207,0,0.376,0.168,0.377,0.376c0.02,2.923,0.069,9.762,2.989,12.871
						c2.09,2.225,7.186,4.64,9.953,4.179c0.202-0.037,0.4,0.105,0.435,0.311c0.034,0.207-0.105,0.402-0.31,0.436
						C267.008,242.443,266.725,242.464,266.429,242.464z"/>
				</g>
				<g>
					<g>
						<path style="fill:#A4402F;" d="M242.95,128.23l0.865-19.377h14.97l0.861,19.295l4.446,2.719c0,0-0.703,10.222-13.635,10.081
							c-12.932-0.141-12.206-10.492-12.206-10.492L242.95,128.23z"/>
					</g>
					<path style="fill:#351431;" d="M272.609,100.73c4.118,3.215,6.338,8.316,7.499,13.41c5.005,21.962-6.782,45.694,0.329,67.067
						c-4.591-3.244-10.599-4.357-14.582-8.324c-4.168-4.152-5.179-10.552-4.808-16.424c0.381-6.028,1.969-11.93,2.355-17.957
						c0.369-5.76-0.378-11.589-2.187-17.069c-1.261-3.82-3.034-7.482-3.885-11.413c-0.745-3.442-1.188-8.948,2.264-11.122
						C263.34,96.539,269.432,98.25,272.609,100.73z"/>
					<path id="XMLID_58_" style="fill:#4C1F45;" d="M240.263,109.937c-0.452-1.435-1.537-4.815,4.532-7.674
						c1.986-1.338,4.01-2.694,6.3-3.393c3.464-1.057,7.383-0.461,10.405,1.535c3.022,1.995,5.104,5.339,5.616,8.924
						c0.511,3.585-0.54,7.356-2.789,10.194c-1.825,2.303-3.697,3.997-5.864,5.981c-0.567-2.976-0.34-4.76-0.337-7.362
						c-1.335-1.278-2.727-2.65-3.199-4.436c-0.356-1.348-0.143-2.769-0.049-4.16c0.094-1.391,0.037-2.885-0.76-4.028
						c-0.726-1.041-2.009-1.632-3.278-1.632c-1.269,0-2.506,0.555-3.442,1.411c-0.713-0.43-1.576-0.786-2.382-0.997
						c-1.161-0.303-2.462-0.092-3.423,0.627c-0.961,0.719-1.538,1.948-1.403,3.14C240.25,108.596,240.348,109.412,240.263,109.937z"
						/>
					<path style="fill:#4C1F45;" d="M246.239,107.964c-4.344,2.243-6.868,4.949-9.261,9.211c1.736-6.052,1.851-12.081,5.791-16.991
						c1.109-1.382,2.408-2.664,4.015-3.41c2.019-0.937,4.303-0.892,6.41-0.292c1.697,0.483,4.943,1.695,5.909,3.299
						c1.227,2.037-3.292,3.524-4.769,4.272C251.661,105.408,248.903,106.589,246.239,107.964z"/>
					<g>
						<path style="fill:#A4402F;" d="M245.446,126.03l-0.492,3.993c0.061,0.01,0.121,0.016,0.184,0.029
							c4.048,0.853,8.067,0.246,12.149,0.145l0.819-9.409l0.817-4.692c0.023-3.815-0.578-8.894-3.694-10.87
							c-1.314-0.833-2.725-1.162-4.104-1.189c-4.541-0.086-8.482,3.138-9.526,7.559C240.427,116.56,239.85,123.757,245.446,126.03z"
							/>
					</g>
					<path style="fill:#351431;" d="M243.761,101.643c4.201-3.064,9.089-3.052,10.371-2.87c1.904,0.271,6.452,0.919,8.579,4.833
						c2.169,3.991,0.05,8.122-1.33,10.811c-0.193,0.376-0.478,0.959-1.046,1.073c-0.232,0.046-1.538-0.032-4.088-2.889
						c-0.884-0.991-1.992-4.173-2.085-5.495c-7.422,2.068-12.713-0.484-12.713-0.484S239.552,104.713,243.761,101.643z"/>
					<g>
						<path style="fill:#1C1C1B;" d="M244.213,115.552c-0.069,0.839,0.669,1.621,1.491,1.615c0.251-0.002,0.451-0.087,0.533-0.337
							c0.085-0.259-0.031-0.485-0.258-0.564c-1.143-0.397-0.599-1.056-0.29-1.692c0.224-0.461,0.857-1.045,0.236-1.418
							c-0.721-0.433-0.821,0.536-1.085,0.919C244.541,114.507,244.192,114.986,244.213,115.552z"/>
						<path style="fill:#1C1C1B;" d="M247.263,119.467c0.742,0.139,1.499,0.065,2.19-0.372c0.29-0.183,0.541-0.452,0.373-0.798
							c-0.195-0.402-0.536-0.226-0.829-0.072c-0.795,0.419-1.63,0.28-2.465,0.187c-0.372-0.041-0.874-0.188-0.956,0.347
							c-0.093,0.613,0.466,0.576,0.867,0.636C246.699,119.434,246.958,119.442,247.263,119.467z"/>
						<path style="fill:#1C1C1B;" d="M244.356,113.131c0.377,0.028,0.768-0.093,0.807-0.565c0.03-0.357-0.154-0.716-0.591-0.769
							c-0.452-0.054-0.762,0.183-0.856,0.612C243.622,112.846,243.872,113.074,244.356,113.131z"/>
						<path style="fill:#1C1C1B;" d="M250.001,113.818c0.41,0.021,0.656-0.149,0.689-0.543c0.035-0.411-0.169-0.724-0.564-0.79
							c-0.41-0.069-0.709,0.193-0.74,0.595C249.355,113.482,249.628,113.728,250.001,113.818z"/>
					</g>
					<path style="fill:#00180C;" d="M243.356,109.672c-0.647-0.458-0.626-1.006-0.063-1.351c0.65-0.4,2.438-0.302,3.051,0.166
						c0.549,0.42,0.519,1.07-0.112,1.308C245.221,110.175,244.215,110.032,243.356,109.672z"/>
					<path style="fill:#00180C;" d="M252.185,111.759c-0.358-0.228-0.696-0.483-0.899-0.866c-0.309-0.582,0.006-1.113,0.659-1.035
						c0.884,0.105,1.559,0.599,2.033,1.346c0.163,0.257,0.184,0.558-0.018,0.815c-0.202,0.257-0.483,0.279-0.788,0.217
						C252.8,112.161,252.494,111.96,252.185,111.759z"/>
					<g>
						<g>
							<path style="fill:#A4402F;" d="M257.476,115.68c-0.218,1.568,0.567,2.972,1.754,3.138c1.187,0.165,2.327-0.972,2.545-2.539
								c0.218-1.567-0.567-2.972-1.754-3.138C258.834,112.976,257.694,114.113,257.476,115.68z"/>
						</g>
						<g>
							<path d="M258.987,114.728c0.374-0.001,0.703,0.05,1.054,0.246c0.356,0.185,0.611,0.63,0.608,1.015
								c0.011,0.191-0.009,0.388-0.097,0.596c-0.082,0.208-0.272,0.396-0.469,0.484c-0.406,0.175-0.748,0.141-1.106,0.068
								c-0.187-0.038-0.307-0.22-0.269-0.407c0.038-0.187,0.22-0.307,0.407-0.269c0.001,0,0.003,0.001,0.004,0.001l0.029,0.007
								c0.211,0.047,0.493,0.043,0.627-0.03c0.126-0.058,0.171-0.179,0.163-0.407c-0.014-0.209-0.091-0.333-0.261-0.431
								c-0.162-0.098-0.438-0.144-0.65-0.138l-0.029,0.001c-0.203,0.006-0.372-0.154-0.378-0.357
								c-0.006-0.203,0.154-0.372,0.357-0.378C258.98,114.729,258.984,114.729,258.987,114.728z"/>
						</g>
					</g>
				</g>
				<g>
					<path style="fill:#B14B39;" d="M318.954,212.27c-0.844-5.574-5.88-14.905-9.623-19.68
						c-22.73-28.95-57.099-45.245-69.076-47.432c-2.169-1.31-21.911,7.411-11.248,26.283c5.766,9.29,64.753,41.178,70.109,47.286
						C299.115,218.726,312.286,225.418,318.954,212.27z"/>
				</g>
				<g>
					<path style="fill:#B14B39;" d="M323.791,139.542c-3.94,13.42-11.899,39.196-28.752,69.519c0,0,1.703,12.404,24.05,10.338
						c6.697-13.28,14.274-40.097,14.626-80.065C330.407,139.381,327.099,139.448,323.791,139.542z"/>
				</g>
				<g>
					<g>
						<g>
							<path style="fill:#B14B39;" d="M210.175,206.803c-18.276,1.147-39.962-3.289-55.652-7.185
								c0.554,2.218-0.208,5.094-2.182,6.304c-1.407,0.862-2.854,1.609-4.327,2.282c19.728,9.966,38.633,18.777,57.464,19.084
								c0,0,9.157-1.797,9.705-6.416C216.652,206.419,210.175,206.803,210.175,206.803z"/>
						</g>
					</g>
				</g>
				<g>
					<path style="fill:#B14B39;" d="M233.305,168.09c0.557-21.472-10.273-23.733-10.273-23.733
						c-12.288-1.408-18.812,25.726-18.812,25.726c-3.571,13.584-6.321,22.284-9.291,47.84c0,0,13.21,14.728,21.022,1.677
						L233.305,168.09z"/>
				</g>
				<g>
					<defs>
						<path id="SVGID_00000119082031047994323780000012148472448939719583_" d="M264.447,128.378c0,0,20.991,6.845,25.677,14.342
							c4.686,7.497,9.933,35.798,14.806,38.984l-20.054,12.183l-0.375,16.681c-10.703,13.22-56.398,13.33-68.033,0.922
							c1.099-1.054,1.455-18.655,1.455-18.655l-21.699-13.941c0,0,7.651-18.304,11.433-32.987
							c3.186-12.37,30.332-17.528,30.332-17.528s0.874,9.726,10.949,10.031C261.308,138.784,264.447,128.378,264.447,128.378z"/>
					</defs>
					<use xlink:href="#SVGID_00000119082031047994323780000012148472448939719583_"  style="overflow:visible;fill:#FFB73F;"/>
					<clipPath id="SVGID_00000127728398312331186940000001582739054472919177_">
						<use xlink:href="#SVGID_00000119082031047994323780000012148472448939719583_"  style="overflow:visible;"/>
					</clipPath>
					<g style="clip-path:url(#SVGID_00000127728398312331186940000001582739054472919177_);">
						<g>
							<path style="fill:#FFFFFF;" d="M277.311,133.398c-0.044,0-0.089-0.004-0.135-0.011c-24.594-4.191-50.314-1.108-50.571-1.076
								c-0.436,0.053-0.835-0.257-0.888-0.693c-0.054-0.437,0.257-0.835,0.693-0.888c0.259-0.032,26.203-3.145,51.034,1.087
								c0.434,0.074,0.725,0.486,0.652,0.919C278.03,133.124,277.693,133.398,277.311,133.398z"/>
						</g>
						<g>
							<path style="fill:#FFFFFF;" d="M293.364,147.215c-0.045,0-0.089-0.004-0.135-0.011c-24.632-4.198-85.388-1.548-85.999-1.521
								c-0.433,0.023-0.812-0.321-0.832-0.761c-0.02-0.44,0.321-0.812,0.761-0.832c0.613-0.027,61.539-2.685,86.338,1.542
								c0.434,0.074,0.725,0.486,0.652,0.919C294.082,146.94,293.745,147.215,293.364,147.215z"/>
						</g>
						<g>
							<path style="fill:#FFFFFF;" d="M297.706,159.512c-0.044,0-0.089-0.004-0.135-0.012c-24.641-4.2-93.566-2.819-94.26-2.805
								c-0.439,0.011-0.804-0.34-0.813-0.78c-0.009-0.44,0.34-0.804,0.78-0.813c0.695-0.014,69.77-1.398,94.561,2.827
								c0.434,0.074,0.725,0.486,0.651,0.92C298.425,159.237,298.087,159.512,297.706,159.512z"/>
						</g>
						<g>
							<path style="fill:#FFFFFF;" d="M299.373,170.842c-0.044,0-0.089-0.004-0.135-0.011c-24.64-4.2-98.927-2.548-99.674-2.531
								c-0.444,0.022-0.805-0.338-0.815-0.778c-0.01-0.44,0.338-0.805,0.778-0.815c0.749-0.018,75.189-1.672,99.979,2.553
								c0.434,0.074,0.725,0.486,0.652,0.92C300.091,170.567,299.754,170.842,299.373,170.842z"/>
						</g>
						<g>
							<path style="fill:#FFFFFF;" d="M304.93,182.501c-0.161,0-0.323-0.048-0.463-0.149c-2.065-1.477-10.329-3.281-19.448-1.615
								c-0.059,0.011-0.119,0.015-0.179,0.012c-19.551-0.881-45.878-0.68-64.521-0.355c-0.066,0-0.138-0.007-0.205-0.023
								c-12.728-3.144-24.649,0.545-24.768,0.583c-0.42,0.132-0.867-0.1-1-0.519s0.099-0.867,0.519-1
								c0.501-0.159,12.394-3.848,25.531-0.636c18.631-0.324,44.879-0.523,64.427,0.354c9.213-1.661,18.005,0.066,20.572,1.903
								c0.358,0.256,0.44,0.754,0.184,1.112C305.424,182.386,305.179,182.501,304.93,182.501z"/>
						</g>
						<g>
							<path style="fill:#FFFFFF;" d="M259.458,195.994c-24.415,0-41.724-1.295-41.951-1.312c-0.439-0.034-0.768-0.416-0.734-0.855
								c0.034-0.439,0.423-0.767,0.855-0.734c0.299,0.023,30.365,2.271,67.217,0.821c0.434-0.019,0.81,0.325,0.828,0.765
								c0.017,0.44-0.325,0.81-0.765,0.827C275.912,195.86,267.316,195.994,259.458,195.994z"/>
						</g>
						<g>
							<path style="fill:#FFFFFF;" d="M247.744,210.825c-19.84,0-33.078-2.289-33.284-2.326c-0.433-0.077-0.722-0.491-0.645-0.924
								s0.49-0.723,0.924-0.645c0.322,0.057,32.725,5.654,72.292-0.812c0.436-0.072,0.844,0.224,0.915,0.658
								c0.071,0.434-0.224,0.844-0.658,0.915C272.741,210.068,259.15,210.825,247.744,210.825z"/>
						</g>
					</g>
				</g>
				<g>
					<polygon style="fill:#FF8D19;" points="280.259,198.612 280.259,170.686 285.262,195.573 					"/>
				</g>
				<g>
					<polygon style="fill:#FF8D19;" points="220.524,194.722 225.022,167.848 216.021,191.829 					"/>
				</g>
				<g>
					<g>
						<path style="fill:#B14B39;" d="M337.481,116.167c5.365,1.527-4.551,13.926-5.202,16.836
							c2.068-2.991,9.044-14.916,12.553-13.768c2.009,0.879-5.67,10.611-6.733,12.719c1.567-1.527,6.759-8.536,8.97-7.174
							c1.328,1.317-4.143,7.826-5.467,10.081c0.596-0.313,5.659-6.376,6.424-4.89c0.85,1.395-2.012,6.122-3.613,8.37
							c-7.219,10.114-14.908,21.523-20.295,14.901c-4.025-4.938-6.115-7.778-3.977-26.016c0.371-3.146,4.864,0.471,5.453,6.895
							C327.15,133.727,336.84,115.982,337.481,116.167z"/>
					</g>
				</g>
				<g>
					<g>
						<path style="fill:#B14B39;" d="M129.805,190.991c-3.049,4.671,12.569,7.528,14.969,9.298
							c-3.523-0.902-16.61-5.329-18.506-2.161c-0.94,1.981,11.239,4.292,13.424,5.186c-2.184-0.125-10.7-2.011-11.477,0.467
							c-0.139,1.865,8.26,3.191,10.739,4.025c-0.655,0.155-8.453-1.102-8.056,0.522c0.273,1.61,5.534,3.302,8.217,3.949
							c12.083,2.901,25.37,6.471,25.093-2.061c-0.2-6.367-0.485-9.882-14.059-22.248c-2.343-2.131-3.363,3.545,0.406,8.781
							C149.121,197.472,130.168,190.432,129.805,190.991z"/>
					</g>
				</g>
				<g>
					<path style="opacity:0.56;" d="M243.137,128.749c0.653,0.982,4.633,0.161,7.605-1.874c3.328-2.279,4.813-5.685,5.486-7.85
						c-1.191,1.231-2.332,2.106-3.207,2.701c-2.019,1.373-3.682,1.972-5.513,2.631c-0.783,0.282-1.585,0.532-2.633,0.554
						c-0.768,0.016-1.401-0.095-1.822-0.195c0.04,0.391,0.088,0.996,0.093,1.737C243.156,128.12,242.933,128.443,243.137,128.749z"
						/>
					<g>
						<path d="M243.053,124.716c2.467-0.272,4.836-0.807,7.041-1.787c2.219-0.949,4.228-2.313,6.134-3.903
							C253.358,123.098,247.997,125.461,243.053,124.716z"/>
					</g>
				</g>
				<g>
					<path style="fill:#FF8D19;" d="M262.651,182.482c-5.427,0-10.46-0.889-14.614-2.406c-2.423-0.885-5.058-1.126-7.555-0.48
						c-0.015,0.004-0.031,0.008-0.046,0.012c-12.368,3.251-18.674,1.347-18.674,1.347l0.054,3.736c0,0,10.993-2.435,26.723-0.532
						c11.658,1.411,20.738-1.349,24.66-2.872C269.978,182.053,266.41,182.482,262.651,182.482z"/>
				</g>
				<g>
					<g>
						<polygon style="fill:#21263C;" points="259.314,240.255 276.879,350.549 284.805,413.173 285.455,413.091 277.528,350.469 
							259.964,240.177 						"/>
					</g>
				</g>
			</g>
		</g>
		<g>
			<g>
				<g>
					<path style="fill:#D1D9F3;" d="M465.921,164.845h-23.249c-1.391,0-2.518-1.128-2.518-2.518c0-1.391,1.127-2.518,2.518-2.518
						h23.249c1.391,0,2.518,1.128,2.518,2.518C468.439,163.718,467.312,164.845,465.921,164.845z"/>
				</g>
				<g>
					<path style="fill:#D1D9F3;" d="M454.297,176.47c-1.391,0-2.518-1.128-2.518-2.518v-23.25c0-1.391,1.127-2.518,2.518-2.518
						c1.391,0,2.518,1.128,2.518,2.518v23.25C456.815,175.343,455.688,176.47,454.297,176.47z"/>
				</g>
			</g>
			<g>
				<g>
					<path style="fill:#D1D9F3;" d="M86.101,113.324H68.939c-1.027,0-1.859-0.832-1.859-1.859c0-1.027,0.832-1.859,1.859-1.859
						h17.162c1.027,0,1.859,0.832,1.859,1.859C87.96,112.492,87.128,113.324,86.101,113.324z"/>
				</g>
				<g>
					<path style="fill:#D1D9F3;" d="M77.52,121.905c-1.027,0-1.859-0.832-1.859-1.859v-17.163c0-1.027,0.832-1.859,1.859-1.859
						c1.027,0,1.859,0.832,1.859,1.859v17.163C79.379,121.073,78.547,121.905,77.52,121.905z"/>
				</g>
			</g>
			<g>
				<g>
					<path style="fill:#D1D9F3;" d="M101.485,129.744H89.778c-0.7,0-1.268-0.568-1.268-1.268c0-0.7,0.568-1.268,1.268-1.268h11.707
						c0.7,0,1.268,0.568,1.268,1.268C102.753,129.176,102.185,129.744,101.485,129.744z"/>
				</g>
				<g>
					<path style="fill:#D1D9F3;" d="M95.631,135.598c-0.7,0-1.268-0.568-1.268-1.268v-11.708c0-0.7,0.568-1.268,1.268-1.268
						c0.701,0,1.268,0.568,1.268,1.268v11.708C96.899,135.03,96.332,135.598,95.631,135.598z"/>
				</g>
			</g>
			<g>
				<g>
					<path style="fill:#D1D9F3;" d="M339.982,53.535h-11.707c-0.701,0-1.268-0.568-1.268-1.268c0-0.7,0.568-1.268,1.268-1.268
						h11.707c0.701,0,1.268,0.568,1.268,1.268C341.25,52.968,340.682,53.535,339.982,53.535z"/>
				</g>
				<g>
					<path style="fill:#D1D9F3;" d="M334.128,59.389c-0.7,0-1.268-0.568-1.268-1.268V46.414c0-0.7,0.568-1.268,1.268-1.268
						c0.7,0,1.268,0.568,1.268,1.268v11.708C335.396,58.821,334.829,59.389,334.128,59.389z"/>
				</g>
			</g>
			<g>
				<g>
					<path style="fill:#D1D9F3;" d="M439.388,113.906h-11.707c-0.701,0-1.268-0.568-1.268-1.268c0-0.7,0.568-1.268,1.268-1.268
						h11.707c0.701,0,1.268,0.568,1.268,1.268C440.657,113.338,440.089,113.906,439.388,113.906z"/>
				</g>
				<g>
					<path style="fill:#D1D9F3;" d="M433.535,119.76c-0.701,0-1.268-0.568-1.268-1.268v-11.708c0-0.7,0.568-1.268,1.268-1.268
						s1.268,0.568,1.268,1.268v11.708C434.803,119.192,434.236,119.76,433.535,119.76z"/>
				</g>
			</g>
			<g>
				<g>
					<path style="fill:#D1D9F3;" d="M127.771,416.398h-11.707c-0.7,0-1.268-0.568-1.268-1.268c0-0.7,0.568-1.268,1.268-1.268h11.707
						c0.7,0,1.268,0.568,1.268,1.268C129.039,415.83,128.471,416.398,127.771,416.398z"/>
				</g>
				<g>
					<path style="fill:#D1D9F3;" d="M121.918,422.251c-0.7,0-1.268-0.568-1.268-1.268v-11.708c0-0.7,0.568-1.268,1.268-1.268
						c0.7,0,1.268,0.568,1.268,1.268v11.708C123.186,421.683,122.618,422.251,121.918,422.251z"/>
				</g>
			</g>
			<g>
				<g>
					<path style="fill:#D1D9F3;" d="M73.059,136.866H61.352c-0.7,0-1.268-0.568-1.268-1.268s0.568-1.268,1.268-1.268h11.707
						c0.7,0,1.268,0.568,1.268,1.268S73.759,136.866,73.059,136.866z"/>
				</g>
				<g>
					<path style="fill:#D1D9F3;" d="M67.205,142.72c-0.7,0-1.268-0.568-1.268-1.268v-11.707c0-0.7,0.568-1.268,1.268-1.268
						c0.7,0,1.268,0.568,1.268,1.268v11.707C68.473,142.152,67.906,142.72,67.205,142.72z"/>
				</g>
			</g>
			<g>
				<g>
					<path style="fill:#D1D9F3;" d="M30.33,276.732H16.585c-0.822,0-1.489-0.667-1.489-1.489c0-0.822,0.666-1.489,1.489-1.489H30.33
						c0.822,0,1.489,0.667,1.489,1.489C31.819,276.066,31.152,276.732,30.33,276.732z"/>
				</g>
				<g>
					<path style="fill:#D1D9F3;" d="M23.304,283.598c0.046-0.778-0.567-1.443-1.336-1.566v-13.577
						c0.769-0.123,1.382-0.788,1.336-1.566c0.891-0.089,1.642,0.609,1.642,1.481v13.746
						C24.947,282.989,24.196,283.687,23.304,283.598z"/>
				</g>
			</g>
		</g>
		<g>
			<g>
				<circle style="fill:#D1D9F3;" cx="152.395" cy="76.667" r="49.507"/>
				<g>
					<path style="fill:#6F60B3;" d="M179.852,59.153c-3.007-5.558-10.207-7.02-15.384-3.395c-1.855,1.299-4.16,2.001-6.635,1.825
						c-5.022-0.356-9.099-4.402-9.493-9.421c-0.003-0.041-0.006-0.081-0.009-0.122c-0.185-2.756-2.882-4.614-5.511-3.767
						c-13.628,4.39-23.163,17.897-21.416,33.337c1.624,14.358,13.074,25.775,27.436,27.362c18.821,2.08,34.751-12.6,34.751-31
						C183.591,68.608,182.237,63.561,179.852,59.153z M133.783,88.04c-3.048,0-5.52-2.471-5.52-5.52c0-3.048,2.471-5.52,5.52-5.52
						c3.048,0,5.52,2.471,5.52,5.52C139.303,85.569,136.832,88.04,133.783,88.04z M146.875,99.079c-3.048,0-5.52-2.471-5.52-5.52
						c0-3.048,2.471-5.52,5.52-5.52c3.048,0,5.52,2.471,5.52,5.52C152.395,96.608,149.923,99.079,146.875,99.079z M163.956,94.962
						c-3.048,0-5.52-2.471-5.52-5.52c0-3.048,2.471-5.52,5.52-5.52c3.048,0,5.52,2.471,5.52,5.52
						C169.476,92.491,167.004,94.962,163.956,94.962z"/>
					<path style="fill:#9E88E1;" d="M177.574,56.304c-3.549-3.09-8.972-3.442-13.106-0.547c-1.855,1.299-4.16,2.001-6.635,1.825
						c-5.022-0.356-9.099-4.402-9.493-9.421c-0.003-0.041-0.006-0.081-0.009-0.122c-0.185-2.756-2.882-4.614-5.511-3.767
						c-13.628,4.39-23.163,17.897-21.416,33.337c0.239,2.114,0.693,4.163,1.336,6.127c4.574,5.976,11.264,10.249,18.94,11.69
						c-0.21-0.583-0.325-1.212-0.325-1.868c0-3.048,2.471-5.52,5.52-5.52c3.048,0,5.52,2.471,5.52,5.52
						c0,0.742-0.147,1.448-0.412,2.094c2.834-0.404,5.545-1.188,8.08-2.3c-1.004-1-1.626-2.383-1.626-3.911
						c0-3.048,2.471-5.52,5.52-5.52c2.31,0,4.287,1.419,5.11,3.433c5.96-5.682,9.675-13.698,9.675-22.583
						C178.741,61.838,178.333,58.998,177.574,56.304z M133.783,88.04c-3.048,0-5.52-2.471-5.52-5.52c0-3.048,2.471-5.52,5.52-5.52
						c3.048,0,5.52,2.471,5.52,5.52C139.303,85.569,136.832,88.04,133.783,88.04z"/>
				</g>
			</g>
			<g>
				<circle style="fill:#D1D9F3;" cx="380.825" cy="91.677" r="39.094"/>
				<path style="fill:#9E88E1;" d="M396.69,74.288h-17.955h-3.666l-3.724,25.778c-1.011-0.473-2.208-0.748-3.491-0.748
					c-3.624,0-6.561,2.182-6.561,4.874c0,2.692,2.938,4.874,6.561,4.874c3.624,0,6.561-2.182,6.561-4.874l3.181-22.017h17.955
					l-2.584,17.891c-1.011-0.473-2.208-0.748-3.491-0.748c-3.624,0-6.561,2.182-6.561,4.874c0,2.692,2.938,4.874,6.561,4.874
					c3.624,0,6.561-2.182,6.561-4.874l4.32-29.904H396.69z"/>
			</g>
			<g>
				<circle style="fill:#D1D9F3;" cx="407.56" cy="230.077" r="54.117"/>
				<g>
					
						<rect x="364.964" y="204.029" transform="matrix(0.8929 0.4503 -0.4503 0.8929 147.5025 -158.8255)" style="fill:#4F3897;" width="85.191" height="53.137"/>
					<path style="fill:#EFEDED;" d="M420.009,204.453L420.009,204.453c-8.679-10.364-21.187-16.769-34.669-17.754l-0.624-0.046
						l-23.506,46.607l0.317,0.021c13.485,0.903,26.029,7.23,34.771,17.536l0.206,0.242L420.009,204.453z"/>
					<g>
						<path style="fill:#E4DCDC;" d="M414.756,206.774c-7.079-8.453-17.28-13.677-28.276-14.48l-0.509-0.037l-1.356,2.689
							l0.509,0.037c10.996,0.804,21.197,6.028,28.276,14.48l0,0L414.756,206.774L414.756,206.774z"/>
						<path style="fill:#E4DCDC;" d="M411.424,213.382c-7.079-8.453-17.28-13.677-28.276-14.48l-0.509-0.037l-1.356,2.689
							l0.509,0.037c10.996,0.804,21.197,6.028,28.276,14.48l0,0L411.424,213.382L411.424,213.382z"/>
						<path style="fill:#E4DCDC;" d="M408.091,219.989c-7.079-8.453-17.28-13.677-28.276-14.48l-0.509-0.037l-1.356,2.689
							l0.509,0.037c10.996,0.804,21.197,6.028,28.276,14.48l0,0L408.091,219.989L408.091,219.989z"/>
						<path style="fill:#E4DCDC;" d="M404.759,226.597c-7.079-8.453-17.28-13.677-28.276-14.48l-0.509-0.037l-1.356,2.689
							l0.509,0.037c10.996,0.804,21.197,6.028,28.276,14.48l0,0L404.759,226.597L404.759,226.597z"/>
						<path style="fill:#E4DCDC;" d="M401.426,233.204c-7.079-8.453-17.28-13.677-28.276-14.48l-0.509-0.037l-1.356,2.689
							l0.509,0.037c10.996,0.804,21.197,6.028,28.276,14.48l0,0L401.426,233.204L401.426,233.204z"/>
						<path style="fill:#E4DCDC;" d="M398.094,239.812c-7.079-8.453-17.28-13.677-28.276-14.48l-0.509-0.037l-1.356,2.689
							l0.509,0.037c10.996,0.804,21.197,6.028,28.276,14.48l0,0L398.094,239.812L398.094,239.812z"/>
					</g>
					<path style="fill:#E4DCDC;" d="M455.133,222.167L455.133,222.167c-8.679-10.364-21.187-16.769-34.669-17.754l-0.624-0.046
						l-23.506,46.607l0.317,0.021c13.485,0.903,26.029,7.23,34.771,17.536l0.206,0.242L455.133,222.167z"/>
					<polygon style="fill:#4F3897;" points="404.632,256.468 386.768,247.459 386.648,252.699 400.49,259.68 					"/>
					<g>
						<path style="fill:#BFAFAF;" d="M449.715,224.405c-7.079-8.453-17.28-13.677-28.276-14.48l-0.509-0.037l-1.356,2.689
							l0.509,0.037c10.996,0.804,21.197,6.028,28.276,14.48l0,0L449.715,224.405L449.715,224.405z"/>
						<path style="fill:#BFAFAF;" d="M446.383,231.013c-7.079-8.453-17.28-13.677-28.276-14.48l-0.509-0.037l-1.356,2.689
							l0.509,0.037c10.996,0.804,21.197,6.028,28.276,14.48l0,0L446.383,231.013L446.383,231.013z"/>
						<path style="fill:#BFAFAF;" d="M443.05,237.62c-7.079-8.453-17.28-13.677-28.276-14.48l-0.509-0.037l-1.356,2.689l0.509,0.037
							c10.996,0.804,21.197,6.028,28.276,14.48l0,0L443.05,237.62L443.05,237.62z"/>
						<path style="fill:#BFAFAF;" d="M439.718,244.228c-7.079-8.453-17.28-13.677-28.276-14.48l-0.509-0.037l-1.356,2.689
							l0.509,0.037c10.996,0.804,21.197,6.028,28.276,14.48l0,0L439.718,244.228L439.718,244.228z"/>
						<path style="fill:#BFAFAF;" d="M436.385,250.836c-7.079-8.453-17.28-13.677-28.276-14.48l-0.509-0.037l-1.356,2.689
							l0.509,0.037c10.996,0.804,21.197,6.028,28.276,14.48l0,0L436.385,250.836L436.385,250.836z"/>
						<path style="fill:#BFAFAF;" d="M433.053,257.443c-7.079-8.453-17.28-13.677-28.276-14.48l-0.509-0.037l-1.356,2.689
							l0.509,0.037c10.996,0.804,21.197,6.028,28.276,14.48l0,0L433.053,257.443L433.053,257.443z"/>
					</g>
				</g>
			</g>
			<g>
				<circle style="fill:#D1D9F3;" cx="416.242" cy="368.834" r="54.117"/>
				<g>
					
						<rect x="390.273" y="333.496" transform="matrix(0.2779 -0.9606 0.9606 0.2779 -53.7354 666.1847)" style="fill:#F1F1F1;" width="51.937" height="70.677"/>
					
						<rect x="391.463" y="334.685" transform="matrix(0.2779 -0.9606 0.9606 0.2779 -53.7341 666.1868)" style="fill:#6F60B3;" width="49.558" height="68.298"/>
					<polyline style="fill:#4F3897;" points="376.552,383.148 380.244,370.385 399.638,359.694 408.332,375.466 437.617,359.323 
						448.92,379.828 442.446,402.21 375.686,382.897 					"/>
					
						<ellipse transform="matrix(0.8941 -0.4479 0.4479 0.8941 -115.1953 222.3297)" style="fill:#9E88E1;" cx="412.52" cy="354.746" rx="5.948" ry="5.948"/>
				</g>
			</g>
			<g>
				<circle style="fill:#D1D9F3;" cx="150.442" cy="334.068" r="49.319"/>
				<g>
					<g>
						<path style="fill:#9E88E1;" d="M121.933,305.42L121.933,305.42c0.873-0.871,2.357-0.962,3.36-0.205
							c14.796,11.536,29.73,23.463,41.064,38.407c-2.119,2.112-4.237,4.224-6.356,6.337c-14.909-11.379-26.791-26.349-38.282-41.18
							C120.963,307.773,121.059,306.29,121.933,305.42z"/>
						<path style="fill:#9E88E1;" d="M121.933,305.42L121.933,305.42c0.873-0.871,2.357-0.962,3.36-0.205
							c14.796,11.536,29.73,23.463,41.064,38.407c-2.119,2.112-4.237,4.224-6.356,6.337c-14.909-11.379-26.791-26.349-38.282-41.18
							C120.963,307.773,121.059,306.29,121.933,305.42z"/>
					</g>
					<path style="fill:#6F60B3;" d="M125.292,305.215c-0.393-0.297-0.86-0.462-1.336-0.502c0.039,0.475,0.202,0.943,0.498,1.337
						c11.491,14.831,23.373,29.801,38.282,41.18c1.206-1.203,2.413-2.406,3.619-3.608
						C155.022,328.678,140.089,316.751,125.292,305.215z"/>
					<path style="fill:#DADADC;" d="M160.199,349.761l5.862-5.844c0.768-0.766,2.011-0.764,2.776,0.004v0
						c0.766,0.768,0.764,2.011-0.004,2.776l-5.862,5.844c-0.768,0.766-2.011,0.764-2.776-0.004l0,0
						C159.429,351.769,159.431,350.526,160.199,349.761z"/>
					<path style="fill:#F1F1F1;" d="M162.738,350.001c0.766,0.768,2.009,0.77,2.776,0.004l3.319-3.309
						c0.768-0.766,0.77-2.009,0.004-2.776c-0.766-0.768-2.009-0.77-2.776-0.004l-3.319,3.309
						C161.974,347.99,161.973,349.233,162.738,350.001z"/>
					<path style="fill:#222028;" d="M167.254,359.097c3.803,3.815,12.422,4.338,12.422,4.338s-3.348-3.358-4.141-10.164
						c-0.215-1.847-1.278-3.511-2.911-4.401c-2.681-1.461-5.036-0.931-6.721,0.749C163.659,351.855,163.45,355.282,167.254,359.097z
						"/>
					<path style="fill:#2F2B36;" d="M171.703,357.829c1.588,1.592,4.014,2.61,6.302,3.257c-0.962-1.688-2.06-4.287-2.471-7.815
						c-0.215-1.847-1.278-3.511-2.911-4.401c-0.699-0.381-1.375-0.624-2.024-0.749c-0.084,0.075-0.167,0.151-0.248,0.231
						C168.108,350.588,167.899,354.014,171.703,357.829z"/>
				</g>
			</g>
			<g>
				<circle style="fill:#D1D9F3;" cx="88.611" cy="247.646" r="28.996"/>
				<g>
					<path style="fill:#9E88E1;" d="M91.283,250.104l-13.242-0.467l1.575,5.255c1.966,6.559,25.97-0.637,24.004-7.196l-1.571-5.241
						L91.283,250.104z"/>
					<path style="fill:#6F60B3;" d="M85.586,249.903l-7.545-0.266l1.575,5.255c0,0,0,0,0,0.001c0.019,0.064,0.041,0.127,0.065,0.188
						c0.007,0.017,0.013,0.034,0.02,0.051c0.02,0.05,0.041,0.098,0.064,0.146c0.006,0.012,0.011,0.025,0.017,0.037
						c0.029,0.058,0.059,0.114,0.092,0.17c0.008,0.013,0.016,0.026,0.024,0.039c0.027,0.044,0.055,0.087,0.084,0.129
						c0.01,0.014,0.02,0.029,0.03,0.043c0.038,0.052,0.077,0.104,0.119,0.154c0.004,0.004,0.008,0.009,0.012,0.013
						c0.039,0.046,0.079,0.09,0.121,0.134c0.013,0.013,0.025,0.026,0.038,0.039c0.039,0.04,0.08,0.079,0.122,0.117
						c0.008,0.007,0.016,0.015,0.024,0.022c0.05,0.044,0.102,0.087,0.155,0.129c0.013,0.01,0.027,0.02,0.04,0.03
						c0.044,0.033,0.089,0.066,0.135,0.097c0.014,0.01,0.028,0.02,0.042,0.029c0.058,0.039,0.117,0.077,0.179,0.113
						c0.008,0.005,0.017,0.01,0.025,0.014c0.054,0.032,0.11,0.063,0.167,0.093c0.017,0.009,0.034,0.018,0.051,0.027
						c0.06,0.031,0.122,0.061,0.185,0.09c0.006,0.003,0.011,0.006,0.017,0.008c0.069,0.032,0.141,0.062,0.213,0.091
						c0.017,0.007,0.034,0.013,0.051,0.02c0.06,0.024,0.122,0.047,0.184,0.069c0.015,0.005,0.03,0.011,0.046,0.016
						c0.076,0.026,0.154,0.052,0.233,0.076c0.011,0.003,0.023,0.007,0.034,0.01c0.069,0.021,0.14,0.04,0.211,0.059
						c0.019,0.005,0.038,0.01,0.057,0.015c0.166,0.043,0.338,0.081,0.514,0.115c0.019,0.004,0.038,0.007,0.057,0.011
						c0.078,0.014,0.156,0.028,0.236,0.041c0.013,0.002,0.025,0.004,0.038,0.006c0.093,0.014,0.187,0.028,0.282,0.04
						c0.013,0.002,0.026,0.003,0.039,0.005c0.084,0.01,0.168,0.02,0.254,0.029c0.018,0.002,0.037,0.004,0.055,0.006
						c0.196,0.019,0.396,0.034,0.601,0.045c0.019,0.001,0.038,0.002,0.057,0.003c0.096,0.005,0.194,0.009,0.292,0.011
						c0.006,0,0.012,0,0.018,0.001c0.107,0.003,0.216,0.005,0.325,0.006c0.014,0,0.027,0,0.041,0c0.097,0,0.195,0,0.293-0.001
						c0.015,0,0.03,0,0.046,0c0.221-0.003,0.445-0.01,0.672-0.022c0.018-0.001,0.036-0.002,0.053-0.003
						c0.229-0.012,0.46-0.028,0.694-0.048c0.014-0.001,0.028-0.003,0.043-0.004c0.108-0.009,0.216-0.019,0.325-0.03
						c0.012-0.001,0.024-0.002,0.036-0.004c0.122-0.012,0.244-0.026,0.367-0.04c0,0,0,0,0,0L85.586,249.903z"/>
					<polygon style="fill:#4F3897;" points="86.264,233.365 64.056,249.144 91.283,250.104 113.491,234.325 					"/>
					<polygon style="fill:#513D9C;" points="86.264,233.365 113.491,234.325 113.165,233.24 85.939,232.28 63.731,248.059 
						64.056,249.144 					"/>
					<path style="fill:#F1F1F1;" d="M89.162,240.715c-0.201-0.265-0.578-0.318-0.844-0.118l-10.666,8.056
						c-0.105,0.079-0.175,0.187-0.211,0.304c-0.038,0.097-0.046,0.205-0.014,0.312l3.224,10.754
						c-0.406,0.322-0.598,0.871-0.44,1.397l0.199,0.662c0.207,0.689,0.935,1.082,1.625,0.875c0.689-0.207,1.082-0.935,0.875-1.625
						l-0.199-0.662c-0.158-0.526-0.62-0.878-1.136-0.924l-3.067-10.229l10.537-7.958C89.31,241.359,89.363,240.981,89.162,240.715z"
						/>
				</g>
				<g>
					<g>
						<g>
							<path style="fill:#B0B4E1;" d="M88.336,286.398c-21.558,0-39.097-17.539-39.097-39.098c0-21.558,17.539-39.097,39.097-39.097
								c21.558,0,39.098,17.539,39.098,39.097C127.434,268.859,109.895,286.398,88.336,286.398z M88.336,209.544
								c-20.819,0-37.756,16.937-37.756,37.756s16.937,37.757,37.756,37.757c20.819,0,37.756-16.938,37.756-37.757
								S109.155,209.544,88.336,209.544z"/>
						</g>
						<g>
							<path style="fill:#B0B4E1;" d="M88.336,286.566c-21.651,0-39.265-17.614-39.265-39.265c0-21.651,17.614-39.265,39.265-39.265
								c21.651,0,39.265,17.614,39.265,39.265C127.601,268.952,109.987,286.566,88.336,286.566z M88.336,208.371
								c-21.466,0-38.93,17.464-38.93,38.93s17.464,38.93,38.93,38.93c21.466,0,38.93-17.464,38.93-38.93
								S109.802,208.371,88.336,208.371z M88.336,285.225c-20.911,0-37.924-17.013-37.924-37.924s17.013-37.924,37.924-37.924
								c20.911,0,37.924,17.012,37.924,37.924S109.248,285.225,88.336,285.225z M88.336,209.712
								c-20.726,0-37.589,16.862-37.589,37.589c0,20.727,16.862,37.589,37.589,37.589c20.727,0,37.589-16.862,37.589-37.589
								C125.925,226.574,109.063,209.712,88.336,209.712z"/>
						</g>
					</g>
					<g>
						<g>
							<g>
								<path style="fill:#B0B4E1;" d="M84.079,294.281c-14.403-1.288-27.234-8.988-35.202-21.125l1.353-0.888
									c7.695,11.721,20.086,19.158,33.993,20.402L84.079,294.281z"/>
							</g>
							<g>
								<path style="fill:#B0B4E1;" d="M84.231,294.463l-0.167-0.015c-14.454-1.293-27.331-9.02-35.327-21.2l-0.092-0.14
									l1.633-1.072l0.092,0.14c7.667,11.678,20.012,19.087,33.868,20.327l0.167,0.015L84.231,294.463z M49.11,273.203
									c7.915,11.966,20.589,19.572,34.817,20.895l0.114-1.278c-13.836-1.288-26.16-8.684-33.859-20.322L49.11,273.203z"/>
							</g>
						</g>
						<g>
							<g>
								<path style="fill:#B0B4E1;" d="M111.992,288.118l-0.813-1.399c8.145-4.73,14.542-11.739,18.5-20.269l1.467,0.681
									C127.049,275.963,120.426,283.22,111.992,288.118z"/>
							</g>
							<g>
								<path style="fill:#B0B4E1;" d="M111.931,288.347l-0.981-1.689l0.145-0.084c8.115-4.713,14.488-11.696,18.432-20.195
									l0.071-0.152l1.771,0.822l-0.071,0.152c-4.112,8.863-10.759,16.146-19.223,21.061L111.931,288.347z M111.409,286.779
									l0.644,1.109c8.287-4.851,14.807-11.994,18.871-20.676l-1.163-0.54C125.807,275.115,119.466,282.062,111.409,286.779z"/>
							</g>
						</g>
						<g>
							<g>
								<path style="fill:#B0B4E1;" d="M132.013,234.325c-4.581-15.443-17.138-27.422-32.772-31.263l0.386-1.571
									c16.19,3.977,29.194,16.382,33.938,32.373L132.013,234.325z"/>
							</g>
							<g>
								<path style="fill:#B0B4E1;" d="M131.9,234.533l-0.048-0.161c-4.563-15.385-17.075-27.321-32.651-31.147l-0.163-0.04
									l0.466-1.897l0.163,0.04c16.247,3.991,29.298,16.44,34.058,32.488l0.048,0.161L131.9,234.533z M99.444,202.94
									c15.561,3.885,28.061,15.809,32.682,31.177l1.23-0.365c-4.75-15.804-17.604-28.065-33.606-32.057L99.444,202.94z"/>
							</g>
						</g>
						<g>
							<g>
								<path style="fill:#B0B4E1;" d="M42.785,247.301h-1.618c0-19,11.308-36.06,28.809-43.463l0.63,1.49
									C53.705,212.477,42.785,228.952,42.785,247.301z"/>
							</g>
							<g>
								<path style="fill:#B0B4E1;" d="M42.952,247.468h-1.953v-0.168c0-19.068,11.348-36.188,28.911-43.617l0.154-0.065
									l0.761,1.799l-0.154,0.065c-16.839,7.122-27.719,23.536-27.719,41.818V247.468z M41.335,247.133h1.283
									c0.067-18.293,10.946-34.706,27.769-41.893l-0.5-1.182C52.586,211.447,41.4,228.323,41.335,247.133z"/>
							</g>
						</g>
					</g>
				</g>
			</g>
		</g>
	</g>
</g>
</svg>
