<?xml version="1.0" encoding="utf-8"?>
<!-- Generator: Adobe Illustrator 27.5.0, SVG Export Plug-In . SVG Version: 6.00 Build 0)  -->
<svg version="1.1" xmlns="http://www.w3.org/2000/svg" xmlns:xlink="http://www.w3.org/1999/xlink" x="0px" y="0px"
	 viewBox="0 0 500 500" style="enable-background:new 0 0 500 500;" xml:space="preserve">
<g id="BACKGROUND">
	<rect transform="matrix(-1.836970e-16 1 -1 -1.836970e-16 500 5.684342e-14)" style="fill:#A9CCFF;" width="500" height="500"/>
</g>
<g id="OBJECTS">
	<g>
		
			<rect x="60.671" y="107.841" style="fill:#EFC43D;stroke:#000000;stroke-linecap:round;stroke-linejoin:round;stroke-miterlimit:10;" width="396.584" height="330.258"/>
		
			<rect x="42.745" y="89.915" style="fill:#FFFFFF;stroke:#000000;stroke-linecap:round;stroke-linejoin:round;stroke-miterlimit:10;" width="396.584" height="330.258"/>
		<g>
			<path style="fill:none;stroke:#81D0D3;stroke-linecap:round;stroke-linejoin:round;stroke-miterlimit:10;" d="M128.893,109.432
				h-27.964c-17.5,0-31.818,14.318-31.818,31.818v0c0,6.911,2.24,13.321,6.02,18.553l-6.02,14.77l13.696-7.218
				c5.152,3.594,11.4,5.712,18.122,5.712h27.964c17.5,0,31.818-14.318,31.818-31.818v0
				C160.711,123.75,146.393,109.432,128.893,109.432z"/>
			<g>
				<path style="fill:none;stroke:#81D0D3;stroke-linecap:round;stroke-linejoin:round;stroke-miterlimit:10;" d="M97.495,142.003
					c0-3.422-2.774-6.196-6.196-6.196c-3.422,0-6.196,2.774-6.196,6.196c0,3.422,2.774,6.196,6.196,6.196
					C94.721,148.199,97.495,145.424,97.495,142.003z"/>
				<path style="fill:none;stroke:#81D0D3;stroke-linecap:round;stroke-linejoin:round;stroke-miterlimit:10;" d="M144.72,142.003
					c0-3.422-2.774-6.196-6.196-6.196c-3.422,0-6.196,2.774-6.196,6.196c0,3.422,2.774,6.196,6.196,6.196
					C141.946,148.199,144.72,145.424,144.72,142.003z"/>
				<path style="fill:none;stroke:#81D0D3;stroke-linecap:round;stroke-linejoin:round;stroke-miterlimit:10;" d="M121.107,142.003
					c0-3.422-2.774-6.196-6.196-6.196c-3.422,0-6.196,2.774-6.196,6.196c0,3.422,2.774,6.196,6.196,6.196
					C118.333,148.199,121.107,145.424,121.107,142.003z"/>
			</g>
		</g>
		<g>
			<path style="fill:none;stroke:#6539E8;stroke-linecap:round;stroke-linejoin:round;stroke-miterlimit:10;" d="M384.186,109.432
				h-27.964c-17.5,0-31.818,14.318-31.818,31.818v0c0,6.911,2.24,13.321,6.02,18.553l-6.02,14.77l13.696-7.218
				c5.152,3.594,11.4,5.712,18.122,5.712h27.964c17.5,0,31.818-14.318,31.818-31.818v0
				C416.004,123.75,401.686,109.432,384.186,109.432z"/>
			<g>
				<path style="fill:none;stroke:#6539E8;stroke-linecap:round;stroke-linejoin:round;stroke-miterlimit:10;" d="M352.787,142.003
					c0-3.422-2.774-6.196-6.196-6.196s-6.196,2.774-6.196,6.196c0,3.422,2.774,6.196,6.196,6.196S352.787,145.424,352.787,142.003z"
					/>
				<path style="fill:none;stroke:#6539E8;stroke-linecap:round;stroke-linejoin:round;stroke-miterlimit:10;" d="M400.012,142.003
					c0-3.422-2.774-6.196-6.196-6.196c-3.422,0-6.196,2.774-6.196,6.196c0,3.422,2.774,6.196,6.196,6.196
					C397.238,148.199,400.012,145.424,400.012,142.003z"/>
				<path style="fill:none;stroke:#6539E8;stroke-linecap:round;stroke-linejoin:round;stroke-miterlimit:10;" d="M376.4,142.003
					c0-3.422-2.774-6.196-6.196-6.196c-3.422,0-6.196,2.774-6.196,6.196c0,3.422,2.774,6.196,6.196,6.196
					C373.626,148.199,376.4,145.424,376.4,142.003z"/>
			</g>
		</g>
		<g>
			<path style="fill:none;stroke:#E277C5;stroke-linecap:round;stroke-linejoin:round;stroke-miterlimit:10;" d="M156.582,177.189
				h27.964c17.5,0,31.818,14.318,31.818,31.818v0c0,6.911-2.24,13.321-6.02,18.553l6.02,14.77l-13.696-7.218
				c-5.152,3.594-11.4,5.712-18.122,5.712h-27.964c-17.5,0-31.818-14.318-31.818-31.818v0
				C124.764,191.507,139.082,177.189,156.582,177.189z"/>
			<g>
				<path style="fill:none;stroke:#E277C5;stroke-linecap:round;stroke-linejoin:round;stroke-miterlimit:10;" d="M187.981,209.759
					c0-3.422,2.774-6.196,6.196-6.196c3.422,0,6.196,2.774,6.196,6.196c0,3.422-2.774,6.196-6.196,6.196
					C190.755,215.955,187.981,213.181,187.981,209.759z"/>
				<path style="fill:none;stroke:#E277C5;stroke-linecap:round;stroke-linejoin:round;stroke-miterlimit:10;" d="M140.755,209.759
					c0-3.422,2.774-6.196,6.196-6.196c3.422,0,6.196,2.774,6.196,6.196c0,3.422-2.774,6.196-6.196,6.196
					C143.529,215.955,140.755,213.181,140.755,209.759z"/>
				<path style="fill:none;stroke:#E277C5;stroke-linecap:round;stroke-linejoin:round;stroke-miterlimit:10;" d="M164.368,209.759
					c0-3.422,2.774-6.196,6.196-6.196c3.422,0,6.196,2.774,6.196,6.196c0,3.422-2.774,6.196-6.196,6.196
					C167.142,215.955,164.368,213.181,164.368,209.759z"/>
			</g>
		</g>
	</g>
	<g>
		<path style="fill:#DA69AD;stroke:#000000;stroke-linecap:round;stroke-linejoin:round;stroke-miterlimit:10;" d="M194.244,455.365
			c0,0-21.336,7.345-25.882,9.094c-4.547,1.749-6.995,8.744-6.995,8.744h49.666v-17.838H194.244z"/>
		<path style="fill:#DA69AD;stroke:#000000;stroke-linecap:round;stroke-linejoin:round;stroke-miterlimit:10;" d="M292.25,455.365
			c0,0,21.336,7.345,25.882,9.094c4.547,1.749,6.995,8.744,6.995,8.744h-49.666v-17.838H292.25z"/>
		<path style="fill:#62A5F5;stroke:#000000;stroke-linecap:round;stroke-linejoin:round;stroke-miterlimit:10;" d="M228.703,196.061
			c0,0-3.505,16.124,11.084,79.852l33.017,181.202h27.49l-23.555-261.053l0,0H228.703z"/>
		<path style="fill:#62A5F5;stroke:#000000;stroke-linecap:round;stroke-linejoin:round;stroke-miterlimit:10;" d="M245.18,250.855
			c-1.477,7.396-3.255,15.715-5.394,25.058c-14.588,63.728-27.402,181.202-27.402,181.202h-27.49l19.249-261.053l0,0h48.036"/>
		<path style="fill:#EFC43D;stroke:#000000;stroke-linecap:round;stroke-linejoin:round;stroke-miterlimit:10;" d="M254.457,88.792
			l-12.742,4.302l-12.742-4.302l-27.579,9.189l-4.467,139.8c25.864,9.679,55.608,9.808,89.389,0l-4.281-139.8L254.457,88.792z"/>
		<g>
			<defs>
				<path id="SVGID_1_" d="M234.703,103.273c4.908,1.826,9.815,1.826,14.723,0c3.251-1.209,5.38-4.351,5.38-7.82V69.645h-25.484
					v25.808C229.322,98.922,231.451,102.064,234.703,103.273z"/>
			</defs>
			<use xlink:href="#SVGID_1_"  style="overflow:visible;fill:#95592D;"/>
			<clipPath id="SVGID_00000062909443828636422530000015833521395949567927_">
				<use xlink:href="#SVGID_1_"  style="overflow:visible;"/>
			</clipPath>
			
				<path style="clip-path:url(#SVGID_00000062909443828636422530000015833521395949567927_);stroke:#000000;stroke-linecap:round;stroke-linejoin:round;stroke-miterlimit:10;" d="
				M220.821,65.745c0-16.458,9.511-26.056,21.243-26.056c11.732,0,21.243,9.597,21.243,26.056s-8.501,27.356-21.243,27.356
				C229.322,93.102,220.821,82.204,220.821,65.745z"/>
			
				<use xlink:href="#SVGID_1_"  style="overflow:visible;fill:none;stroke:#000000;stroke-linecap:round;stroke-linejoin:round;stroke-miterlimit:10;"/>
		</g>
		<path style="fill:#95592D;stroke:#000000;stroke-linecap:round;stroke-linejoin:round;stroke-miterlimit:10;" d="M223.99,60.438
			c0,0-3.539-8.858-9.33-4.32c-5.791,4.538,0.322,18.502,9.33,15.36"/>
		<path style="fill:#95592D;stroke:#000000;stroke-linecap:round;stroke-linejoin:round;stroke-miterlimit:10;" d="M260.138,60.438
			c0,0,3.539-8.858,9.331-4.32c5.791,4.538-0.322,18.502-9.331,15.36"/>
		<g>
			<defs>
				<path id="SVGID_00000116207933918180104530000002977408701142156416_" d="M220.821,59.787c0-16.458,9.511-26.056,21.243-26.056
					c11.732,0,21.243,9.597,21.243,26.056s-8.501,27.356-21.243,27.356C229.322,87.144,220.821,76.246,220.821,59.787z"/>
			</defs>
			<use xlink:href="#SVGID_00000116207933918180104530000002977408701142156416_"  style="overflow:visible;fill:#95592D;"/>
			<clipPath id="SVGID_00000152223938626786370210000001909816675851395982_">
				<use xlink:href="#SVGID_00000116207933918180104530000002977408701142156416_"  style="overflow:visible;"/>
			</clipPath>
			
				<circle style="opacity:0.5;clip-path:url(#SVGID_00000152223938626786370210000001909816675851395982_);" cx="230.154" cy="71.038" r="5.754"/>
			
				<circle style="opacity:0.5;clip-path:url(#SVGID_00000152223938626786370210000001909816675851395982_);" cx="253.974" cy="71.038" r="5.754"/>
			
				<use xlink:href="#SVGID_00000116207933918180104530000002977408701142156416_"  style="overflow:visible;fill:none;stroke:#000000;stroke-linecap:round;stroke-linejoin:round;stroke-miterlimit:10;"/>
		</g>
		<path style="fill:#95592D;stroke:#000000;stroke-linecap:round;stroke-linejoin:round;stroke-miterlimit:10;" d="M256.74,183.954
			c0,0,1.869-1.661-0.559-4.627c0,0,1.234-2.338-1.411-4.258l-0.988-0.846c0,0-0.277-2.236-2.329-4.396
			c-2.052-2.16-8.71-2.757-15.407-2.88c-6.697-0.123-14.002,2.026-16.196,8.083c-0.96,2.65-0.252,5.205,0.849,7.241
			c0.013,0.024,0.026,0.048,0.039,0.072c1.917,3.494,5.814,5.428,9.789,5.129l9.397-0.707c0,0,7.35-0.409,10.008-0.015
			c2.657,0.394,6.639,3.707,8.035,2.074C259.672,186.83,256.74,183.954,256.74,183.954z"/>
		<path style="stroke:#000000;stroke-linecap:round;stroke-linejoin:round;stroke-miterlimit:10;" d="M219.48,43.601
			c-0.814,3.249-1.288,6.972-1.288,11.234l2.629,4.952c0,0,0.472-22.172,21.243-22.172c20.771,0,21.243,22.172,21.243,22.172
			l2.629-4.952c0-4.263-0.474-7.985-1.288-11.234C258.803,20.274,225.325,20.274,219.48,43.601z"/>
		<path style="fill:#EFC43D;stroke:#000000;stroke-linecap:round;stroke-linejoin:round;stroke-miterlimit:10;" d="M195.417,160.764
			l15.514-35.638c0.022-0.06,0.043-0.121,0.064-0.181c3.111-8.882,0.181-18.77-7.034-24.814l-2.567-2.15c0,0-5.978,0-12.981,11.838
			c-11.667,19.721-28.272,59.665-21.392,67.056c14.474,15.546,60.753,6.574,60.753,6.574l0.675-16.386L195.417,160.764z"/>
		<path style="fill:#EFC43D;stroke:#000000;stroke-linecap:round;stroke-linejoin:round;stroke-miterlimit:10;" d="M302.214,148.669
			l-8.696-37.883c-0.018-0.061-0.037-0.123-0.056-0.184c-2.775-8.993-11.007-15.205-20.401-15.78l-3.342-0.204
			c0,0-4.808,3.552-3.408,17.235c2.333,22.795,12.71,64.79,22.636,66.646c20.878,3.904,52.772-30.81,52.772-30.81l-9.193-13.581
			L302.214,148.669z"/>
		<g>
			
				<rect x="215.117" y="183.559" style="fill:#E277C5;stroke:#000000;stroke-linecap:round;stroke-linejoin:round;stroke-miterlimit:10;" width="111.045" height="7.101"/>
			<polygon style="fill:#E277C5;stroke:#000000;stroke-linecap:round;stroke-linejoin:round;stroke-miterlimit:10;" points="
				375.537,122.013 264.492,122.013 244.763,190.66 355.808,190.66 			"/>
		</g>
		<g>
			<path style="fill:none;stroke:#000000;stroke-linecap:round;stroke-linejoin:round;stroke-miterlimit:10;" d="M238.949,67.741
				c2.077,2.077,4.154,2.077,6.231,0"/>
			<g>
				<defs>
					<path id="XMLID_00000170977814409568695240000015429496439859614851_" d="M235.08,71.038c4.656,1.585,9.312,1.585,13.968,0
						c0,0-0.297,6.241-6.984,6.241C235.377,77.279,235.08,71.038,235.08,71.038z"/>
				</defs>
				<use xlink:href="#XMLID_00000170977814409568695240000015429496439859614851_"  style="overflow:visible;fill:#DA445A;"/>
				<clipPath id="XMLID_00000161602622837178459910000018083788087718235576_">
					<use xlink:href="#XMLID_00000170977814409568695240000015429496439859614851_"  style="overflow:visible;"/>
				</clipPath>
				
					<path style="clip-path:url(#XMLID_00000161602622837178459910000018083788087718235576_);fill:#DA6E87;stroke:#000000;stroke-linecap:round;stroke-linejoin:round;stroke-miterlimit:10;" d="
					M237.466,75.347c3.066-1.585,6.131-1.585,9.197,0v6.288h-9.197V75.347"/>
				
					<use xlink:href="#XMLID_00000170977814409568695240000015429496439859614851_"  style="overflow:visible;fill:none;stroke:#000000;stroke-linecap:round;stroke-linejoin:round;stroke-miterlimit:10;"/>
			</g>
			<g>
				<path style="fill:none;stroke:#000000;stroke-linecap:round;stroke-linejoin:round;stroke-miterlimit:10;" d="M231.647,61.683
					c0-1.123,0.91-2.033,2.033-2.033c1.123,0,2.033,0.91,2.033,2.033"/>
				<path style="fill:none;stroke:#000000;stroke-linecap:round;stroke-linejoin:round;stroke-miterlimit:10;" d="M248.416,61.683
					c0-1.123,0.91-2.033,2.033-2.033c1.123,0,2.033,0.91,2.033,2.033"/>
				<path style="stroke:#000000;stroke-linecap:round;stroke-linejoin:round;stroke-miterlimit:10;" d="M231,57.044
					c1.122-0.755,2.758-1.494,5.018-1.722c0.823-0.083,1.447-0.782,1.447-1.608l0,0c0-1.024-0.936-1.794-1.94-1.59
					c-1.69,0.343-4.092,1.306-5.542,3.98C229.63,56.757,230.384,57.458,231,57.044z"/>
				<path style="stroke:#000000;stroke-linecap:round;stroke-linejoin:round;stroke-miterlimit:10;" d="M253.128,57.044
					c-1.122-0.755-2.758-1.494-5.019-1.722c-0.823-0.083-1.447-0.782-1.447-1.608l0,0c0-1.024,0.936-1.794,1.94-1.59
					c1.69,0.343,4.092,1.306,5.542,3.98C254.498,56.757,253.744,57.458,253.128,57.044z"/>
				<path style="fill:none;stroke:#000000;stroke-linecap:round;stroke-linejoin:round;stroke-miterlimit:10;" d="M216.636,62.167
					c0,0,3.678-0.113,4.634,4.229"/>
				<path style="fill:none;stroke:#000000;stroke-linecap:round;stroke-linejoin:round;stroke-miterlimit:10;" d="M267.492,62.167
					c0,0-3.678-0.113-4.634,4.229"/>
			</g>
		</g>
		<path style="fill:#FFFFFF;stroke:#000000;stroke-linecap:round;stroke-linejoin:round;stroke-miterlimit:10;" d="M261.517,90.812
			l-6.411-5.17l-12.892,18.993l-12.892-18.993l-6.411,5.17c0,0-1.07,15.242,19.453,26.591
			C262.888,106.053,261.517,90.812,261.517,90.812z"/>
		
			<line style="fill:#62A5F5;stroke:#000000;stroke-linecap:round;stroke-linejoin:round;stroke-miterlimit:10;" x1="195.417" y1="160.764" x2="183.146" y2="158.12"/>
		
			<line style="fill:#62A5F5;stroke:#000000;stroke-linecap:round;stroke-linejoin:round;stroke-miterlimit:10;" x1="191.65" y1="457.207" x2="208.854" y2="241.492"/>
		
			<line style="fill:#62A5F5;stroke:#000000;stroke-linecap:round;stroke-linejoin:round;stroke-miterlimit:10;" x1="243.733" y1="257.93" x2="279.278" y2="457.114"/>
		<path style="fill:#62A5F5;stroke:#000000;stroke-linecap:round;stroke-linejoin:round;stroke-miterlimit:10;" d="M206.895,266.053
			c0,0,9.399-2.559,13.864-22.226"/>
		<path style="fill:#62A5F5;stroke:#000000;stroke-linecap:round;stroke-linejoin:round;stroke-miterlimit:10;" d="M269.271,241.952
			c0,0,1.774,15.464,13.784,24.101"/>
		
			<rect x="158.484" y="329.822" transform="matrix(-1.836970e-16 1 -1 -1.836970e-16 630.9023 39.9418)" style="fill:#81D0D3;stroke:#000000;stroke-linecap:round;stroke-linejoin:round;stroke-miterlimit:10;" width="273.992" height="11.199"/>
		<path style="fill:#81D0D3;stroke:#000000;stroke-linecap:round;stroke-linejoin:round;stroke-miterlimit:10;" d="M257.877,209.759
			h75.534c8.744,0,15.833-7.089,15.833-15.833l0,0h-107.2l0,0C242.044,202.67,249.132,209.759,257.877,209.759z"/>
		<path style="fill:#6539E8;stroke:#000000;stroke-linecap:round;stroke-linejoin:round;stroke-miterlimit:10;" d="M377.124,190.012
			h-162.96c-2.904,0-5.258,2.354-5.258,5.258l0,0c0,2.904,2.354,5.258,5.258,5.258h162.96c2.904,0,5.258-2.354,5.258-5.258l0,0
			C382.382,192.366,380.028,190.012,377.124,190.012z"/>
		<path style="fill:#6539E8;stroke:#000000;stroke-linecap:round;stroke-linejoin:round;stroke-miterlimit:10;" d="M326.904,463.378
			h-62.521c-5.808,0-10.517,4.709-10.517,10.517l0,0h83.554l0,0C337.42,468.086,332.712,463.378,326.904,463.378z"/>
	</g>
	<g>
		<path style="fill:#1F286D;stroke:#000000;stroke-linecap:round;stroke-linejoin:round;stroke-miterlimit:10;" d="M177.299,258.876
			c-11.072-5.676-23.848-8.517-38.326-8.517c-14.48,0-27.222,2.841-38.221,8.517c-11.003,5.68-19.627,13.947-25.871,24.806
			c-6.248,10.86-9.369,24.098-9.369,39.712v79.423h49.4v-30.023h47.27v30.023h50.252v-79.423c0-15.614-3.088-28.852-9.263-39.712
			C196.996,272.823,188.372,264.555,177.299,258.876z M114.911,334.892v-15.756c0-9.652,2.235-16.748,6.707-21.294
			c4.472-4.541,10.115-6.814,16.928-6.814c6.814,0,12.456,2.273,16.927,6.814c4.472,4.546,6.708,11.642,6.708,21.294v15.756H114.911
			z"/>
		
			<rect x="226.514" y="338.744" style="fill:#1F286D;stroke:#000000;stroke-linecap:round;stroke-linejoin:round;stroke-miterlimit:10;" width="36.413" height="20.635"/>
		<polygon style="fill:#1F286D;stroke:#000000;stroke-linecap:round;stroke-linejoin:round;stroke-miterlimit:10;" points="
			347.477,363.85 415.52,284.64 415.52,253.765 284.143,253.765 284.143,292.731 350.058,292.731 282.013,371.942 282.013,402.816 
			418.927,402.816 418.927,363.85 		"/>
	</g>
</g>
</svg>
