<?xml version="1.0" encoding="utf-8"?>
<!-- Generator: Adobe Illustrator 27.5.0, SVG Export Plug-In . SVG Version: 6.00 Build 0)  -->
<svg version="1.1" xmlns="http://www.w3.org/2000/svg" xmlns:xlink="http://www.w3.org/1999/xlink" x="0px" y="0px"
	 viewBox="0 0 500 500" style="enable-background:new 0 0 500 500;" xml:space="preserve">
<g id="BACKGROUND">
	<rect style="fill:#BEC5D4;" width="500" height="500"/>
</g>
<g id="OBJECTS">
	<g>
		<g>
			<path style="fill:#697C55;" d="M421.732,299.023c0,0-4.13-125.473,0-137.427c4.13-11.954,5.074,14.156,6.647,63.86
				c1.573,49.704,1.665,73.567,1.665,73.567H421.732z"/>
			<path style="fill:#52663F;" d="M411.299,299.023c-12.953-77.825-6.41-101.863,5.628,0H411.299z"/>
			<path style="fill:#52663F;" d="M433.095,299.023c4.1-96.453,3.117-110.464-4.908-78.665c-4.201,16.644,1.827,78.665,1.827,78.665
				H433.095z"/>
			<path style="fill:#52663F;" d="M415.961,299.023c-11.788-94.225-2.455-103.667-1.541-102.524
				c1.233,1.54,9.435,102.524,9.435,102.524H415.961z"/>
			<path style="fill:#B89966;" d="M452.018,426.906h-56.965c-17.526-71.777,12.5-70.708,12.5-127.883h30.904
				C438.458,343.543,473.556,358.848,452.018,426.906z"/>
			<path style="fill:#B08E5A;" d="M426.46,299.024v111.791c0,7.603-5.044,14.017-11.961,16.091h-19.445
				c-17.526-71.777,12.5-70.708,12.5-127.883H426.46z"/>
			<path style="fill:#697C55;" d="M436.053,299.023c19.962-109.919,19.962-149.665,6.097-88.043
				c-13.865,61.621-10.784,88.043-10.784,88.043H436.053z"/>
			<path style="fill:#697C55;" d="M410.313,299.023c-13.575-35.599-18.158-48.076-6.063-38.527
				c12.095,9.549,9.422,38.527,9.422,38.527H410.313z"/>
			<path style="fill:#697C55;" d="M436.053,299.023c26.38-50.069,10.275-45.196-6.01,0H436.053z"/>
		</g>
		<g>
			<path style="fill:none;stroke:#FFFFFF;stroke-miterlimit:10;" d="M391.761,364.874c5.447,0,5.447,6,10.894,6
				c5.448,0,5.448-6,10.897-6c5.45,0,5.45,6,10.901,6c5.448,0,5.448-6,10.897-6c5.452,0,5.452,6,10.905,6s5.452-6,10.905-6"/>
		</g>
	</g>
	<g>
		<g>
			<path style="fill:#B2BACC;" d="M391.211,427.616H260.604c-10.153,0-18.383-8.23-18.383-18.383V146.748
				c0-10.153,8.23-18.383,18.383-18.383h130.607c10.153,0,18.383,8.23,18.383,18.383v262.484
				C409.593,419.385,401.363,427.616,391.211,427.616z"/>
			<path style="fill:#FFFFFF;" d="M400.692,145.163v265.652c0,9.284-7.52,16.804-16.795,16.804H250.12c-0.146,0-0.292,0-0.429-0.009
				c-9.083-0.228-16.366-7.657-16.366-16.795V145.163c0-9.275,7.52-16.795,16.795-16.795h133.776
				C393.171,128.367,400.692,135.888,400.692,145.163z"/>
			<path style="fill:#F1F4F6;" d="M320.618,410.248c0,9.585-7.776,17.362-17.371,17.362h-53.556
				c-9.083-0.228-16.366-7.657-16.366-16.795v-17.937h69.922c4.797,0,9.138,1.946,12.281,5.09
				C318.671,401.11,320.618,405.451,320.618,410.248z"/>
			<path style="fill:#F1F4F6;" d="M379.25,427.616h-16.743v-299.25h16.743c10.153,0,18.383,8.23,18.383,18.383v262.484
				C397.633,419.385,389.403,427.616,379.25,427.616z"/>
			<path style="fill:#C4CBD7;" d="M394.064,156.777v226.771c0,6.57-5.126,11.906-11.45,11.906h-131.2
				c-6.323,0-11.459-5.336-11.459-11.906V156.777c0-6.579,5.135-11.907,11.459-11.907h131.2
				C388.937,144.87,394.064,150.197,394.064,156.777z"/>
			<path style="fill:#B2BBCB;" d="M394.064,384.671c0,5.95-4.328,10.783-9.666,10.783H273.64c-5.338,0-9.673-4.833-9.673-10.783
				V179.292c0-5.959,4.335-10.783,9.673-10.783h120.423V384.671z"/>
			<path style="fill:#B2BACC;" d="M259.584,395.454h-8.169c-6.323,0-11.459-5.336-11.459-11.906V156.777
				c0-6.579,5.135-11.907,11.459-11.907h8.169c-6.323,0-11.459,5.327-11.459,11.907v226.771
				C248.125,390.118,253.26,395.454,259.584,395.454z"/>
			
				<ellipse transform="matrix(0.1607 -0.987 0.987 0.1607 -140.2006 658.1573)" style="fill:none;stroke:#BEC5D4;stroke-miterlimit:10;" cx="316.889" cy="411.515" rx="10.241" ry="10.241"/>
			<g>
				<path style="fill:#FFFFFF;" d="M404.139,182.7v-11.66c0-1.417,1.149-2.566,2.566-2.566h2.123v16.792h-2.123
					C405.288,185.266,404.139,184.117,404.139,182.7z"/>
				<path style="fill:#B2BACC;" d="M406.484,182.921v-12.102c0-1.295,1.05-2.345,2.345-2.345l0,0c1.295,0,2.345,1.05,2.345,2.345
					v12.102c0,1.295-1.05,2.345-2.345,2.345l0,0C407.534,185.266,406.484,184.216,406.484,182.921z"/>
			</g>
			<g>
				<path style="fill:#FFFFFF;" d="M404.139,221.966v-28.772c0-1.417,1.149-2.566,2.566-2.566h2.123v33.904h-2.123
					C405.288,224.532,404.139,223.383,404.139,221.966z"/>
				<path style="fill:#B2BACC;" d="M406.484,222.188v-29.214c0-1.295,1.05-2.345,2.345-2.345l0,0c1.295,0,2.345,1.05,2.345,2.345
					v29.214c0,1.295-1.05,2.345-2.345,2.345l0,0C407.534,224.532,406.484,223.482,406.484,222.188z"/>
			</g>
			<g>
				<path style="fill:#FFFFFF;" d="M404.139,261.232V232.46c0-1.417,1.149-2.566,2.566-2.566h2.123v33.904h-2.123
					C405.288,263.798,404.139,262.649,404.139,261.232z"/>
				<path style="fill:#B2BACC;" d="M406.484,261.453v-29.214c0-1.295,1.05-2.345,2.345-2.345l0,0c1.295,0,2.345,1.05,2.345,2.345
					v29.214c0,1.295-1.05,2.345-2.345,2.345l0,0C407.534,263.798,406.484,262.748,406.484,261.453z"/>
			</g>
			<g>
				<path style="fill:#8491AD;" d="M403.643,313.702v-1.868c0-0.955,0.774-1.729,1.729-1.729l0,0c0.955,0,1.729,0.774,1.729,1.729
					v1.868c0,0.955-0.774,1.729-1.729,1.729l0,0C404.417,315.431,403.643,314.657,403.643,313.702z"/>
				<path style="fill:#FFFFFF;" d="M407.1,311.835v1.866c0,0.959-0.777,1.727-1.727,1.727c-0.32,0-0.612-0.082-0.868-0.238
					c0.521-0.292,0.868-0.85,0.868-1.49v-1.866c0-0.64-0.347-1.197-0.868-1.489c0.256-0.155,0.548-0.238,0.868-0.238
					C406.323,310.108,407.1,310.875,407.1,311.835z"/>
			</g>
		</g>
		<g>
			<g>
				<path style="fill:#383C55;" d="M252.542,322.179l7.38,24.114c48.82-14.249,85.986-57.025,103.826-101.614
					c4.166-10.412-0.386-22.278-10.448-27.23l0,0c-8.676-4.27-19.135-2.206-25.539,5.039L252.542,322.179z"/>
				<g>
					<g>
						<polygon style="fill:#A6704D;" points="237.338,253.283 204.04,220.971 195.51,228.769 215.577,272.951 						"/>
					</g>
					<g>
						<g>
							<g>
								<g>
									<path style="fill:#A6704D;" d="M156.803,224.866l7.741,3.567l11.917-0.776l-4.032-5.857l-5.929,1.524l-8.481-1.91
										c-0.759-0.173-1.54,0.195-1.903,0.897l-0.125,0.255c-0.146,0.307-0.205,0.63-0.162,0.939
										C155.889,224.084,156.236,224.616,156.803,224.866z"/>
									<path style="fill:#A6704D;" d="M154.766,227.754l12.422,5.066l1.803,0.734l12.616-1.181l0.686-8.184l-14.973,2.484
										l-11.087-3.182c-0.656-0.188-1.346-0.07-1.895,0.308c-0.217,0.149-0.407,0.337-0.559,0.554
										c-0.316,0.443-0.445,0.965-0.404,1.463C153.435,226.639,153.928,227.41,154.766,227.754z"/>
									<path style="fill:#7E4A27;" d="M154.766,227.754l12.422,5.066l8.352-2.102l-9.092,0.072l-13.074-4.974
										C153.435,226.639,153.928,227.41,154.766,227.754z"/>
									<path style="fill:#A6704D;" d="M151.657,232.471c0.211,0.306,0.477,0.556,0.832,0.744l1.339,0.715l7.182,3.82l6.496,1.677
										l12.342,3.202l7.752-14.967l-20.844,5.267l-12.489-4.098c-1.006-0.286-2.082,0.117-2.654,0.981
										C151.067,230.658,151.13,231.706,151.657,232.471z"/>
									<polygon style="fill:#7E4A27;" points="154.811,234.453 161.009,237.75 167.506,239.428 175.03,235.358 164.675,236.355 
																			"/>
									<path style="fill:#A6704D;" d="M179.856,242.629l-15.121,0.365l-9.335-4.581c-0.859-0.422-1.201-1.469-0.756-2.316l0,0
										c0.395-0.752,1.285-1.097,2.084-0.808l7.356,2.664l10.947-2.595L179.856,242.629z"/>
									<path style="fill:#A6704D;" d="M165.891,215.035c0.422,0.613,1.09,1.037,1.856,1.111l9.714,1.023l4.832,7.018l21.747-3.217
										l0,0c-4.253-6.983-11.969-11.098-20.137-10.741l-15.95,0.697c-1.817,0.066-3.031,1.936-2.327,3.614
										C165.693,214.72,165.785,214.882,165.891,215.035z"/>
									<path style="fill:#A6704D;" d="M204.03,220.969c-14.771-6.144-31.783,0.959-31.783,0.959l7.75,20.641l25.809-8.309
										L204.03,220.969z"/>
								</g>
							</g>
						</g>
						<path style="fill:#7E4A27;" d="M155.829,223.505l11.491,3.167l8.114-2.074l-8.562,0.52l-10.88-2.553
							C155.845,222.873,155.785,223.196,155.829,223.505z"/>
						<path style="fill:#7E4A27;" d="M179.992,232.798c4.776-8.146,10.654-11.123,19.732-8.492
							C199.724,224.306,188.411,222.766,179.992,232.798z"/>
					</g>
					<path style="fill:#383C55;" d="M305.68,305.069l-89.369-73.059l-14.413,9.768c0,0,10.324,53.704,58.142,104.439L305.68,305.069
						z"/>
					<polygon style="fill:#FFFFFF;" points="203.8,255.228 223.931,236.761 211.805,226.75 198.189,242.478 					"/>
				</g>
			</g>
			<g>
				<g>
					<path style="fill:#FFFFFF;" d="M332.974,195.033l-3.639-10.958l-26.38,18.436c-7.305,5.105-3.694,16.58,5.218,16.583l0,0
						L332.974,195.033z"/>
					<polygon style="fill:#A6704D;" points="337.442,210.097 308.176,219.085 301.676,207.288 292.099,189.927 288.3,183.052 
						313.767,134.151 					"/>
					<path style="fill:#7E4A27;" d="M313.981,180.35c0,0-0.22,14.011-14.427,23.091l-7.455-13.515L313.981,180.35z"/>
					<path style="fill:#A6704D;" d="M319.857,181.896l-30.508,17.251c-7.635,4.317-17.261-0.143-18.862-8.777
						c-2.226-11.766-3.749-27.646,0.148-40.879c2.304-7.815,7.118-14.324,13.41-18.827c2.82-2.039,5.956-3.658,9.3-4.786
						l0.033-0.015l1.898-0.578l0.191-0.068c0.953-0.26,1.912-0.463,2.886-0.632c2.313-0.426,4.686-0.638,7.101-0.585
						c2.308,0.042,4.531,0.467,6.58,1.216c8.612,3.149,14.322,12.04,12.934,21.738l-1.217,8.323L319.857,181.896z"/>
					<path style="fill:#231817;" d="M282.333,131.981c18.007-20.793,48.045-11.595,57.124-2.123
						c15.384,16.049,7.119,39.695-10.123,54.217l-18.582-44.462L282.333,131.981z"/>
					<path style="fill:#A6704D;" d="M269.694,153.171c-1.767,6.58-6.135,8.456-9.105,8.894c-1.907,0.281-3.28,1.965-3.181,3.89l0,0
						c0.131,2.539,1.744,4.762,4.117,5.673l8.396,3.224c4.587,0.888,8.941-2.366,9.39-7.016l1.522-15.762L269.694,153.171z"/>
					<path style="fill:#231817;" d="M321.3,157.431c0,0-24.646,2.86-30.267-18.22l11.352-9.204
						c11.216-1.294,21.639,5.968,24.311,16.937l1.579,6.481L321.3,157.431z"/>
					<path style="fill:#A6704D;" d="M311.245,160.999c32.307-24.26,36.426,18.681,1.374,16.37L311.245,160.999z"/>
					<path style="fill:#8295BB;" d="M309.985,286.522l-13.197,55.625l61.534-3.669c0,0,7.59-25.024,13.804-54.52
						c2.982-14.146,4.031-30.033,0.596-46.051c-9.016-42.044-38.813-44.006-40.113-42.718l-24.437,23.905
						C304.747,229.934,284.825,263.055,309.985,286.522z"/>
					<polygon style="fill:#231817;" points="309.208,145.907 307.837,167.314 311.748,166.779 317.386,153.194 					"/>
					<path style="fill:#231817;" d="M276.297,162.431c-0.732,3.004-0.214,5.711,1.156,6.044c1.37,0.334,3.074-1.831,3.805-4.836
						c0.732-3.004,0.214-5.71-1.156-6.044C278.732,157.262,277.028,159.427,276.297,162.431z"/>
					<path style="fill:#231817;" d="M284.175,149.22c5.914,2.921,7.782-0.092,3.592-3.01
						C283.261,143.071,276.816,145.585,284.175,149.22z"/>
					<path style="fill:#FFFFFF;" d="M287.541,179.128c-0.734,9.319-8.101,10.121-11.416,2.304
						C274.976,178.724,287.541,179.128,287.541,179.128z"/>
					<path style="fill:#2D314E;" d="M378.324,394.293H277.572c6.488-34.029,19.217-52.149,19.217-52.149l61.534-3.664
						C372.924,352.872,377.146,378.394,378.324,394.293z"/>
					<path style="fill:#8295BB;" d="M376.552,379.724L362.4,364.289h-72.013l-8.828,13.242
						c-26.269-11.824-17.575-30.202,4.869-39.056l2.381-10.085l14.579-61.366l1.792-7.57l6.875,2.515l34.054,12.466l26.028,9.523
						l-0.374,58.183C371.763,342.139,409.107,358.698,376.552,379.724z"/>
					<g>
						<defs>
							<path id="SVGID_1_" d="M371.763,342.139l0.374-58.183l-0.011-0.004c2.981-14.145,4.03-30.03,0.595-46.046
								c-9.016-42.044-38.813-44.006-40.113-42.718l-24.437,23.905c-2.905,9.194-17.67,34.412-6.744,56.176l-12.62,53.12
								l-2.381,10.085c-22.444,8.854-31.138,27.232-4.869,39.056l8.828-13.241H362.4l14.151,15.435
								C409.107,358.698,371.763,342.139,371.763,342.139z"/>
						</defs>
						<clipPath id="SVGID_00000157991856257890677590000014355461702532042657_">
							<use xlink:href="#SVGID_1_"  style="overflow:visible;"/>
						</clipPath>
						<g style="clip-path:url(#SVGID_00000157991856257890677590000014355461702532042657_);">
							<path style="fill:#798CB1;" d="M306.019,210.556c-0.345,10.891-1.075,21.769-2.197,32.607
								c-1.123,10.85-2.636,21.659-4.531,32.401c-1.893,10.731-4.168,21.394-6.818,31.963c-2.65,10.569-5.675,21.044-9.069,31.398
								c-3.398,10.364-7.164,20.609-11.299,30.702c-0.519,1.266-1.044,2.53-1.573,3.792c-0.225,0.535,0.567,0.994,0.795,0.451
								c4.214-10.036,8.077-20.219,11.568-30.53c3.511-10.369,6.649-20.863,9.409-31.457c2.773-10.642,5.164-21.384,7.168-32.198
								c1.983-10.702,3.586-21.475,4.807-32.291c1.228-10.878,2.066-21.8,2.507-32.737c0.055-1.367,0.104-2.735,0.147-4.102
								C306.951,209.967,306.038,209.968,306.019,210.556z"/>
							<path style="fill:#798CB1;" d="M280.754,337.436c-3.621,8.802-7.242,17.604-10.863,26.406
								c-1.024,2.49-2.048,4.979-3.073,7.469c-0.221,0.536,0.571,0.995,0.795,0.451c3.621-8.802,7.242-17.604,10.863-26.406
								c1.024-2.49,2.049-4.979,3.073-7.469C281.77,337.351,280.978,336.892,280.754,337.436z"/>
							<path style="fill:#798CB1;" d="M303.536,227.284l-6.251,42.787c-0.581,3.979-1.162,7.957-1.744,11.935
								c-0.084,0.575,0.799,0.815,0.884,0.232l6.251-42.787c0.581-3.979,1.162-7.957,1.743-11.935
								C304.505,226.94,303.622,226.701,303.536,227.284z"/>
							<path style="fill:#798CB1;" d="M309.04,215.904c-0.917,11.384-1.837,22.769-2.977,34.133
								c-1.146,11.422-2.513,22.826-4.322,34.163c-1.721,10.787-3.841,21.515-6.539,32.102c-2.597,10.187-5.724,20.245-9.52,30.051
								c-3.806,9.833-8.296,19.411-13.566,28.547c-0.659,1.142-1.331,2.277-2.013,3.405c-0.304,0.503,0.49,0.955,0.795,0.451
								c5.48-9.062,10.172-18.582,14.164-28.387c3.961-9.727,7.246-19.72,9.98-29.858c2.843-10.54,5.089-21.234,6.911-31.995
								c1.904-11.238,3.349-22.549,4.549-33.883c1.214-11.464,2.175-22.952,3.105-34.442c0.116-1.429,0.231-2.858,0.346-4.287
								C310.001,215.317,309.086,215.321,309.04,215.904z"/>
							<path style="fill:#798CB1;" d="M311.656,203.778c-0.734,11.626-1.471,23.253-2.389,34.866
								c-0.917,11.609-2.015,23.206-3.472,34.76c-1.468,11.649-3.309,23.256-5.695,34.754c-2.351,11.327-5.245,22.541-8.797,33.552
								c-3.543,10.982-7.713,21.761-12.487,32.266c-0.59,1.299-1.191,2.593-1.799,3.884c-0.249,0.528,0.543,0.985,0.795,0.451
								c4.904-10.412,9.227-21.095,12.926-31.993c3.749-11.044,6.835-22.302,9.341-33.692c2.508-11.396,4.452-22.91,6.011-34.472
								c1.561-11.577,2.74-23.201,3.712-34.841c0.979-11.723,1.749-23.462,2.494-35.201c0.092-1.445,0.183-2.889,0.274-4.334
								C312.607,203.19,311.693,203.193,311.656,203.778z"/>
							<path style="fill:#798CB1;" d="M314.735,206.82c-0.778,11.902-1.565,23.804-2.509,35.694
								c-0.945,11.909-2.046,23.807-3.453,35.671c-1.403,11.833-3.114,23.633-5.282,35.352c-2.154,11.64-4.76,23.201-7.966,34.598
								c-3.222,11.455-7.048,22.747-11.605,33.741c-0.563,1.359-1.138,2.714-1.723,4.064c-0.231,0.533,0.561,0.992,0.795,0.451
								c4.699-10.854,8.693-22.002,12.062-33.338c3.402-11.447,6.175-23.076,8.467-34.794c2.28-11.657,4.084-23.403,5.569-35.186
								c1.5-11.905,2.671-23.849,3.665-35.805c0.997-12.003,1.816-24.02,2.606-36.037c0.097-1.47,0.193-2.94,0.289-4.41
								C315.687,206.232,314.773,206.235,314.735,206.82z"/>
							<path style="fill:#798CB1;" d="M317.225,202.078c-0.198,11.274-0.641,22.543-1.335,33.797
								c-0.69,11.199-1.626,22.382-2.807,33.54c-1.194,11.285-2.639,22.543-4.333,33.763c-1.675,11.094-3.593,22.152-5.753,33.162
								c-2.171,11.065-4.585,22.081-7.242,33.039c-0.327,1.349-0.658,2.698-0.993,4.046c-0.141,0.57,0.742,0.805,0.884,0.232
								c2.714-10.944,5.191-21.947,7.422-32.999c2.242-11.107,4.237-22.264,5.985-33.459c1.728-11.069,3.214-22.176,4.458-33.31
								c1.252-11.206,2.257-22.439,3.014-33.689c0.761-11.305,1.271-22.628,1.53-33.956c0.032-1.388,0.059-2.777,0.084-4.165
								C318.149,201.489,317.235,201.49,317.225,202.078z"/>
							<path style="fill:#798CB1;" d="M322.198,198.147c-1.67,22.594-3.714,45.16-6.139,67.685
								c-2.42,22.486-5.217,44.932-8.39,67.325c-1.773,12.512-3.664,25.007-5.67,37.484c-0.092,0.575,0.79,0.814,0.884,0.232
								c3.584-22.294,6.798-44.648,9.637-67.049c2.849-22.475,5.322-44.999,7.415-67.557c1.178-12.696,2.236-25.404,3.176-38.119
								C323.155,197.559,322.241,197.563,322.198,198.147z"/>
							<path style="fill:#798CB1;" d="M326.125,195.309c-1.305,23.192-3.042,46.359-5.217,69.485
								c-2.182,23.204-4.801,46.367-7.858,69.473c-1.708,12.909-3.554,25.8-5.533,38.671c-0.089,0.575,0.794,0.814,0.884,0.232
								c3.536-22.997,6.643-46.06,9.313-69.173c2.666-23.075,4.898-46.199,6.694-69.358c1.016-13.1,1.891-26.211,2.629-39.329
								C327.072,194.72,326.158,194.723,326.125,195.309z"/>
							<path style="fill:#798CB1;" d="M328.391,189.86c-0.017,23.582-0.824,47.162-2.427,70.689
								c-1.601,23.488-3.991,46.922-7.17,70.249c-1.793,13.151-3.837,26.266-6.126,39.34c-0.101,0.575,0.782,0.813,0.884,0.232
								c4.074-23.267,7.367-46.669,9.866-70.158c2.495-23.449,4.199-46.982,5.109-70.546c0.512-13.262,0.77-26.534,0.779-39.806
								C329.305,189.271,328.391,189.271,328.391,189.86z"/>
							<path style="fill:#798CB1;" d="M330.713,194.398c-0.528,23.138-1.554,46.264-3.083,69.358
								c-1.521,22.977-3.538,45.921-6.05,68.811c-1.423,12.975-3.007,25.932-4.747,38.868c-0.077,0.575,0.806,0.815,0.884,0.232
								c3.091-22.976,5.689-46.018,7.783-69.107c2.09-23.049,3.68-46.144,4.769-69.263c0.61-12.96,1.061-25.928,1.358-38.899
								C331.64,193.809,330.727,193.81,330.713,194.398z"/>
							<path style="fill:#798CB1;" d="M332.826,192.34c-0.081-0.582-0.964-0.344-0.884,0.232c3.201,22.994,1.924,46.294,0,69.339
								c-1.943,23.272-4.103,46.527-6.165,69.789c-1.164,13.135-2.329,26.27-3.493,39.405c-0.052,0.586,0.862,0.582,0.914,0
								l6.231-70.29c1.035-11.681,2.092-23.36,3.1-35.043c0.998-11.578,1.884-23.174,2.178-34.794
								C335.034,218.072,334.607,205.136,332.826,192.34z"/>
							<path style="fill:#798CB1;" d="M336.755,232.011c0.207-13.512,0.157-27.029-0.212-40.538
								c-0.016-0.586-0.93-0.611-0.914-0.022c0.657,24.072,0.294,48.161-0.704,72.219c-0.999,24.076-2.626,48.121-4.478,72.146
								c-1.04,13.485-2.15,26.964-3.261,40.443c-0.048,0.587,0.865,0.607,0.914,0.022c1.98-24.018,3.958-48.038,5.535-72.087
								C335.211,280.16,336.386,256.095,336.755,232.011z"/>
							<path style="fill:#798CB1;" d="M339.931,231.464c0.448-13.234,0.91-26.468,1.366-39.701c0.02-0.589-0.894-0.588-0.914,0
								c-0.814,23.601-1.684,47.2-2.343,70.806c-0.659,23.626-1.073,47.262-0.855,70.898c0.123,13.261,0.447,26.521,1.034,39.769
								c0.026,0.586,0.94,0.589,0.914,0c-1.046-23.609-1.251-47.247-0.989-70.876C338.407,278.721,339.131,255.09,339.931,231.464z"
								/>
							<path style="fill:#798CB1;" d="M345.519,304.543c-0.515-23.698-1.03-47.396-1.545-71.094l-0.871-40.104
								c-0.013-0.588-0.927-0.589-0.914,0c0.518,23.819,1.035,47.639,1.553,71.458c0.515,23.698,1.03,47.396,1.545,71.094
								c0.29,13.368,0.581,26.736,0.871,40.104c0.013,0.588,0.927,0.589,0.914,0C346.554,352.181,346.037,328.362,345.519,304.543z"
								/>
							<path style="fill:#798CB1;" d="M348.668,303.033c-1.441-23.744-2.271-47.525-2.49-71.312
								c-0.123-13.403-0.051-26.807,0.212-40.208c0.012-0.589-0.902-0.588-0.914,0c-0.467,23.783-0.328,47.578,0.424,71.354
								c0.753,23.776,2.116,47.532,4.089,71.238c1.111,13.357,2.418,26.698,3.915,40.017c0.065,0.579,0.979,0.585,0.914,0
								C352.162,350.483,350.108,326.777,348.668,303.033z"/>
							<path style="fill:#798CB1;" d="M354.938,339.499c-0.456-11.6-0.584-23.211-0.629-34.819
								c-0.045-11.558-0.006-23.116-0.122-34.674c-0.116-11.531-0.386-23.065-1.05-34.579c-0.662-11.475-1.721-22.933-3.398-34.306
								c-0.209-1.419-0.429-2.837-0.657-4.253c-0.094-0.581-0.977-0.344-0.884,0.232c1.844,11.446,3.035,22.987,3.793,34.553
								c0.75,11.448,1.083,22.919,1.237,34.388c0.155,11.556,0.127,23.113,0.156,34.669c0.028,11.496,0.112,22.993,0.487,34.484
								c0.376,11.527,1.045,23.049,2.246,34.522c0.149,1.427,0.307,2.853,0.473,4.278c0.067,0.578,0.982,0.584,0.914,0
								C356.172,362.537,355.39,351.023,354.938,339.499z"/>
							<path style="fill:#798CB1;" d="M358.132,304.878c-1.037-23.269-1.822-46.55-2.686-69.826
								c-0.486-13.086-0.972-26.173-1.458-39.259c-0.022-0.587-0.936-0.589-0.914,0c0.871,23.436,1.741,46.873,2.612,70.31
								c0.863,23.241,1.715,46.486,3.154,69.7c0.807,13.024,1.802,26.036,3.082,39.023c0.057,0.581,0.972,0.586,0.914,0
								C360.543,351.564,359.172,328.225,358.132,304.878z"/>
							<path style="fill:#798CB1;" d="M365.989,274.182c-0.373-11.322-1.02-22.638-2.126-33.912
								c-1.103-11.237-2.661-22.434-4.852-33.512c-0.275-1.389-0.56-2.776-0.854-4.161c-0.122-0.577-1.006-0.342-0.884,0.232
								c4.719,22.235,6.796,44.927,7.669,67.613c0.878,22.815,0.613,45.659,0.54,68.486c-0.042,13.075-0.083,26.15-0.125,39.225
								c-0.002,0.589,0.912,0.589,0.914,0c0.037-11.732,0.075-23.465,0.112-35.197c0.037-11.517,0.096-23.033,0.088-34.55
								C366.463,296.996,366.364,285.585,365.989,274.182z"/>
							<path style="fill:#798CB1;" d="M368.813,348.445c-0.135-2.807-0.271-5.614-0.406-8.421c-0.028-0.586-0.942-0.589-0.914,0
								c0.483,10.014,0.965,20.028,1.448,30.043c0.135,2.807,0.271,5.614,0.406,8.421c0.028,0.586,0.942,0.589,0.914,0
								C369.778,368.473,369.295,358.459,368.813,348.445z"/>
							<path style="fill:#798CB1;" d="M372.664,355.933c-0.107-2.387-0.215-4.775-0.322-7.162c-0.026-0.587-0.94-0.589-0.914,0
								l1.14,25.35c0.108,2.387,0.215,4.775,0.322,7.162c0.026,0.586,0.94,0.589,0.914,0
								C373.424,372.833,373.044,364.383,372.664,355.933z"/>
							<path style="fill:#798CB1;" d="M374.997,351.941l-0.98-8.825c-0.064-0.579-0.979-0.585-0.914,0
								c1.156,10.409,2.313,20.819,3.469,31.228c0.327,2.942,0.654,5.884,0.98,8.825c0.064,0.579,0.979,0.585,0.914,0
								L374.997,351.941z"/>
							<path style="fill:#798CB1;" d="M378.923,353.091c-0.201-2.686-0.402-5.372-0.603-8.058c-0.044-0.584-0.958-0.588-0.914,0
								c0.71,9.496,1.42,18.992,2.131,28.488c0.201,2.686,0.402,5.372,0.603,8.058c0.044,0.584,0.958,0.588,0.914,0
								C380.343,372.083,379.633,362.587,378.923,353.091z"/>
							<path style="fill:#798CB1;" d="M382.077,351.836l-0.934-7.232c-0.075-0.583-0.958-0.344-0.884,0.232
								c1.09,8.437,2.18,16.875,3.27,25.312l0.934,7.232c0.075,0.583,0.958,0.344,0.884-0.232
								C384.257,368.711,383.167,360.273,382.077,351.836z"/>
							<path style="fill:#798CB1;" d="M389.26,374.316c-1.647-7.926-3.293-15.853-4.94-23.779c-0.12-0.577-1.003-0.342-0.884,0.232
								c1.647,7.926,3.293,15.853,4.94,23.779C388.496,375.126,389.379,374.891,389.26,374.316z"/>
							<path style="fill:#798CB1;" d="M275.09,342.201c-3.001,7.872-6.45,15.572-10.329,23.05c-1.09,2.101-2.215,4.184-3.37,6.25
								c-0.287,0.512,0.507,0.966,0.795,0.451c4.151-7.418,7.879-15.07,11.153-22.914c0.913-2.188,1.791-4.39,2.636-6.605
								C276.183,341.885,275.298,341.656,275.09,342.201z"/>
						</g>
					</g>
				</g>
			</g>
			<g>
				<path style="fill:#383C55;" d="M365.058,351.686l24.424,6.279c13.301-49.087-3.816-103.106-32.559-141.581
					c-6.712-8.984-19.21-11.288-28.682-5.285l0,0c-8.168,5.176-11.861,15.177-9.019,24.419L365.058,351.686z"/>
				<g>
					<path style="fill:#617650;" d="M210.817,268.785l-1.252,28.109l45.019,36.361l-3.884-30.598l-38.576-34.422
						C211.63,267.794,210.847,268.125,210.817,268.785z"/>
					<polygon style="fill:#FFFFFF;" points="256.887,299.682 219.267,266.113 216.422,267.233 216.561,268.634 215.04,267.777 
						212.055,268.952 210.802,297.076 253.346,331.437 260.558,328.598 					"/>
					<path style="fill:#F0F2F6;" d="M216.561,268.634c0,0,1.49,8.948-1.521,21.201v-22.058L216.561,268.634z"/>
					<path style="fill:#F0F2F6;" d="M219.37,266.205c0,0,1.723,18.229-2.389,28.54l-6.179,2.33l53.079,34.362l-4.702-29.71
						L219.37,266.205z"/>
					<polygon style="fill:#F0F2F6;" points="219.287,293.793 259.085,277.661 265.969,287.319 223.988,300.125 					"/>
					<g>
						<path style="fill:#617650;" d="M214.048,297.751l49.919-17.742c0.944-0.335,1.998-0.065,2.665,0.682l33.765,37.793
							c0.518,0.58,0.733,1.369,0.58,2.131l-0.361,1.804l-46.758,10.854L214.048,297.751z"/>
						<path style="fill:#6A8057;" d="M219.276,297.733l43.978-15.584c0.945-0.335,1.998-0.065,2.665,0.682l34.315,38.409
							c0.755,0.846,0.332,2.192-0.771,2.453l-40.378,9.562L219.276,297.733z"/>
						<path style="fill:#617650;" d="M238.616,311.651c2.227,1.078,4.671,1.978,7.125,1.663c2.488-0.32,4.662-1.846,7.101-2.434
							c2.66-0.641,5.585-0.081,7.821,1.495c2.291,1.615,3.782,4.173,4.618,6.848c0.837,2.676,1.08,5.495,1.319,8.288
							c-6.688,1.953-14.072,3.868-20.412,0.979c-2.866-1.306-5.225-3.487-7.531-5.632c-3.173-2.951-9.551-6.868-10.01-11.665
							C228.113,305.6,236.49,310.65,238.616,311.651z"/>
						<polygon style="fill:#617650;" points="234.325,303.269 262.549,293.97 272.055,303.915 243.756,312.665 						"/>
						<polygon style="fill:#617650;" points="219.276,297.733 209.565,296.894 253.857,333.273 259.085,333.255 						"/>
					</g>
					<path style="fill:#FFFFFF;" d="M245.652,283.106l-12.994,5.254l-4.807,1.946l-10.015,4.048c0,0,9.366-11.248,5.144-29.99
						L245.652,283.106z"/>
					<polygon style="fill:#D84F4C;" points="210.802,297.076 220.404,293.363 221.053,289.134 210.941,293.97 					"/>
					<polygon style="fill:#D84F4C;" points="232.658,288.36 227.852,290.306 220.404,293.363 221.053,289.134 					"/>
				</g>
				<g>
					<polygon style="fill:#A6704D;" points="254.104,337.091 226.632,318.342 261.92,321 264.911,332.815 					"/>
					<path style="fill:#A6704D;" d="M259.14,322.225l4.968-0.701c1.468-0.207,2.345-1.744,1.778-3.113l-0.175-0.423
						c-1.074-2.592-4.144-3.698-6.624-2.387l0,0c-1.663,0.879-2.653,2.655-2.526,4.533l0,0
						C256.65,321.447,257.836,322.409,259.14,322.225z"/>
					<path style="fill:#A6704D;" d="M248.23,322.008l-21.595-3.661l-0.257-0.636c-1.008-2.5-3.062-4.427-5.618-5.267
						c-0.41-0.14-0.673-0.526-0.663-0.939c0.002-0.065,0.014-0.13,0.026-0.195c0.387-1.719,1.923-2.879,3.617-2.841
						c0.282,0.006,0.564,0.056,0.855,0.128l1.283,0.442l0.129,0.047c2.21,0.767,3.897,2.565,4.52,4.818l17.143,7.853L248.23,322.008
						z"/>
					<path style="fill:#7E4A27;" d="M240.209,322.915l-9.846-3.398c-1.39-4.212-3.753-5.832-6.31-6.673
						c-0.41-0.14-0.673-0.526-0.663-0.939c0.001-0.065,0.014-0.13,0.026-0.195c0.291-1.319,1.269-2.307,2.462-2.672l0.129,0.047
						c2.21,0.767,3.897,2.565,4.52,4.818l1.864,4.569L240.209,322.915z"/>
					<path style="fill:#A6704D;" d="M232.391,318.472l-0.255-0.633c-1.006-2.496-3.06-4.422-5.615-5.266l0,0
						c-0.473-0.156-0.75-0.645-0.641-1.131l0,0c0.45-2.01,2.48-3.244,4.472-2.719l1.413,0.492c2.208,0.769,3.898,2.571,4.526,4.822
						l0,0l17.701,8.102L232.391,318.472z"/>
					<polygon style="fill:#A6704D;" points="291.338,321.665 260.855,327.321 254.104,337.091 302.014,349.119 					"/>
				</g>
				<path style="fill:#383C55;" d="M384.115,297.415l-112.131,27.403l-0.874,17.389c0,0,49.103,24.075,118.399,16.42
					L384.115,297.415z"/>
				<polygon style="fill:#FFFFFF;" points="276.624,347.734 279.771,322.915 267.021,325.346 261.436,341.613 				"/>
			</g>
			<path style="fill:#FFFFFF;" d="M335.121,194.963l-5.787-10.888l-20.352,14.223c-7.089,4.954-7.492,15.305-0.81,20.795l0,0
				L335.121,194.963z"/>
		</g>
		<g>
			<g>
				<path style="opacity:0.8;fill:#241816;" d="M381.458,395.372H252.561c-6.962,0-12.605-5.643-12.605-12.605v-8.854h154.108v8.854
					C394.064,389.728,388.42,395.372,381.458,395.372z"/>
				<g>
					<path style="fill:#FFFFFD;" d="M259.747,385.325l-7.388,4.709c-0.539,0.344-1.246-0.044-1.246-0.683v-9.417
						c0-0.64,0.706-1.027,1.246-0.683l7.388,4.709C260.247,384.277,260.247,385.007,259.747,385.325z"/>
				</g>
				<g>
					<g>
						
							<line style="fill:none;stroke:#FFFFFD;stroke-width:2;stroke-linecap:round;stroke-linejoin:round;stroke-miterlimit:10;" x1="269.232" y1="384.642" x2="382.827" y2="384.642"/>
					</g>
					<g>
						
							<line style="fill:none;stroke:#D84F4C;stroke-width:2;stroke-linecap:round;stroke-linejoin:round;stroke-miterlimit:10;" x1="266.396" y1="384.642" x2="285.737" y2="384.642"/>
					</g>
					<path style="fill:#D84F4C;" d="M292.786,384.642c0,3.893-3.156,7.048-7.048,7.048c-3.893,0-7.048-3.156-7.048-7.048
						c0-3.893,3.156-7.048,7.048-7.048C289.63,377.594,292.786,380.75,292.786,384.642z"/>
				</g>
				<path style="fill:#FFFFFD;" d="M289.21,384.642c0,1.918-1.555,3.472-3.472,3.472c-1.918,0-3.472-1.554-3.472-3.472
					c0-1.918,1.555-3.472,3.472-3.472C287.655,381.17,289.21,382.725,289.21,384.642z"/>
			</g>
		</g>
	</g>
	<g>
		<g>
			
				<linearGradient id="SVGID_00000162332425386328227340000014668668138200481441_" gradientUnits="userSpaceOnUse" x1="103.1467" y1="399.2146" x2="102.2737" y2="248.5983">
				<stop  offset="0" style="stop-color:#FFFFFF"/>
				<stop  offset="1" style="stop-color:#FFFFFF;stop-opacity:0"/>
			</linearGradient>
			<path style="fill:url(#SVGID_00000162332425386328227340000014668668138200481441_);" d="M126.764,310.234
				c5.387-9.052,2.83-21.181-5.693-27.297c-6.297-4.518-14.602-5.165-21.417-8.867c-4.264-2.316-9.604-9.031-4.025-13.027
				c-10.764,5.803-14.568,21.545-7.641,31.62c3.616,5.259,9.641,9.173,11.053,15.393c4.231,18.632-28.115,24.132-22.575,42.877
				l10.883-0.179c-0.357-5.097,0.281-10.287,3.148-14.67c2.025-3.097,4.637-5.242,6.977-8.033c2.289-2.714,3.855-6.084,5.072-9.402
				c1.143,9.3-5.055,12.093-8.809,18.204c-3.004,4.89-4.167,8.974-5.282,13.884l35.083-0.57c2.757-1.991,3.506-5.897,2.834-9.232
				c-1.303-6.465-7.371-12.23-6.237-19.154C120.859,317.365,124.475,314.08,126.764,310.234z M118.255,308.192
				c-0.63-2.663,0.715-4.782,1.464-7.42c0.893-3.123,0.536-6.586-0.962-9.471c-1.498-2.885-3.667-5.335-6.731-6.399
				c2.885,1.055,5.837,2.153,8.194,4.127c2.357,1.974,4.033,5.046,3.514,8.075C123.029,301.215,118.655,304.048,118.255,308.192z"/>
			<g>
				<g>
					<path style="fill:#FFFFFF;" d="M139.666,366.975c-3.125-1.526-6.643-2.376-10.344-2.376c-13.104,0-23.776,10.664-23.776,23.776
						s10.673,23.776,23.776,23.776c3.701,0,7.219-0.85,10.344-2.376c7.95-3.847,13.442-11.998,13.442-21.401
						S147.616,370.822,139.666,366.975z M139.666,402.338c-2.897,2.147-6.469,3.418-10.344,3.418c-9.576,0-17.38-7.795-17.38-17.38
						c0-9.586,7.804-17.38,17.38-17.38c3.874,0,7.447,1.27,10.344,3.418c4.267,3.171,7.045,8.251,7.045,13.962
						S143.933,399.167,139.666,402.338z"/>
				</g>
				<path style="fill:#F1F4F6;" d="M111.942,388.375c0,9.585,7.804,17.38,17.38,17.38c3.874,0,7.447-1.27,10.344-3.418v7.438
					c-3.125,1.526-6.643,2.376-10.344,2.376c-13.104,0-23.776-10.664-23.776-23.776s10.673-23.776,23.776-23.776
					c3.701,0,7.219,0.85,10.344,2.376v7.438c-2.897-2.147-6.469-3.418-10.344-3.418C119.746,370.995,111.942,378.79,111.942,388.375
					z"/>
				<path style="fill:#FFFFFF;" d="M125.796,349.193H75.829c-2.613,0-4.731,2.118-4.731,4.731v68.903
					c0,2.613,2.118,4.731,4.731,4.731h49.967c2.613,0,4.731-2.118,4.731-4.731v-68.903
					C130.527,351.311,128.409,349.193,125.796,349.193z"/>
				<path style="fill:#F1F4F6;" d="M123.448,349.193h-20.787v78.365h20.787c2.889,0,5.231-2.342,5.231-5.231v-67.903
					C128.679,351.535,126.337,349.193,123.448,349.193z"/>
			</g>
			
				<linearGradient id="SVGID_00000068636037117049102300000007556951503657442989_" gradientUnits="userSpaceOnUse" x1="86.63" y1="363.4082" x2="86.5747" y2="353.8671">
				<stop  offset="0" style="stop-color:#FFFFFF"/>
				<stop  offset="1" style="stop-color:#FFFFFF;stop-opacity:0"/>
			</linearGradient>
			<path style="fill:url(#SVGID_00000068636037117049102300000007556951503657442989_);" d="M86.795,360.131
				c-0.375-1.974-0.676-4.012-0.813-6.068l1.188-0.018C86.722,355.936,86.567,357.938,86.795,360.131z"/>
		</g>
		<line style="fill:none;stroke:#B89966;stroke-miterlimit:10;" x1="71.098" y1="360.131" x2="130.527" y2="360.131"/>
		<line style="fill:none;stroke:#B89966;stroke-miterlimit:10;" x1="71.098" y1="368.01" x2="130.527" y2="368.01"/>
	</g>
	<g>
		<path style="fill:#B89966;" d="M287.556,392.875H120.939v34.739h166.617c9.593,0,17.37-7.777,17.37-17.369v0
			C304.925,400.652,297.149,392.875,287.556,392.875z"/>
		<g>
			<defs>
				<path id="SVGID_00000065777617662594417510000002883203084980496319_" d="M287.556,392.875H119.113v34.739h168.443
					c9.593,0,17.37-7.777,17.37-17.369v0C304.925,400.652,297.149,392.875,287.556,392.875z"/>
			</defs>
			<clipPath id="SVGID_00000155134216829875044800000002481387570600789921_">
				<use xlink:href="#SVGID_00000065777617662594417510000002883203084980496319_"  style="overflow:visible;"/>
			</clipPath>
			
				<path style="clip-path:url(#SVGID_00000155134216829875044800000002481387570600789921_);fill:none;stroke:#FFFFFF;stroke-miterlimit:10;" d="
				M218.377,428.138c9.882,0,17.893-8.011,17.893-17.893v0c0-9.882-8.011-17.893-17.893-17.893"/>
			
				<path style="clip-path:url(#SVGID_00000155134216829875044800000002481387570600789921_);fill:none;stroke:#FFFFFF;stroke-miterlimit:10;" d="
				M277.574,428.138c9.882,0,17.893-8.011,17.893-17.893v0c0-9.882-8.011-17.893-17.893-17.893"/>
		</g>
		<path style="fill:#B08E5A;" d="M207.403,392.875h-83.388v34.739h83.388c9.593,0,17.37-7.777,17.37-17.369v0
			C224.772,400.652,216.996,392.875,207.403,392.875z"/>
		<path style="fill:#B08E5A;" d="M118.855,392.875h16.283v5.204h-16.283c-1.437,0-2.602-1.165-2.602-2.602l0,0
			C116.252,394.04,117.417,392.875,118.855,392.875z"/>
		<path style="fill:#B08E5A;" d="M118.855,422.406h16.283v5.204h-16.283c-1.437,0-2.602-1.165-2.602-2.602v0
			C116.252,423.572,117.417,422.406,118.855,422.406z"/>
		<g>
			<path style="fill:#FFFFFF;" d="M205.931,398.083h-84.99v24.323h84.99c6.717,0,12.162-5.445,12.162-12.162v0
				C218.092,403.528,212.647,398.083,205.931,398.083z"/>
			<g>
				<defs>
					<path id="SVGID_00000170262562361906810100000003409073222765446833_" d="M205.931,398.083h-84.99v24.323h84.99
						c6.717,0,12.162-5.445,12.162-12.162v0C218.092,403.528,212.647,398.083,205.931,398.083z"/>
				</defs>
				<clipPath id="SVGID_00000147940051989830566640000007682599676577800091_">
					<use xlink:href="#SVGID_00000170262562361906810100000003409073222765446833_"  style="overflow:visible;"/>
				</clipPath>
				<g style="clip-path:url(#SVGID_00000147940051989830566640000007682599676577800091_);">
					<line style="fill:none;stroke:#F1F4F6;stroke-miterlimit:10;" x1="214.582" y1="404.026" x2="120.941" y2="404.026"/>
					<line style="fill:none;stroke:#F1F4F6;stroke-miterlimit:10;" x1="217.772" y1="408.869" x2="120.941" y2="408.869"/>
					<line style="fill:none;stroke:#F1F4F6;stroke-miterlimit:10;" x1="217.772" y1="413.712" x2="120.941" y2="413.712"/>
					<line style="fill:none;stroke:#F1F4F6;stroke-miterlimit:10;" x1="217.772" y1="418.555" x2="120.941" y2="418.555"/>
				</g>
				<path style="clip-path:url(#SVGID_00000147940051989830566640000007682599676577800091_);fill:#F1F4F6;" d="M214.723,418.652
					c0.961-1.741,1.504-3.741,1.504-5.868c0-3.355-1.363-6.396-3.56-8.601c-2.197-2.197-5.238-3.56-8.601-3.56h-83.13v-2.544h84.996
					c3.355,0,6.396,1.363,8.601,3.568c2.198,2.198,3.56,5.246,3.56,8.601C218.094,413.509,216.811,416.471,214.723,418.652z"/>
			</g>
			<polyline style="fill:#C4CBD7;" points="190.387,404.026 190.387,420.591 195.872,417.238 201.356,420.591 201.356,404.026 			
				"/>
			<polygon style="fill:#E07474;" points="186.274,417.238 192.494,413.887 197.243,417.238 201.356,404.026 190.387,404.026 			"/>
		</g>
		<line style="fill:#F1F4F6;" x1="199.769" y1="402.992" x2="189.516" y2="402.992"/>
	</g>
	<line style="fill:none;stroke:#211715;stroke-miterlimit:10;" x1="64.383" y1="427.616" x2="457.02" y2="427.616"/>
	<g>
		<path style="opacity:0.8;fill:#FFFFFF;" d="M220.724,337.95v22.488c0,3.646-2.952,6.607-6.607,6.607h-24.443
			c-3.646,0-6.607-2.961-6.607-6.607V337.95c0-3.646,2.961-6.607,6.607-6.607h24.443
			C217.773,331.344,220.724,334.304,220.724,337.95z"/>
		<g>
			<g>
				<path style="fill:#8295BB;" d="M201.897,350.784L201.897,350.784c-1.958,0-3.546-1.587-3.546-3.545v-6.537
					c0-1.958,1.587-3.546,3.546-3.546l0,0c1.958,0,3.546,1.587,3.546,3.546v6.537C205.443,349.197,203.855,350.784,201.897,350.784z
					"/>
			</g>
			<g>
				<path style="fill:#8295BB;" d="M201.897,355.279c-4.115,0-7.462-3.347-7.462-7.462h2.741c0,2.603,2.118,4.721,4.721,4.721
					s4.721-2.118,4.721-4.721h2.741C209.359,351.932,206.012,355.279,201.897,355.279z"/>
			</g>
			<g>
				<rect x="197.804" y="359.859" style="fill:#8295BB;" width="8.186" height="2.741"/>
			</g>
			<g>
				<rect x="200.527" y="353.908" style="fill:#8295BB;" width="2.741" height="7.322"/>
			</g>
		</g>
		<g style="opacity:0.3;">
			<path style="opacity:0.8;fill:#BEC5D4;" d="M193.941,331.344v7.607c0,4.853-3.934,8.786-8.786,8.786h-2.087v-9.786
				c0-3.649,2.958-6.607,6.607-6.607H193.941z"/>
		</g>
		<g>
			<g>
				<path style="opacity:0.8;fill:#FFFFFF;" d="M188.346,315.229v21.241c0,3.993-3.237,7.23-7.23,7.23h-23.198
					c-3.993,0-7.23-3.237-7.23-7.23v-21.241c0-3.993,3.237-7.23,7.23-7.23h23.198C185.109,307.999,188.346,311.236,188.346,315.229z
					"/>
			</g>
			<g>
				<path style="fill:#8295BB;" d="M173.191,332.111h-15.142c-0.782,0-1.416-0.634-1.416-1.416v-9.692
					c0-0.782,0.634-1.415,1.416-1.415h15.142c0.782,0,1.416,0.634,1.416,1.415v9.692
					C174.606,331.478,173.972,332.111,173.191,332.111z"/>
				<path style="fill:#8295BB;" d="M182.4,321.144v9.414c0,0.692-0.747,1.127-1.349,0.784l-4.75-2.704
					c-0.308-0.175-0.498-0.503-0.498-0.857v-3.86c0-0.355,0.19-0.682,0.498-0.857l4.75-2.704
					C181.652,320.017,182.4,320.452,182.4,321.144z"/>
			</g>
		</g>
	</g>
	<g>
		<path style="opacity:0.8;fill:#FFFFFF;" d="M248.4,81.057v20.891c0,4.792,3.884,8.676,8.676,8.676h88.377v10.893l34.109-10.893
			V81.057c0-4.792-3.884-8.676-8.676-8.676h-113.81C252.285,72.381,248.4,76.266,248.4,81.057z"/>
		<polygon style="fill:#8295BB;" points="345.453,110.624 379.562,110.624 345.453,121.517 		"/>
		<line style="fill:none;stroke:#BEC5D4;stroke-miterlimit:10;" x1="263.757" y1="82.586" x2="364.104" y2="82.586"/>
		<line style="fill:none;stroke:#BEC5D4;stroke-miterlimit:10;" x1="263.757" y1="91.262" x2="364.104" y2="91.262"/>
		<line style="fill:none;stroke:#BEC5D4;stroke-miterlimit:10;" x1="263.757" y1="99.938" x2="311.991" y2="99.938"/>
	</g>
	<g>
		<g>
			<g>
				<path style="fill:#FFFFFF;" d="M413.923,111.584c0.471,3.311,0.581,6.622,0.604,9.933c-0.003,1.655-0.031,3.311-0.126,4.966
					c-0.088,1.655-0.221,3.311-0.478,4.966c-0.257-1.655-0.39-3.311-0.478-4.966c-0.095-1.655-0.123-3.311-0.126-4.966
					C413.342,118.206,413.452,114.895,413.923,111.584z"/>
			</g>
			<g>
				<path style="fill:#FFFFFF;" d="M403.991,121.517c3.311-0.515,6.622-0.635,9.932-0.661c1.655,0.002,3.311,0.034,4.966,0.137
					c1.655,0.096,3.311,0.243,4.966,0.524c-1.655,0.281-3.311,0.428-4.966,0.524c-1.655,0.103-3.311,0.135-4.966,0.137
					C410.612,122.151,407.301,122.031,403.991,121.517z"/>
			</g>
		</g>
		<g>
			<g>
				<path style="fill:#FFFFFF;" d="M179.101,259.43c0.469,4.507,0.582,9.014,0.604,13.521c-0.007,4.507-0.117,9.014-0.604,13.521
					c-0.487-4.507-0.598-9.014-0.604-13.521C178.519,268.444,178.632,263.937,179.101,259.43z"/>
			</g>
			<g>
				<path style="fill:#FFFFFF;" d="M165.58,272.951c4.507-0.512,9.014-0.637,13.521-0.661c4.507,0.006,9.014,0.127,13.521,0.661
					c-4.507,0.534-9.014,0.656-13.521,0.661C174.594,273.587,170.087,273.463,165.58,272.951z"/>
			</g>
		</g>
		<g>
			<g>
				<path style="fill:#FFFFFF;" d="M227.681,92.379c0.469,4.507,0.582,9.014,0.604,13.521c-0.007,4.507-0.117,9.014-0.604,13.521
					c-0.487-4.507-0.598-9.014-0.604-13.521C227.099,101.393,227.212,96.886,227.681,92.379z"/>
			</g>
			<g>
				<path style="fill:#FFFFFF;" d="M214.16,105.9c4.507-0.512,9.014-0.637,13.521-0.661c4.507,0.006,9.014,0.127,13.521,0.661
					c-4.507,0.534-9.014,0.656-13.521,0.661C223.174,106.536,218.667,106.412,214.16,105.9z"/>
			</g>
		</g>
		<path style="opacity:0.8;fill:none;stroke:#FFFFFF;stroke-miterlimit:10;" d="M111.077,236.596H54.789
			c-1.281,0-2.319-1.038-2.319-2.319v-4.566c0-1.281,1.038-2.319,2.319-2.319h56.288c1.281,0,2.319,1.038,2.319,2.319v4.566
			C113.396,235.558,112.358,236.596,111.077,236.596z"/>
		<path style="fill:none;stroke:#FFFFFF;stroke-miterlimit:10;" d="M133.371,251.464h-29.148c-1.281,0-2.319-1.038-2.319-2.319
			v-5.044c0-1.281,1.038-2.319,2.319-2.319h29.148c1.281,0,2.319,1.038,2.319,2.319v5.044
			C135.691,250.426,134.652,251.464,133.371,251.464z"/>
		<g>
			<path style="fill:none;stroke:#FFFFFF;stroke-miterlimit:10;" d="M382.928,182.485h-12.824c-2.448,0-4.433-1.985-4.433-4.433
				v-12.824c0-2.448,1.984-4.433,4.433-4.433h12.824c2.448,0,4.433,1.985,4.433,4.433v12.824
				C387.36,180.501,385.376,182.485,382.928,182.485z"/>
			<path style="fill:#E07474;" d="M384.366,175.165h9.26c2.213,0,4.008,1.794,4.008,4.008v9.26c0,2.213-1.794,4.008-4.008,4.008
				h-9.26c-2.213,0-4.008-1.794-4.008-4.008v-9.26C380.358,176.959,382.152,175.165,384.366,175.165z"/>
		</g>
	</g>
	<g>
		<path style="opacity:0.8;fill:#FFFFFF;" d="M202.923,111.799c-10.911,0-56.159,0-69.026,0c-1.788,0-3.131-1.62-2.809-3.379
			l4.386-23.974c0.249-1.36,1.434-2.348,2.817-2.348h69.011c1.788,0,3.139,1.62,2.817,3.379l-4.386,23.974
			C205.484,110.811,204.306,111.799,202.923,111.799z"/>
		<g>
			<path style="fill:#E07474;" d="M154.895,96.079c-0.38,3.349-3.402,6.063-6.751,6.063c-3.349,0-5.755-2.715-5.375-6.063
				c0.38-3.349,3.402-6.063,6.751-6.063C152.868,90.016,155.274,92.73,154.895,96.079z"/>
			
				<text transform="matrix(1 0 0 1 160.2208 101.4188)" style="fill:#383C55; font-family:'Montserrat-BlackItalic'; font-size:15.4142px;">LIVE</text>
		</g>
	</g>
	<g>
		<path style="opacity:0.8;fill:#FFFFFF;" d="M208.598,219.161H69.79c-3.993,0-7.23-3.237-7.23-7.23v-89.07h146.039
			c3.993,0,7.23,3.237,7.23,7.23v81.839C215.828,215.924,212.591,219.161,208.598,219.161z"/>
		<g>
			<g>
				<g>
					<g>
						<line style="fill:none;stroke:#C4CBD7;stroke-miterlimit:10;" x1="75.212" y1="195.503" x2="77.712" y2="195.503"/>
						
							<line style="fill:none;stroke:#C4CBD7;stroke-miterlimit:10;stroke-dasharray:4.7353,1.8941;" x1="79.606" y1="195.503" x2="138.324" y2="195.503"/>
						<line style="fill:none;stroke:#C4CBD7;stroke-miterlimit:10;" x1="139.271" y1="195.503" x2="141.771" y2="195.503"/>
					</g>
				</g>
				
					<line style="fill:none;stroke:#C4CBD7;stroke-miterlimit:10;stroke-dasharray:5,2;" x1="108.491" y1="138.136" x2="108.491" y2="195.503"/>
				<g>
					<ellipse style="fill:none;stroke:#BEC5D4;stroke-miterlimit:10;" cx="108.492" cy="195.503" rx="33.28" ry="8.568"/>
					<polyline style="fill:none;stroke:#BEC5D4;stroke-miterlimit:10;" points="141.771,195.503 108.491,138.136 75.212,195.503 
											"/>
				</g>
			</g>
			<line style="fill:none;stroke:#BEC5D4;stroke-miterlimit:10;" x1="108.491" y1="138.136" x2="150.076" y2="138.136"/>
			<rect x="152.76" y="135.413" style="fill:#BEC5D4;" width="39.696" height="5.078"/>
			<rect x="152.76" y="201.532" style="fill:#BEC5D4;" width="39.696" height="5.078"/>
			<g>
				<rect x="146.461" y="160.252" style="fill:none;stroke:#BEC5D4;stroke-miterlimit:10;" width="56.715" height="18.947"/>
				<path style="fill:none;stroke:#BEC5D4;stroke-miterlimit:10;" d="M157.752,164.917h-2.061c-1.904,0-3.448,1.544-3.448,3.448
					v2.807c0,1.904,1.544,3.448,3.448,3.448h2.061c1.904,0,3.448-1.544,3.448-3.448v-2.807
					C161.2,166.461,159.656,164.917,157.752,164.917z"/>
				<path style="fill:none;stroke:#BEC5D4;stroke-miterlimit:10;" d="M176.113,164.917h-2.062c-1.904,0-3.448,1.544-3.448,3.448
					v2.807c0,1.904,1.544,3.448,3.448,3.448h2.062c1.904,0,3.448-1.544,3.448-3.448v-2.807
					C179.561,166.461,178.017,164.917,176.113,164.917z"/>
				<path style="fill:none;stroke:#BEC5D4;stroke-miterlimit:10;" d="M194.474,164.917h-2.061c-1.904,0-3.448,1.544-3.448,3.448
					v2.807c0,1.904,1.544,3.448,3.448,3.448h2.061c1.904,0,3.448-1.544,3.448-3.448v-2.807
					C197.923,166.461,196.379,164.917,194.474,164.917z"/>
				<g>
					<line style="fill:none;stroke:#BEC5D4;stroke-miterlimit:10;" x1="167.546" y1="167.864" x2="163.735" y2="171.674"/>
					<line style="fill:none;stroke:#BEC5D4;stroke-miterlimit:10;" x1="167.546" y1="171.674" x2="163.735" y2="167.864"/>
				</g>
				<g>
					<line style="fill:none;stroke:#BEC5D4;stroke-miterlimit:10;" x1="186.168" y1="167.864" x2="182.358" y2="171.674"/>
					<line style="fill:none;stroke:#BEC5D4;stroke-miterlimit:10;" x1="186.168" y1="171.674" x2="182.358" y2="167.864"/>
				</g>
			</g>
			<line style="fill:none;stroke:#BEC5D4;stroke-miterlimit:10;" x1="109.106" y1="203.979" x2="151.773" y2="203.979"/>
		</g>
		<path style="fill:#8295BB;" d="M110.862,111.159H66.526c-2.191,0-3.966,1.776-3.966,3.966v7.735h57.032l-5.247-9.632
			C113.65,111.953,112.314,111.159,110.862,111.159z"/>
		<g style="opacity:0.8;">
			<circle style="fill:#FFFFFF;" cx="75.883" cy="117.01" r="2.825"/>
			<path style="fill:#FFFFFF;" d="M90.575,117.01c0,1.56-1.265,2.825-2.825,2.825c-1.56,0-2.825-1.265-2.825-2.825
				c0-1.56,1.265-2.825,2.825-2.825C89.31,114.186,90.575,115.45,90.575,117.01z"/>
			<circle style="fill:#FFFFFF;" cx="99.618" cy="117.01" r="2.825"/>
		</g>
	</g>
</g>
</svg>
