<?xml version="1.0" encoding="utf-8"?>
<!-- Generator: Adobe Illustrator 27.5.0, SVG Export Plug-In . SVG Version: 6.00 Build 0)  -->
<svg version="1.1" xmlns="http://www.w3.org/2000/svg" xmlns:xlink="http://www.w3.org/1999/xlink" x="0px" y="0px"
	 viewBox="0 0 500 500" style="enable-background:new 0 0 500 500;" xml:space="preserve">
<g id="Background_Simple">
	<g>
		<path style="fill:#92E3A9;" d="M471.001,277.657c-6.289,120.834-86.031,119.092-178.588,146.137
			c-42.893,12.533-87.187,36.981-124.97,36.981c-119.314,0-148.222-105.148-135.475-223.779
			C45.105,114.735,117.63,41.384,242.944,53.859C361.671,65.679,477.872,145.619,471.001,277.657z"/>
		<path style="opacity:0.75;fill:#FFFFFF;" d="M471.001,277.657c-6.289,120.834-86.031,119.092-178.588,146.137
			c-42.893,12.533-87.187,36.981-124.97,36.981c-119.314,0-148.222-105.148-135.475-223.779
			C45.105,114.735,117.63,41.384,242.944,53.859C361.671,65.679,477.872,145.619,471.001,277.657z"/>
	</g>
</g>
<g id="Table">
	<g id="freepik--Table--inject-4_1_">
		
			<line style="fill:none;stroke:#263238;stroke-linecap:round;stroke-linejoin:round;" x1="40" y1="441.464" x2="460" y2="441.464"/>
	</g>
</g>
<g id="Interface">
	<g>
		<path style="fill:#263238;stroke:#263238;stroke-linecap:round;stroke-linejoin:round;" d="M196.477,326.399H64.804
			c-5.533,0-10.018-4.485-10.018-10.018V47.389c0-5.533,4.485-10.018,10.018-10.018h131.673c5.533,0,10.018,4.485,10.018,10.018
			V316.38C206.496,321.914,202.01,326.399,196.477,326.399z"/>
		<path style="fill:#92E3A9;stroke:#263238;stroke-linecap:round;stroke-linejoin:round;" d="M133.15,48.923
			c0,1.386-1.124,2.51-2.51,2.51c-1.386,0-2.51-1.124-2.51-2.51c0-1.386,1.124-2.51,2.51-2.51
			C132.027,46.414,133.15,47.537,133.15,48.923z"/>
		<g>
			<defs>
				<path id="XMLID_60_" d="M158.753,49.97l-1.557,3.584c-1.116,2.568-3.648,4.229-6.448,4.229h-40.215
					c-2.799,0-5.332-1.661-6.448-4.229l-1.557-3.584c-1.116-2.568-3.648-4.229-6.448-4.229H68.272c-2.825,0-5.116,2.291-5.116,5.116
					v262.056c0,2.825,2.29,5.116,5.116,5.116h124.738c2.825,0,5.116-2.29,5.116-5.116V50.857c0-2.825-2.29-5.116-5.116-5.116
					h-27.809C162.401,45.741,159.869,47.402,158.753,49.97z"/>
			</defs>
			<use xlink:href="#XMLID_60_"  style="overflow:visible;fill:#92E3A9;"/>
			<clipPath id="XMLID_00000134238762586187882090000005890843993145538177_">
				<use xlink:href="#XMLID_60_"  style="overflow:visible;"/>
			</clipPath>
			
				<path style="opacity:0.5;clip-path:url(#XMLID_00000134238762586187882090000005890843993145538177_);fill:#FFFFFF;stroke:#263238;stroke-linecap:round;stroke-linejoin:round;" d="
				M158.753,49.97l-1.557,3.584c-1.116,2.568-3.648,4.229-6.448,4.229h-40.215c-2.799,0-5.332-1.661-6.448-4.229l-1.557-3.584
				c-1.116-2.568-3.648-4.229-6.448-4.229H68.272c-2.825,0-5.116,2.291-5.116,5.116v262.056c0,2.825,2.29,5.116,5.116,5.116h124.738
				c2.825,0,5.116-2.29,5.116-5.116V50.857c0-2.825-2.29-5.116-5.116-5.116h-27.809C162.401,45.741,159.869,47.402,158.753,49.97z"
				/>
			<use xlink:href="#XMLID_60_"  style="overflow:visible;fill:none;stroke:#263238;stroke-linecap:round;stroke-linejoin:round;"/>
		</g>
		<g>
			<path style="fill:#FFFFFF;stroke:#263238;stroke-width:0.75;stroke-linecap:round;stroke-linejoin:round;" d="M189.407,87.264
				H71.874c-2.504,0-4.533-2.03-4.533-4.533V68.76c0-2.504,2.029-4.533,4.533-4.533h117.533c2.504,0,4.533,2.03,4.533,4.533v13.97
				C193.94,85.234,191.911,87.264,189.407,87.264z"/>
			<path style="fill:#263238;" d="M134.687,76.623c1.36-1.36,1.36-3.564,0-4.924c-1.36-1.36-3.564-1.36-4.924,0
				c-1.214,1.214-1.341,3.101-0.386,4.459c-0.08,0.032-0.156,0.08-0.221,0.145l-3.389,3.389c-0.256,0.256-0.256,0.671,0,0.927
				c0.256,0.256,0.671,0.256,0.927,0l3.389-3.389c0.065-0.065,0.113-0.141,0.145-0.221
				C131.586,77.964,133.473,77.838,134.687,76.623z M130.373,76.013c-1.023-1.023-1.023-2.681,0-3.704
				c1.023-1.023,2.681-1.023,3.704,0c1.023,1.023,1.023,2.681,0,3.704C133.054,77.036,131.396,77.036,130.373,76.013z"/>
			<g>
				<path style="fill:#263238;stroke:#263238;stroke-width:0.75;stroke-linecap:round;stroke-linejoin:round;" d="M87.75,71.088
					H74.216c-0.483,0-0.875-0.392-0.875-0.875l0,0c0-0.483,0.392-0.875,0.875-0.875H87.75c0.483,0,0.875,0.392,0.875,0.875l0,0
					C88.626,70.697,88.234,71.088,87.75,71.088z"/>
				<path style="fill:#263238;stroke:#263238;stroke-width:0.75;stroke-linecap:round;stroke-linejoin:round;" d="M86,76.102H74.216
					c-0.483,0-0.875-0.392-0.875-0.875l0,0c0-0.483,0.392-0.875,0.875-0.875H86c0.483,0,0.875,0.392,0.875,0.875l0,0
					C86.875,75.71,86.483,76.102,86,76.102z"/>
				<path style="fill:#263238;stroke:#263238;stroke-width:0.75;stroke-linecap:round;stroke-linejoin:round;" d="M84.25,81.116
					H74.216c-0.483,0-0.875-0.392-0.875-0.875l0,0c0-0.483,0.392-0.875,0.875-0.875H84.25c0.483,0,0.875,0.392,0.875,0.875l0,0
					C85.125,80.724,84.733,81.116,84.25,81.116z"/>
			</g>
		</g>
		<g>
			<path style="fill:#FFFFFF;stroke:#263238;stroke-width:0.75;stroke-linecap:round;stroke-linejoin:round;" d="M189.407,165.535
				H71.874c-2.504,0-4.533-2.029-4.533-4.533V98.618c0-2.504,2.029-4.533,4.533-4.533h117.533c2.504,0,4.533,2.03,4.533,4.533
				v62.385C193.94,163.506,191.911,165.535,189.407,165.535z"/>
			
				<rect x="83.257" y="103.067" style="fill:#92E3A9;stroke:#263238;stroke-width:0.75;stroke-linecap:round;stroke-linejoin:round;" width="94.768" height="53.486"/>
			<path style="fill:#263238;stroke:#263238;stroke-width:0.75;stroke-linecap:round;stroke-linejoin:round;" d="M149.165,135.475
				H91.062c-0.867,0-1.569-0.703-1.569-1.569l0,0c0-0.867,0.703-1.569,1.569-1.569h58.103c0.867,0,1.569,0.703,1.569,1.569l0,0
				C150.734,134.772,150.032,135.475,149.165,135.475z"/>
			<path style="fill:#263238;stroke:#263238;stroke-width:0.75;stroke-linecap:round;stroke-linejoin:round;" d="M144.587,142.065
				H91.062c-0.867,0-1.569-0.703-1.569-1.569l0,0c0-0.867,0.703-1.57,1.569-1.57h53.525c0.867,0,1.569,0.703,1.569,1.57l0,0
				C146.157,141.363,145.454,142.065,144.587,142.065z"/>
			<g>
				<path style="fill:#FFFFFF;" d="M120.113,150.887c0,0.751-0.609,1.359-1.359,1.359c-0.751,0-1.36-0.609-1.36-1.359
					c0-0.751,0.609-1.36,1.36-1.36C119.505,149.528,120.113,150.137,120.113,150.887z"/>
				<path style="fill:#FFFFFF;" d="M128.038,150.887c0,0.751-0.609,1.359-1.36,1.359s-1.359-0.609-1.359-1.359
					c0-0.751,0.609-1.36,1.359-1.36S128.038,150.137,128.038,150.887z"/>
				<path style="fill:#FFFFFF;" d="M135.962,150.887c0,0.751-0.609,1.359-1.359,1.359c-0.751,0-1.359-0.609-1.359-1.359
					c0-0.751,0.609-1.36,1.359-1.36C135.354,149.528,135.962,150.137,135.962,150.887z"/>
				<path style="fill:#FFFFFF;" d="M143.887,150.887c0,0.751-0.609,1.359-1.359,1.359c-0.751,0-1.359-0.609-1.359-1.359
					c0-0.751,0.609-1.36,1.359-1.36C143.278,149.528,143.887,150.137,143.887,150.887z"/>
			</g>
			<g>
				<g>
					<path style="fill:#92E3A9;" d="M183.256,136.405c-0.232,0-0.465-0.077-0.659-0.234c-0.449-0.364-0.518-1.023-0.153-1.471
						l3.967-4.89l-3.967-4.889c-0.364-0.449-0.296-1.108,0.153-1.471c0.448-0.364,1.108-0.295,1.471,0.153l4.502,5.549
						c0.312,0.384,0.312,0.934,0,1.318l-4.502,5.549C183.862,136.272,183.56,136.405,183.256,136.405z"/>
				</g>
			</g>
			<g>
				<g>
					<path style="fill:#92E3A9;" d="M78.025,136.405c-0.304,0-0.606-0.132-0.813-0.387l-4.503-5.549
						c-0.312-0.384-0.312-0.934,0-1.318l4.503-5.549c0.364-0.448,1.024-0.517,1.471-0.153c0.449,0.364,0.518,1.023,0.153,1.471
						l-3.968,4.889l3.968,4.89c0.364,0.449,0.296,1.107-0.153,1.471C78.491,136.328,78.257,136.405,78.025,136.405z"/>
				</g>
			</g>
		</g>
		<g>
			<g>
				<path style="fill:#92E3A9;stroke:#263238;stroke-width:0.75;stroke-linecap:round;stroke-linejoin:round;" d="M88.776,201.401
					H77.503c-4.457,0-8.07-3.613-8.07-8.07v-11.272c0-4.457,3.613-8.07,8.07-8.07h11.272c4.457,0,8.07,3.613,8.07,8.07v11.272
					C96.845,197.788,93.232,201.401,88.776,201.401z"/>
				<path style="opacity:0.5;fill:#FFFFFF;" d="M83.139,196.138L83.139,196.138c-4.663,0-8.443-3.78-8.443-8.443l0,0
					c0-4.663,3.78-8.443,8.443-8.443l0,0c4.663,0,8.443,3.78,8.443,8.443l0,0C91.582,192.358,87.802,196.138,83.139,196.138z"/>
			</g>
			<path style="fill:#263238;stroke:#263238;stroke-width:0.75;stroke-linecap:round;stroke-linejoin:round;" d="M95.276,209.668
				H71.003c-0.867,0-1.569-0.703-1.569-1.569l0,0c0-0.867,0.703-1.569,1.569-1.569h24.273c0.867,0,1.569,0.703,1.569,1.569l0,0
				C96.845,208.965,96.143,209.668,95.276,209.668z"/>
		</g>
		<g>
			<g>
				<path style="fill:#FFFFFF;stroke:#263238;stroke-width:0.75;stroke-linecap:round;stroke-linejoin:round;" d="M189.407,259.882
					H71.874c-2.504,0-4.533-2.03-4.533-4.533v-30.623c0-2.504,2.029-4.533,4.533-4.533h117.533c2.504,0,4.533,2.03,4.533,4.533
					v30.623C193.94,257.852,191.911,259.882,189.407,259.882z"/>
			</g>
			
				<rect x="73.619" y="226.47" style="fill:#92E3A9;stroke:#263238;stroke-width:0.75;stroke-linecap:round;stroke-linejoin:round;" width="41.17" height="27.134"/>
			<path style="fill:#263238;stroke:#263238;stroke-width:0.75;stroke-linecap:round;stroke-linejoin:round;" d="M179.236,229.693
				h-58.103c-0.867,0-1.569-0.703-1.569-1.569l0,0c0-0.867,0.703-1.569,1.569-1.569h58.103c0.867,0,1.569,0.703,1.569,1.569l0,0
				C180.806,228.991,180.103,229.693,179.236,229.693z"/>
			<path style="fill:#263238;stroke:#263238;stroke-width:0.75;stroke-linecap:round;stroke-linejoin:round;" d="M174.659,236.284
				h-53.525c-0.867,0-1.569-0.703-1.569-1.569l0,0c0-0.867,0.703-1.569,1.569-1.569h53.525c0.867,0,1.569,0.703,1.569,1.569l0,0
				C176.228,235.581,175.526,236.284,174.659,236.284z"/>
			<path style="fill:#263238;stroke:#263238;stroke-width:0.75;stroke-linecap:round;stroke-linejoin:round;" d="M177.667,242.874
				h-56.534c-0.867,0-1.569-0.703-1.569-1.569l0,0c0-0.867,0.703-1.569,1.569-1.569h56.534c0.867,0,1.569,0.703,1.569,1.569l0,0
				C179.236,242.171,178.534,242.874,177.667,242.874z"/>
			<path style="fill:#263238;stroke:#263238;stroke-width:0.75;stroke-linecap:round;stroke-linejoin:round;" d="M167.727,249.464
				h-46.594c-0.867,0-1.569-0.703-1.569-1.569l0,0c0-0.867,0.703-1.569,1.569-1.569h46.594c0.867,0,1.569,0.703,1.569,1.569l0,0
				C169.297,248.762,168.594,249.464,167.727,249.464z"/>
		</g>
		<g>
			<g>
				<path style="fill:#FFFFFF;stroke:#263238;stroke-width:0.75;stroke-linecap:round;stroke-linejoin:round;" d="M189.407,305.735
					H71.874c-2.504,0-4.533-2.03-4.533-4.533v-30.623c0-2.504,2.029-4.533,4.533-4.533h117.533c2.504,0,4.533,2.03,4.533,4.533
					v30.623C193.94,303.705,191.911,305.735,189.407,305.735z"/>
			</g>
			
				<rect x="73.619" y="272.323" style="fill:#92E3A9;stroke:#263238;stroke-width:0.75;stroke-linecap:round;stroke-linejoin:round;" width="41.17" height="27.134"/>
			<path style="fill:#263238;stroke:#263238;stroke-width:0.75;stroke-linecap:round;stroke-linejoin:round;" d="M179.236,275.547
				h-58.103c-0.867,0-1.569-0.703-1.569-1.569l0,0c0-0.867,0.703-1.569,1.569-1.569h58.103c0.867,0,1.569,0.703,1.569,1.569l0,0
				C180.806,274.844,180.103,275.547,179.236,275.547z"/>
			<path style="fill:#263238;stroke:#263238;stroke-width:0.75;stroke-linecap:round;stroke-linejoin:round;" d="M183.029,282.137
				h-61.896c-0.867,0-1.569-0.703-1.569-1.569l0,0c0-0.867,0.703-1.569,1.569-1.569h61.896c0.867,0,1.569,0.703,1.569,1.569l0,0
				C184.599,281.434,183.896,282.137,183.029,282.137z"/>
			<path style="fill:#263238;stroke:#263238;stroke-width:0.75;stroke-linecap:round;stroke-linejoin:round;" d="M171.389,295.317
				h-50.256c-0.867,0-1.569-0.703-1.569-1.569l0,0c0-0.867,0.703-1.569,1.569-1.569h50.256c0.867,0,1.569,0.703,1.569,1.569l0,0
				C172.959,294.615,172.256,295.317,171.389,295.317z"/>
			<path style="fill:#263238;stroke:#263238;stroke-width:0.75;stroke-linecap:round;stroke-linejoin:round;" d="M178.19,288.824
				h-57.057c-0.867,0-1.569-0.703-1.569-1.569l0,0c0-0.867,0.703-1.569,1.569-1.569h57.057c0.867,0,1.569,0.703,1.569,1.569l0,0
				C179.76,288.122,179.057,288.824,178.19,288.824z"/>
		</g>
		<g>
			<path style="fill:#92E3A9;stroke:#263238;stroke-width:0.75;stroke-linecap:round;stroke-linejoin:round;" d="M152.075,201.401
				h-11.272c-4.457,0-8.07-3.613-8.07-8.07v-11.272c0-4.457,3.613-8.07,8.07-8.07h11.272c4.457,0,8.07,3.613,8.07,8.07v11.272
				C160.145,197.788,156.532,201.401,152.075,201.401z"/>
			<path style="opacity:0.5;fill:#FFFFFF;" d="M146.439,196.138L146.439,196.138c-4.663,0-8.443-3.78-8.443-8.443l0,0
				c0-4.663,3.78-8.443,8.443-8.443l0,0c4.663,0,8.443,3.78,8.443,8.443l0,0C154.882,192.358,151.102,196.138,146.439,196.138z"/>
			<path style="fill:#263238;stroke:#263238;stroke-width:0.75;stroke-linecap:round;stroke-linejoin:round;" d="M158.575,209.668
				h-24.273c-0.867,0-1.569-0.703-1.569-1.569l0,0c0-0.867,0.703-1.569,1.569-1.569h24.273c0.867,0,1.569,0.703,1.569,1.569l0,0
				C160.145,208.965,159.442,209.668,158.575,209.668z"/>
		</g>
		<g>
			<path style="fill:#92E3A9;stroke:#263238;stroke-width:0.75;stroke-linecap:round;stroke-linejoin:round;" d="M183.725,201.401
				h-11.272c-4.457,0-8.07-3.613-8.07-8.07v-11.272c0-4.457,3.613-8.07,8.07-8.07h11.272c4.457,0,8.07,3.613,8.07,8.07v11.272
				C191.795,197.788,188.182,201.401,183.725,201.401z"/>
			<path style="opacity:0.5;fill:#FFFFFF;" d="M178.089,196.138L178.089,196.138c-4.663,0-8.443-3.78-8.443-8.443l0,0
				c0-4.663,3.78-8.443,8.443-8.443l0,0c4.663,0,8.443,3.78,8.443,8.443l0,0C186.532,192.358,182.752,196.138,178.089,196.138z"/>
			<path style="fill:#263238;stroke:#263238;stroke-width:0.75;stroke-linecap:round;stroke-linejoin:round;" d="M190.225,209.668
				h-24.273c-0.867,0-1.569-0.703-1.569-1.569l0,0c0-0.867,0.703-1.569,1.569-1.569h24.273c0.867,0,1.569,0.703,1.569,1.569l0,0
				C191.795,208.965,191.092,209.668,190.225,209.668z"/>
		</g>
		<g>
			<path style="fill:#92E3A9;stroke:#263238;stroke-width:0.75;stroke-linecap:round;stroke-linejoin:round;" d="M120.425,201.401
				h-11.272c-4.457,0-8.07-3.613-8.07-8.07v-11.272c0-4.457,3.613-8.07,8.07-8.07h11.272c4.457,0,8.07,3.613,8.07,8.07v11.272
				C128.495,197.788,124.882,201.401,120.425,201.401z"/>
			<path style="fill:#263238;stroke:#263238;stroke-width:0.75;stroke-linecap:round;stroke-linejoin:round;" d="M126.926,209.668
				h-24.273c-0.867,0-1.569-0.703-1.569-1.569l0,0c0-0.867,0.703-1.569,1.569-1.569h24.273c0.867,0,1.569,0.703,1.569,1.569l0,0
				C128.495,208.965,127.792,209.668,126.926,209.668z"/>
			<path style="opacity:0.5;fill:#FFFFFF;" d="M114.789,196.138L114.789,196.138c-4.663,0-8.443-3.78-8.443-8.443l0,0
				c0-4.663,3.78-8.443,8.443-8.443l0,0c4.663,0,8.443,3.78,8.443,8.443l0,0C123.232,192.358,119.452,196.138,114.789,196.138z"/>
		</g>
	</g>
</g>
<g id="Coffee">
	<g>
		<g>
			<g>
				<g>
					<defs>
						<path id="XMLID_7_" d="M159.182,432.2h-12.835c-6.143,0-11.261-4.706-11.775-10.827l-2.538-25.635h41.461l-2.538,25.635
							C170.442,427.494,165.324,432.2,159.182,432.2z"/>
					</defs>
					<use xlink:href="#XMLID_7_"  style="overflow:visible;fill:#FFFFFF;"/>
					<clipPath id="XMLID_00000004529242949035998080000014282011355373244340_">
						<use xlink:href="#XMLID_7_"  style="overflow:visible;"/>
					</clipPath>
					
						<rect x="130.098" y="407" style="clip-path:url(#XMLID_00000004529242949035998080000014282011355373244340_);fill:#92E3A9;" width="47.723" height="6.969"/>
					
						<use xlink:href="#XMLID_7_"  style="overflow:visible;fill:none;stroke:#263238;stroke-linecap:round;stroke-linejoin:round;"/>
				</g>
				<path style="fill:#FFFFFF;stroke:#263238;stroke-linecap:round;stroke-linejoin:round;" d="M159.182,432.2h-12.835
					c-2.186,0-4.236-0.605-6.001-1.648l-0.343,4.089h25.524l-0.343-4.089C163.417,431.596,161.367,432.2,159.182,432.2z"/>
			</g>
			<path style="fill:#FFFFFF;stroke:#263238;stroke-linecap:round;stroke-linejoin:round;" d="M178.026,399.454
				c-1.805-0.435-3.52,0.327-5.076,1.781l-0.512,5.17c1.424-2.349,3.113-3.973,4.876-3.549c3.762,0.906,5.094,5.706,3.895,10.689
				c-1.199,4.983-5.221,8.288-8.983,7.382c-0.442-0.106-0.838-0.196-1.199-0.28l-0.072,0.726c-0.063,0.748-0.196,1.474-0.39,2.174
				c0.162,0.038,0.314,0.073,0.483,0.114c5.862,1.411,11.918-2.864,13.527-9.548C186.186,407.428,183.888,400.866,178.026,399.454z"
				/>
		</g>
		<path style="fill:#FFFFFF;stroke:#263238;stroke-linecap:round;stroke-linejoin:round;" d="M152.845,428.917
			c-4.171,0.634-8.787,4.065-8.287,7.357c0.5,3.291,5.927,5.196,10.098,4.562c3.365-0.511,3.991-3.342,5.821-5.117
			c5.352-5.193,25.978-5.1,33.65-4.875c1.508,0.044,2.683-1.29,2.456-2.782l0,0c-0.196-1.286-1.373-2.188-2.666-2.04
			c-6.356,0.729-24.151,2.878-32.479,4.982C158.967,431.628,156.209,428.405,152.845,428.917z"/>
		<path style="fill:#FFFFFF;stroke:#263238;stroke-linecap:round;stroke-linejoin:round;" d="M166.666,441.901h-29.542
			c-4.495,0-8.95-0.858-13.124-2.527l-9.589-3.836c-1.09-0.436-0.778-2.057,0.396-2.057h74.175c1.174,0,1.486,1.621,0.396,2.057
			l-9.589,3.836C175.616,441.043,171.162,441.901,166.666,441.901z"/>
		<g>
			<path style="fill:none;stroke:#263238;stroke-linecap:round;stroke-linejoin:round;" d="M153.486,343.596
				c-1.547-2.543-3.472-3.643-3.472-3.643"/>
			<path style="fill:none;stroke:#263238;stroke-linecap:round;stroke-linejoin:round;" d="M152.298,362.086
				c3.163-6.31,3.513-11.064,2.763-14.516"/>
			<path style="fill:none;stroke:#263238;stroke-linecap:round;stroke-linejoin:round;" d="M147.205,380.888
				c-0.789-4.283-0.171-9.668,3.613-16.091"/>
			<path style="fill:none;stroke:#263238;stroke-linecap:round;stroke-linejoin:round;" d="M154.868,392.915
				c0,0-4.756-3.174-6.917-9.247"/>
			<path style="fill:none;stroke:#263238;stroke-linecap:round;stroke-linejoin:round;" d="M164.419,354.83
				c-1.25-2.43-3.065-3.468-3.065-3.468"/>
			<path style="fill:none;stroke:#263238;stroke-linecap:round;stroke-linejoin:round;" d="M163.564,367.859
				c2.016-4.357,2.285-7.721,1.807-10.239"/>
			<path style="fill:none;stroke:#263238;stroke-linecap:round;stroke-linejoin:round;" d="M165.162,392.915
				c0,0-11.61-7.748-3.178-22.061"/>
			<path style="fill:none;stroke:#263238;stroke-linecap:round;stroke-linejoin:round;" d="M143.462,366.811
				c-0.006-0.982-0.153-1.842-0.381-2.588"/>
			<path style="fill:none;stroke:#263238;stroke-linecap:round;stroke-linejoin:round;" d="M140.634,375.54
				c1.343-2.279,2.122-4.264,2.511-5.981"/>
			<path style="fill:none;stroke:#263238;stroke-linecap:round;stroke-linejoin:round;" d="M143.137,392.915
				c0,0-7.834-5.228-3.734-14.945"/>
		</g>
	</g>
</g>
<g id="Character">
	<g>
		<g>
			<defs>
				<path id="XMLID_56_" d="M217.881,316.466c0,0-15.135,41.681-10.327,59.494c4.808,17.813,29.842,12.35,35.964,1.425
					c6.122-10.925,18.073-50.587,18.073-50.587l-12.348-23.75l-27.356,6.175l-2.584,3.8L217.881,316.466z"/>
			</defs>
			<use xlink:href="#XMLID_56_"  style="overflow:visible;fill:#858585;"/>
			<clipPath id="XMLID_00000122686091946866564620000014483724661243336861_">
				<use xlink:href="#XMLID_56_"  style="overflow:visible;"/>
			</clipPath>
			<path style="opacity:0.2;clip-path:url(#XMLID_00000122686091946866564620000014483724661243336861_);" d="M242.106,311.003
				c0,0-25.413,53.319-38,51.656s0,40.138,0,40.138h24.768l28.634-35.625l5.105-26.204l1.342-12.508l-8.712-11.994L242.106,311.003z
				"/>
			
				<use xlink:href="#XMLID_56_"  style="overflow:visible;fill:none;stroke:#263238;stroke-linecap:round;stroke-linejoin:round;stroke-miterlimit:10;"/>
		</g>
		<g>
			<path style="fill:#263238;stroke:#263238;stroke-linecap:round;stroke-linejoin:round;stroke-miterlimit:10;" d="
				M359.728,162.888c0,0,5.802-5.27,1.476-10.812c0,0,5.79-4.117,1.603-11.242c0,0,6.365-8.075-1.603-13.458
				c0,0,4.065-8.392-5.276-8.233c0,0,1.583-8.867-7.758-5.542c0,0,0.633-8.867-7.283-4.908c0,0-3.483-7.917-7.6,0.317
				c0,0-3.958-10.45-10.925-6.808c0,0-13.458-6.175-15.358,1.742c0,0-8.709-2.217-11.004,3.8c0,0-9.737-1.267-10.212,7.125
				c0,0-9.183,3.167-6.333,9.975c0,0-4.105,5.383-0.549,10.767c0,0-3.41,3.642,0.549,10.292c0,0-1.742,6.808,3.008,11.717
				l57.792,9.5l2.692,13.142l11.209-4.433L359.728,162.888z"/>
			<g>
				<path style="fill:none;stroke:#7F7F7F;stroke-width:0.75;stroke-linecap:round;stroke-linejoin:round;" d="M323.275,107.346
					c-2.104-2.729-5.978-5.106-12.789-2.137"/>
				<path style="fill:none;stroke:#7F7F7F;stroke-width:0.75;stroke-linecap:round;stroke-linejoin:round;" d="M325.528,112.018
					c0,0-0.23-1.042-0.865-2.383"/>
			</g>
			<path style="fill:none;stroke:#7F7F7F;stroke-width:0.75;stroke-linecap:round;stroke-linejoin:round;" d="M315.553,111.384
				c0,0-10.292,6.333-14.092-2.692"/>
			<path style="fill:none;stroke:#7F7F7F;stroke-width:0.75;stroke-linecap:round;stroke-linejoin:round;" d="M332.056,119.209
				c0,0-11.497,3.72-13.055-5.948"/>
			<g>
				<path style="fill:none;stroke:#7F7F7F;stroke-width:0.75;stroke-linecap:round;stroke-linejoin:round;" d="M322.863,127.237
					c-2.027-2.889-5.94-5.663-13.09-2.546"/>
				<path style="fill:none;stroke:#7F7F7F;stroke-width:0.75;stroke-linecap:round;stroke-linejoin:round;" d="M324.814,131.499
					c0,0-0.23-1.04-0.862-2.379"/>
			</g>
			<g>
				<path style="fill:none;stroke:#7F7F7F;stroke-width:0.75;stroke-linecap:round;stroke-linejoin:round;" d="M300.853,131.068
					c-0.546-0.646-1.036-1.447-1.449-2.429"/>
				<path style="fill:none;stroke:#7F7F7F;stroke-width:0.75;stroke-linecap:round;stroke-linejoin:round;" d="M313.495,131.332
					c0,0-6.794,4.181-11.38,0.908"/>
			</g>
			<path style="fill:none;stroke:#7F7F7F;stroke-width:0.75;stroke-linecap:round;stroke-linejoin:round;" d="M359.37,145.597
				c0,0,2.895-8.907-7.138-10.121"/>
			<path style="fill:none;stroke:#7F7F7F;stroke-width:0.75;stroke-linecap:round;stroke-linejoin:round;" d="M341.339,141.78
				c0,0-3.733,6.648,4.083,9.219"/>
			<path style="fill:none;stroke:#7F7F7F;stroke-width:0.75;stroke-linecap:round;stroke-linejoin:round;" d="M353.16,141.395
				c0,0-9.063,0.183-8.089-7.098"/>
			<path style="fill:none;stroke:#7F7F7F;stroke-width:0.75;stroke-linecap:round;stroke-linejoin:round;" d="M352.232,155.228
				c0,0-6.456-6.363-0.562-10.747"/>
			<path style="fill:none;stroke:#7F7F7F;stroke-width:0.75;stroke-linecap:round;stroke-linejoin:round;" d="M303.259,125.781
				c0,0,2.895-8.907-7.138-10.121"/>
			<path style="fill:none;stroke:#7F7F7F;stroke-width:0.75;stroke-linecap:round;stroke-linejoin:round;" d="M285.229,121.964
				c0,0-3.733,6.648,4.083,9.219"/>
			<path style="fill:none;stroke:#7F7F7F;stroke-width:0.75;stroke-linecap:round;stroke-linejoin:round;" d="M297.05,121.579
				c0,0-9.063,0.183-8.089-7.098"/>
			<path style="fill:none;stroke:#7F7F7F;stroke-width:0.75;stroke-linecap:round;stroke-linejoin:round;" d="M296.121,135.412
				c0,0-6.456-6.363-0.562-10.747"/>
			<path style="fill:none;stroke:#7F7F7F;stroke-width:0.75;stroke-linecap:round;stroke-linejoin:round;" d="M352.202,126.616
				c0,0,2.895-8.907-7.138-10.121"/>
			<path style="fill:none;stroke:#7F7F7F;stroke-width:0.75;stroke-linecap:round;stroke-linejoin:round;" d="M334.171,122.799
				c0,0-3.733,6.649,4.083,9.219"/>
			<path style="fill:none;stroke:#7F7F7F;stroke-width:0.75;stroke-linecap:round;stroke-linejoin:round;" d="M345.992,122.414
				c0,0-9.063,0.182-8.089-7.098"/>
		</g>
		<g>
			<defs>
				<path id="XMLID_59_" d="M415.78,256.214c0,0-15.974,84.03-18.396,185.25H253.459c0,0,16.316-85.93-1.973-198.03
					C251.487,243.434,325.693,190.618,415.78,256.214z"/>
			</defs>
			<use xlink:href="#XMLID_59_"  style="overflow:visible;fill:#92E3A9;"/>
			<clipPath id="XMLID_00000169534465011117113930000009413861988933038488_">
				<use xlink:href="#XMLID_59_"  style="overflow:visible;"/>
			</clipPath>
			<path style="opacity:0.2;clip-path:url(#XMLID_00000169534465011117113930000009413861988933038488_);" d="M410.086,264.333
				c0,0-18.355,29.61-21.522,57.714c-3.167,28.104-3.167,46.787-3.167,46.787l-81.697-21.494c0,0,48.763,42.71,75.68,59.177
				c26.917,16.467,20.516,39.9,20.516,39.9l19.384-72.833v-48.925l-3.501-50.825L410.086,264.333z"/>
			<polygon style="opacity:0.2;clip-path:url(#XMLID_00000169534465011117113930000009413861988933038488_);" points="
				338.448,258.221 321.221,245.018 303.032,257.565 297.52,239.318 314.903,232.509 337.581,235.201 345.181,245.365 			"/>
			
				<use xlink:href="#XMLID_59_"  style="overflow:visible;fill:none;stroke:#263238;stroke-linecap:round;stroke-linejoin:round;stroke-miterlimit:10;"/>
		</g>
		<g>
			<defs>
				<path id="XMLID_55_" d="M437.155,326.401c0,0,2.229,58.799-18.531,79.167c0,0-24.935,5.7-97.843-49.717
					c0,0-7.239,0.633-11.032-3.8c0,0-11.746,4.117-17.91-2.533c0,0-7.895,0.317-9.671-6.967c0,0-5.022,0.633-6.761-1.583
					c0,0-5.995,0.317-6.849-2.85c-0.855-3.167,5.933-5.719,5.933-5.719s0.125-7.264,3.137-9.481
					c3.012-2.217,5.795-3.167,5.795-3.167s-19.923-12.033-17.497-18.683c2.426-6.65,5.778,5.067,24.721,13.3
					c0,0,9.522,0.317,11.349,3.8l23.058,19.317c0,0,6.738,1.794,8.949,2.533c14.324,4.785,34.418,13.3,58.278,14.883l4.626-38
					C396.907,316.901,425.87,309.934,437.155,326.401z"/>
			</defs>
			<use xlink:href="#XMLID_55_"  style="overflow:visible;fill:#858585;"/>
			<clipPath id="XMLID_00000008849323859693359730000015367920681892199331_">
				<use xlink:href="#XMLID_55_"  style="overflow:visible;"/>
			</clipPath>
			<polygon style="opacity:0.2;clip-path:url(#XMLID_00000008849323859693359730000015367920681892199331_);" points="
				406.683,316.466 399.897,355.183 392.281,354.901 389.039,349.518 391.256,321.651 399.146,308.826 405.031,310.093 			"/>
			<path style="opacity:0.2;clip-path:url(#XMLID_00000008849323859693359730000015367920681892199331_);" d="M433.897,370.08
				c0,0-7.174,23.454-15.882,32.004c0,0,7.917-12.35-26.917-21.217c-34.833-8.867-68.242-29.846-68.242-29.846
				s-12.039-9.574-17.419-7.815c-5.381,1.759-3.197,4.49-1.736,4.134c1.461-0.356,3.48,0.198,3.599,2.177
				c0.119,1.979,0.195,3.364-2.165,3.568c-2.36,0.204-0.447,7.08-0.447,7.08l42.394,38.356l31.667,7.212l43.997,8.067l14.479-15.279
				l4.54-20.126l-4.54-9.245L433.897,370.08z"/>
			<path style="opacity:0.2;clip-path:url(#XMLID_00000008849323859693359730000015367920681892199331_);" d="M300.8,353.28
				c0,0-2.169-1.466-1.931-3.762c0.237-2.296-4.622,1.064-7.299-2.516c0,0-5.678-0.374-9.402-7.38c0,0-6.165,1.076-7.082-1.659
				c0,0-0.442-8.435-1.155-8.078c-0.712,0.356-2.494,1.543-2.494,1.543l1.781,11.124l10.205,8.352l11.862,4.75h5.515V353.28z"/>
			<path style="opacity:0.2;clip-path:url(#XMLID_00000008849323859693359730000015367920681892199331_);" d="M281.056,319.751
				c0,0,2.549,0.263,8.832-2.206c0,0-9.251-2.341-15.248-7.146c-5.997-4.805-7.39-10.083-8.918-7.827
				c-1.528,2.256,4.766,9.262,4.766,9.262L281.056,319.751z"/>
			
				<use xlink:href="#XMLID_55_"  style="overflow:visible;fill:none;stroke:#263238;stroke-linecap:round;stroke-linejoin:round;stroke-miterlimit:10;"/>
		</g>
		<path style="fill:none;stroke:#263238;stroke-linecap:round;stroke-linejoin:round;stroke-miterlimit:10;" d="M394.557,355.183
			c8.094,0.393,11.448-1.639,18.217,7.477"/>
		<path style="fill:none;stroke:#263238;stroke-linecap:round;stroke-linejoin:round;stroke-miterlimit:10;" d="M295.285,324.659
			c0,0-11.645,4.987-12.269,7.956c-0.624,2.969-0.849,9.935-0.849,9.935"/>
		<path style="fill:none;stroke:#263238;stroke-linecap:round;stroke-linejoin:round;stroke-miterlimit:10;" d="M301.45,331.309
			c0,0-0.799,2.083-3.288,3.919c-3.275,2.415-6.934,2.731-6.964,5.7c-0.03,2.969,0.64,8.59,0.64,8.59"/>
		
			<line style="fill:none;stroke:#263238;stroke-linecap:round;stroke-linejoin:round;stroke-miterlimit:10;" x1="274.491" y1="332.399" x2="275.407" y2="340.968"/>
		
			<line style="fill:none;stroke:#263238;stroke-linecap:round;stroke-linejoin:round;stroke-miterlimit:10;" x1="283.423" y1="319.751" x2="293.05" y2="316.466"/>
		<path style="fill:none;stroke:#263238;stroke-linecap:round;stroke-linejoin:round;stroke-miterlimit:10;" d="M306.602,342.155
			c0,0-3.188,3.088-5.802,4.196"/>
		<path style="fill:#92E3A9;stroke:#263238;stroke-linecap:round;stroke-linejoin:round;stroke-miterlimit:10;" d="M251.487,243.434
			c0,0-33.784,13.401-35.453,72.762c-0.036,1.267,1.39,2.044,2.421,1.306c5.205-3.725,18.689-8.745,41.303,13.297
			c1.057,1.031,2.838,0.283,2.848-1.193l0.001-0.078c0.045-6.329-0.072-19.396-1.396-34.695
			C259.79,278.416,256.979,259.428,251.487,243.434z"/>
		<g>
			<path style="fill:none;stroke:#263238;stroke-linecap:round;stroke-linejoin:round;stroke-miterlimit:10;" d="M224.819,306.301
				c7.903-1.459,22.138-0.875,36.44,15.746"/>
			<path style="fill:none;stroke:#263238;stroke-linecap:round;stroke-linejoin:round;stroke-miterlimit:10;" d="M218.496,308.272
				c0,0,1.333-0.698,3.667-1.355"/>
		</g>
		<g>
			<defs>
				<path id="XMLID_54_" d="M358.461,229.897c0,0-11.163-17.338-8.075-47.263l-45.649,3.008c0,0-0.402,39.58-15.02,41.68
					l11.919,15.248l10.513,0.778l18.169,0.086l26.481-8.55L358.461,229.897z"/>
			</defs>
			<use xlink:href="#XMLID_54_"  style="overflow:visible;fill:#858585;"/>
			<clipPath id="XMLID_00000075162046852292320870000016040958124515032201_">
				<use xlink:href="#XMLID_54_"  style="overflow:visible;"/>
			</clipPath>
			
				<path style="clip-path:url(#XMLID_00000075162046852292320870000016040958124515032201_);fill:#263238;stroke:#263238;stroke-linecap:round;stroke-linejoin:round;stroke-miterlimit:10;" d="
				M358.065,185.643c-2.167,3.044-5.146,4.295-8.913,1.736c0,0-0.017,16.947-10.688,27.788
				c-10.671,10.84-27.269,15.977-35.862,15.977c-8.594,0-21.57-25.952-23.729-39.252c-0.21-1.297-0.393-2.763-0.549-4.348
				L358.065,185.643z"/>
			
				<use xlink:href="#XMLID_54_"  style="overflow:visible;fill:none;stroke:#263238;stroke-linecap:round;stroke-linejoin:round;stroke-miterlimit:10;"/>
		</g>
		<path style="fill:#858585;stroke:#263238;stroke-linecap:round;stroke-linejoin:round;stroke-miterlimit:10;" d="M349.846,166.959
			c0,0,2.677-10.45,8.615-9.025s2.137,35.387-10.45,26.838c0,0-0.017,16.947-10.688,27.787
			c-10.671,10.84-22.519,14.077-31.112,14.077s-21.57-25.952-23.729-39.252c-2.159-13.3-1.446-43.938,1.641-47.737
			c3.087-3.8,41.069,0.712,49.51-2.85c8.44-3.563-1.06,15.2,3.453,19.712c4.512,4.513,7.841,0.95,6.889,19l3.798-3.563
			L349.846,166.959z"/>
		<path style="fill:#263238;" d="M314.903,175.589c0,1.691,1.07,3.061,2.391,3.061c1.321,0,2.391-1.37,2.391-3.061
			c0-1.691-1.07-3.061-2.391-3.061C315.973,172.527,314.903,173.898,314.903,175.589z"/>
		<path style="fill:#263238;" d="M290.062,175.589c0,1.691,1.07,3.061,2.391,3.061c1.32,0,2.391-1.37,2.391-3.061
			c0-1.691-1.07-3.061-2.391-3.061C291.133,172.527,290.062,173.898,290.062,175.589z"/>
		<path style="fill:none;stroke:#263238;stroke-width:4;stroke-linecap:round;stroke-linejoin:round;stroke-miterlimit:10;" d="
			M330.278,164.584c0,0-7.125-7.442-18.05,0"/>
		<path style="fill:none;stroke:#263238;stroke-width:4;stroke-linecap:round;stroke-linejoin:round;stroke-miterlimit:10;" d="
			M296.87,165.376c0,0-8.867-9.324-12.667-2.445"/>
		<path style="fill:#FFFFFF;stroke:#263238;stroke-linecap:round;stroke-linejoin:round;stroke-miterlimit:10;" d="M325.361,200.584
			c0,0-21.299,7.103-30.392,1.05C294.97,201.634,306.438,221.5,325.361,200.584z"/>
		<path style="fill:none;stroke:#263238;stroke-linecap:round;stroke-linejoin:round;stroke-miterlimit:10;" d="M313.495,185.643
			c0,0,3.449,3.136,1.261,5.84c-0.96,1.187-2.602,1.552-4.062,1.107c-1.173-0.357-2.767-0.519-3.848,0.652
			c-1.9,2.058-6.808,1.583-8.392-0.95c0,0-1.214-0.455-2.276-0.473c-1.065-0.018-1.979-0.804-2.14-1.857
			c-0.204-1.326,0.219-3.013,2.833-4.32"/>
		<path style="fill:none;stroke:#263238;stroke-linecap:round;stroke-linejoin:round;stroke-miterlimit:10;" d="M300.353,170.466
			c0,0,1.798,5.835,1.137,11.851"/>
		<path style="fill:none;stroke:#263238;stroke-width:0.75;stroke-linecap:round;stroke-linejoin:round;stroke-miterlimit:10;" d="
			M320.936,200.241c0,0-9.182-2.166-14.692,0.456c-0.654,0.311-1.418,0.313-2.022-0.086c-1.155-0.761-3.501-1.726-7.352-0.874"/>
		<path style="fill:#92E3A9;stroke:#263238;stroke-linecap:round;stroke-linejoin:round;stroke-miterlimit:10;" d="M358.146,227.639
			c-4.194,3.73-18.836,11.699-38.496,15.796l8.887,1.425l11.275,15.2c0,0,23.235-12.595,28.49-29.929l-5.211-2.901
			C361.446,226.314,359.464,226.466,358.146,227.639z"/>
		<path style="fill:#92E3A9;stroke:#263238;stroke-linecap:round;stroke-linejoin:round;stroke-miterlimit:10;" d="M292.216,226.643
			c3.509,4.465,8.628,12.88,27.946,16.791l-8.688,1.425l-10.1,15.2c0,0-17.037-11.4-18.558-31.829l4.364-2.635
			C288.793,224.622,290.976,225.064,292.216,226.643z"/>
		<path style="fill:none;stroke:#263238;stroke-width:0.75;stroke-linecap:round;stroke-linejoin:round;stroke-miterlimit:10;" d="
			M322.361,177.251c0,0-4.611,2.375-10.133,0"/>
		<path style="fill:none;stroke:#263238;stroke-width:0.75;stroke-linecap:round;stroke-linejoin:round;stroke-miterlimit:10;" d="
			M297.52,177.251c0,0-4.611,2.375-10.133,0"/>
		<path style="fill:#92E3A9;stroke:#263238;stroke-linecap:round;stroke-linejoin:round;stroke-miterlimit:10;" d="M415.78,256.214
			c0,0,25.671,9.314,22.929,72.57c-0.046,1.062-1.387,1.521-2.049,0.689c-3.844-4.833-14.442-13.433-39.05-7.958
			c-0.954,0.212-1.833-0.58-1.727-1.551C396.912,310.547,402.016,270.521,415.78,256.214z"/>
		<g>
			<path style="fill:none;stroke:#263238;stroke-linecap:round;stroke-linejoin:round;stroke-miterlimit:10;" d="M399.897,312.899
				c-0.496,0.112-0.997,0.233-1.503,0.361"/>
			<path style="fill:none;stroke:#263238;stroke-linecap:round;stroke-linejoin:round;stroke-miterlimit:10;" d="M411.801,311.555
				c-3.121-0.029-6.531,0.262-10.237,0.99"/>
			<path style="fill:none;stroke:#263238;stroke-linecap:round;stroke-linejoin:round;stroke-miterlimit:10;" d="M431.607,317.025
				c-3.943-2.444-9.823-4.953-17.723-5.401"/>
			<path style="fill:none;stroke:#263238;stroke-linecap:round;stroke-linejoin:round;stroke-miterlimit:10;" d="M436.607,320.871
				c-0.691-0.669-1.706-1.566-3.051-2.54"/>
		</g>
		<g>
			<path style="fill:#FFFFFF;stroke:#263238;stroke-linecap:round;stroke-linejoin:round;stroke-miterlimit:10;" d="
				M274.639,310.399c-0.265,0.375-0.718,0.604-1.309,0.604h-23.137c-1.238,0-2.599-1.003-3.04-2.241l-18.139-50.855
				c-0.221-0.619-0.17-1.179,0.091-1.585l1.814-1.96c0.265-0.37,0.717-0.596,1.303-0.596h23.137c1.238,0,2.599,1.003,3.041,2.241
				l18.139,50.855c0.221,0.619,0.17,1.179-0.091,1.585L274.639,310.399z"/>
			<path style="fill:#263238;stroke:#263238;stroke-linecap:round;stroke-linejoin:round;stroke-miterlimit:10;" d="
				M250.192,311.003h23.137c1.238,0,1.883-1.003,1.442-2.241l-18.139-50.855c-0.441-1.238-1.803-2.241-3.04-2.241h-23.137
				c-1.238,0-1.883,1.003-1.442,2.241l18.139,50.855C247.594,310,248.955,311.003,250.192,311.003z"/>
			<path style="fill:#858585;stroke:#263238;stroke-linecap:round;stroke-linejoin:round;stroke-miterlimit:10;" d="M250.435,267.54
				h5.493c1.238,0,1.883-1.003,1.442-2.241l-1.959-5.493c-0.441-1.238-1.803-2.241-3.04-2.241h-5.493
				c-1.238,0-1.883,1.003-1.442,2.241l1.959,5.493C247.836,266.537,249.197,267.54,250.435,267.54z"/>
			<path d="M246.896,260.237c0.257,0.721,1.051,1.306,1.772,1.306c0.721,0,1.098-0.585,0.84-1.306
				c-0.257-0.721-1.051-1.306-1.772-1.306C247.014,258.931,246.638,259.516,246.896,260.237z"/>
			<path d="M252.551,262.553c0.257,0.721,1.051,1.306,1.772,1.306c0.721,0,1.098-0.585,0.84-1.306
				c-0.257-0.721-1.051-1.306-1.772-1.306C252.67,261.247,252.293,261.832,252.551,262.553z"/>
			<path d="M248.547,264.869c0.257,0.721,1.051,1.306,1.772,1.306c0.721,0,1.098-0.585,0.84-1.306
				c-0.257-0.722-1.051-1.306-1.772-1.306C248.666,263.562,248.29,264.147,248.547,264.869z"/>
		</g>
		<g>
			<defs>
				<path id="XMLID_58_" d="M229.756,316.466c0,0-22.906,42.631-22.202,59.494c0.704,16.863,11.315,22.563,11.315,22.563
					s28.638-1.425,29.113-35.387l3.867-33.013c0,0,9.974-3.404,14-10.371c0,0,9.974-3.404,13.138-9.104
					c3.164-5.7,5.024-13.063,1.853-14.25s-5.348,9.205-8.086,11.163c-1.838,1.314-4.769,3.004-6.497,3.974
					c-0.741,0.415-1.72,0.047-2.077-0.775l0,0c-0.266-0.613-0.098-1.295,0.413-1.667c1.367-0.994,4.084-3.154,6.262-6.045
					c3.043-4.038,11.491-15.675,7.271-18.288c-4.22-2.613-11.161,10.212-13.861,12.35c-1.673,1.325-3.971,2.831-5.478,3.786
					c-0.91,0.576-2.135,0.437-2.988-0.336l-0.168-0.152c-0.854-0.773-1.118-1.984-0.642-2.954c0.804-1.639,2.014-4.024,2.639-4.851
					c1.826-2.417,4.251-4.734,8.029-9.062c3.913-4.484,7.38-7.652,4.739-9.706c-5.191-4.037-18.615,11.163-20.382,13.063
					c-1.107,1.19-2.155,3.218-2.784,4.568c-0.348,0.746-1.26,1.017-2.029,0.606l0,0c-0.494-0.264-0.826-0.757-0.871-1.301
					c-0.158-1.885-0.466-6.283-0.061-7.91c0.587-2.357,2.271-4.043,4.706-8.36c2.136-3.788,4.617-7.787,2.836-9.452
					c-3.812-3.563-11.368,7.362-11.368,7.362l-5.487,9.737c0,0,2.264-4.987-0.515-7.362c-2.779-2.375-2.625,3.087-5.043,5.938
					c-2.418,2.85-0.103,8.788-0.754,13.063c-0.651,4.275-0.656,7.6-0.656,7.6L229.756,316.466z"/>
			</defs>
			<use xlink:href="#XMLID_58_"  style="overflow:visible;fill:#858585;"/>
			<clipPath id="XMLID_00000010292534679581074450000009965073994258878105_">
				<use xlink:href="#XMLID_58_"  style="overflow:visible;"/>
			</clipPath>
			<path style="opacity:0.2;clip-path:url(#XMLID_00000010292534679581074450000009965073994258878105_);" d="M257.509,327.449
				c0,0,6.753-6.867,3.75-9.341c-3.003-2.474-5.65-4.557-8.483-8.266c-2.833-3.708-4.732-8.696-8.295-8.696
				s-6.511-4.796-10.38-2.042c-3.87,2.754,1.02,15.5,0,20.646c-1.02,5.146,5.263,91.641-24.122,67.75
				c-29.385-23.891,6.952,27.409,6.952,27.409l24.7-5.462l6.571-11.875l3.691-26.6l4.701-34.289L257.509,327.449z"/>
			<path style="opacity:0.2;clip-path:url(#XMLID_00000010292534679581074450000009965073994258878105_);" d="M269.364,300.455
				c-0.62-0.496-1.394-1.197-2.047-2.039c-0.543-0.702-1.615-0.673-2.135,0.046c-1.255,1.734-3.401,4.329-5.739,5.535
				c0,0,2.137,4.75,4.275,3.8c1.53-0.68,4.339-3.734,5.811-5.415C270.032,301.809,269.96,300.932,269.364,300.455z"/>
			<path style="opacity:0.2;clip-path:url(#XMLID_00000010292534679581074450000009965073994258878105_);" d="M255.507,290.813
				c-1.05-0.401-2.626-1.153-3.626-2.328c-0.344-0.405-0.984-0.335-1.23,0.136l-2.449,4.688c0,0,1.749,2.743,4.268,3.444
				c0,0,1.65-2.82,3.322-4.74C256.138,291.615,255.999,291.001,255.507,290.813z"/>
			<path style="opacity:0.2;clip-path:url(#XMLID_00000010292534679581074450000009965073994258878105_);" d="M243.175,281.672
				c0,0-2.908,3.8-5.7,2.731v6.769l5.7-0.356C243.175,290.815,242.106,287.372,243.175,281.672z"/>
			<path style="opacity:0.2;clip-path:url(#XMLID_00000010292534679581074450000009965073994258878105_);" d="M276.187,312.428
				c0,0-4.785,2.064-8.351,2.189c-0.75,0.026-1.404,0.515-1.578,1.245l-0.537,2.246C265.721,318.108,270.25,317.534,276.187,312.428
				z"/>
			<path style="opacity:0.2;clip-path:url(#XMLID_00000010292534679581074450000009965073994258878105_);" d="M235.502,280.529
				c0,0-1.709,3.636-3.728,5.061c-2.019,1.425,0.238,2.417,0,5.721C231.775,291.311,234.836,283.068,235.502,280.529z"/>
			
				<use xlink:href="#XMLID_58_"  style="overflow:visible;fill:none;stroke:#263238;stroke-linecap:round;stroke-linejoin:round;stroke-miterlimit:10;"/>
		</g>
		<path style="fill:none;stroke:#263238;stroke-linecap:round;stroke-linejoin:round;stroke-miterlimit:10;" d="M234.683,283.334
			c0,0-2.77,9.5-4.404,9.975"/>
		<g>
			<path style="fill:none;stroke:#263238;stroke-linecap:round;stroke-linejoin:round;stroke-miterlimit:10;" d="M373.523,426.303
				c1.302,0.162,2.622,0.323,3.958,0.481"/>
			<path style="fill:none;stroke:#263238;stroke-linecap:round;stroke-linejoin:round;stroke-miterlimit:10;" d="M315.714,415.523
				c13.1,3.6,30.289,7.147,52.813,10.137"/>
			<path style="fill:none;stroke:#263238;stroke-linecap:round;stroke-linejoin:round;stroke-miterlimit:10;" d="M278.921,399.738
				c4.657,3.656,13.943,9.028,32.038,14.424"/>
			<path style="fill:none;stroke:#263238;stroke-linecap:round;stroke-linejoin:round;stroke-miterlimit:10;" d="M274.491,395.118
				c0,0,0.443,0.952,2.068,2.558"/>
		</g>
		<path style="fill:none;stroke:#263238;stroke-width:0.75;stroke-linecap:round;stroke-linejoin:round;stroke-miterlimit:10;" d="
			M324.791,248.197l-1.699,48.644l0,0c-4.91,0-8.751-3.98-8.579-8.89l1.388-39.754"/>
		
			<path style="fill:#92E3A9;stroke:#263238;stroke-width:0.75;stroke-linecap:round;stroke-linejoin:round;stroke-miterlimit:10;" d="
			M323.161,252.667c0,1.656-1.343,2.999-2.999,2.999c-1.656,0-2.999-1.343-2.999-2.999c0-1.656,1.343-2.999,2.999-2.999
			C321.819,249.668,323.161,251.01,323.161,252.667z"/>
		
			<circle style="fill:#92E3A9;stroke:#263238;stroke-width:0.75;stroke-linecap:round;stroke-linejoin:round;stroke-miterlimit:10;" cx="318.856" cy="285.383" r="2.999"/>
		
			<path style="fill:#858585;stroke:#263238;stroke-width:0.75;stroke-linecap:round;stroke-linejoin:round;stroke-miterlimit:10;" d="
			M324.089,198.917c0,0,1.577,2.25,3.327,2.917"/>
		<path style="fill:none;stroke:#263238;stroke-width:0.75;stroke-linecap:round;stroke-linejoin:round;stroke-miterlimit:10;" d="
			M298.155,205.553c0,0,1.428,1.738,5.178,1.863"/>
		
			<path style="fill:#858585;stroke:#263238;stroke-width:0.75;stroke-linecap:round;stroke-linejoin:round;stroke-miterlimit:10;" d="
			M325.361,200.584c0,0-3.57,2.91-7.653,4.788"/>
		<path style="fill:none;stroke:#263238;stroke-width:0.75;stroke-linecap:round;stroke-linejoin:round;stroke-miterlimit:10;" d="
			M296.167,205.803c0,0,3.306,11.031,13.736,9.697c10.43-1.333,14.186-11.387,14.186-11.387"/>
	</g>
</g>
<g id="Comment">
	<g>
		<g>
			<path style="fill:#263238;stroke:#263238;stroke-width:0.75;stroke-linecap:round;stroke-linejoin:round;" d="M422.256,133.065
				h-31.29c-0.746,0-1.35-0.604-1.35-1.35l0,0c0-0.746,0.604-1.35,1.35-1.35h31.29c0.746,0,1.35,0.604,1.35,1.35l0,0
				C423.606,132.461,423.002,133.065,422.256,133.065z"/>
			<path style="fill:#263238;stroke:#263238;stroke-width:0.75;stroke-linecap:round;stroke-linejoin:round;" d="M421.356,139.796
				h-30.39c-0.746,0-1.35-0.604-1.35-1.35l0,0c0-0.746,0.604-1.35,1.35-1.35h30.39c0.746,0,1.35,0.604,1.35,1.35l0,0
				C422.706,139.191,422.102,139.796,421.356,139.796z"/>
			<path style="fill:#263238;stroke:#263238;stroke-width:0.75;stroke-linecap:round;stroke-linejoin:round;" d="M412.356,146.527
				h-21.39c-0.746,0-1.35-0.604-1.35-1.35v0c0-0.745,0.604-1.35,1.35-1.35h21.39c0.746,0,1.35,0.604,1.35,1.35v0
				C413.706,145.922,413.102,146.527,412.356,146.527z"/>
		</g>
		<g>
			<path style="fill:none;stroke:#263238;stroke-width:0.75;stroke-linecap:round;stroke-linejoin:round;" d="M426.151,152.988
				c2.446,0,4.429-1.983,4.429-4.429v-17.136"/>
			<polyline style="fill:none;stroke:#263238;stroke-width:0.75;stroke-linecap:round;stroke-linejoin:round;" points="
				423.595,152.988 406.553,152.988 394.709,164.831 394.709,152.988 392.564,152.988 			"/>
			<path style="fill:none;stroke:#263238;stroke-width:0.75;stroke-linecap:round;stroke-linejoin:round;" d="M382.642,131.423
				v17.136c0,2.446,1.983,4.429,4.429,4.429h2.545"/>
			<path style="fill:none;stroke:#263238;stroke-width:0.75;stroke-linecap:round;stroke-linejoin:round;" d="M430.581,128.561
				c0-2.446-1.983-4.429-4.429-4.429h-39.081c-2.446,0-4.429,1.983-4.429,4.429"/>
		</g>
	</g>
</g>
<g id="Rating">
	<g>
		<g>
			<path style="fill:none;stroke:#263238;stroke-width:0.75;stroke-linecap:round;stroke-linejoin:round;" d="M446.857,187.064
				c0-2.446-1.983-4.429-4.429-4.429H377"/>
			<path style="fill:none;stroke:#263238;stroke-width:0.75;stroke-linecap:round;stroke-linejoin:round;" d="M396.5,211.49h45.927
				c2.446,0,4.429-1.983,4.429-4.429v-16.974"/>
			<polyline style="fill:none;stroke:#263238;stroke-width:0.75;stroke-linecap:round;stroke-linejoin:round;" points="
				381.694,217.667 381.694,223.334 393.538,211.49 			"/>
			<path style="fill:none;stroke:#263238;stroke-width:0.75;stroke-linecap:round;stroke-linejoin:round;" d="M369.626,207.061
				c0,2.446,1.983,4.429,4.429,4.429h7.638v3.707"/>
			<path style="fill:none;stroke:#263238;stroke-width:0.75;stroke-linecap:round;stroke-linejoin:round;" d="M374.056,182.634
				c-2.446,0-4.429,1.983-4.429,4.429v16.92"/>
		</g>
		<g>
			<polygon style="fill:none;stroke:#263238;stroke-width:0.75;stroke-linecap:round;stroke-linejoin:round;" points="
				385.469,202.396 380.076,205.231 381.106,199.227 376.743,194.974 382.772,194.098 385.469,188.635 388.165,194.098 
				394.194,194.974 389.831,199.227 390.861,205.231 			"/>
			<polygon style="fill:none;stroke:#263238;stroke-width:0.75;stroke-linecap:round;stroke-linejoin:round;" points="
				408.241,202.396 402.849,205.231 403.879,199.227 399.516,194.974 405.545,194.098 408.241,188.635 410.938,194.098 
				416.967,194.974 412.604,199.227 413.634,205.231 			"/>
			<polygon style="fill:none;stroke:#263238;stroke-width:0.75;stroke-linecap:round;stroke-linejoin:round;" points="
				431.014,202.396 425.622,205.231 426.652,199.227 422.289,194.974 428.318,194.098 431.014,188.635 433.711,194.098 
				439.74,194.974 435.377,199.227 436.407,205.231 			"/>
		</g>
	</g>
</g>
<g id="Coding">
	<g>
		<path style="fill:none;stroke:#263238;stroke-width:0.75;stroke-linecap:round;stroke-linejoin:round;" d="M238.977,170.375
			v-18.589h4.058v20.442c0,4.287-2.144,6.737-6.277,6.737c-4.136,0-6.281-2.45-6.281-6.737v-20.442h4.211v20.748
			c0,1.914,0.804,2.603,2.145,2.603c1.34,0,2.144-0.689,2.144-2.603"/>
		<path style="fill:none;stroke:#263238;stroke-width:0.75;stroke-linecap:round;stroke-linejoin:round;" d="M255.558,167.352
			l3.985,11.23h-4.442l-3.061-9.34h-0.078l-3.139,9.34h-3.98l4.862-13.703l-4.632-13.092h4.438l2.833,8.651h0.078l2.908-8.651h3.98
			l-4.632,13.092"/>
	</g>
	<g>
		<path style="fill:none;stroke:#263238;stroke-width:0.75;stroke-linecap:round;stroke-linejoin:round;" d="M244.166,92.965
			l5.856-2.526v3.062l-8.076,3.407l8.076,3.407v3.062l-11.713-5.052v-2.833l3.727-1.607"/>
		<path style="fill:none;stroke:#263238;stroke-width:0.75;stroke-linecap:round;stroke-linejoin:round;" d="M256.347,100.406
			l6.66-16.895h3.637l-10.566,26.796h-3.634l2.731-6.929"/>
		<path style="fill:none;stroke:#263238;stroke-width:0.75;stroke-linecap:round;stroke-linejoin:round;" d="M271.08,102.507
			l-2.017,0.87v-3.062l8.079-3.407l-8.079-3.407v-3.062l11.713,5.052v2.833l-6.731,2.903"/>
	</g>
</g>
</svg>
