<?xml version="1.0" encoding="utf-8"?>
<!-- Generator: Adobe Illustrator 27.5.0, SVG Export Plug-In . SVG Version: 6.00 Build 0)  -->
<svg version="1.1" xmlns="http://www.w3.org/2000/svg" xmlns:xlink="http://www.w3.org/1999/xlink" x="0px" y="0px"
	 viewBox="0 0 500 500" style="enable-background:new 0 0 500 500;" xml:space="preserve">
<g id="BACKGROUND">
	<g>
		<rect style="fill:#EAEAEA;" width="500" height="500"/>
		
			<ellipse transform="matrix(0.7071 -0.7071 0.7071 0.7071 -106.7495 251.3239)" style="fill:#F7F7F7;" cx="250" cy="254.52" rx="234.331" ry="234.331"/>
		
			<ellipse transform="matrix(0.7071 -0.7071 0.7071 0.7071 -106.7495 251.3239)" style="fill:#FFFFFF;" cx="250" cy="254.52" rx="183.56" ry="183.56"/>
	</g>
</g>
<g id="OBJECTS">
	<g>
		<g>
			<path style="fill:#D8D8D8;" d="M386.59,408.85l-5.65-25.68l-4.41-20.01l-1.7-7.7l-1.38-4.57l-1.39-4.62l-5.62-18.55l-0.86-2.85
				l-4.33-14.3c-0.69-2.28-1.55-4.49-2.56-6.61c-0.45-0.97-0.95-1.92-1.47-2.85c-2.33-4.15-5.27-7.9-8.7-11.14
				c-0.92-0.87-1.87-1.7-2.85-2.49c-3.79-3.04-8.06-5.51-12.69-7.28c-1.27-0.5-2.57-0.93-3.9-1.31l-7.17-2.05l-2.83-0.81
				c3.8-10.85-0.22-17.41-7.27-25.36c-4.23-4.77-4.87-13.05-3.98-22.37c1.35-1.71,2.17-3.87,2.17-6.22c0-1.36-0.28-2.66-0.77-3.85
				c1.07-6.13,2.46-12.33,3.65-18c3.74-17.82-9.63-39.38-26.38-38.85c-6-9.61-22.92-11.07-37.98-5.72
				c-10.89,3.86-20.81,11.29-24.93,21.76c-5.64,14.36-3.9,29.42-1.92,42.17c-0.21,0.8-0.33,1.63-0.33,2.49
				c0,1.97,0.58,3.8,1.56,5.35c0.92,6.09,1.5,11.37,0.69,15.4c-2.28,11.41-18.46,19.97-11.5,33.32l-4.16,1.19l-5.42,1.55
				c-1.33,0.38-2.63,0.81-3.9,1.31c-6.22,2.37-11.8,6.02-16.42,10.63c-0.99,0.99-1.95,2.03-2.85,3.11
				c-1.86,2.22-3.53,4.62-4.96,7.17c-0.52,0.93-1.02,1.88-1.47,2.85c-1.01,2.12-1.87,4.33-2.56,6.61l-4.33,14.3l-0.86,2.85
				l-5.62,18.55l-1.15,3.78l-0.43,1.43l-1.2,3.98l-1.7,7.7l-9.35,42.45l-0.71,3.24c-3.67,16.69,2.97,33.97,16.89,43.9l31.19,22.26
				c0.06,2.39,0.13,4.7,0.21,6.93c0.24,7.07,0.56,13.25,0.86,18.06h143.3c0.38-6.32,0.82-15.01,1.06-24.99l12.81-9.14l18.38-13.12
				C383.62,442.82,390.26,425.54,386.59,408.85z"/>
			<path style="fill:#D8D8D8;" d="M355,408.85l-0.71-3.24l-9.35-42.45l-1.7-7.7l-1.38-4.57l-1.39-4.62l-5.62-18.55l-0.86-2.85
				l-4.33-14.3c-0.69-2.28-1.55-4.49-2.56-6.61c-0.45-0.97-0.95-1.92-1.47-2.85c-2.33-4.15-5.27-7.9-8.7-11.14
				c-0.92-0.87-1.87-1.7-2.85-2.49c-3.79-3.04-8.06-5.51-12.69-7.28c-1.27-0.5-2.57-0.93-3.9-1.31l-7.17-2.05l-2.83-0.81
				c3.8-10.85-0.22-17.41-7.27-25.36c-4.23-4.77-4.87-13.05-3.98-22.37c1.35-1.71,2.17-3.87,2.17-6.22c0-1.36-0.27-2.66-0.77-3.85
				c1.07-6.13,2.46-12.33,3.65-18c3.74-17.82-9.63-39.38-26.38-38.85c-1.51-2.42-3.7-4.32-6.39-5.72
				c-15.72-8.25-48.15,0.45-56.52,21.76c-5.64,14.36-3.9,29.42-1.92,42.17c-0.2,0.8-0.32,1.63-0.32,2.49c0,1.97,0.57,3.8,1.55,5.35
				c0.92,6.09,1.5,11.37,0.69,15.4c-2.28,11.41-18.46,19.97-11.49,33.32l-4.17,1.19l-5.42,1.55c-1.33,0.38-2.63,0.81-3.9,1.31
				c-6.22,2.37-11.8,6.02-16.42,10.63c-0.99,0.99-1.95,2.03-2.85,3.11c-1.86,2.22-3.53,4.62-4.96,7.17
				c-0.52,0.93-1.02,1.88-1.47,2.85c-1.01,2.12-1.87,4.33-2.56,6.61l-4.33,14.3l-0.86,2.85l-5.62,18.55l-1.15,3.78l-0.43,1.43
				l-1.2,3.98l-1.7,7.7l-4.41,20.01l-5.65,25.68c-3.67,16.69,2.97,33.97,16.89,43.9l18.38,13.12l12.81,9.14
				c0.24,9.98,0.68,18.67,1.07,24.99h143.3c0.29-4.81,0.61-10.99,0.85-18.06c0.08-2.23,0.15-4.54,0.21-6.93l31.19-22.26
				C352.03,442.82,358.67,425.54,355,408.85z"/>
		</g>
		<g>
			<path style="fill:#D8D8D8;" d="M95.16,357.67c-1.18,2.85-6.65,7.01-11.34,10.18c-0.65,0.43-1.29,0.85-1.9,1.26c0,0,0,0-0.01,0
				c-2.98,1.94-5.26,3.26-5.26,3.26s0.93,1.27,2.17,3.29c0.16,0.26,0.33,0.54,0.49,0.83c0.32,0.54,0.65,1.12,0.98,1.73
				c1.24,2.25,2.52,4.95,3.43,7.75c0.21,0.67,0.41,1.35,0.58,2.03c0.22,0.87,0.39,1.75,0.51,2.62c0.22,1.63,0.23,3.23-0.05,4.73
				v0.01c-0.1,0.54-0.24,1.09-0.42,1.61c-0.51,1.47-1.13,2.88-1.85,4.24c-3.02,5.79-7.58,10.38-11.75,12.44
				c-1.21,0.6-2.39,0.99-3.49,1.13c-5.78,0.75-13.27-1.27-13.27-1.27L0,455.04v-46.61c18.98-7.61,30.74-17.93,34.44-22.92
				c3.74-5.04,8.66-14.05,14.38-19.09c1.36-1.19,2.77-2.17,4.21-2.81c6.22-2.77,18.35-5.49,27.34-9.76c1.89-0.9,3.64-1.86,5.17-2.91
				c4.91-3.37,8.01-2.49,9.43-0.16C96.06,352.63,96.11,355.39,95.16,357.67z"/>
			<path style="fill:#D8D8D8;" d="M500,396.34v71.23c-11.31-7.03-26.81-16.83-32.17-20.96c-8.8-6.78-13.91-15.72-13.91-15.72
				s-7.17-0.8-8.43-4.85c-0.22-0.71-0.2-2.22,0.04-4.22l-10.34-7.48c0,0-7.44,2.24-13.24,1.66c-5.79-0.57-13.96-7.84-17.6-17.31
				c-0.19-0.51-0.34-1.05-0.46-1.59c0,0,0,0,0-0.01c-0.2-0.92-0.29-1.89-0.29-2.88c0-2.12,0.42-4.35,1.05-6.53
				c2.12-7.21,6.67-13.8,6.67-13.8s-16.61-9.03-18.93-14.15c-2.31-5.12,0.45-12.79,9.42-7.01c8.98,5.78,25.24,8.58,32.86,11.71
				c7.62,3.14,14.43,15.26,19.23,21.36c1.05,1.33,2.72,3.05,4.99,4.99c0.82-0.6,1.67-1.06,2.56-1.34l4.44,5.52l24.12-1.67
				L500,396.34z"/>
			<path style="fill:#D8D8D8;" d="M500,217.05v45.94l-22.94-1.01c-0.69-1.98-1.23-3.96-1.63-5.93l-16.76-0.99
				c0,0-5.06,5.88-10.26,8.51c-5.2,2.63-16,0.89-24.15-5.14c-0.44-0.32-0.85-0.7-1.24-1.09c-1.05-1.06-1.92-2.36-2.65-3.78
				c-0.73-1.42-1.31-2.98-1.77-4.58c-2.09-7.21-1.79-15.22-1.79-15.22s-18.86,1.32-23.57-1.75c-4.7-3.08-6.49-11.03,4.18-10.98
				c10.67,0.05,25.9-6.33,34-7.78c8.11-1.45,20.37,5.11,27.69,7.67c3.43,1.2,10.17,2.36,19.17,2.24c0.54-1.5,0.92-2.35,0.92-2.35
				L500,217.05z"/>
			<path style="fill:#D8D8D8;" d="M117.77,232.25c-5.18,2.18-23.51-2.48-23.51-2.48s-0.28,1.98-0.98,4.81
				c-0.7,2.82-1.82,6.48-3.49,9.85c-0.74,1.49-1.59,2.92-2.56,4.19c-0.97,1.27-2.06,2.38-3.28,3.24c-0.46,0.32-0.93,0.61-1.42,0.86
				c-9.1,4.47-20.03,4.26-24.68,0.75c-4.64-3.52-8.58-10.21-8.58-10.21l-8.64-1.05c-0.79,1.51-1.71,2.94-2.78,4.22l-6.41-2.54
				c-0.46,0.97-0.95,1.94-1.49,2.89L0,242.7v-49.97l35.19,13.17c0,0,0.1,0.41,0.24,1.15c3.73,0.42,8.75,0.93,8.75,0.93
				s0.1,0.6,0.23,1.66c4.61,0.42,8.23,0.32,10.52-0.05c7.66-1.21,20.89-5.48,28.61-2.61c7.72,2.88,21.57,11.87,32.08,13.72
				C126.13,222.56,122.94,230.06,117.77,232.25z"/>
		</g>
	</g>
	<g>
		<path style="fill:#541C3A;" d="M270.564,130.327c-10.337-16.574-53.109-8.911-62.911,16.04c-9.802,24.951,2.673,52.04,0,65.406
			c-2.673,13.366-24.416,22.812-5.703,40.634s37.604-2.139,55.604-2.852c18-0.713,34.396,17.057,42.594,2.023
			c8.198-15.033,4.099-22.518-4.277-31.964c-8.376-9.445-2.673-32.614,1.069-50.436
			C300.683,151.357,287.317,129.792,270.564,130.327z"/>
		<g>
			<g>
				<path style="fill:#B25F5F;" d="M284.675,305.873l21.11,150.06l47.98-34.24c13.92-9.93,20.56-27.21,16.89-43.9l-10.06-45.69
					l-1.7-7.7l-25.67-11.4l-11.1-1.63L284.675,305.873z"/>
				<path style="fill:#994A4A;" d="M299.965,315.143l4.34,47.28c0,0,38.7-17.09,56.29-30.32l-1.7-7.7l-25.67-11.4l-11.1-1.63
					L299.965,315.143z"/>
				<path style="fill:none;stroke:#7A2D2D;stroke-width:2;stroke-linecap:round;stroke-linejoin:round;stroke-miterlimit:10;" d="
					M315.646,383.812c14.97-9.267,24.713,0,24.713,0"/>
				<path style="fill:#B25F5F;" d="M215.04,305.873l-21.11,150.06l-47.98-34.24c-13.92-9.93-20.56-27.21-16.89-43.9l10.06-45.69
					l1.7-7.7l25.67-11.4l11.1-1.63L215.04,305.873z"/>
				<path style="fill:#994A4A;" d="M199.75,315.143l-4.34,47.28c0,0-38.7-17.09-56.29-30.32l1.7-7.7l25.67-11.4l11.1-1.63
					L199.75,315.143z"/>
				<path style="fill:none;stroke:#7A2D2D;stroke-width:2;stroke-linecap:round;stroke-linejoin:round;stroke-miterlimit:10;" d="
					M184.069,383.812c-14.97-9.267-24.713,0-24.713,0"/>
				<path style="fill:#FF962D;" d="M358.89,324.403l-26.31,10.83l-2.85,1.17l-6.48,2.67l-0.71,0.3c0,0-0.21,0.7-0.55,1.96
					c-0.2,0.76-0.45,1.72-0.73,2.86c-1.13,4.68-2.7,12.26-3.36,20.49c-0.01,0.14-0.02,0.28-0.03,0.42
					c-0.07,0.98-0.12,1.92-0.14,2.85c-0.2,7.85,1.19,14.17,2.53,20.91c0.18,0.94,0.37,1.89,0.55,2.85c0.45,2.46,0.88,5,1.19,7.72
					c-2.59,4.06-7.32,7.6-13.18,10.66c-0.92,0.49-1.87,0.96-2.85,1.42c-0.8,0.38-1.62,0.75-2.46,1.11
					c-2.32,1.01-4.75,1.96-7.24,2.85c-3.66,1.31-7.44,2.49-11.21,3.54c-0.95,0.27-1.9,0.53-2.85,0.78
					c-7.66,2.04-15.07,3.56-20.91,4.63c-1,0.18-1.95,0.35-2.85,0.5c-3.67,0.64-6.48,1.05-7.98,1.26c-0.24,0.03-0.44,0.06-0.61,0.08
					c-0.17-0.02-0.37-0.05-0.61-0.08c-1.98-0.28-6.22-0.9-11.72-1.92c-0.91-0.17-1.87-0.35-2.85-0.55
					c-6.16-1.2-13.52-2.84-20.91-4.95c-0.95-0.27-1.9-0.55-2.85-0.84c-2.52-0.76-5.03-1.57-7.48-2.45
					c-2.49-0.89-4.92-1.84-7.24-2.85c-2.18-0.94-4.25-1.94-6.19-3c-0.99-0.53-1.94-1.08-2.85-1.65c-4.13-2.54-7.43-5.39-9.45-8.54
					c0.31-2.72,0.74-5.26,1.19-7.72c0.18-0.96,0.37-1.91,0.55-2.85c1.34-6.74,2.73-13.06,2.53-20.91c-0.02-0.93-0.07-1.87-0.14-2.85
					c-0.01-0.14-0.02-0.28-0.03-0.42c-0.65-8.23-2.22-15.81-3.36-20.49c-0.27-1.14-0.52-2.1-0.72-2.86
					c-0.34-1.26-0.55-1.96-0.55-1.96l-0.72-0.3l-10.21-4.2l-2.85-1.18l-22.58-9.29l1.2-3.98l0.87-2.85l0.71-2.36l5.62-18.55
					l0.86-2.85l4.33-14.3c0.69-2.28,1.55-4.49,2.56-6.61c0.45-0.97,0.95-1.92,1.47-2.85c1.43-2.55,3.1-4.95,4.96-7.17
					c0.9-1.08,1.86-2.12,2.85-3.11c4.62-4.61,10.2-8.26,16.42-10.63c1.27-0.5,2.57-0.93,3.9-1.31l5.42-1.55l18.93-5.41l2.85-0.82
					l0.99-0.28l19.92-5.69l2.85-0.82l12.18-3.48l0.15-0.04l0.14,0.04l8.45,2.42l2.85,0.81l20.91,5.98l2.74,0.78l0.11,0.03
					l20.91,5.98l7.17,2.05c1.33,0.38,2.63,0.81,3.9,1.31c4.63,1.77,8.9,4.24,12.69,7.28c0.98,0.79,1.93,1.62,2.85,2.49
					c3.43,3.24,6.37,6.99,8.7,11.14c0.52,0.93,1.02,1.88,1.47,2.85c1.01,2.12,1.87,4.33,2.56,6.61l4.33,14.3l0.86,2.85l5.62,18.55
					L358.89,324.403z"/>
				<path style="fill:#FFBE2E;" d="M332.58,317.573v-20.91h17.92l-0.86-2.85h-17.06v-20.91h10.17c-0.45-0.97-0.95-1.92-1.47-2.85
					h-8.7v-11.14c-0.92-0.87-1.87-1.7-2.85-2.49v13.63h-20.91v-20.91h8.22c-1.27-0.5-2.57-0.93-3.9-1.31l-7.17-2.05v0.5h-20.91
					v-6.48l-0.11-0.03l-2.74-0.78v7.29H261.3v-13.27l-2.85-0.81v14.08h-20.92v-13.02l-2.85,0.82v12.2h-20.91v-6.23l-2.85,0.82v5.41
					h-18.93l-5.42,1.55c-1.33,0.38-2.63,0.81-3.9,1.31h4.49v20.91h-20.91v-10.28c-0.99,0.99-1.95,2.03-2.85,3.11v7.17h-4.96
					c-0.52,0.93-1.02,1.88-1.47,2.85h6.43v20.91h-13.32l-0.86,2.85h14.18v20.91h-20.51l-0.87,2.85h21.38v13.27l2.85,1.18v-14.45
					h20.91v20.91h-9.43c0.2,0.76,0.45,1.72,0.72,2.86h8.71v20.91h-5.32c0.07,0.98,0.12,1.92,0.14,2.85h5.18v20.91h-7.71
					c-0.18,0.94-0.37,1.89-0.55,2.85h8.26v16.26c0.91,0.57,1.86,1.12,2.85,1.65v-17.91h20.91v20.91H196.2
					c2.32,1.01,4.75,1.96,7.24,2.85h7.48v2.45c0.95,0.29,1.9,0.57,2.85,0.84v-3.29h20.91v8.24c0.98,0.2,1.94,0.38,2.85,0.55v-8.79
					h20.92v9.45c0.9-0.15,1.85-0.32,2.85-0.5v-8.95h20.91v4.32c0.95-0.25,1.9-0.51,2.85-0.78v-3.54h11.21
					c2.49-0.89,4.92-1.84,7.24-2.85h-18.45v-20.91h20.91v19.8c0.98-0.46,1.93-0.93,2.85-1.42v-18.38h11.99
					c-0.18-0.96-0.37-1.91-0.55-2.85h-11.44v-20.91h8.91c0.02-0.93,0.07-1.87,0.14-2.85h-9.05v-20.91h12.44
					c0.28-1.14,0.53-2.1,0.73-2.86h-13.17v-20.91h20.91v15.98l2.85-1.17v-14.81h21.92v-2.85H332.58z M187.16,317.573h-20.91v-20.91
					h20.91V317.573z M187.16,293.813h-20.91v-20.91h20.91V293.813z M210.92,388.863h-20.91v-20.91h20.91V388.863z M210.92,365.103
					h-20.91v-20.91h20.91V365.103z M210.92,341.333h-20.91v-20.91h20.91V341.333z M210.92,317.573h-20.91v-20.91h20.91V317.573z
					 M210.92,293.813h-20.91v-20.91h20.91V293.813z M210.92,270.053h-20.91v-20.91h20.91V270.053z M234.68,412.623h-20.91v-20.91
					h20.91V412.623z M234.68,388.863h-20.91v-20.91h20.91V388.863z M234.68,365.103h-20.91v-20.91h20.91V365.103z M234.68,341.333
					h-20.91v-20.91h20.91V341.333z M234.68,317.573h-20.91v-20.91h20.91V317.573z M234.68,293.813h-20.91v-20.91h20.91V293.813z
					 M234.68,270.053h-20.91v-20.91h20.91V270.053z M258.45,412.623h-20.92v-20.91h20.92V412.623z M258.45,388.863h-20.92v-20.91
					h20.92V388.863z M258.45,365.103h-20.92v-20.91h20.92V365.103z M258.45,341.333h-20.92v-20.91h20.92V341.333z M258.45,317.573
					h-20.92v-20.91h20.92V317.573z M258.45,293.813h-20.92v-20.91h20.92V293.813z M258.45,270.053h-20.92v-20.91h20.92V270.053z
					 M282.21,412.623H261.3v-20.91h20.91V412.623z M282.21,388.863H261.3v-20.91h20.91V388.863z M282.21,365.103H261.3v-20.91h20.91
					V365.103z M282.21,341.333H261.3v-20.91h20.91V341.333z M282.21,317.573H261.3v-20.91h20.91V317.573z M282.21,293.813H261.3
					v-20.91h20.91V293.813z M282.21,270.053H261.3v-20.91h20.91V270.053z M305.97,388.863h-20.91v-20.91h20.91V388.863z
					 M305.97,365.103h-20.91v-20.91h20.91V365.103z M305.97,341.333h-20.91v-20.91h20.91V341.333z M305.97,317.573h-20.91v-20.91
					h20.91V317.573z M305.97,293.813h-20.91v-20.91h20.91V293.813z M305.97,270.053h-20.91v-20.91h20.91V270.053z M329.73,317.573
					h-20.91v-20.91h20.91V317.573z M329.73,293.813h-20.91v-20.91h20.91V293.813z"/>
				<path style="fill:#FFFFFF;" d="M177.89,338.063l-1.43,1.01l-35.64-14.67l2.78-9.19c11.84,4.84,33.33,13.65,33.33,13.65
					L177.89,338.063z"/>
				<path style="fill:none;stroke:#FF6E2E;stroke-width:3;stroke-linecap:round;stroke-linejoin:round;stroke-miterlimit:10;" d="
					M180.03,347.129c-9.163-30.57,4.753-47.911,6.178-58.604"/>
				<path style="fill:#FFFFFF;" d="M321.825,338.063l1.43,1.01l35.64-14.67l-2.78-9.19c-11.84,4.84-33.33,13.65-33.33,13.65
					L321.825,338.063z"/>
				<path style="fill:#FFFFFF;" d="M249.715,229.703l0.06,43.75c25.65-2.73,33.09-21.38,35.18-33.68L249.715,229.703z"/>
				<path style="fill:none;stroke:#FF6E2E;stroke-width:3;stroke-linecap:round;stroke-linejoin:round;stroke-miterlimit:10;" d="
					M319.685,347.129c9.163-30.57-4.753-47.911-6.178-58.604"/>
			</g>
			<path style="fill:#FFFFFF;" d="M250,229.703l-0.06,43.75c-25.65-2.73-33.09-21.38-35.18-33.68L250,229.703z"/>
			<path style="fill:none;stroke:#FF6E2E;stroke-width:3;stroke-linecap:round;stroke-linejoin:round;stroke-miterlimit:10;" d="
				M209.495,358.624c38.733,14.97,77.703,0,77.703,0"/>
		</g>
		<path style="fill:#202A51;" d="M320.75,500H178.96c0,0-2.96-54.597-1.73-90.237c0.12-3.44,0.28-6.89,0.48-10.33
			c11.26,17.63,62.92,25.54,71.54,26.75c0.24,0.03,0.44,0.06,0.61,0.08c0.17-0.02,0.37-0.05,0.61-0.08
			c8.61-1.21,60.27-9.12,71.53-26.75c0.18,3.04,0.33,6.1,0.44,9.15C323.78,444.643,320.75,500,320.75,500z"/>
		<path style="fill:#121C3A;" d="M322.44,408.583c-38.28,36.54-111.88,30.1-145.21,1.18c0.12-3.44,0.28-6.89,0.48-10.33
			c11.26,17.63,62.92,25.54,71.54,26.75c0.24,0.03,0.026,0.06,0.61,0.08c0.584-0.02,0.37-0.05,0.61-0.08
			c8.61-1.21,60.27-9.12,71.53-26.75C322.18,402.473,322.33,405.533,322.44,408.583z"/>
		<polygon style="fill:#FF962D;" points="250,229.783 249.86,229.743 250,229.703 		"/>
		<polygon style="fill:#FF962D;" points="249.86,229.743 249.71,229.783 249.71,229.703 		"/>
		<g>
			<path style="fill:#994A4A;" d="M273.18,216.053v24.41c0,0.27,0,0.55-0.02,0.82c-0.43,12.58-10.76,22.65-23.45,22.65
				c-12.96,0-23.46-10.51-23.46-23.47v-24.41H273.18z"/>
			<path style="fill:#7A2D2D;" d="M273.18,216.063v24.4c0,0.27,0,0.55-0.02,0.82c-23.24,9.55-40.11-6.18-46.91-14.36v-10.87h46.9
				C273.16,216.053,273.17,216.063,273.18,216.063z"/>
			<g>
				<g>
					
						<ellipse transform="matrix(0.2253 -0.9743 0.9743 0.2253 -19.2112 357.8896)" style="fill:#994A4A;" cx="215.436" cy="191.025" rx="10.029" ry="10.029"/>
					<path style="fill:none;stroke:#7A2D2D;stroke-width:2;stroke-linecap:round;stroke-linejoin:round;stroke-miterlimit:10;" d="
						M209.108,187.869c3.921-1.337,7.09,5.815,2.941,8.109"/>
				</g>
				<g>
					
						<ellipse transform="matrix(0.365 -0.931 0.931 0.365 2.5167 385.7396)" style="fill:#994A4A;" cx="284.034" cy="191.025" rx="10.029" ry="10.029"/>
					<path style="fill:none;stroke:#7A2D2D;stroke-width:2;stroke-linecap:round;stroke-linejoin:round;stroke-miterlimit:10;" d="
						M290.362,187.869c-3.921-1.337-7.09,5.815-2.941,8.109"/>
				</g>
			</g>
			<path style="fill:#B25F5F;" d="M284.43,185.333l-0.11,0.88l-2.7,19.87c-0.79,5.54-3.39,10.66-7.4,14.56l-6.6,6.42
				c-4.71,4.6-11.04,7.16-17.62,7.16c-6.58,0-12.91-2.56-17.62-7.16l-6.6-6.42c-4.01-3.9-6.61-9.02-7.4-14.56l-3.34-31.499
				c20.54,0.28,37.9-6.851,47.08-16.751c4.49-4.83,7.02-8.44,7.02-8.44l4.64,10.9L284.43,185.333z"/>
			<g>
				<g>
					<path d="M236.168,194.575c0,1.723-0.997,3.119-2.228,3.119c-1.23,0-2.228-1.396-2.228-3.119c0-1.722,0.997-3.119,2.228-3.119
						C235.171,191.456,236.168,192.852,236.168,194.575z"/>
					<path style="fill:none;stroke:#541C3A;stroke-width:2;stroke-linecap:round;stroke-linejoin:round;stroke-miterlimit:10;" d="
						M227.035,186.198c0,0,7.886,1.292,11.54-3.163"/>
				</g>
				<g>
					<path d="M263.302,194.575c0,1.723,0.997,3.119,2.228,3.119c1.23,0,2.228-1.396,2.228-3.119c0-1.722-0.997-3.119-2.228-3.119
						C264.299,191.456,263.302,192.852,263.302,194.575z"/>
					<path style="fill:none;stroke:#541C3A;stroke-width:2;stroke-linecap:round;stroke-linejoin:round;stroke-miterlimit:10;" d="
						M272.435,186.198c0,0-7.886,1.292-11.54-3.163"/>
				</g>
			</g>
			<path style="fill:none;stroke:#7A2D2D;stroke-width:2;stroke-linecap:round;stroke-linejoin:round;stroke-miterlimit:10;" d="
				M250.96,191.456l2.698,9.584c0.451,1.6-0.127,3.313-1.455,4.313l-2.688,2.024"/>
			<path style="fill:none;stroke:#7A2D2D;stroke-width:2;stroke-linecap:round;stroke-linejoin:round;stroke-miterlimit:10;" d="
				M245.792,218.472c0,0,4.897-2.317,8.018,0"/>
			<g>
				<path style="fill:#A85252;" d="M239.866,206.07c0,2.428-3.152,4.396-7.04,4.396c-3.888,0-7.04-1.968-7.04-4.396
					s3.152-4.396,7.04-4.396C236.714,201.674,239.866,203.642,239.866,206.07z"/>
				<path style="fill:#A85252;" d="M273.683,206.07c0,2.428-3.152,4.396-7.04,4.396s-7.04-1.968-7.04-4.396s3.152-4.396,7.04-4.396
					S273.683,203.642,273.683,206.07z"/>
			</g>
		</g>
	</g>
	<g>
		<g>
			<g>
				<g>
					<path style="fill:#FFA9A9;" d="M500,390.56v50.12l-54.48-39.45l-9.52-6.9l-0.81-0.58c0,0-0.35,0.11-0.96,0.27
						c-2.19,0.57-7.74,1.85-12.28,1.4c-5.79-0.58-13.96-7.85-17.6-17.31c-0.08-0.2-0.15-0.41-0.21-0.62
						c-0.27-0.85-0.43-1.73-0.51-2.64c-0.19-2.48,0.26-5.15,1.02-7.75c0.04-0.14,0.09-0.29,0.13-0.43c0.16-0.53,0.34-1.06,0.52-1.58
						c2.27-6.38,6.02-11.79,6.02-11.79s-16.61-9.03-18.93-14.15c-2.31-5.12,0.45-12.79,9.42-7.01c8.98,5.78,25.24,8.58,32.86,11.71
						c7.62,3.14,14.43,15.26,19.23,21.35c1.05,1.34,2.72,3.06,4.98,4.99C466.36,376.59,480.33,385.37,500,390.56z"/>
					<g>
						<g>
							<path style="fill:#EA7575;" d="M436.18,393.71c0.01,0.23-0.05,0.45-0.18,0.62l-0.81-0.58c0,0-0.35,0.11-0.96,0.27
								c-0.03-0.07-0.04-0.14-0.04-0.22c-0.13-2.52-1.07-4.5-2.73-5.7c-1.68-1.22-4.04-1.58-6.33-0.96
								c-0.66,0.18-1.28,0.33-1.86,0.43c-1.04,0.19-1.98,0.25-2.84,0.15c-2.22-0.27-3.96-1.66-5.64-4.96
								c-0.25-0.49-0.05-1.09,0.45-1.34c0.49-0.25,1.09-0.05,1.34,0.44c1.71,3.4,3.14,4.25,5.89,3.83c0.01,0,0.01,0,0.02-0.01
								c0.11-0.01,0.22-0.03,0.33-0.05h0.01c0.54-0.1,1.13-0.24,1.78-0.42c2.86-0.77,5.87-0.3,8.03,1.27
								C434.15,387.58,435.99,389.72,436.18,393.71z"/>
						</g>
						<g>
							<path style="fill:#EA7575;" d="M420.422,393.553c-0.326,0-0.643-0.16-0.83-0.458c-0.083-0.131-1.97-3.25,2.567-7.218
								c0.414-0.363,1.045-0.323,1.411,0.095c0.363,0.416,0.321,1.048-0.095,1.411c-3.178,2.779-2.222,4.591-2.18,4.667
								c0.265,0.473,0.11,1.083-0.355,1.359C420.777,393.506,420.599,393.553,420.422,393.553z"/>
						</g>
						<g>
							<path style="fill:#EA7575;" d="M421.74,371.5c-0.03,0.56-0.55,0.97-1.05,0.95c-3.95-0.2-14.46,0.2-15.85,4.38
								c-0.11,0.34-0.38,0.58-0.7,0.66c-0.27-0.85-0.43-1.73-0.51-2.64c3.52-4.94,15.67-4.46,17.16-4.4
								C421.34,370.48,421.76,370.95,421.74,371.5z"/>
						</g>
						<g>
							<path style="fill:#EA7575;" d="M423.19,361.55c-0.06,0.54-0.56,0.95-1.1,0.88c-0.12-0.02-11.72-1.26-15.59,4.37
								c-0.19,0.28-0.5,0.43-0.82,0.43c-0.2,0-0.39-0.05-0.57-0.17c-0.15-0.1-0.26-0.24-0.33-0.39c0.16-0.53,0.34-1.06,0.52-1.58
								c4.85-5.96,16.51-4.71,17.01-4.65C422.86,360.5,423.26,361,423.19,361.55z"/>
						</g>
						<g>
							<path style="fill:#EA7575;" d="M428.028,356.897c-0.216,0-0.433-0.069-0.615-0.212c-0.073-0.057-7.384-5.667-14.737-2.811
								c-0.514,0.202-1.094-0.054-1.294-0.569c-0.2-0.515,0.055-1.094,0.569-1.294c8.426-3.275,16.363,2.839,16.695,3.101
								c0.435,0.341,0.51,0.968,0.17,1.402C428.619,356.766,428.325,356.897,428.028,356.897z"/>
						</g>
					</g>
				</g>
			</g>
			<path style="fill:#598BFF;" d="M500,375.76v71.23c-11.31-7.03-26.81-16.83-32.17-20.96c-8.8-6.78-13.91-15.72-13.91-15.72
				s-7.17-0.8-8.43-4.85c-0.22-0.72-0.2-2.22,0.03-4.23c1.02-8.4,5.95-25.65,13.36-31.04c0.83-0.6,1.68-1.05,2.57-1.33l4.44,5.52
				l13.7-0.949C486.478,372.954,493.396,373.744,500,375.76L500,375.76z"/>
		</g>
		<g>
			<g>
				<path style="fill:#FFA9A9;" d="M500,200.09v37.43l-30.02-1.26l-11.75-0.5l-1-0.03c0,0-0.23,0.28-0.65,0.75
					c-1.51,1.69-5.43,5.82-9.46,7.95c-5.15,2.71-15.98,1.16-24.23-4.72c-0.18-0.12-0.36-0.26-0.52-0.4c-0.7-0.56-1.32-1.2-1.88-1.92
					c-1.53-1.96-2.63-4.44-3.43-7.02c-0.05-0.14-0.09-0.3-0.13-0.43c-0.16-0.53-0.3-1.08-0.44-1.61
					c-1.63-6.57-1.49-13.15-1.49-13.15s-18.83,1.64-23.6-1.35c-4.75-2.99-6.68-10.91,3.99-11.05c10.68-0.13,25.78-6.78,33.86-8.37
					c8.09-1.59,20.46,4.75,27.82,7.18c1.62,0.54,3.96,1.05,6.91,1.41C472.1,204.01,484.86,203.91,500,200.09z"/>
				<g>
					<g>
						<path style="fill:#EA7575;" d="M458.037,235.147c0.135,0.186,0.207,0.403,0.192,0.616l-0.995-0.036
							c0,0-0.231,0.285-0.651,0.755c-0.064-0.042-0.111-0.095-0.155-0.161c-1.5-2.029-3.377-3.161-5.423-3.246
							c-2.074-0.09-4.241,0.913-5.808,2.694c-0.451,0.514-0.885,0.982-1.314,1.385c-0.762,0.733-1.513,1.302-2.285,1.693
							c-2,1.001-4.218,0.802-7.441-1.022c-0.479-0.27-0.643-0.881-0.365-1.366c0.271-0.479,0.881-0.643,1.36-0.373
							c3.303,1.891,4.964,1.81,7.026-0.058c0.008-0.006,0.008-0.006,0.011-0.019c0.086-0.069,0.167-0.146,0.248-0.224l0.008-0.006
							c0.395-0.382,0.81-0.824,1.252-1.333c1.96-2.221,4.729-3.491,7.397-3.374C452.961,231.156,455.676,231.925,458.037,235.147z"
							/>
					</g>
					<g>
						<path style="fill:#EA7575;" d="M444.812,243.715c-0.272,0.18-0.624,0.221-0.945,0.076c-0.141-0.063-3.437-1.622-1.844-7.436
							c0.145-0.531,0.693-0.846,1.229-0.7c0.533,0.146,0.846,0.696,0.7,1.229c-1.115,4.072,0.682,5.054,0.759,5.095
							c0.482,0.248,0.69,0.842,0.454,1.33C445.082,243.48,444.959,243.617,444.812,243.715z"/>
					</g>
					<g>
						<path style="fill:#EA7575;" d="M433.736,224.6c0.284,0.484,0.077,1.112-0.351,1.372c-3.404,2.014-11.946,8.149-10.798,12.402
							c0.096,0.344,0.003,0.693-0.219,0.937c-0.694-0.56-1.314-1.205-1.883-1.92c0.208-6.062,10.604-12.369,11.879-13.142
							C432.84,223.97,433.449,224.13,433.736,224.6z"/>
					</g>
					<g>
						<path style="fill:#EA7575;" d="M429.452,215.503c0.248,0.483,0.057,1.101-0.431,1.341c-0.111,0.05-10.468,5.42-10.586,12.25
							c-0.004,0.338-0.18,0.635-0.446,0.811c-0.167,0.11-0.353,0.174-0.569,0.173c-0.18-0.001-0.349-0.057-0.491-0.143
							c-0.159-0.53-0.302-1.071-0.439-1.604c0.754-7.647,11.166-13.042,11.616-13.268
							C428.597,214.81,429.207,215.006,429.452,215.503z"/>
					</g>
					<g>
						<path style="fill:#EA7575;" d="M430.917,208.952c-0.18,0.119-0.399,0.181-0.63,0.163c-0.092-0.007-9.285-0.649-13.84,5.792
							c-0.317,0.452-0.942,0.559-1.393,0.24c-0.451-0.319-0.558-0.942-0.24-1.393c5.217-7.383,15.211-6.667,15.632-6.632
							c0.551,0.044,0.959,0.526,0.916,1.076C431.338,208.516,431.165,208.788,430.917,208.952z"/>
					</g>
				</g>
			</g>
		</g>
		<g>
			<path style="fill:#202A51;" d="M500,196.47v45.94l-22.94-1.01c-0.69-1.98-1.23-3.95-1.63-5.92c-2.95-14.22,0.97-27.63,2.86-32.9
				c0.53-1.51,0.91-2.35,0.91-2.35L500,196.47z"/>
		</g>
		<g>
			<g>
				<g>
					<g>
						<g>
							<g>
								<path style="fill:#FFA9A9;" d="M125.17,217.02c-5.24,2.06-23.44-3.04-23.44-3.04s-1.08,6.5-3.9,12.65
									c-0.23,0.5-0.47,1.01-0.73,1.5c-0.07,0.13-0.13,0.27-0.2,0.4c-1.27,2.39-2.81,4.62-4.67,6.27c-0.69,0.6-1.42,1.11-2.21,1.54
									c-0.19,0.11-0.38,0.21-0.58,0.29c-9.2,4.25-20.13,3.78-24.68,0.16c-3.57-2.84-6.66-7.63-7.84-9.56
									c-0.32-0.54-0.5-0.87-0.5-0.87l-0.98-0.14l-11.64-1.69L0,218.17v-26.73l12.16-12.52c17.72,9.98,33.86,13.42,43.69,14.04
									c2.96,0.19,5.36,0.12,7.04-0.11c7.69-1.02,21.02-4.97,28.67-1.92c7.65,3.07,21.26,12.39,31.73,14.5
									C133.75,207.53,130.39,214.96,125.17,217.02z"/>
								<g>
									<g>
										<path style="fill:#EA7575;" d="M55.74,225.646c-0.167,0.158-0.278,0.358-0.303,0.57l0.985,0.148
											c0,0,0.174,0.323,0.5,0.863c0.07-0.029,0.126-0.072,0.182-0.13c1.849-1.717,3.903-2.482,5.93-2.186
											c2.055,0.296,3.999,1.682,5.209,3.722c0.348,0.589,0.688,1.129,1.035,1.604c0.614,0.861,1.246,1.559,1.933,2.086
											c1.78,1.353,3.997,1.569,7.501,0.372c0.521-0.177,0.795-0.747,0.611-1.275c-0.177-0.521-0.747-0.795-1.268-0.618
											c-3.596,1.247-5.214,0.861-6.894-1.357c-0.007-0.007-0.007-0.007-0.007-0.021c-0.072-0.084-0.137-0.175-0.202-0.266
											l-0.007-0.007c-0.318-0.448-0.643-0.96-0.984-1.542c-1.515-2.545-4.002-4.305-6.645-4.684
											C61.467,222.664,58.656,222.917,55.74,225.646z"/>
									</g>
									<g>
										<path style="fill:#EA7575;" d="M67.152,236.513c0.234,0.227,0.573,0.333,0.915,0.25c0.151-0.036,3.677-0.959,3.188-6.966
											c-0.044-0.549-0.524-0.96-1.078-0.915c-0.55,0.045-0.961,0.528-0.915,1.078c0.343,4.208-1.605,4.841-1.688,4.866
											c-0.519,0.155-0.834,0.7-0.692,1.223C66.93,236.232,67.026,236.39,67.152,236.513z"/>
									</g>
									<g>
										<path style="fill:#EA7575;" d="M81.573,219.777c-0.369,0.423-0.281,1.079,0.091,1.413
											c2.973,2.609,10.233,10.219,8.317,14.186c-0.158,0.32-0.132,0.681,0.042,0.961c0.786-0.421,1.514-0.941,2.205-1.538
											c0.917-5.996-8.132-14.117-9.243-15.113C82.57,219.324,81.941,219.368,81.573,219.777z"/>
									</g>
									<g>
										<path style="fill:#EA7575;" d="M87.465,211.629c-0.333,0.429-0.26,1.072,0.176,1.398c0.1,0.069,9.285,7.262,8.138,13.997
											c-0.059,0.333,0.059,0.657,0.289,0.88c0.144,0.139,0.315,0.236,0.527,0.275c0.177,0.033,0.354,0.009,0.508-0.05
											c0.255-0.492,0.495-0.997,0.728-1.496c0.674-7.654-8.561-14.882-8.961-15.188
											C88.434,211.106,87.799,211.186,87.465,211.629z"/>
									</g>
									<g>
										<path style="fill:#EA7575;" d="M87.237,204.92c0.155,0.15,0.359,0.252,0.589,0.277c0.092,0.011,9.245,1.08,12.529,8.253
											c0.228,0.503,0.822,0.724,1.325,0.493c0.502-0.23,0.723-0.823,0.493-1.325c-3.762-8.22-13.715-9.365-14.136-9.409
											c-0.549-0.058-1.04,0.339-1.099,0.887C86.905,204.415,87.024,204.713,87.237,204.92z"/>
									</g>
								</g>
							</g>
						</g>
						<path style="fill:#202A51;" d="M31.515,185.97c0.95,0.238,12.663,1.426,12.663,1.426s4.277,25.812-6.331,38.45L20.584,219
							l-3.564-15.668L31.515,185.97z"/>
					</g>
				</g>
			</g>
			<path style="fill:#636BFF;" d="M32.61,220.67c-0.35,0.88-0.74,1.76-1.16,2.64c-0.46,0.97-0.96,1.93-1.5,2.89L0,222.12v-49.97
				l35.19,13.16c0,0,0.1,0.41,0.24,1.16c0.07,0.36,0.16,0.8,0.24,1.32C36.59,193.31,38.04,207.21,32.61,220.67z"/>
		</g>
		<g>
			<g>
				<path style="fill:#FF66A9;" d="M41.394,309.615l-13.17-35.973c-0.504-1.377,0.199-2.902,1.573-3.413l4.906-1.824
					c1.518-0.564,3.185,0.346,3.531,1.928l8.263,37.796c0.159,0.725,0.007,1.484-0.417,2.092l0,0
					C44.848,311.991,42.135,311.639,41.394,309.615z"/>
				<path style="fill:#FF66A9;" d="M46.435,314.172l-1.6,1.757c-0.429,0.471-0.664,1.087-0.658,1.725l0.056,5.961
					c0.018,1.903,2.053,3.104,3.727,2.199l4.392-2.372c1.223-0.66,1.683-2.185,1.029-3.411l-2.848-5.347
					C49.713,313.143,47.611,312.88,46.435,314.172z"/>
			</g>
			<g>
				<path style="fill:#FF66A9;" d="M60.82,296.1l-3.583-38.14c-0.137-1.46,0.931-2.756,2.39-2.9l5.209-0.515
					c1.612-0.159,2.992,1.145,2.924,2.763l-1.626,38.655c-0.031,0.742-0.37,1.437-0.936,1.918l0,0
					C63.556,299.277,61.021,298.247,60.82,296.1z"/>
				<path style="fill:#FF66A9;" d="M64.535,301.79l-1.994,1.293c-0.535,0.347-0.919,0.883-1.075,1.5l-1.463,5.78
					c-0.467,1.845,1.196,3.524,3.045,3.075l4.851-1.176c1.351-0.328,2.183-1.685,1.863-3.037l-1.394-5.896
					C67.967,301.629,66.002,300.84,64.535,301.79z"/>
			</g>
			<g>
				<path style="fill:#FF66A9;" d="M400.912,172.515l-4.985-37.982c-0.191-1.454,0.829-2.788,2.282-2.986l5.186-0.707
					c1.605-0.219,3.032,1.034,3.024,2.653l-0.202,38.689c-0.004,0.742-0.317,1.449-0.865,1.951l0,0
					C403.764,175.589,401.193,174.653,400.912,172.515z"/>
				<path style="fill:#FF66A9;" d="M404.835,178.064l-1.945,1.365c-0.522,0.366-0.886,0.916-1.019,1.539l-1.249,5.829
					c-0.399,1.861,1.325,3.478,3.156,2.961l4.804-1.354c1.338-0.377,2.12-1.764,1.75-3.104l-1.61-5.84
					C408.258,177.777,406.265,177.061,404.835,178.064z"/>
			</g>
			<g>
				<path style="fill:#FF66A9;" d="M422.823,163.576l4.844-38c0.185-1.454,1.511-2.486,2.966-2.307l5.195,0.636
					c1.608,0.197,2.669,1.771,2.249,3.336l-10.04,37.364c-0.193,0.717-0.676,1.321-1.332,1.666l0,0
					C424.798,167.274,422.551,165.714,422.823,163.576z"/>
				<path style="fill:#FF66A9;" d="M425.205,169.94l-2.229,0.825c-0.598,0.221-1.09,0.66-1.377,1.229l-2.691,5.32
					c-0.859,1.698,0.396,3.7,2.299,3.667l4.991-0.087c1.39-0.024,2.499-1.166,2.482-2.556l-0.071-6.058
					C428.588,170.533,426.843,169.334,425.205,169.94z"/>
			</g>
			<g>
				<path style="fill:#636BFF;" d="M62.494,169.69l-0.41,11.765l9.271-11.765c0,0,32.042,6.419,40.24-18.532
					c8.198-24.951-47.732-36-65.034-19.247S42.265,166.835,62.494,169.69z"/>
				<g>
					<path style="fill:#FFFFFF;" d="M67.762,146.97c0,1.378-1.117,2.495-2.495,2.495c-1.378,0-2.495-1.117-2.495-2.495
						c0-1.378,1.117-2.495,2.495-2.495C66.645,144.475,67.762,145.592,67.762,146.97z"/>
					<path style="fill:#FFFFFF;" d="M79.614,146.97c0,1.378-1.117,2.495-2.495,2.495c-1.378,0-2.495-1.117-2.495-2.495
						c0-1.378,1.117-2.495,2.495-2.495C78.497,144.475,79.614,145.592,79.614,146.97z"/>
					<path style="fill:#FFFFFF;" d="M91.465,146.97c0,1.378-1.117,2.495-2.495,2.495s-2.495-1.117-2.495-2.495
						c0-1.378,1.117-2.495,2.495-2.495S91.465,145.592,91.465,146.97z"/>
				</g>
			</g>
			<g>
				<path style="fill:#636BFF;" d="M460.339,325.829l0.41,11.766l-9.271-11.766c0,0-32.042,6.419-40.24-18.532
					c-8.198-24.951,47.732-36,65.034-19.247C493.576,304.803,480.568,322.975,460.339,325.829z"/>
				<g>
					<path style="fill:#FFFFFF;" d="M455.07,303.11c0,1.378,1.117,2.495,2.495,2.495c1.378,0,2.495-1.117,2.495-2.495
						s-1.117-2.495-2.495-2.495C456.188,300.615,455.07,301.732,455.07,303.11z"/>
					<path style="fill:#FFFFFF;" d="M443.219,303.11c0,1.378,1.117,2.495,2.495,2.495c1.378,0,2.495-1.117,2.495-2.495
						s-1.117-2.495-2.495-2.495C444.336,300.615,443.219,301.732,443.219,303.11z"/>
					<path style="fill:#FFFFFF;" d="M431.368,303.11c0,1.378,1.117,2.495,2.495,2.495c1.378,0,2.495-1.117,2.495-2.495
						s-1.117-2.495-2.495-2.495C432.485,300.615,431.368,301.732,431.368,303.11z"/>
				</g>
			</g>
		</g>
		<g>
			<g>
				<path style="fill:#FFA9A9;" d="M96.92,346.36c-0.53,1.18-1.83,2.57-3.5,4c-5.59,4.8-15.43,10.15-15.43,10.15
					s3.75,5.41,6.02,11.79c0.18,0.52,0.36,1.05,0.52,1.58c0.04,0.14,0.09,0.29,0.13,0.43c0.76,2.6,1.21,5.27,1.02,7.75
					c-0.08,0.91-0.24,1.79-0.51,2.64c-0.06,0.21-0.13,0.42-0.21,0.62c-0.97,2.51-2.25,4.87-3.74,6.99
					c-3.79,5.45-8.83,9.32-12.94,10.17c-0.31,0.07-0.62,0.12-0.92,0.15c-4.54,0.45-10.09-0.83-12.28-1.4
					c-0.61-0.16-0.96-0.27-0.96-0.27l-0.81,0.58l-9.52,6.9L0,440.15v-45.73c14.1-5.12,24.39-11.85,30.43-17.02
					c2.26-1.93,3.93-3.65,4.98-4.99c1.96-2.49,4.25-5.98,6.81-9.45c3.68-5.04,7.91-10.04,12.42-11.9
					c4.01-1.65,10.43-3.21,16.91-5.16c4.94-1.49,9.93-3.2,13.92-5.36c0.62-0.33,1.22-0.68,1.78-1.04c0.09-0.05,0.17-0.1,0.25-0.15
					C96.47,333.57,99.23,341.24,96.92,346.36z"/>
				<g>
					<g>
						<path style="fill:#EA7575;" d="M53.126,400.923c-0.01,0.23,0.05,0.45,0.18,0.62l0.81-0.58c0,0,0.35,0.11,0.96,0.27
							c0.03-0.07,0.04-0.14,0.04-0.22c0.13-2.52,1.07-4.5,2.73-5.7c1.68-1.22,4.04-1.58,6.33-0.96c0.66,0.18,1.28,0.33,1.86,0.43
							c1.04,0.19,1.98,0.25,2.84,0.15c2.22-0.27,3.96-1.66,5.64-4.96c0.25-0.49,0.05-1.09-0.45-1.34c-0.49-0.25-1.09-0.05-1.34,0.44
							c-1.71,3.4-3.14,4.25-5.89,3.83c-0.01,0-0.01,0-0.02-0.01c-0.11-0.01-0.22-0.03-0.33-0.05h-0.01
							c-0.54-0.1-1.13-0.24-1.78-0.42c-2.86-0.77-5.87-0.3-8.03,1.27C55.156,394.793,53.316,396.933,53.126,400.923z"/>
					</g>
					<g>
						<path style="fill:#EA7575;" d="M68.884,400.765c0.326,0,0.643-0.16,0.83-0.458c0.083-0.131,1.97-3.25-2.567-7.218
							c-0.414-0.363-1.045-0.323-1.411,0.095c-0.363,0.416-0.321,1.048,0.095,1.411c3.178,2.779,2.222,4.591,2.18,4.667
							c-0.265,0.473-0.11,1.083,0.355,1.359C68.529,400.719,68.707,400.765,68.884,400.765z"/>
					</g>
					<g>
						<path style="fill:#EA7575;" d="M67.566,378.713c0.03,0.56,0.55,0.97,1.05,0.95c3.95-0.2,14.46,0.2,15.85,4.38
							c0.11,0.34,0.38,0.58,0.7,0.66c0.27-0.85,0.43-1.73,0.51-2.64c-3.52-4.94-15.67-4.46-17.16-4.4
							C67.966,377.693,67.546,378.163,67.566,378.713z"/>
					</g>
					<g>
						<path style="fill:#EA7575;" d="M66.116,368.763c0.06,0.54,0.56,0.95,1.1,0.88c0.12-0.02,11.72-1.26,15.59,4.37
							c0.19,0.28,0.5,0.43,0.82,0.43c0.2,0,0.39-0.05,0.57-0.17c0.15-0.1,0.26-0.24,0.33-0.39c-0.16-0.53-0.34-1.06-0.52-1.58
							c-4.85-5.96-16.51-4.71-17.01-4.65C66.446,367.713,66.046,368.213,66.116,368.763z"/>
					</g>
					<g>
						<path style="fill:#EA7575;" d="M61.278,364.109c0.216,0,0.433-0.069,0.615-0.212c0.073-0.057,7.384-5.667,14.737-2.81
							c0.514,0.202,1.094-0.054,1.294-0.569c0.2-0.515-0.055-1.094-0.569-1.294c-8.426-3.275-16.363,2.839-16.695,3.101
							c-0.435,0.341-0.51,0.968-0.17,1.402C60.687,363.978,60.981,364.109,61.278,364.109z"/>
					</g>
				</g>
			</g>
		</g>
	</g>
</g>
</svg>
