<?xml version="1.0" encoding="utf-8"?>
<!-- Generator: Adobe Illustrator 27.5.0, SVG Export Plug-In . SVG Version: 6.00 Build 0)  -->
<svg version="1.1" xmlns="http://www.w3.org/2000/svg" xmlns:xlink="http://www.w3.org/1999/xlink" x="0px" y="0px"
	 viewBox="0 0 500 500" style="enable-background:new 0 0 500 500;" xml:space="preserve">
<g id="Background_Complete">
	<g>
		<g>
			<g>
				<path style="fill:#EBEBEB;" d="M72.018,92.048c3.54-2.132,8.012-2.368,11.991-1.25c3.979,1.118,7.511,3.481,10.584,6.244
					c5.946,5.345,9.856,13.678,12.203,21.321c-8.638,2.058-17.826-2.602-22.338-5.259C77.327,108.906,66.988,96.986,72.018,92.048"
					/>
			</g>
		</g>
		<g>
			<g>
				<path style="fill:#EBEBEB;" d="M121.988,119.644c-4.278-1.735-7.204-6.116-7.704-10.705c-0.5-4.59,1.238-9.265,4.197-12.809
					c1.368-1.638,3.209-3.151,5.343-3.126c1.996,0.023,3.783,1.455,4.686,3.234c0.903,1.779,1.051,3.85,0.934,5.842
					C129.04,108.912,127.396,115.449,121.988,119.644"/>
			</g>
		</g>
		<g>
			<g>
				<g>
					<path style="fill:#E0E0E0;" d="M132.355,136.759c-0.082,0.069-1.543-1.309-3.717-3.759c-1.087-1.227-2.231-2.867-3.239-4.784
						c-0.995-1.916-2.133-4.002-3.005-6.378c-1.785-4.721-2.111-9.414-1.613-12.674c0.235-1.637,0.64-2.916,0.949-3.779
						c0.35-0.852,0.583-1.302,0.638-1.28c0.153,0.054-0.641,1.931-0.958,5.133c-0.323,3.186,0.089,7.695,1.824,12.289
						c0.837,2.291,1.949,4.386,2.895,6.304c0.957,1.913,1.989,3.504,2.999,4.767C131.151,135.123,132.462,136.669,132.355,136.759z"
						/>
				</g>
			</g>
		</g>
		<g>
			<g>
				<g>
					<path style="fill:#E0E0E0;" d="M80.693,100.429c0.034-0.052,0.859,0.424,2.321,1.329c1.463,0.904,3.561,2.24,6.139,3.915
						c5.155,3.349,12.226,8.055,19.908,13.443c7.682,5.392,14.499,10.469,19.353,14.244c2.427,1.888,4.373,3.438,5.696,4.537
						c1.326,1.096,2.04,1.725,2.002,1.773c-0.038,0.049-0.825-0.487-2.215-1.498c-1.514-1.112-3.488-2.562-5.865-4.307
						c-4.947-3.643-11.812-8.63-19.485-14.017c-7.646-5.285-14.563-10.067-19.745-13.65c-2.423-1.682-4.435-3.079-5.979-4.151
						C81.419,101.055,80.659,100.481,80.693,100.429z"/>
				</g>
			</g>
		</g>
		<g>
			<g>
				<path style="fill:#EBEBEB;" d="M118.613,129.638c-9.225-3.103-19.928-1.386-27.72,4.446c-1.984,1.485-3.957,3.748-3.334,6.147
					c0.624,2.403,3.464,3.422,5.932,3.695c10.267,1.137,20.952-4.636,25.628-13.847"/>
			</g>
		</g>
		<g>
			<g>
				<g>
					<path style="fill:#E0E0E0;" d="M97.904,135.964c-0.03-0.054,0.381-0.339,1.151-0.81c0.765-0.482,1.914-1.103,3.356-1.833
						c2.896-1.38,7.091-3.225,12.101-3.64c2.493-0.201,4.898,0.038,7,0.568c2.112,0.523,3.875,1.399,5.29,2.196
						c1.389,0.849,2.461,1.615,3.127,2.232c0.684,0.594,1.041,0.943,1.001,0.991c-0.111,0.142-1.634-1.167-4.434-2.668
						c-1.417-0.705-3.145-1.49-5.182-1.949c-2.029-0.464-4.328-0.67-6.73-0.477c-4.822,0.396-8.973,2.101-11.907,3.322
						C99.746,135.182,97.973,136.091,97.904,135.964z"/>
				</g>
			</g>
		</g>
	</g>
	<g>
		<g>
			<g>
				<g>
					<g>
						<g>
							<path style="fill:#EBEBEB;" d="M208.563,473.246c13.283-11.584,14.534-30.563,12.161-47.246
								c-0.396-2.785-0.406-5.764-2-8.074c-1.595-2.308-4.877-3.65-7.253-2.203c-1.97,1.201-2.615,3.713-3.561,5.835
								c-1.258,2.824-3.323,5.27-5.88,6.968c-1.68,1.115-3.822,1.917-5.683,1.138c-2.554-1.07-3.197-4.371-3.48-7.153
								c-0.526-5.185-1.052-10.37-1.578-15.553c-0.282-2.781-0.58-5.621-1.729-8.166c-1.149-2.545-3.324-4.79-6.048-5.246
								c-2.725-0.455-5.83,1.421-6.096,4.203c-0.11,1.157,0.247,2.308,0.294,3.47c0.047,1.163-0.353,2.497-1.414,2.937
								c-1.074,0.446-2.272-0.223-3.19-0.947c-3.172-2.497-5.509-5.904-7.716-9.303c-2.207-3.4-4.37-6.891-7.304-9.672
								c-2.933-2.781-6.796-4.819-10.801-4.615c-4.006,0.204-7.983,3.118-8.568,7.135c-0.586,4.028,2.128,7.758,4.958,10.662
								c4.199,4.309,9.014,8.001,14.247,10.923c0.943,0.528,1.966,1.097,2.412,2.091c0.804,1.788-0.754,3.818-2.518,4.625
								c-1.998,0.914-4.269,0.941-6.409,1.429s-4.385,1.698-4.984,3.835c-0.832,2.964,1.865,5.686,4.413,7.385
								c5.103,3.402,10.782,5.911,16.711,7.386c2.126,0.528,4.348,0.952,6.152,2.211c1.804,1.26,3.068,3.651,2.283,5.716
								c-0.786,2.068-3.275,2.97-5.46,2.803c-2.184-0.166-4.227-1.123-6.351-1.673c-3.976-1.03-8.881-0.235-10.972,3.33
								c-1.374,2.344-1.19,5.381-0.098,7.88c1.091,2.499,2.982,4.55,4.955,6.416c6.897,6.524,15.359,11.462,24.553,13.58
								C191.802,477.47,200.103,477.416,208.563,473.246"/>
						</g>
					</g>
				</g>
			</g>
		</g>
		<g>
			<g>
				<g>
					<g>
						<g>
							<g>
								<path style="fill:#E0E0E0;" d="M203.109,463.215c-3.375-8.185-7.819-16.85-12.778-25.753
									c-1.248-2.221-2.481-4.416-3.696-6.578c-1.218-2.156-2.426-4.295-3.737-6.313c-2.604-4.049-5.417-7.744-8.196-11.168
									c-2.779-3.426-5.541-6.576-8.144-9.503c-2.611-2.922-5.096-5.6-7.465-7.944c-4.726-4.707-8.978-8.045-11.991-10.218
									c-1.505-1.092-2.7-1.9-3.517-2.437c-0.393-0.254-0.701-0.454-0.933-0.605c-0.212-0.133-0.322-0.198-0.327-0.191
									c-0.006,0.008,0.096,0.087,0.298,0.235c0.225,0.161,0.525,0.375,0.905,0.647c0.798,0.565,1.973,1.399,3.458,2.513
									c2.972,2.22,7.174,5.59,11.853,10.316c2.346,2.354,4.81,5.039,7.403,7.97c2.588,2.937,5.334,6.092,8.096,9.518
									c2.762,3.423,5.555,7.111,8.139,11.142c1.301,2.009,2.495,4.13,3.715,6.293c1.214,2.162,2.445,4.356,3.692,6.576
									c4.955,8.896,9.4,17.533,12.79,25.684"/>
							</g>
						</g>
					</g>
				</g>
			</g>
		</g>
		<g>
			<g>
				<g>
					<g>
						<g>
							<g>
								<path style="fill:#E0E0E0;" d="M182.75,424.566c0.035,0.002,0.084-0.431,0.144-1.215c0.063-0.784,0.117-1.921,0.163-3.326
									c0.095-2.81,0.093-6.696,0.075-10.979c-0.018-4.286,0.035-8.16,0.173-10.961c0.065-1.401,0.128-2.534,0.183-3.316
									c0.05-0.784,0.061-1.219,0.025-1.224c-0.035-0.004-0.113,0.424-0.224,1.203c-0.116,0.778-0.235,1.911-0.346,3.313
									c-0.231,2.805-0.343,6.695-0.325,10.985c0.028,4.227,0.055,8.051,0.075,10.973c0.001,1.32,0,2.432,0,3.325
									C182.696,424.128,182.714,424.565,182.75,424.566z"/>
							</g>
						</g>
					</g>
				</g>
			</g>
		</g>
		<g>
			<g>
				<g>
					<g>
						<g>
							<g>
								<path style="fill:#E0E0E0;" d="M146.289,421.739c0.003,0.036,0.518,0.04,1.444,0.017c0.926-0.017,2.265-0.049,3.921-0.036
									c3.312,0,7.886,0.161,12.925,0.56c5.04,0.408,9.586,0.971,12.861,1.473c1.641,0.239,2.963,0.469,3.877,0.622
									c0.914,0.157,1.423,0.227,1.432,0.192c0.007-0.036-0.489-0.172-1.393-0.391c-0.905-0.214-2.221-0.499-3.858-0.787
									c-3.27-0.596-7.825-1.219-12.88-1.629c-5.054-0.399-9.648-0.503-12.969-0.408c-1.661,0.034-3.003,0.122-3.928,0.202
									C146.796,421.639,146.287,421.702,146.289,421.739z"/>
							</g>
						</g>
					</g>
				</g>
			</g>
		</g>
		<g>
			<g>
				<g>
					<g>
						<g>
							<g>
								<path style="fill:#E0E0E0;" d="M202.599,462.605c0.017,0.006,0.085-0.153,0.198-0.462c0.128-0.368,0.283-0.816,0.472-1.359
									c0.404-1.182,0.945-2.907,1.585-5.048c1.283-4.28,2.87-10.249,4.531-16.858c1.663-6.612,3.191-12.587,4.383-16.888
									c0.586-2.091,1.068-3.812,1.426-5.09c0.152-0.555,0.278-1.012,0.38-1.388c0.081-0.318,0.116-0.489,0.099-0.495
									c-0.017-0.005-0.084,0.154-0.198,0.463c-0.127,0.367-0.283,0.815-0.472,1.358c-0.404,1.182-0.945,2.907-1.585,5.048
									c-1.283,4.28-2.869,10.249-4.531,16.861c-1.662,6.61-3.191,12.584-4.383,16.886c-0.587,2.091-1.068,3.812-1.426,5.089
									c-0.152,0.555-0.278,1.013-0.38,1.388C202.617,462.429,202.582,462.599,202.599,462.605z"/>
							</g>
						</g>
					</g>
				</g>
			</g>
		</g>
		<g>
			<g>
				<g>
					<g>
						<g>
							<g>
								<path style="fill:#E0E0E0;" d="M153.455,452.417c-0.003,0.018,0.167,0.066,0.492,0.143c0.385,0.084,0.857,0.188,1.429,0.314
									c1.318,0.276,3.098,0.648,5.263,1.1c4.444,0.93,10.568,2.285,17.332,3.791c6.766,1.508,12.909,2.807,17.373,3.645
									c2.232,0.42,4.042,0.741,5.297,0.938c0.58,0.087,1.058,0.159,1.446,0.218c0.332,0.044,0.508,0.058,0.51,0.04
									c0.003-0.018-0.167-0.066-0.492-0.144c-0.384-0.084-0.856-0.187-1.429-0.313c-1.319-0.276-3.097-0.647-5.263-1.1
									c-4.444-0.929-10.569-2.284-17.335-3.791c-6.764-1.507-12.906-2.806-17.37-3.644c-2.232-0.42-4.042-0.741-5.298-0.938
									c-0.58-0.087-1.057-0.16-1.447-0.218C153.634,452.413,153.459,452.399,153.455,452.417z"/>
							</g>
						</g>
					</g>
				</g>
			</g>
		</g>
	</g>
	<g>
		<g>
			<g>
				<path style="fill:#EBEBEB;" d="M440.795,245.596l-10.136,14.257l-3.772-1.672l-28.762,17.112l-5.109-15.109
					c0,0,16.142-4.304,19.746-9.303c3.604-4.999,0.541-6.705,0.541-6.705l8.339-7.066L440.795,245.596z"/>
			</g>
		</g>
		<g>
			<g>
				<g>
					<g>
						<g>
							<path style="fill:#EBEBEB;" d="M435.198,212.6c0,0-11.14-4.242-25.05-22.21c-13.91-17.968-18.478-39.782-20.476-39.973
								c-1.998-0.191-10.067-5.487-31.814,27.919c-21.747,33.406-16.484,42.682-13.196,43.097c3.288,0.415,26.457-2.51,40.126,1.116
								c13.668,3.627,30.47,13.503,30.47,13.503L435.198,212.6z"/>
						</g>
					</g>
					<g>
						<g>
							<path style="fill:#E0E0E0;" d="M456.786,235.731l-5.028,6.891l-2.253,3.087c-3.089,4.234-8.952,5.309-13.342,2.446
								l-23.415-12.233l19.205-30.699l22.724,16.772C459.038,225.214,459.981,231.352,456.786,235.731z"/>
						</g>
					</g>
					<g>
						<g>
							<path style="fill:#E0E0E0;" d="M359.093,179.183c-11.624,18.119-17.82,34.878-13.838,37.432
								c3.981,2.554,16.632-10.064,28.256-28.183c11.624-18.119,17.819-34.878,13.838-37.432
								C383.367,148.446,370.717,161.064,359.093,179.183z"/>
						</g>
					</g>
				</g>
				<g>
					<g>
						<polygon style="fill:#E0E0E0;" points="457.315,246.836 450.935,243.75 456.233,236.488 460.791,240.346 						"/>
					</g>
				</g>
				<g>
					<g>
						<path style="fill:#EBEBEB;" d="M451.357,237.625c-0.13,0.202-3.278-1.587-7.03-3.996c-3.755-2.409-6.692-4.526-6.562-4.728
							c0.129-0.201,3.276,1.587,7.03,3.997C448.549,235.307,451.486,237.424,451.357,237.625z"/>
					</g>
				</g>
				<g>
					<g>
						<path style="fill:#EBEBEB;" d="M454.104,233.24c-0.137,0.198-2.97-1.52-6.329-3.837c-3.361-2.318-5.973-4.356-5.836-4.554
							c0.136-0.197,2.968,1.521,6.329,3.839C451.627,231.005,454.24,233.043,454.104,233.24z"/>
					</g>
				</g>
				<g>
					<g>
						<path style="fill:#EBEBEB;" d="M448.038,242.16c-0.052,0.109-0.82-0.191-2.03-0.77c-0.604-0.289-1.318-0.647-2.106-1.056
							c-0.781-0.42-1.573-0.979-2.429-1.53c-3.41-2.238-5.959-4.312-5.839-4.496c0.143-0.217,2.934,1.552,6.312,3.768
							c0.849,0.546,1.625,1.124,2.372,1.574c0.751,0.44,1.423,0.847,1.982,1.2C447.417,241.557,448.089,242.052,448.038,242.16z"/>
					</g>
				</g>
				<g>
					<g>
						<path style="fill:#EBEBEB;" d="M377.601,177.498c0,0-9.095-7.679-16.561,5.036c-7.466,12.716,2.737,16.49,2.737,16.49
							C369.069,192.976,373.697,185.833,377.601,177.498z"/>
					</g>
				</g>
				<g>
					<g>
						<path style="fill:#E0E0E0;" d="M390.618,162.95c0.057,0.018-0.22,0.916-0.772,2.526c-0.56,1.606-1.361,3.938-2.436,6.789
							c-0.637,1.388-1.332,2.904-2.078,4.529c-0.376,0.814-0.766,1.655-1.166,2.521c-0.201,0.434-0.405,0.873-0.611,1.318
							c-0.217,0.44-0.479,0.864-0.722,1.305c-0.995,1.754-2.038,3.594-3.12,5.501c-0.271,0.477-0.545,0.957-0.821,1.442
							c-0.271,0.488-0.617,0.934-0.926,1.408c-0.638,0.937-1.284,1.887-1.939,2.848c-0.656,0.961-1.305,1.911-1.944,2.847
							c-0.329,0.461-0.618,0.947-0.972,1.378c-0.351,0.434-0.698,0.865-1.043,1.292c-1.38,1.704-2.712,3.348-3.982,4.916
							c-0.323,0.387-0.622,0.786-0.952,1.149c-0.339,0.356-0.674,0.707-1.005,1.053c-0.661,0.691-1.303,1.361-1.924,2.01
							c-1.242,1.289-2.4,2.492-3.46,3.593c-2.255,2.037-4.129,3.63-5.419,4.737c-1.295,1.101-2.031,1.688-2.071,1.644
							c-0.04-0.044,0.619-0.717,1.844-1.894c1.267-1.197,3.047-2.878,5.232-4.941c1.029-1.116,2.153-2.334,3.358-3.64
							c0.605-0.653,1.231-1.327,1.875-2.021c0.323-0.346,0.65-0.699,0.981-1.055c0.323-0.365,0.616-0.765,0.932-1.153
							c1.248-1.567,2.558-3.211,3.916-4.914c0.34-0.426,0.683-0.855,1.03-1.287c0.351-0.429,0.636-0.912,0.961-1.371
							c0.633-0.93,1.276-1.874,1.926-2.829c0.651-0.954,1.295-1.897,1.929-2.826c0.308-0.47,0.654-0.912,0.925-1.395
							c0.276-0.48,0.55-0.956,0.822-1.428c1.089-1.885,2.141-3.705,3.143-5.439c0.246-0.436,0.511-0.854,0.733-1.288
							c0.211-0.44,0.419-0.873,0.624-1.301c0.411-0.854,0.811-1.684,1.197-2.487c0.776-1.6,1.5-3.093,2.163-4.46
							c1.12-2.783,2.032-5.048,2.682-6.662C390.175,163.792,390.561,162.931,390.618,162.95z"/>
					</g>
				</g>
			</g>
		</g>
	</g>
	<g>
		<g>
			<g>
				<path style="fill:#EBEBEB;" d="M371.86,365.046c0,0,6.612,2.678-1.014,16.716c-7.627,14.038-12.837,20.95-12.837,20.95
					s-1.373,3.269,1.394,3.854c2.767,0.585,8.913-0.233,10.064,3.201c1.193,3.562-1.456,6.824-6.728,9.608
					c-5.272,2.785-16.598,9.311-17.62,9.905c-1.003,0.583-2.033,2.094-0.213,2.795c1.821,0.701,15.552,2.495,14.311,8.959
					c-1.241,6.465-17.202,11.81-18.936,12.428c-1.734,0.618-2.163,1.335-2.047,2.281c0.115,0.946,4.788,1.114,8.672,1.784
					c3.885,0.67,8.271,2.128,7.243,5.798c-1.029,3.67-10.596,11.188-33.396,12.828l-10.615,0.068l-5.54-9.11
					c-10.667-20.218-9.346-32.314-6.775-35.128s6.128,0.138,8.751,3.08c2.623,2.942,5.237,6.819,6.1,6.417
					c0.864-0.402,1.245-1.146,0.853-2.944c-0.392-1.798-4.297-18.172,0.533-22.644c4.83-4.472,13.615,6.233,15.172,7.408
					c1.558,1.175,2.295-0.499,2.26-1.659c-0.036-1.181-0.488-14.245-0.912-20.192c-0.424-5.947,0.943-9.92,4.597-10.791
					c3.523-0.84,6.08,4.809,8.039,6.848c1.96,2.038,4.008-0.855,4.008-0.855s3.111-8.078,10.991-21.975
					c7.88-13.897,13.774-9.567,13.774-9.567"/>
			</g>
		</g>
		<g>
			<g>
				<g>
					<path style="fill:#E0E0E0;" d="M309.524,478.702c5.747-10.229,15.657-28.58,24.246-44.292
						c8.587-15.706,16.374-29.919,22.069-40.176c2.848-5.117,5.155-9.261,6.757-12.14c0.792-1.424,1.409-2.535,1.835-3.302
						c0.202-0.37,0.358-0.657,0.47-0.863c0.104-0.195,0.15-0.3,0.15-0.3s-0.066,0.093-0.18,0.283
						c-0.119,0.202-0.285,0.484-0.498,0.847c-0.439,0.76-1.074,1.861-1.889,3.272c-1.637,2.843-3.977,6.974-6.849,12.09
						c-5.747,10.229-13.568,24.425-22.154,40.131c-8.59,15.711-18.466,34.079-24.161,44.336"/>
				</g>
			</g>
		</g>
		<g>
			<g>
				<g>
					<path style="fill:#E0E0E0;" d="M360.913,411.257c-0.007-0.021-0.272,0.046-0.745,0.187c-0.474,0.139-1.152,0.36-1.989,0.64
						c-1.671,0.564-3.959,1.403-6.468,2.374c-2.47,0.966-4.704,1.84-6.412,2.509c-0.772,0.296-1.423,0.547-1.947,0.747
						c-0.461,0.174-0.712,0.281-0.705,0.303c0.007,0.022,0.272-0.044,0.747-0.181c0.473-0.14,1.153-0.361,1.986-0.651
						c1.666-0.581,3.942-1.449,6.45-2.42c2.476-0.948,4.715-1.805,6.427-2.461c0.774-0.293,1.427-0.539,1.952-0.738
						C360.669,411.388,360.92,411.279,360.913,411.257z"/>
				</g>
			</g>
		</g>
		<g>
			<g>
				<g>
					<path style="fill:#E0E0E0;" d="M341.94,417.32c0.086-0.029-1.434-4.823-3.396-10.706c-1.962-5.885-3.623-10.631-3.709-10.602
						c-0.086,0.029,1.434,4.822,3.396,10.707C340.193,412.602,341.853,417.349,341.94,417.32z"/>
				</g>
			</g>
		</g>
		<g>
			<g>
				<g>
					<path style="fill:#E0E0E0;" d="M329.839,442.038c0.018-0.014-0.13-0.25-0.414-0.666c-0.325-0.469-0.73-1.056-1.212-1.752
						c-1.021-1.48-2.422-3.53-3.885-5.849c-1.469-2.316-2.725-4.458-3.622-6.017c-0.423-0.733-0.779-1.351-1.065-1.845
						c-0.254-0.435-0.404-0.67-0.424-0.659c-0.02,0.011,0.091,0.266,0.311,0.72c0.22,0.453,0.549,1.103,0.974,1.898
						c0.846,1.59,2.074,3.757,3.548,6.08c1.467,2.325,2.903,4.361,3.975,5.808c0.539,0.722,0.981,1.301,1.298,1.692
						C329.638,441.841,329.821,442.052,329.839,442.038z"/>
				</g>
			</g>
		</g>
		<g>
			<g>
				<g>
					<path style="fill:#E0E0E0;" d="M348.207,440.332c-0.002-0.023-0.26-0.024-0.725-0.007c-0.535,0.029-1.192,0.064-1.967,0.105
						c-1.66,0.103-3.951,0.268-6.479,0.47c-2.529,0.202-4.818,0.404-6.473,0.566c-0.772,0.083-1.426,0.152-1.958,0.209
						c-0.462,0.057-0.716,0.099-0.715,0.122c0.002,0.023,0.26,0.024,0.725,0.006c0.535-0.029,1.192-0.064,1.967-0.105
						c1.66-0.103,3.951-0.268,6.48-0.47c2.529-0.202,4.817-0.404,6.472-0.566c0.772-0.082,1.426-0.152,1.958-0.209
						C347.954,440.397,348.209,440.354,348.207,440.332z"/>
				</g>
			</g>
		</g>
		<g>
			<g>
				<g>
					<path style="fill:#E0E0E0;" d="M340.297,463.51c-0.002-0.023-0.332-0.021-0.928,0.001c-0.657,0.033-1.504,0.075-2.521,0.125
						c-2.128,0.12-5.066,0.308-8.309,0.537c-3.244,0.228-6.18,0.454-8.303,0.633c-1.014,0.093-1.859,0.17-2.514,0.229
						c-0.593,0.061-0.92,0.106-0.918,0.129c0.002,0.023,0.332,0.021,0.927-0.001c0.657-0.033,1.504-0.074,2.521-0.125
						c2.128-0.12,5.066-0.308,8.31-0.537c3.243-0.228,6.178-0.453,8.302-0.633c1.014-0.093,1.859-0.17,2.514-0.229
						C339.971,463.578,340.298,463.533,340.297,463.51z"/>
				</g>
			</g>
		</g>
		<g>
			<g>
				<g>
					<path style="fill:#E0E0E0;" d="M317.354,464.967c0.019-0.013-0.161-0.317-0.503-0.857c-0.376-0.587-0.866-1.353-1.457-2.277
						c-1.228-1.923-2.913-4.586-4.69-7.578c-1.783-2.99-3.324-5.739-4.427-7.737c-0.53-0.959-0.97-1.755-1.307-2.365
						c-0.311-0.557-0.493-0.861-0.513-0.85c-0.02,0.01,0.123,0.334,0.399,0.91c0.276,0.576,0.689,1.403,1.216,2.416
						c1.051,2.028,2.563,4.8,4.349,7.795c1.78,2.997,3.5,5.645,4.779,7.538c0.642,0.945,1.169,1.704,1.545,2.22
						C317.12,464.7,317.336,464.98,317.354,464.967z"/>
				</g>
			</g>
		</g>
	</g>
</g>
<g id="Background_Simple" style="display:none;">
	<path style="display:inline;fill:#EBEBEB;" d="M395.95,165.743c-27.103-19.589-67.284-21.136-93.39-0.236
		c-14.838,11.879-24.017,29.202-34.498,45.057c-10.481,15.856-23.853,31.474-42.207,36.411c-19.825,5.333-40.753-2.981-61.242-1.689
		c-27.193,1.715-51.726,21.508-61.534,46.928c-9.808,25.42-5.605,55.199,8.658,78.415c14.263,23.216,37.804,39.993,63.658,48.593
		c74.662,26.742,173.311-1.665,224.821-61.966c21.72-25.427,34.22-70.391,35.534-103.806
		C437.065,220.035,423.053,185.332,395.95,165.743z"/>
	
		<ellipse transform="matrix(0.9203 -0.3912 0.3912 0.9203 -53.215 78.9141)" style="display:inline;fill:#EBEBEB;" cx="167.076" cy="170.066" rx="43.98" ry="43.98"/>
</g>
<g id="Sign">
	<g>
		<g>
			<g>
				<rect x="131.072" y="39.167" style="fill:#E8505B;" width="230.707" height="91.229"/>
			</g>
			<g>
				<g>
					<path style="fill:#263238;" d="M361.779,130.396c0,0-0.012-0.554-0.019-1.617c-0.004-1.069-0.011-2.647-0.02-4.715
						c-0.01-4.144-0.025-10.247-0.045-18.118c-0.023-15.729-0.057-38.514-0.098-66.779l0.181,0.181
						c-58.196,0.02-140.074,0.048-230.691,0.079h-0.015l0.26-0.26c-0.004,31.917-0.007,62.747-0.011,91.229l-0.249-0.25
						c66.805,0.048,124.449,0.088,165.401,0.117c20.49,0.03,36.803,0.053,48.001,0.07c5.599,0.014,9.917,0.024,12.845,0.032
						c1.458,0.007,2.568,0.012,3.323,0.016C361.389,130.386,361.779,130.396,361.779,130.396s-0.369,0.01-1.107,0.016
						c-0.747,0.003-1.848,0.009-3.293,0.016c-2.916,0.007-7.216,0.018-12.792,0.032c-11.185,0.016-27.478,0.04-47.944,0.069
						c-40.994,0.029-98.697,0.07-165.57,0.118l-0.25,0v-0.25c-0.003-28.482-0.007-59.312-0.011-91.229v-0.26h0.261h0.015
						c90.618,0.031,172.495,0.059,230.691,0.079l0.182,0l0,0.181c-0.042,28.31-0.075,51.134-0.098,66.888
						c-0.02,7.853-0.035,13.943-0.045,18.078c-0.009,2.054-0.015,3.62-0.02,4.682C361.791,129.868,361.779,130.396,361.779,130.396z
						"/>
				</g>
			</g>
		</g>
		<g>
			<g>
				<g>
					<path style="fill:#FFFFFF;" d="M161.637,111.475c-2.766-0.021-5.235-1.466-6.608-3.869c-1.378-2.41-1.365-5.281,0.034-7.679
						l22.295-38.224c1.398-2.397,3.891-3.822,6.667-3.809c0.008,0,0.016,0,0.025,0c2.766,0.021,5.235,1.465,6.609,3.869
						l21.955,38.42c1.377,2.41,1.365,5.281-0.034,7.679c-1.399,2.397-3.891,3.822-6.667,3.81l-44.251-0.196
						C161.654,111.475,161.646,111.475,161.637,111.475z M184.032,60.186c-0.006,0-0.012,0-0.017,0
						c-1.947-0.009-3.695,0.99-4.676,2.672l-22.295,38.224c-0.981,1.682-0.99,3.695-0.024,5.386
						c0.963,1.685,2.695,2.699,4.635,2.713c0.005,0,0.011,0,0.017,0l44.251,0.196c1.947,0.009,3.696-0.99,4.676-2.672
						c0.981-1.682,0.99-3.695,0.024-5.386L188.667,62.9C187.704,61.214,185.972,60.201,184.032,60.186z"/>
				</g>
			</g>
			<g>
				<g>
					<path style="fill:#FFFFFF;" d="M180.676,99.192c0.001-1.576,1.247-2.821,2.969-2.82c1.685,0.001,2.894,1.247,2.894,2.823
						c-0.001,1.576-1.21,2.858-2.896,2.857C181.921,102.052,180.675,100.768,180.676,99.192z M180.943,76.142l5.423,0.003
						l-0.923,17.149l-3.629-0.001L180.943,76.142z"/>
				</g>
			</g>
		</g>
		<g>
			<path style="fill:#FFFFFF;" d="M224.264,82.015h-5.836l-1.084,2.681h-3.982l6.092-13.8h3.844l6.111,13.8h-4.061L224.264,82.015z
				 M223.121,79.137l-1.774-4.416l-1.774,4.416H223.121z"/>
			<path style="fill:#FFFFFF;" d="M232.764,73.992h-4.238v-3.095h12.361v3.095h-4.219v10.705h-3.903V73.992z"/>
			<path style="fill:#FFFFFF;" d="M245.482,73.992h-4.238v-3.095h12.36v3.095h-4.218v10.705h-3.903V73.992z"/>
			<path style="fill:#FFFFFF;" d="M266.143,81.68v3.016h-11.079v-13.8h10.823v3.017h-6.959v2.326h6.131v2.918h-6.131v2.523H266.143z
				"/>
			<path style="fill:#FFFFFF;" d="M281.445,70.896v13.8h-3.214l-6.092-7.354v7.354h-3.824v-13.8h3.214l6.092,7.354v-7.354H281.445z"
				/>
			<path style="fill:#FFFFFF;" d="M287.145,73.992h-4.238v-3.095h12.36v3.095h-4.219v10.705h-3.903V73.992z"/>
			<path style="fill:#FFFFFF;" d="M296.728,70.896h3.903v13.8h-3.903V70.896z"/>
			<path style="fill:#FFFFFF;" d="M302.703,77.797c0-4.14,3.253-7.176,7.669-7.176c4.416,0,7.669,3.036,7.669,7.176
				c0,4.14-3.253,7.176-7.669,7.176C305.956,84.973,302.703,81.936,302.703,77.797z M314.098,77.797
				c0-2.386-1.637-3.943-3.727-3.943c-2.09,0-3.726,1.557-3.726,3.943c0,2.385,1.636,3.943,3.726,3.943
				C312.462,81.74,314.098,80.182,314.098,77.797z"/>
			<path style="fill:#FFFFFF;" d="M333.223,70.896v13.8h-3.214l-6.091-7.354v7.354h-3.825v-13.8h3.214l6.092,7.354v-7.354H333.223z"
				/>
		</g>
		<g>
			<path style="fill:#FFFFFF;" d="M248.747,97.748c0,2.324-1.754,3.771-4.546,3.771h-1.784v2.675h-2.894V93.962h4.678
				C246.993,93.962,248.747,95.41,248.747,97.748z M245.823,97.748c0-0.95-0.6-1.506-1.798-1.506h-1.608v2.997h1.608
				C245.224,99.239,245.823,98.684,245.823,97.748z"/>
			<path style="fill:#FFFFFF;" d="M250.15,93.962h2.894v7.938h4.883v2.295h-7.777V93.962z"/>
			<path style="fill:#FFFFFF;" d="M267.281,101.958v2.236h-8.215V93.962h8.025v2.236h-5.16v1.725h4.546v2.163h-4.546v1.871H267.281z
				"/>
			<path style="fill:#FFFFFF;" d="M275.745,102.207h-4.327l-0.804,1.988h-2.953l4.518-10.232h2.85l4.531,10.232h-3.012
				L275.745,102.207z M274.897,100.073l-1.315-3.274l-1.315,3.274H274.897z"/>
			<path style="fill:#FFFFFF;" d="M279.662,103.274l0.95-2.134c0.906,0.6,2.193,1.009,3.377,1.009c1.199,0,1.667-0.337,1.667-0.834
				c0-1.623-5.818-0.438-5.818-4.239c0-1.827,1.491-3.318,4.531-3.318c1.33,0,2.704,0.307,3.713,0.892l-0.892,2.149
				c-0.979-0.526-1.944-0.79-2.836-0.79c-1.213,0-1.651,0.409-1.651,0.921c0,1.564,5.803,0.395,5.803,4.166
				c0,1.784-1.49,3.304-4.531,3.304C282.294,104.399,280.627,103.946,279.662,103.274z"/>
			<path style="fill:#FFFFFF;" d="M298.05,101.958v2.236h-8.215V93.962h8.025v2.236h-5.16v1.725h4.546v2.163h-4.546v1.871H298.05z"
				/>
			<path style="fill:#FFFFFF;" d="M299.175,102.791c0-0.862,0.687-1.506,1.666-1.506c0.979,0,1.652,0.644,1.652,1.506
				c0,0.848-0.673,1.535-1.652,1.535C299.862,104.326,299.175,103.639,299.175,102.791z M299.19,93.962h3.304l-0.556,6.505h-2.207
				L299.19,93.962z"/>
		</g>
		<g>
			<g>
				<g>
					<path style="fill:#E0E0E0;" d="M144.416,47.901c0,2.193-1.778,3.971-3.971,3.971s-3.971-1.778-3.971-3.971
						c0-2.193,1.778-3.971,3.971-3.971S144.416,45.708,144.416,47.901z"/>
				</g>
				<g>
					<g>
						<path style="fill:#263238;" d="M144.416,47.901c-0.048,0.002-0.049-0.353-0.223-0.945c-0.172-0.581-0.58-1.424-1.458-2.065
							c-0.848-0.644-2.231-0.996-3.562-0.494c-1.32,0.461-2.454,1.866-2.44,3.504c-0.015,1.638,1.12,3.043,2.44,3.505
							c1.331,0.502,2.714,0.15,3.562-0.494c0.878-0.642,1.286-1.485,1.457-2.065C144.367,48.254,144.368,47.899,144.416,47.901
							c0.023-0.002,0.094,0.355-0.026,0.994c-0.119,0.625-0.499,1.564-1.431,2.309c-0.9,0.745-2.435,1.193-3.949,0.653
							c-1.5-0.492-2.815-2.086-2.797-3.956c-0.018-1.87,1.297-3.463,2.797-3.955c1.514-0.541,3.049-0.093,3.949,0.652
							c0.932,0.744,1.312,1.683,1.431,2.309C144.51,47.546,144.439,47.903,144.416,47.901z"/>
					</g>
				</g>
			</g>
			<g>
				<g>
					<path style="fill:#263238;" d="M142.59,45.944c0.034,0.151-1.325,0.433-2.52,1.547c-1.219,1.089-1.624,2.415-1.771,2.368
						c-0.138,0.004,0.071-1.537,1.42-2.753C141.053,45.874,142.606,45.806,142.59,45.944z"/>
				</g>
			</g>
			<g>
				<g>
					<path style="fill:#263238;" d="M141.737,49.663c-0.145,0.052-0.576-1.024-1.586-1.96c-0.993-0.955-2.092-1.323-2.049-1.47
						c0.009-0.136,1.296,0.033,2.406,1.091C141.629,48.371,141.872,49.646,141.737,49.663z"/>
				</g>
			</g>
		</g>
		<g>
			<g>
				<g>
					<path style="fill:#E0E0E0;" d="M146.986,121.076c0,2.193-1.778,3.971-3.971,3.971c-2.193,0-3.971-1.778-3.971-3.971
						c0-2.193,1.778-3.971,3.971-3.971C145.208,117.105,146.986,118.883,146.986,121.076z"/>
				</g>
				<g>
					<g>
						<path style="fill:#263238;" d="M146.986,121.076c-0.048,0.002-0.049-0.354-0.223-0.945c-0.172-0.581-0.58-1.424-1.458-2.065
							c-0.849-0.644-2.232-0.996-3.562-0.494c-1.32,0.461-2.454,1.866-2.44,3.504c-0.015,1.638,1.12,3.043,2.44,3.505
							c1.331,0.502,2.714,0.15,3.562-0.494c0.878-0.642,1.286-1.485,1.457-2.065C146.937,121.429,146.938,121.074,146.986,121.076
							c0.023-0.002,0.094,0.355-0.026,0.994c-0.119,0.625-0.498,1.564-1.431,2.309c-0.9,0.745-2.435,1.193-3.949,0.653
							c-1.5-0.492-2.815-2.086-2.797-3.956c-0.018-1.87,1.297-3.463,2.797-3.955c1.514-0.54,3.049-0.093,3.949,0.652
							c0.932,0.745,1.312,1.684,1.431,2.309C147.08,120.72,147.009,121.078,146.986,121.076z"/>
					</g>
				</g>
			</g>
			<g>
				<g>
					<path style="fill:#263238;" d="M145.16,119.119c0.034,0.151-1.325,0.433-2.52,1.547c-1.219,1.089-1.624,2.416-1.771,2.368
						c-0.138,0.004,0.071-1.537,1.42-2.753C143.623,119.049,145.177,118.981,145.16,119.119z"/>
				</g>
			</g>
			<g>
				<g>
					<path style="fill:#263238;" d="M144.307,122.838c-0.145,0.052-0.576-1.024-1.586-1.96c-0.993-0.955-2.092-1.323-2.049-1.47
						c0.009-0.136,1.296,0.033,2.406,1.091C144.199,121.546,144.442,122.821,144.307,122.838z"/>
				</g>
			</g>
		</g>
		<g>
			<g>
				<g>
					<path style="fill:#E0E0E0;" d="M354.884,47.947c0,2.193-1.778,3.971-3.971,3.971c-2.193,0-3.971-1.778-3.971-3.971
						c0-2.193,1.778-3.971,3.971-3.971C353.106,43.976,354.884,45.754,354.884,47.947z"/>
				</g>
				<g>
					<g>
						<path style="fill:#263238;" d="M354.884,47.947c-0.048,0.002-0.049-0.354-0.222-0.945c-0.172-0.581-0.58-1.424-1.458-2.065
							c-0.848-0.644-2.232-0.996-3.562-0.494c-1.32,0.461-2.454,1.866-2.44,3.504c-0.015,1.638,1.12,3.043,2.44,3.505
							c1.331,0.502,2.714,0.15,3.562-0.494c0.878-0.642,1.286-1.485,1.457-2.065C354.835,48.301,354.835,47.946,354.884,47.947
							c0.023-0.002,0.094,0.355-0.026,0.994c-0.119,0.625-0.498,1.564-1.431,2.309c-0.9,0.745-2.435,1.193-3.949,0.653
							c-1.5-0.492-2.815-2.086-2.797-3.956c-0.018-1.87,1.297-3.463,2.797-3.955c1.514-0.541,3.049-0.093,3.949,0.652
							c0.932,0.745,1.312,1.684,1.431,2.309C354.978,47.592,354.906,47.95,354.884,47.947z"/>
					</g>
				</g>
			</g>
			<g>
				<g>
					<path style="fill:#263238;" d="M353.058,45.99c0.034,0.151-1.325,0.433-2.52,1.547c-1.219,1.089-1.624,2.415-1.771,2.368
						c-0.138,0.004,0.071-1.537,1.42-2.753C351.52,45.921,353.074,45.853,353.058,45.99z"/>
				</g>
			</g>
			<g>
				<g>
					<path style="fill:#263238;" d="M352.205,49.709c-0.145,0.052-0.576-1.024-1.586-1.96c-0.993-0.955-2.092-1.323-2.049-1.47
						c0.009-0.136,1.296,0.033,2.406,1.091C352.096,48.417,352.34,49.692,352.205,49.709z"/>
				</g>
			</g>
		</g>
		<g>
			<g>
				<g>
					<path style="fill:#E0E0E0;" d="M354.884,121.076c0,2.193-1.778,3.971-3.971,3.971c-2.193,0-3.971-1.778-3.971-3.971
						c0-2.193,1.778-3.971,3.971-3.971C353.106,117.105,354.884,118.883,354.884,121.076z"/>
				</g>
				<g>
					<g>
						<path style="fill:#263238;" d="M354.884,121.076c-0.048,0.002-0.049-0.354-0.222-0.945c-0.172-0.581-0.58-1.424-1.458-2.065
							c-0.848-0.644-2.232-0.996-3.562-0.494c-1.32,0.461-2.454,1.866-2.44,3.504c-0.015,1.638,1.12,3.043,2.44,3.505
							c1.331,0.502,2.714,0.15,3.562-0.494c0.878-0.642,1.286-1.485,1.457-2.065C354.835,121.429,354.835,121.074,354.884,121.076
							c0.023-0.002,0.094,0.355-0.026,0.994c-0.119,0.625-0.498,1.564-1.431,2.309c-0.9,0.745-2.435,1.193-3.949,0.653
							c-1.5-0.492-2.815-2.086-2.797-3.956c-0.018-1.87,1.297-3.463,2.797-3.955c1.514-0.54,3.049-0.093,3.949,0.652
							c0.932,0.745,1.312,1.684,1.431,2.309C354.978,120.72,354.906,121.078,354.884,121.076z"/>
					</g>
				</g>
			</g>
			<g>
				<g>
					<path style="fill:#263238;" d="M353.058,119.119c0.034,0.151-1.325,0.433-2.52,1.547c-1.219,1.089-1.624,2.416-1.771,2.368
						c-0.138,0.004,0.071-1.537,1.42-2.753C351.52,119.049,353.074,118.981,353.058,119.119z"/>
				</g>
			</g>
			<g>
				<g>
					<path style="fill:#263238;" d="M352.205,122.838c-0.145,0.052-0.576-1.024-1.586-1.96c-0.993-0.955-2.092-1.323-2.049-1.47
						c0.009-0.136,1.296,0.033,2.406,1.091C352.096,121.546,352.34,122.821,352.205,122.838z"/>
				</g>
			</g>
		</g>
	</g>
</g>
<g id="Plant">
	<g>
		<g>
			<g>
				<g>
					<g>
						<polygon style="fill:#E8505B;" points="68.511,439.342 74.259,477.112 107.65,477.112 115.4,439.888 						"/>
					</g>
				</g>
			</g>
			<g>
				<g>
					<g>
						<g>
							<g>
								<path style="fill:#FAFAFA;" d="M110.731,463.549c0,0.108-8.556,0.196-19.108,0.196c-10.556,0-19.11-0.088-19.11-0.196
									c0-0.108,8.554-0.196,19.11-0.196C102.175,463.353,110.731,463.441,110.731,463.549z"/>
							</g>
						</g>
					</g>
				</g>
				<g>
					<g>
						<g>
							<g>
								<path style="fill:#FAFAFA;" d="M110.861,461.691c0,0.108-8.614,0.196-19.238,0.196c-10.627,0-19.24-0.088-19.24-0.196
									c0-0.108,8.613-0.196,19.24-0.196C102.246,461.496,110.861,461.583,110.861,461.691z"/>
							</g>
						</g>
					</g>
				</g>
				<g>
					<g>
						<g>
							<g>
								<path style="fill:#FAFAFA;" d="M110.795,459.593c0,0.108-8.614,0.196-19.238,0.196c-10.628,0-19.24-0.088-19.24-0.196
									c0-0.108,8.612-0.196,19.24-0.196C102.181,459.397,110.795,459.485,110.795,459.593z"/>
							</g>
						</g>
					</g>
				</g>
				<g>
					<g>
						<g>
							<g>
								<path style="fill:#FAFAFA;" d="M78.094,474.957c-0.107,0.018-0.565-2.111-1.024-4.755c-0.459-2.646-0.745-4.804-0.638-4.823
									c0.107-0.018,0.565,2.11,1.024,4.756C77.915,472.78,78.201,474.939,78.094,474.957z"/>
							</g>
						</g>
					</g>
				</g>
				<g>
					<g>
						<g>
							<g>
								<path style="fill:#FAFAFA;" d="M80.366,474.556c-0.111,0.002-0.238-2.078-0.414-4.64c-0.173-2.563-0.328-4.641-0.218-4.654
									c0.105-0.013,0.435,2.054,0.609,4.627C80.519,472.462,80.471,474.555,80.366,474.556z"/>
							</g>
						</g>
					</g>
				</g>
				<g>
					<g>
						<g>
							<g>
								<path style="fill:#FAFAFA;" d="M84.506,474.555c-0.104,0.018-0.56-2.103-0.869-4.757c-0.313-2.655-0.36-4.824-0.254-4.83
									c0.111-0.007,0.332,2.141,0.644,4.784C84.334,472.394,84.615,474.536,84.506,474.555z"/>
							</g>
						</g>
					</g>
				</g>
				<g>
					<g>
						<g>
							<g>
								<path style="fill:#FAFAFA;" d="M87.412,474.754c-0.105,0.009-0.377-2.152-0.463-4.834c-0.089-2.683,0.042-4.857,0.148-4.854
									c0.111,0.002,0.155,2.17,0.244,4.841C87.426,472.578,87.523,474.745,87.412,474.754z"/>
							</g>
						</g>
					</g>
				</g>
				<g>
					<g>
						<g>
							<g>
								<path style="fill:#FAFAFA;" d="M92.557,474.556c-0.108,0.004-0.266-2.051-0.352-4.588c-0.086-2.538-0.068-4.598,0.04-4.602
									c0.108-0.004,0.266,2.05,0.351,4.588C92.683,472.493,92.665,474.553,92.557,474.556z"/>
							</g>
						</g>
					</g>
				</g>
				<g>
					<g>
						<g>
							<g>
								<path style="fill:#FAFAFA;" d="M96.315,474.755c-0.108-0.001-0.179-2.126-0.157-4.746c0.021-2.621,0.126-4.745,0.235-4.743
									c0.108,0.001,0.179,2.126,0.157,4.746C96.528,472.632,96.423,474.756,96.315,474.755z"/>
							</g>
						</g>
					</g>
				</g>
				<g>
					<g>
						<g>
							<g>
								<path style="fill:#FAFAFA;" d="M99.838,474.251c-0.108-0.01,0.02-2.231,0.285-4.96c0.265-2.73,0.567-4.934,0.675-4.923
									c0.108,0.01-0.02,2.231-0.285,4.961C100.248,472.057,99.946,474.261,99.838,474.251z"/>
							</g>
						</g>
					</g>
				</g>
				<g>
					<g>
						<g>
							<g>
								<path style="fill:#FAFAFA;" d="M104.381,473.756c-0.104-0.013,0.059-1.918,0.562-4.218c0.498-2.302,1.142-4.102,1.242-4.071
									c0.107,0.032-0.364,1.87-0.859,4.154C104.827,471.903,104.492,473.771,104.381,473.756z"/>
							</g>
						</g>
					</g>
				</g>
			</g>
			<g>
				<g>
					<g>
						<path style="fill:#E8505B;" d="M64.679,431.863v7.068c0,1.537,1.246,2.783,2.783,2.783h48.354
							c1.537,0,2.782-1.246,2.782-2.783v-7.068H64.679z"/>
					</g>
				</g>
			</g>
			<g style="opacity:0.4;">
				<g>
					<g>
						<polygon points="68.872,441.713 69.273,443.963 113.89,447.142 115.02,441.713 						"/>
					</g>
				</g>
			</g>
		</g>
		<g>
			<g>
				<g>
					<g>
						<path style="fill:#455A64;" d="M82.218,431.841c-7.105-4.12-10.907-13.703-11.191-21.545
							c-0.284-7.843,2.982-16.026,9.414-20.522c6.775-4.736,16.424-4.651,23.385-0.193c6.961,4.458,11.039,12.872,10.725,21.132
							c-0.314,8.26-4.818,16.149-11.477,21.047"/>
					</g>
				</g>
			</g>
			<g>
				<g>
					<g>
						<g>
							<path style="fill:#FFFFFF;" d="M93.558,432.599c-0.046,0-0.09-0.639-0.131-1.794c-0.036-1.283-0.083-2.925-0.139-4.892
								c-0.106-4.13-0.268-9.833-0.544-16.128c-0.278-6.298-0.617-11.993-0.874-16.117c-0.117-1.964-0.215-3.604-0.291-4.885
								c-0.061-1.155-0.072-1.795-0.027-1.799c0.046-0.004,0.145,0.628,0.285,1.777c0.142,1.148,0.314,2.812,0.503,4.871
								c0.378,4.118,0.792,9.817,1.07,16.124c0.276,6.304,0.364,12.017,0.35,16.152c-0.007,2.068-0.033,3.741-0.073,4.897
								C93.647,431.96,93.604,432.599,93.558,432.599z"/>
						</g>
					</g>
				</g>
			</g>
			<g>
				<g>
					<g>
						<g>
							<path style="fill:#263238;" d="M73.13,408.52c-0.015,0.183-1.148,0.24-2.531,0.127c-1.383-0.114-2.491-0.354-2.476-0.538
								c0.015-0.183,1.148-0.24,2.531-0.126C72.036,408.096,73.145,408.337,73.13,408.52z"/>
						</g>
					</g>
				</g>
			</g>
			<g>
				<g>
					<g>
						<g>
							<path style="fill:#263238;" d="M73.519,401.483c-0.075,0.168-1.052-0.102-2.183-0.604c-1.131-0.502-1.988-1.045-1.913-1.213
								c0.075-0.168,1.052,0.102,2.183,0.604C72.737,400.772,73.593,401.315,73.519,401.483z"/>
						</g>
					</g>
				</g>
			</g>
			<g>
				<g>
					<g>
						<g>
							<path style="fill:#263238;" d="M77.139,396.26c-0.095,0.153-1.194-0.365-2.336-1.313c-1.145-0.945-1.859-1.928-1.727-2.05
								c0.137-0.128,1.042,0.623,2.151,1.537C76.332,395.352,77.24,396.101,77.139,396.26z"/>
						</g>
					</g>
				</g>
			</g>
			<g>
				<g>
					<g>
						<g>
							<path style="fill:#263238;" d="M80.781,391.332c-0.168,0.074-0.695-0.749-1.176-1.838c-0.482-1.09-0.735-2.033-0.567-2.107
								c0.168-0.074,0.695,0.749,1.176,1.838C80.695,390.314,80.949,391.258,80.781,391.332z"/>
						</g>
					</g>
				</g>
			</g>
			<g>
				<g>
					<g>
						<g>
							<path style="fill:#263238;" d="M86.494,387.835c-0.164,0.077-0.731-0.799-1.107-2.014c-0.38-1.214-0.409-2.257-0.231-2.286
								c0.184-0.032,0.501,0.921,0.867,2.089C86.383,386.792,86.664,387.757,86.494,387.835z"/>
						</g>
					</g>
				</g>
			</g>
			<g>
				<g>
					<g>
						<g>
							<path style="fill:#263238;" d="M96.027,383.893c0.174,0.061,0.067,0.809-0.237,1.671c-0.304,0.862-0.691,1.51-0.864,1.449
								c-0.173-0.061-0.067-0.809,0.237-1.671C95.467,384.481,95.854,383.832,96.027,383.893z"/>
						</g>
					</g>
				</g>
			</g>
			<g>
				<g>
					<g>
						<g>
							<path style="fill:#263238;" d="M103.099,386.928c0.125,0.135-0.329,0.758-1.013,1.391c-0.685,0.633-1.34,1.037-1.465,0.902
								c-0.125-0.135,0.329-0.758,1.013-1.391C102.318,387.197,102.974,386.793,103.099,386.928z"/>
						</g>
					</g>
				</g>
			</g>
			<g>
				<g>
					<g>
						<g>
							<path style="fill:#263238;" d="M109.324,390.947c0.103,0.152-0.45,0.707-1.236,1.239c-0.785,0.532-1.506,0.84-1.609,0.688
								c-0.103-0.152,0.45-0.707,1.236-1.239C108.5,391.103,109.221,390.795,109.324,390.947z"/>
						</g>
					</g>
				</g>
			</g>
			<g>
				<g>
					<g>
						<g>
							<path style="fill:#263238;" d="M113.744,396.942c0.072,0.169-0.8,0.703-1.947,1.193c-1.148,0.49-2.136,0.749-2.209,0.58
								c-0.072-0.169,0.8-0.703,1.947-1.193C112.683,397.033,113.672,396.773,113.744,396.942z"/>
						</g>
					</g>
				</g>
			</g>
			<g>
				<g>
					<g>
						<g>
							<path style="fill:#263238;" d="M115.484,403.479c0.023,0.182-0.864,0.443-1.98,0.581c-1.117,0.139-2.04,0.103-2.063-0.08
								c-0.023-0.182,0.864-0.443,1.981-0.581C114.538,403.26,115.462,403.296,115.484,403.479z"/>
						</g>
					</g>
				</g>
			</g>
			<g>
				<g>
					<g>
						<g>
							<path style="fill:#263238;" d="M116.39,411.526c-0.073,0.169-1.018-0.079-2.11-0.554c-1.093-0.475-1.919-0.997-1.845-1.165
								c0.073-0.169,1.018,0.08,2.111,0.555C115.638,410.836,116.464,411.357,116.39,411.526z"/>
						</g>
					</g>
				</g>
			</g>
			<g>
				<g>
					<g>
						<g>
							<path style="fill:#263238;" d="M115.593,418.431c-0.058,0.168-1.253-0.116-2.502-0.937c-1.253-0.814-1.993-1.795-1.862-1.915
								c0.135-0.133,1.043,0.59,2.226,1.358C114.634,417.712,115.661,418.253,115.593,418.431z"/>
						</g>
					</g>
				</g>
			</g>
			<g>
				<g>
					<g>
						<g>
							<path style="fill:#263238;" d="M111.998,424.718c-0.11,0.143-1.061-0.416-1.973-1.402c-0.917-0.983-1.403-1.972-1.253-2.072
								c0.156-0.105,0.864,0.678,1.741,1.618C111.385,423.806,112.114,424.57,111.998,424.718z"/>
						</g>
					</g>
				</g>
			</g>
			<g>
				<g>
					<g>
						<g>
							<path style="fill:#263238;" d="M77.858,425.456c0.085,0.163-0.914,0.851-2.23,1.537c-1.317,0.686-2.453,1.109-2.538,0.946
								c-0.085-0.163,0.914-0.851,2.231-1.537C76.637,425.716,77.774,425.293,77.858,425.456z"/>
						</g>
					</g>
				</g>
			</g>
			<g>
				<g>
					<g>
						<g>
							<path style="fill:#263238;" d="M74.74,419.77c0.076,0.167-0.725,0.694-1.789,1.176c-1.064,0.482-1.988,0.738-2.064,0.57
								c-0.076-0.167,0.725-0.694,1.789-1.177C73.74,419.857,74.664,419.602,74.74,419.77z"/>
						</g>
					</g>
				</g>
			</g>
			<g>
				<g>
					<g>
						<g>
							<path style="fill:#263238;" d="M72.448,414.734c0.026,0.182-0.96,0.472-2.201,0.648c-1.242,0.176-2.269,0.172-2.295-0.011
								c-0.026-0.182,0.96-0.472,2.202-0.648C71.395,414.547,72.422,414.552,72.448,414.734z"/>
						</g>
					</g>
				</g>
			</g>
			<g>
				<g>
					<g>
						<g>
							<path style="fill:#263238;" d="M79.967,411.958c0.055,0.171-0.907,0.62-2.189,0.763c-1.283,0.147-2.32-0.076-2.305-0.255
								c0.012-0.188,1.016-0.266,2.23-0.407C78.917,411.925,79.913,411.778,79.967,411.958z"/>
						</g>
					</g>
				</g>
			</g>
			<g>
				<g>
					<g>
						<g>
							<path style="fill:#263238;" d="M86.213,405.743c0.054,0.172-0.711,0.559-1.743,0.659c-1.032,0.103-1.858-0.127-1.838-0.306
								c0.018-0.187,0.814-0.259,1.773-0.357C85.364,405.647,86.159,405.563,86.213,405.743z"/>
						</g>
					</g>
				</g>
			</g>
			<g>
				<g>
					<g>
						<g>
							<path style="fill:#263238;" d="M87.406,400.764c-0.06,0.174-0.888,0.045-1.85-0.287c-0.962-0.332-1.693-0.743-1.633-0.917
								c0.06-0.174,0.888-0.045,1.85,0.287C86.735,400.18,87.466,400.591,87.406,400.764z"/>
						</g>
					</g>
				</g>
			</g>
			<g>
				<g>
					<g>
						<g>
							<path style="fill:#263238;" d="M89.696,395.729c-0.128,0.127-0.697-0.248-1.103-0.953c-0.409-0.705-0.448-1.385-0.274-1.432
								c0.18-0.052,0.486,0.474,0.85,1.099C89.529,395.071,89.831,395.6,89.696,395.729z"/>
						</g>
					</g>
				</g>
			</g>
			<g>
				<g>
					<g>
						<g>
							<path style="fill:#263238;" d="M86.936,416.343c0.044,0.179-0.674,0.507-1.602,0.734c-0.536,0.131-1.026,0.199-1.346,0.198
								l-0.131-0.388c0.24-0.043,0.395-0.033,0.427,0.038c0.031,0.071-0.067,0.192-0.262,0.339l-0.131-0.388
								c0.284-0.149,0.75-0.314,1.286-0.445C86.104,416.203,86.892,416.164,86.936,416.343z"/>
						</g>
					</g>
				</g>
			</g>
			<g>
				<g>
					<g>
						<g>
							<path style="fill:#263238;" d="M88.223,425.169c0.067,0.171-0.847,0.691-2.042,1.16c-1.196,0.47-2.219,0.712-2.286,0.541
								c-0.067-0.171,0.847-0.691,2.043-1.161C87.132,425.24,88.155,424.998,88.223,425.169z"/>
						</g>
					</g>
				</g>
			</g>
			<g>
				<g>
					<g>
						<g>
							<path style="fill:#263238;" d="M81.167,421.248c0.059,0.174-0.551,0.539-1.362,0.815c-0.812,0.276-1.518,0.359-1.577,0.185
								c-0.059-0.174,0.551-0.539,1.363-0.815C80.402,421.157,81.107,421.074,81.167,421.248z"/>
						</g>
					</g>
				</g>
			</g>
			<g>
				<g>
					<g>
						<g>
							<path style="fill:#263238;" d="M81.706,403.281c-0.042,0.176-1.104,0.071-2.331-0.365c-1.228-0.434-2.12-1.02-2.041-1.184
								c0.079-0.168,1.071,0.136,2.264,0.556C80.788,402.712,81.751,403.1,81.706,403.281z"/>
						</g>
					</g>
				</g>
			</g>
			<g>
				<g>
					<g>
						<g>
							<path style="fill:#263238;" d="M98.781,401.328c0.101,0.154-0.497,0.726-1.336,1.28c-0.839,0.553-1.601,0.877-1.702,0.724
								c-0.101-0.154,0.497-0.726,1.336-1.28C97.918,401.499,98.68,401.175,98.781,401.328z"/>
						</g>
					</g>
				</g>
			</g>
			<g>
				<g>
					<g>
						<g>
							<path style="fill:#263238;" d="M99.709,410.192c0.037,0.18-0.591,0.463-1.404,0.632c-0.813,0.169-1.501,0.159-1.539-0.021
								c-0.037-0.18,0.591-0.463,1.404-0.631C98.983,410.003,99.672,410.012,99.709,410.192z"/>
						</g>
					</g>
				</g>
			</g>
			<g>
				<g>
					<g>
						<g>
							<path style="fill:#263238;" d="M100.788,420.159c-0.077,0.167-0.982-0.088-2.021-0.569c-1.039-0.481-1.819-1.006-1.741-1.173
								c0.077-0.167,0.982,0.088,2.021,0.569C100.086,419.466,100.865,419.992,100.788,420.159z"/>
						</g>
					</g>
				</g>
			</g>
			<g>
				<g>
					<g>
						<g>
							<path style="fill:#263238;" d="M98.505,429.862c-0.142,0.117-0.73-0.364-1.312-1.073c-0.583-0.71-0.94-1.379-0.798-1.496
								c0.142-0.117,0.729,0.364,1.312,1.073C98.289,429.076,98.647,429.746,98.505,429.862z"/>
						</g>
					</g>
				</g>
			</g>
			<g>
				<g>
					<g>
						<g>
							<path style="fill:#263238;" d="M98.038,394.801c0.112,0.142-0.276,0.631-0.941,0.964c-0.665,0.335-1.288,0.354-1.335,0.179
								c-0.05-0.18,0.437-0.471,1.037-0.774C97.4,394.871,97.924,394.654,98.038,394.801z"/>
						</g>
					</g>
				</g>
			</g>
			<g>
				<g>
					<g>
						<g>
							<path style="fill:#263238;" d="M106.405,403.742c0.061,0.169-0.713,0.595-1.772,0.741c-1.059,0.149-1.92-0.05-1.907-0.229
								c0.01-0.187,0.829-0.29,1.816-0.43C105.528,403.689,106.344,403.564,106.405,403.742z"/>
						</g>
					</g>
				</g>
			</g>
			<g>
				<g>
					<g>
						<g>
							<path style="fill:#263238;" d="M104.738,395.716c0.082,0.161-0.687,0.71-1.78,1.057c-1.092,0.351-2.036,0.35-2.063,0.172
								c-0.03-0.185,0.822-0.471,1.86-0.806C103.794,395.81,104.655,395.549,104.738,395.716z"/>
						</g>
					</g>
				</g>
			</g>
			<g>
				<g>
					<g>
						<g>
							<path style="fill:#263238;" d="M108.231,416.171c-0.003,0.179-1.317,0.296-2.902,0.005c-1.587-0.285-2.777-0.855-2.716-1.024
								c0.061-0.178,1.304,0.095,2.835,0.369C106.977,415.802,108.237,415.983,108.231,416.171z"/>
						</g>
					</g>
				</g>
			</g>
			<g>
				<g>
					<g>
						<g>
							<path style="fill:#263238;" d="M105.122,427.829c-0.111,0.143-1.078-0.427-2.044-1.4c-0.969-0.97-1.534-1.94-1.39-2.051
								c0.147-0.115,0.926,0.643,1.862,1.581C104.483,426.901,105.238,427.683,105.122,427.829z"/>
						</g>
					</g>
				</g>
			</g>
			<g>
				<g>
					<g>
						<g>
							<path style="fill:#FFFFFF;" d="M91.451,386.23c0.099,0.143-2.655,1.259-5.837,4.613c-3.181,3.28-6.462,9.072-7.27,16.07
								c-0.387,3.478-0.055,6.843,0.439,9.846c0.519,3.007,1.209,5.677,1.844,7.902c0.638,2.225,1.226,4.007,1.619,5.242
								c0.395,1.236,0.606,1.923,0.561,1.939c-0.041,0.015-0.334-0.642-0.805-1.853c-0.47-1.211-1.126-2.974-1.826-5.193
								c-0.697-2.219-1.439-4.896-1.998-7.932c-0.532-3.033-0.893-6.452-0.496-10.029c0.825-7.159,4.259-13.059,7.592-16.319
								c1.659-1.657,3.217-2.763,4.354-3.402c0.552-0.349,1.029-0.535,1.333-0.693C91.273,386.275,91.441,386.209,91.451,386.23z"/>
						</g>
					</g>
				</g>
			</g>
			<g>
				<g>
					<g>
						<g>
							<path style="fill:#FFFFFF;" d="M100.53,432.269c-0.145-0.072,1.496-2.598,2.992-7.15c1.541-4.496,2.815-11.155,1.789-18.386
								c-0.48-3.606-1.523-6.948-2.835-9.804c-1.362-2.817-3.118-5.125-4.835-6.733c-1.776-1.57-3.52-2.472-4.737-2.994
								c-1.231-0.513-1.969-0.634-1.958-0.69c0.004-0.022,0.19-0.011,0.544,0.042c0.351,0.065,0.867,0.181,1.508,0.406
								c1.272,0.46,3.079,1.307,4.954,2.882c1.826,1.63,3.638,3.932,5.077,6.822c1.373,2.905,2.451,6.302,2.941,9.977
								c1.045,7.367-0.331,14.128-2.004,18.633c-0.376,1.15-0.86,2.135-1.221,3.023c-0.429,0.859-0.783,1.605-1.108,2.196
								C100.961,431.66,100.569,432.292,100.53,432.269z"/>
						</g>
					</g>
				</g>
			</g>
		</g>
	</g>
</g>
<g id="Character">
	<g>
		<g>
			<path style="fill:#FFBE9D;" d="M114.035,260.318c0,0-26.272,64.628-30.502,81.196c-4.658,18.243-1.253,32.847,22,35.12
				c19.293,1.886,82.284-23.075,82.284-23.075l-7.696-48.081l-55.734,22.473l13.501-62.447L114.035,260.318z"/>
		</g>
		<g>
			<g>
				<g>
					<path style="fill:#FFBE9D;" d="M144.143,220.988c-1.556-0.864-5.359-6.05-5.359-6.05s-2.766-17.977-3.976-21.78
						c-1.21-3.803-4.667-2.766-5.392-1.383c-0.725,1.383,1.416,31.805,1.416,31.805l-11.235,5.877l-7.788,4.494
						c0,0-1.719,1.901-2.065,4.148c-0.346,2.247,4.148,24.545,4.148,24.545l23.707,4.189c6.11-5.798,9.561-14.862,11.209-26.141
						v-16.767C148.81,223.926,145.699,221.852,144.143,220.988z"/>
				</g>
				<g>
					<g>
						<path style="fill:#EB996E;" d="M124.584,227.117c0-0.018,0.231-0.036,0.67-0.052c0.493-0.012,1.131-0.027,1.923-0.045
							c0.856-0.007,1.874-0.015,3.044-0.024c0.298,0.002,0.605,0.005,0.922,0.007c0.157,0.009,0.322-0.006,0.515,0.039
							c0.176,0.049,0.344,0.11,0.499,0.202c0.636,0.348,1.121,1.013,1.302,1.786c0.376,3.005,0.732,6.509,1.249,10.428
							c0.26,1.953,0.529,4.01,0.938,6.101c0.123,0.511,0.208,1.055,0.438,1.488c0.22,0.442,0.58,0.797,1.04,0.976
							c0.934,0.362,2.078,0.094,3.025-0.404c0.477-0.254,0.926-0.58,1.278-0.962c0.248-0.326,0.342-0.922,0.397-1.442
							c0.1-1.079,0.075-2.169,0.026-3.235c-0.106-2.134-0.334-4.191-0.588-6.143c-0.258-1.952-0.55-3.802-0.883-5.519
							c-0.175-0.855-0.336-1.689-0.604-2.432c-0.275-0.748-0.629-1.436-1.022-2.057c-0.391-0.624-0.819-1.183-1.248-1.692
							c-0.43-0.518-0.854-0.949-1.374-1.201c-1.022-0.53-2.095-0.477-2.853-0.216c-0.742,0.272-1.34,0.491-1.802,0.66
							c-0.415,0.147-0.635,0.216-0.642,0.2c-0.007-0.017,0.201-0.118,0.603-0.297c0.404-0.177,0.992-0.438,1.773-0.754
							c0.789-0.305,1.933-0.4,3.052,0.147c0.564,0.254,1.06,0.738,1.493,1.244c0.448,0.51,0.896,1.075,1.308,1.71
							c0.415,0.633,0.792,1.338,1.089,2.116c0.294,0.788,0.464,1.624,0.65,2.486c0.355,1.726,0.663,3.58,0.936,5.54
							c0.268,1.96,0.507,4.025,0.622,6.182c0.053,1.079,0.082,2.181-0.02,3.312c-0.081,0.565-0.097,1.144-0.525,1.737
							c-0.411,0.445-0.894,0.792-1.42,1.074c-1.038,0.537-2.289,0.868-3.462,0.426c-0.577-0.223-1.047-0.691-1.307-1.225
							c-0.277-0.542-0.351-1.09-0.478-1.618c-0.408-2.126-0.666-4.182-0.914-6.143c-0.489-3.91-0.818-7.485-1.132-10.407
							c-0.148-0.684-0.564-1.27-1.105-1.579c-0.287-0.174-0.529-0.219-0.86-0.217c-0.315-0.009-0.621-0.018-0.917-0.027
							c-1.169-0.025-2.185-0.046-3.04-0.064c-0.791-0.022-1.429-0.039-1.922-0.052C124.814,227.152,124.584,227.135,124.584,227.117
							z"/>
					</g>
				</g>
				<g>
					<g>
						<path style="fill:#EB996E;" d="M136.124,247.597c0.014-0.003,0.101,0.216,0.141,0.652c0.033,0.429,0.039,1.104-0.298,1.87
							c-0.327,0.739-0.989,1.656-2.176,1.973c-1.138,0.288-2.632-0.053-3.584-1.208l-0.014-0.017l-0.012-0.024
							c-0.602-1.208-0.921-2.66-1.027-4.177c-0.124-1.518-0.092-3.113-0.247-4.726c-0.211-2.465-1.175-4.662-2.099-6.609
							c-0.475-0.972-0.901-1.919-1.383-2.728c-0.245-0.403-0.508-0.773-0.801-1.09c-0.283-0.351-0.603-0.491-0.99-0.65
							c-1.513-0.538-2.854-0.69-3.752-0.767c-0.912-0.082-1.398,0.044-1.411,0.01c-0.054-0.133,2.076-0.569,5.291,0.412
							c0.199,0.074,0.402,0.153,0.606,0.268c0.215,0.12,0.397,0.288,0.549,0.451c0.324,0.334,0.612,0.722,0.876,1.139
							c0.523,0.841,0.958,1.774,1.448,2.745c0.951,1.942,1.965,4.205,2.185,6.766c0.159,1.657,0.119,3.252,0.23,4.739
							c0.092,1.487,0.383,2.867,0.93,4.015l-0.025-0.04c0.8,1.012,2.134,1.359,3.147,1.128c1.024-0.235,1.686-1.049,2.019-1.723
							c0.349-0.698,0.388-1.336,0.399-1.753C136.131,247.831,136.09,247.602,136.124,247.597z"/>
					</g>
				</g>
				<g>
					<g>
						<path style="fill:#EB996E;" d="M129.268,249.454c0.023-0.035,0.246,0.384-0.063,1.015c-0.141,0.306-0.368,0.654-0.696,0.999
							c-0.326,0.326-0.759,0.74-1.41,0.848c-0.629,0.104-1.34-0.07-1.943-0.484c-0.612-0.417-1.075-1.073-1.389-1.804
							c-0.61-1.464-0.873-3.221-0.661-5.029c0.08-0.684,0.232-1.347,0.433-1.973l0.082,0.279c-1.376-1.129-2.304-2.557-2.818-3.903
							l0.261,0.133c-1.888,0.441-3.496-0.089-4.428-0.618c-0.477-0.269-0.809-0.541-1.02-0.74c-0.207-0.204-0.302-0.326-0.287-0.342
							c0.041-0.048,0.478,0.397,1.425,0.852c0.928,0.444,2.466,0.87,4.2,0.418l0.187-0.049l0.075,0.182
							c0.522,1.27,1.425,2.609,2.731,3.668l0.135,0.11l-0.053,0.169c-0.187,0.596-0.329,1.226-0.405,1.876
							c-0.204,1.714,0.038,3.402,0.586,4.78c0.278,0.68,0.682,1.269,1.195,1.638c0.512,0.373,1.118,0.539,1.641,0.473
							c0.522-0.059,0.928-0.396,1.258-0.69c0.327-0.304,0.564-0.615,0.721-0.884C129.359,249.827,129.227,249.463,129.268,249.454z"
							/>
					</g>
				</g>
				<g>
					<g>
						<path style="fill:#EB996E;" d="M120.096,235.05c0.151,0.033,0.019,1.004,0.354,2.132c0.338,1.128,0.708,2.077,0.557,2.138
							c-0.113,0.047-0.689-0.773-1.059-2C119.578,236.054,119.97,234.997,120.096,235.05z"/>
					</g>
				</g>
				<g>
					<g>
						<path style="fill:#EB996E;" d="M122.291,243.105c-0.043,0.152-1.742-0.325-3.868-0.191c-2.128,0.109-3.762,0.776-3.822,0.63
							c-0.071-0.11,1.548-1.031,3.792-1.149C120.635,242.257,122.349,242.988,122.291,243.105z"/>
					</g>
				</g>
				<g>
					<g>
						<path style="fill:#EB996E;" d="M144.52,228.744c0.002,0.029-0.272,0.09-0.776,0.068c-0.501-0.024-1.236-0.153-2.061-0.531
							c-0.824-0.374-1.73-0.999-2.537-1.884c-0.809-0.881-1.515-1.997-2.116-3.215c-1.325-2.368-1.637-5.15-0.672-6.803
							c0.464-0.814,1.212-1.225,1.737-1.248c0.529-0.02,0.782,0.147,0.772,0.164c-0.01,0.049-0.284-0.042-0.744,0.037
							c-0.454,0.083-1.061,0.473-1.443,1.228c-0.413,0.733-0.492,1.773-0.362,2.901c0.07,0.562,0.19,1.149,0.392,1.728
							c0.201,0.566,0.501,1.166,0.787,1.762c0.589,1.193,1.256,2.27,2.007,3.127c0.747,0.857,1.58,1.477,2.341,1.874
							C143.385,228.754,144.532,228.645,144.52,228.744z"/>
					</g>
				</g>
				<g>
					<g>
						<path style="fill:#EB996E;" d="M145.916,243.646c-0.154,0.035-0.56-1.76-1.731-3.65c-1.149-1.904-2.561-3.084-2.459-3.206
							c0.064-0.114,1.693,0.934,2.903,2.934C145.857,241.713,146.046,243.641,145.916,243.646z"/>
					</g>
				</g>
				<g>
					<g>
						<path style="fill:#EB996E;" d="M135.209,199.041c0.123,0.065-0.25,0.988-1.023,1.923c-0.77,0.938-1.603,1.481-1.691,1.373
							c-0.096-0.113,0.555-0.807,1.289-1.704C134.523,199.74,135.08,198.969,135.209,199.041z"/>
					</g>
				</g>
			</g>
			<g>
				<g>
					<path style="fill:#EB996E;" d="M140.688,229.597c-0.143-0.016-0.208-0.476-0.146-1.026c0.062-0.551,0.228-0.984,0.371-0.968
						c0.143,0.016,0.208,0.476,0.146,1.026C140.997,229.18,140.831,229.613,140.688,229.597z"/>
				</g>
			</g>
		</g>
		<g>
			<g>
				<path style="fill:#EB996E;" d="M109.165,353.336c-0.026-0.025,0.246-0.356,0.757-0.932c0.516-0.572,1.248-1.411,2.132-2.463
					c1.771-2.101,4.088-5.116,6.3-8.676c2.206-3.565,3.878-6.981,4.974-9.501c0.55-1.259,0.976-2.288,1.259-3.004
					c0.288-0.714,0.464-1.104,0.498-1.092c0.034,0.012-0.077,0.424-0.308,1.161c-0.225,0.739-0.601,1.792-1.11,3.077
					c-1.014,2.57-2.647,6.041-4.871,9.633c-2.23,3.587-4.613,6.592-6.465,8.643c-0.925,1.027-1.701,1.832-2.264,2.362
					C109.511,353.078,109.191,353.361,109.165,353.336z"/>
			</g>
		</g>
	</g>
	<g>
		<g>
			<path style="fill:#E8505B;" d="M326.847,350.675l31.5,7.36l-6.538-42.292l-26.079-13.427c-9.942-5.119-20.698-8.473-31.788-9.912
				l-17.681-2.295l-48.316,0.235c-10.852-1.25-25.721,2.492-43.876,11.092l-39.223,17.09l22.36,45.226l24.457-7.495l2.164,19.907
				l5.305,64.886l-4.531,35.908h118.962l-8.838-18.666c-4.017-8.484-5.065-18.073-2.975-27.224l15.384-74.189
				C318.052,352.449,322.441,349.646,326.847,350.675z"/>
			<path style="fill:#263238;" d="M313.602,476.984h-119.03l0.003-0.028l4.531-35.908l-5.305-64.881l-2.161-19.875l-24.449,7.491
				l-0.009-0.02l-22.372-45.249l0.024-0.01l39.223-17.09c9.026-4.276,17.33-7.386,24.681-9.242
				c7.335-1.853,13.796-2.479,19.209-1.853l48.313-0.235l17.685,2.296c11.125,1.443,21.823,4.779,31.796,9.914l26.09,13.433
				l0.002,0.013l6.543,42.329l-0.036-0.009l-31.499-7.36c-2.125-0.497-4.307-0.124-6.146,1.052
				c-1.839,1.174-3.095,2.997-3.538,5.133l-15.384,74.189c-1.039,4.553-1.31,9.214-0.802,13.855
				c0.507,4.641,1.777,9.134,3.775,13.354L313.602,476.984z M194.629,476.933h118.895l-8.821-18.63
				c-2.001-4.225-3.272-8.724-3.78-13.37c-0.508-4.646-0.238-9.313,0.803-13.871l15.384-74.188c0.445-2.149,1.71-3.984,3.56-5.166
				c1.851-1.182,4.046-1.559,6.185-1.058l31.463,7.352l-6.529-42.242l-26.068-13.421c-9.967-5.132-20.659-8.467-31.778-9.91
				l-17.682-2.295l-48.313,0.235c-5.405-0.624-11.863,0-19.194,1.852c-7.347,1.855-15.648,4.964-24.672,9.238l-39.2,17.08
				l22.339,45.183l24.465-7.497l0.003,0.03l2.164,19.906l5.305,64.887L194.629,476.933z"/>
		</g>
		<g>
			<g>
				<path style="fill:#263238;" d="M193.826,376.164c-0.036,0.002-0.111-0.614-0.216-1.73c-0.117-1.201-0.271-2.793-0.458-4.721
					c-0.405-3.983-1.072-9.475-2.086-15.497c-1.02-6.023-2.195-11.43-3.122-15.324c-0.456-1.882-0.833-3.437-1.118-4.609
					c-0.267-1.088-0.399-1.695-0.364-1.704c0.035-0.01,0.232,0.578,0.56,1.651c0.332,1.071,0.771,2.634,1.28,4.574
					c1.019,3.879,2.255,9.288,3.278,15.327c1.017,6.038,1.628,11.551,1.939,15.55c0.157,1.999,0.255,3.62,0.294,4.741
					C193.855,375.542,193.862,376.162,193.826,376.164z"/>
			</g>
		</g>
		<g>
			<g>
				<path style="fill:#263238;" d="M330.064,335.67c0.055,0.083-1.484,1.058-3.71,2.955c-1.118,0.941-2.373,2.15-3.683,3.566
					c-1.289,1.435-2.622,3.09-3.866,4.936c-1.228,1.859-2.244,3.725-3.074,5.467c-0.804,1.754-1.438,3.377-1.878,4.77
					c-0.897,2.783-1.206,4.578-1.304,4.559c-0.035-0.006,0.022-0.457,0.156-1.27c0.062-0.408,0.152-0.904,0.296-1.472
					c0.139-0.568,0.273-1.224,0.5-1.926c0.399-1.421,1.004-3.076,1.794-4.862c0.816-1.774,1.833-3.672,3.077-5.555
					c1.261-1.871,2.623-3.538,3.947-4.973c1.346-1.415,2.642-2.609,3.8-3.523c0.561-0.48,1.115-0.854,1.586-1.201
					c0.469-0.351,0.893-0.625,1.245-0.838C329.65,335.866,330.045,335.64,330.064,335.67z"/>
			</g>
		</g>
		<g>
			<g>
				<path style="fill:#FAFAFA;" d="M263.539,375.946c0.006,0-0.009,0.057-0.045,0.169c-0.044,0.132-0.099,0.295-0.168,0.5
					c-0.165,0.468-0.395,1.118-0.69,1.952c-0.63,1.739-1.536,4.241-2.684,7.41c-2.355,6.414-5.701,15.524-9.705,26.429l-0.214,0.582
					l-0.212-0.584c-3.706-10.217-8.058-22.212-12.694-34.992c-0.183-0.508-0.367-1.014-0.546-1.51l-0.033-0.092l0.035-0.091
					c4.921-12.707,9.517-24.577,13.421-34.658l0.211-0.545l0.207,0.546c3.962,10.461,7.264,19.177,9.586,25.307
					c1.131,3.028,2.023,5.416,2.644,7.076c0.29,0.795,0.516,1.415,0.679,1.862c0.068,0.195,0.121,0.351,0.165,0.477
					C263.53,375.892,263.545,375.946,263.539,375.946c-0.006,0-0.033-0.054-0.079-0.161c-0.053-0.126-0.118-0.281-0.2-0.477
					c-0.179-0.446-0.427-1.065-0.746-1.859c-0.649-1.654-1.582-4.034-2.766-7.053c-2.36-6.098-5.716-14.768-9.744-25.174
					l0.418,0.001c-3.884,10.088-8.457,21.967-13.353,34.684l0.002-0.182c0.179,0.496,0.363,1.002,0.546,1.51
					c4.613,12.789,8.943,24.792,12.631,35.016l-0.426-0.002c4.07-10.849,7.471-19.914,9.865-26.296
					c1.202-3.16,2.15-5.655,2.809-7.388c0.324-0.833,0.577-1.482,0.758-1.949c0.083-0.205,0.15-0.368,0.203-0.5
					C263.506,376.003,263.533,375.946,263.539,375.946z"/>
			</g>
		</g>
		<g>
			<g>
				<path style="fill:#FAFAFA;" d="M291.741,376.735c0.006,0-0.009,0.057-0.045,0.169c-0.044,0.132-0.099,0.295-0.168,0.5
					c-0.165,0.468-0.395,1.118-0.69,1.952c-0.63,1.739-1.536,4.24-2.684,7.41c-2.355,6.414-5.701,15.524-9.705,26.429l-0.214,0.582
					l-0.212-0.584c-3.706-10.217-8.058-22.212-12.694-34.993c-0.184-0.508-0.367-1.014-0.546-1.51l-0.033-0.092l0.035-0.091
					c4.921-12.707,9.517-24.577,13.421-34.658l0.211-0.545l0.207,0.546c3.962,10.461,7.264,19.177,9.586,25.307
					c1.131,3.028,2.023,5.416,2.644,7.076c0.29,0.795,0.516,1.415,0.679,1.862c0.068,0.195,0.121,0.351,0.165,0.477
					C291.732,376.681,291.747,376.735,291.741,376.735c-0.006,0-0.033-0.054-0.079-0.161c-0.053-0.126-0.118-0.281-0.2-0.477
					c-0.179-0.446-0.427-1.065-0.746-1.859c-0.649-1.654-1.582-4.034-2.766-7.053c-2.36-6.098-5.716-14.768-9.744-25.174
					l0.418,0.001c-3.884,10.088-8.457,21.967-13.353,34.684l0.002-0.182c0.179,0.496,0.363,1.002,0.546,1.51
					c4.613,12.789,8.943,24.792,12.631,35.016l-0.426-0.002c4.07-10.85,7.471-19.914,9.865-26.296
					c1.202-3.16,2.15-5.655,2.809-7.388c0.324-0.833,0.577-1.482,0.758-1.949c0.083-0.205,0.15-0.368,0.203-0.5
					C291.708,376.793,291.735,376.736,291.741,376.735z"/>
			</g>
		</g>
		<g>
			<g>
				<path style="fill:#FAFAFA;" d="M306.195,413.479c-0.017,0.006-0.124-0.238-0.312-0.708c-0.201-0.518-0.466-1.206-0.799-2.065
					c-0.692-1.854-1.66-4.447-2.848-7.63c-2.374-6.505-5.622-15.405-9.211-25.238c-0.097-0.269-0.194-0.536-0.284-0.784
					l-0.033-0.092l0.035-0.09c3.732-9.581,7.096-18.217,9.551-24.519c1.226-3.081,2.224-5.589,2.938-7.381
					c0.342-0.83,0.615-1.493,0.822-1.994c0.193-0.454,0.302-0.689,0.319-0.682c0.017,0.006-0.06,0.254-0.222,0.72
					c-0.184,0.51-0.427,1.185-0.732,2.029c-0.676,1.807-1.622,4.335-2.785,7.44c-2.417,6.316-5.73,14.972-9.405,24.575l0.002-0.182
					c0.09,0.248,0.186,0.516,0.284,0.784c3.533,9.853,6.73,18.772,9.068,25.29c1.123,3.206,2.038,5.819,2.692,7.686
					c0.294,0.874,0.53,1.572,0.707,2.099C306.138,413.217,306.212,413.473,306.195,413.479z"/>
			</g>
		</g>
		<g>
			<g>
				<path style="fill:#FAFAFA;" d="M236.826,375.814c0.006,0-0.009,0.057-0.045,0.169c-0.044,0.132-0.099,0.295-0.168,0.5
					c-0.165,0.468-0.395,1.118-0.69,1.952c-0.63,1.739-1.536,4.241-2.684,7.41c-2.355,6.414-5.701,15.524-9.705,26.429l-0.214,0.582
					l-0.212-0.584c-3.706-10.217-8.058-22.212-12.694-34.993c-0.184-0.508-0.367-1.014-0.546-1.51l-0.033-0.092l0.035-0.091
					c4.921-12.707,9.517-24.577,13.421-34.658l0.211-0.545l0.207,0.546c3.962,10.461,7.264,19.177,9.586,25.307
					c1.131,3.028,2.024,5.416,2.644,7.076c0.29,0.795,0.516,1.415,0.679,1.862c0.068,0.195,0.121,0.351,0.165,0.477
					C236.817,375.759,236.832,375.814,236.826,375.814c-0.006,0-0.033-0.054-0.079-0.161c-0.053-0.126-0.118-0.281-0.2-0.477
					c-0.179-0.446-0.427-1.065-0.746-1.859c-0.649-1.654-1.582-4.035-2.766-7.053c-2.36-6.098-5.716-14.768-9.744-25.174
					l0.417,0.001c-3.884,10.088-8.457,21.967-13.353,34.684l0.002-0.182c0.179,0.496,0.363,1.002,0.546,1.51
					c4.613,12.789,8.943,24.792,12.631,35.015l-0.426-0.002c4.07-10.849,7.471-19.914,9.865-26.296
					c1.201-3.16,2.15-5.655,2.809-7.388c0.324-0.833,0.577-1.482,0.758-1.949c0.083-0.205,0.15-0.368,0.204-0.5
					C236.793,375.871,236.82,375.814,236.826,375.814z"/>
			</g>
		</g>
		<g>
			<g>
				<path style="fill:#FAFAFA;" d="M192.278,361.924c-0.011-0.002,0.006-0.135,0.05-0.39c0.054-0.289,0.122-0.661,0.208-1.126
					c0.205-1.027,0.493-2.461,0.855-4.271c0.774-3.722,1.868-8.977,3.184-15.303l0.149-0.717l0.264,0.685
					c2.801,7.28,6.169,16.033,9.794,25.454c1.224,3.201,2.418,6.325,3.569,9.335l0.035,0.09l-0.034,0.09
					c-3.881,10.354-7.281,19.424-9.729,25.952c-1.225,3.207-2.21,5.787-2.906,7.61c-0.338,0.857-0.605,1.535-0.802,2.036
					c-0.187,0.462-0.292,0.701-0.307,0.695c-0.015-0.005,0.061-0.255,0.221-0.727c0.177-0.509,0.417-1.197,0.721-2.067
					c0.662-1.835,1.599-4.434,2.763-7.663c2.405-6.544,5.746-15.636,9.56-26.014l0.001,0.18c-1.154-3.008-2.351-6.131-3.579-9.331
					c-3.594-9.433-6.934-18.197-9.711-25.486l0.413-0.032c-1.39,6.31-2.546,11.552-3.364,15.265
					c-0.411,1.799-0.737,3.226-0.97,4.246c-0.112,0.46-0.201,0.827-0.271,1.113C192.328,361.798,192.289,361.926,192.278,361.924z"
					/>
			</g>
		</g>
		<g>
			<polygon style="fill:#FAFAFA;" points="313.628,357.376 306.35,343.451 306.395,343.427 313.672,357.353 			"/>
		</g>
		<g>
			<g>
				<g>
					<path style="fill:#263238;" d="M271.471,427.084c0.013,0.01-0.105,0.174-0.34,0.476c-0.271,0.338-0.619,0.771-1.049,1.306
						c-0.911,1.134-2.289,2.727-4.042,4.648c-1.748,1.927-3.914,4.145-6.396,6.528c-2.499,2.365-5.325,4.884-8.406,7.391
						c-3.094,2.493-6.147,4.733-8.98,6.685c-2.848,1.932-5.468,3.589-7.717,4.898c-2.244,1.315-4.089,2.331-5.388,2.986
						c-0.613,0.309-1.108,0.559-1.495,0.754c-0.344,0.168-0.529,0.249-0.536,0.234c-0.008-0.015,0.162-0.124,0.491-0.319
						c0.376-0.215,0.857-0.491,1.451-0.832c1.27-0.704,3.086-1.763,5.303-3.113c2.221-1.343,4.815-3.024,7.641-4.97
						c2.811-1.966,5.846-4.209,8.929-6.694c3.071-2.498,5.896-4.999,8.404-7.339c2.491-2.358,4.676-4.545,6.451-6.438
						c1.781-1.887,3.195-3.444,4.148-4.539c0.457-0.511,0.827-0.924,1.116-1.247C271.316,427.217,271.458,427.074,271.471,427.084z"
						/>
				</g>
			</g>
		</g>
		<g style="opacity:0.3;">
			<g>
				<path d="M207.344,393.459c5.137,2.621,11.907,2.405,17.901,0.979c5.995-1.426,11.552-3.935,17.4-5.754
					c5.849-1.819,12.34-2.938,18.166-1.449c4.561,1.165,8.589,3.885,13.429,3.783c3.028-0.064,6.1-1.253,9.012-0.675
					c3.869,0.767,5.787,4.645,4.589,7.797c-1.198,3.152-4.747,5.481-8.548,6.676c-9.808,3.084-20.467-0.253-30.85,0.051
					c-6.169,0.181-12.221,1.659-18.347,2.45c-6.126,0.791-12.705,0.825-17.937-1.652c-5.232-2.478-8.438-8.122-5.677-12.684"/>
			</g>
		</g>
		<g>
			<g>
				<path style="fill:#263238;" d="M317.202,300.474c0.032,0.017-0.161,0.482-0.534,1.306c-0.192,0.41-0.421,0.913-0.653,1.512
					c-0.237,0.596-0.539,1.263-0.795,2.029c-0.57,1.51-1.133,3.351-1.642,5.42c-0.479,2.077-0.888,4.388-1.116,6.838
					c-0.206,2.453-0.211,4.8-0.104,6.929c0.137,2.128,0.367,4.038,0.662,5.625c0.117,0.8,0.297,1.508,0.425,2.137
					c0.124,0.631,0.26,1.166,0.377,1.603c0.223,0.877,0.33,1.368,0.296,1.379c-0.034,0.011-0.207-0.46-0.491-1.324
					c-0.147-0.43-0.313-0.962-0.465-1.59c-0.156-0.627-0.362-1.335-0.504-2.137c-0.344-1.591-0.615-3.516-0.78-5.664
					c-0.134-2.15-0.144-4.525,0.065-7.005c0.231-2.478,0.659-4.813,1.169-6.906c0.54-2.086,1.145-3.932,1.764-5.438
					c0.281-0.764,0.608-1.425,0.872-2.015c0.26-0.592,0.517-1.085,0.737-1.483C316.917,300.89,317.17,300.457,317.202,300.474z"/>
			</g>
		</g>
		<g>
			<g>
				<path style="fill:#263238;" d="M195.797,297.043c0.067,0.05-0.596,0.999-1.551,2.599c-0.956,1.598-2.163,3.874-3.196,6.517
					c-1.028,2.646-1.678,5.14-2.056,6.963c-0.38,1.824-0.534,2.971-0.617,2.963c-0.036-0.004-0.035-0.294-0.003-0.819
					c0.027-0.525,0.112-1.281,0.258-2.21c0.288-1.857,0.891-4.402,1.933-7.085c1.047-2.68,2.325-4.962,3.37-6.524
					c0.521-0.783,0.97-1.397,1.305-1.802C195.572,297.236,195.769,297.022,195.797,297.043z"/>
			</g>
		</g>
		<g style="opacity:0.3;">
			<g>
				<path d="M186.781,335.017c-1.106,3.739-2.204,7.593-1.839,11.475c0.365,3.882,2.534,7.848,6.192,9.196
					c-1.063-6.857-2.373-13.676-3.925-20.439"/>
			</g>
		</g>
	</g>
	<g>
		<g>
			<g>
				<g>
					<g>
						<g>
							<g>
								<g>
									<g>
										<g>
											<g>
												<g>
													<g>
														<g>
															<g>
																<g>
																	<g>
																		<g>
																			<g>
																				<g>
																					<g>
																						<g>
																							<g>
																								<g>
																									<path style="fill:#FFBE9D;" d="M271.935,193.321c3.971,0.429,6.953,3.825,6.866,7.818l0,0l-4.59,94
																										c-0.192,12.27-18.127,19.164-31.263,18.858l0,0c-13.272-3.133-13.755-11.094-13.92-22.767
																										c-0.277-19.502-0.193-12.656-0.2-12.545c0,0-16.757-2.82-20.181-24.699
																										c-1.703-10.88-1.117-28.713-0.167-43.288c0.856-13.119,9.585-29.198,22.655-27.786L271.935,193.321z"/>
																								</g>
																							</g>
																						</g>
																					</g>
																				</g>
																			</g>
																		</g>
																	</g>
																</g>
															</g>
															<g>
																<g>
																	<g>
																		<g>
																			<g>
																				<g>
																					<g>
																						<g>
																							<g>
																								<g>
																									<g>
																										<path style="fill:#263238;" d="M215.76,224.914c-0.055,1.481,1.153,2.749,2.699,2.836
																											c1.543,0.086,2.841-1.041,2.897-2.523c0.055-1.481-1.153-2.751-2.695-2.838
																											C217.115,222.303,215.816,223.433,215.76,224.914z"/>
																									</g>
																								</g>
																							</g>
																						</g>
																					</g>
																				</g>
																			</g>
																		</g>
																	</g>
																</g>
																<g>
																	<g>
																		<g>
																			<g>
																				<g>
																					<g>
																						<g>
																							<g>
																								<g>
																									<g>
																										<g>
																											<path style="fill:#263238;" d="M212.328,220.763c0.347,0.366,2.475-1.201,5.494-1.187
																												c3.015-0.029,5.227,1.529,5.555,1.16c0.161-0.163-0.192-0.824-1.155-1.529
																												c-0.948-0.701-2.566-1.385-4.446-1.381c-1.88,0.006-3.463,0.695-4.374,1.401
																												C212.473,219.938,212.157,220.599,212.328,220.763z"/>
																										</g>
																									</g>
																								</g>
																							</g>
																						</g>
																					</g>
																				</g>
																			</g>
																		</g>
																	</g>
																</g>
															</g>
															<g>
																<g>
																	<g>
																		<g>
																			<g>
																				<g>
																					<g>
																						<g>
																							<g>
																								<g>
																									<g>
																										<path style="fill:#263238;" d="M244.989,225.23c-0.056,1.481,1.153,2.749,2.698,2.836
																											c1.543,0.086,2.841-1.041,2.897-2.523c0.056-1.481-1.153-2.751-2.696-2.837
																											C246.342,222.619,245.044,223.749,244.989,225.23z"/>
																									</g>
																								</g>
																							</g>
																						</g>
																					</g>
																				</g>
																			</g>
																		</g>
																	</g>
																</g>
																<g>
																	<g>
																		<g>
																			<g>
																				<g>
																					<g>
																						<g>
																							<g>
																								<g>
																									<g>
																										<g>
																											<path style="fill:#263238;" d="M242.264,220.763c0.348,0.366,2.479-1.201,5.495-1.186
																												c3.015-0.029,5.227,1.528,5.555,1.16c0.161-0.164-0.188-0.824-1.155-1.528
																												c-0.948-0.702-2.565-1.385-4.445-1.382c-1.88,0.007-3.463,0.695-4.374,1.402
																												C242.412,219.938,242.095,220.599,242.264,220.763z"/>
																										</g>
																									</g>
																								</g>
																							</g>
																						</g>
																					</g>
																				</g>
																			</g>
																		</g>
																	</g>
																</g>
															</g>
															<g>
																<g>
																	<g>
																		<g>
																			<g>
																				<g>
																					<g>
																						<g>
																							<g>
																								<g>
																									<g>
																										<path style="fill:#263238;" d="M230.992,242.973c0.014-0.172-1.861-0.5-4.901-0.896
																											c-0.77-0.081-1.5-0.236-1.628-0.762c-0.18-0.558,0.144-1.387,0.519-2.284
																											c0.729-1.864,1.492-3.816,2.293-5.864c3.184-8.349,5.49-15.215,5.153-15.34
																											c-0.337-0.125-3.192,6.54-6.376,14.889c-0.766,2.059-1.499,4.021-2.196,5.899
																											c-0.294,0.875-0.797,1.868-0.406,3.024c0.206,0.576,0.771,0.995,1.265,1.13
																											c0.493,0.152,0.927,0.161,1.308,0.184C229.082,243.126,230.98,243.144,230.992,242.973z"/>
																									</g>
																								</g>
																							</g>
																						</g>
																					</g>
																				</g>
																			</g>
																		</g>
																	</g>
																</g>
															</g>
															<g>
																<g>
																	<g>
																		<g>
																			<g>
																				<g>
																					<g>
																						<g>
																							<g>
																								<g>
																									<path style="fill:#EB996E;" d="M228.828,278.685c0,0,14.711,0.981,29.308-7.748
																										c0,0-7.423,15.42-29.308,13.325V278.685z"/>
																								</g>
																							</g>
																						</g>
																					</g>
																				</g>
																			</g>
																		</g>
																	</g>
																</g>
															</g>
															<g>
																<g>
																	<g>
																		<g>
																			<g>
																				<g>
																					<g>
																						<g>
																							<g>
																								<g>
																									<path style="fill:#EB996E;" d="M231.476,250.311c1.496-2.242,3.759-3.737,5.8-3.833
																										c1.416-0.067,2.745,0.554,3.4,1.895c0.656,1.34,0.525,3.44-0.486,5.018
																										c-1.137,1.779-3.07,2.496-4.574,2.212c-1.504-0.285-2.674-1.369-3.777-2.461
																										c-0.305-0.302-0.615-0.619-0.765-1.082c-0.15-0.463-0.1-1.115,0.239-1.583"/>
																								</g>
																							</g>
																						</g>
																					</g>
																				</g>
																			</g>
																		</g>
																	</g>
																</g>
															</g>
															<g>
																<g>
																	<g>
																		<g>
																			<g>
																				<g>
																					<g>
																						<g>
																							<g>
																								<g>
																									<g>
																										<path style="fill:#263238;" d="M239.87,245.08c-0.491-0.029-0.504,3.247-3.314,5.566
																											c-2.804,2.327-6.296,1.951-6.322,2.409c-0.046,0.205,0.776,0.638,2.25,0.681
																											c1.446,0.053,3.558-0.407,5.278-1.826c1.714-1.422,2.454-3.323,2.568-4.667
																											C240.457,245.874,240.094,245.062,239.87,245.08z"/>
																									</g>
																								</g>
																							</g>
																						</g>
																					</g>
																				</g>
																			</g>
																		</g>
																	</g>
																</g>
															</g>
														</g>
													</g>
												</g>
												<g>
													<g>
														<g>
															<g>
																<g>
																	<g>
																		<g>
																			<g>
																				<g>
																					<g>
																						<path style="fill:#263238;" d="M240.545,213.832c0.377,0.787,3.338,0.104,6.903,0.181
																							c3.568,0.005,6.511,0.756,6.907-0.022c0.174-0.371-0.397-1.09-1.624-1.768
																							c-1.217-0.677-3.108-1.248-5.247-1.275c-2.138-0.022-4.042,0.505-5.274,1.154
																							C240.968,212.751,240.38,213.457,240.545,213.832z"/>
																					</g>
																				</g>
																			</g>
																		</g>
																	</g>
																</g>
															</g>
														</g>
													</g>
												</g>
												<g>
													<g>
														<g>
															<g>
																<g>
																	<g>
																		<g>
																			<g>
																				<g>
																					<g>
																						<path style="fill:#263238;" d="M212.594,215.784c0.661,0.684,3.243-0.032,6.349-0.071
																							c3.104-0.127,5.737,0.45,6.342-0.268c0.265-0.349-0.151-1.034-1.302-1.681
																							c-1.134-0.645-3.029-1.17-5.163-1.114c-2.134,0.058-3.983,0.683-5.062,1.387
																							C212.662,214.744,212.303,215.45,212.594,215.784z"/>
																					</g>
																				</g>
																			</g>
																		</g>
																	</g>
																</g>
															</g>
														</g>
													</g>
												</g>
											</g>
										</g>
									</g>
								</g>
							</g>
						</g>
					</g>
				</g>
			</g>
			<g>
				<g>
					<path style="fill:#263238;" d="M287.441,267.123c-0.005,0.017-0.135,0-0.379-0.051c-0.244-0.054-0.601-0.143-1.052-0.296
						c-0.889-0.308-2.209-0.827-3.504-1.982c-1.277-1.116-2.442-3.137-2.138-5.492c0.167-1.138,0.732-2.379,1.895-3.061
						c0.563-0.325,1.36-0.466,2.016-0.096c0.611,0.33,1.14,1.073,0.905,1.885c-0.106,0.38-0.401,0.69-0.727,0.867
						c-0.331,0.173-0.682,0.239-1.021,0.258c-0.679,0.041-1.335-0.154-1.905-0.382c-1.166-0.457-2.174-1.16-2.982-1.968
						c-1.64-1.619-2.403-3.68-2.508-5.389c-0.133-1.726,0.263-3.101,0.624-3.975c0.191-0.438,0.368-0.763,0.503-0.974
						c0.138-0.21,0.216-0.314,0.232-0.305c0.041,0.023-0.232,0.473-0.545,1.351c-0.295,0.876-0.621,2.219-0.446,3.869
						c0.149,1.636,0.907,3.564,2.479,5.081c0.774,0.757,1.733,1.412,2.831,1.834c0.552,0.217,1.111,0.375,1.693,0.34
						c0.57-0.021,1.136-0.26,1.276-0.761c0.155-0.47-0.192-1.028-0.656-1.277c-0.46-0.265-1.043-0.176-1.518,0.087
						c-0.969,0.554-1.51,1.655-1.669,2.685c-0.16,1.053,0.035,2.094,0.399,2.975c0.358,0.891,0.927,1.604,1.516,2.178
						c1.203,1.137,2.468,1.701,3.323,2.061C286.948,266.941,287.453,267.08,287.441,267.123z"/>
				</g>
			</g>
			<g>
				<g>
					<path style="fill:#263238;" d="M234.397,170.08c-2.679-1.651-3.776-5.445-2.391-8.272c-0.915-1.296,0.165-3.228,1.659-3.761
						c1.494-0.533,3.142-0.111,4.67,0.315c-0.41-0.733,0.688-1.361,1.517-1.493c1.929-0.309,3.858-0.618,5.787-0.927
						c-2.686-0.567-4.911-2.642-6.05-5.139c-1.139-2.498-1.283-5.365-0.828-8.072c0.131-0.781,0.361-1.632,1.021-2.069
						c1.742,1.987,3.118,4.294,4.04,6.771c1.59,0.072,3.136,0.852,4.14,2.087c0.331-0.898,1.633-1.248,2.37-0.637
						c1.223-3.417,3.541-7.027,7.147-7.441c-1.132-1.592,0.921-3.498,2.67-4.37c1.28-0.638,2.599-1.288,4.025-1.403
						c1.425-0.116,3,0.429,3.694,1.679c0.694,1.25,0.05,3.165-1.359,3.405c1.47,0.983,2.091,3.059,1.403,4.687
						c1.103-1.361,3.204-1.789,4.752-0.968c2.485-1.09,5.266-1.496,7.958-1.16c0.693,0.086,1.412,0.236,1.948,0.682
						c0.408,0.34,0.677,0.827,1.1,1.147c0.601,0.454,1.404,0.501,2.154,0.575c1.721,0.171,3.489,0.62,4.796,1.753
						c1.307,1.133,2.017,3.087,1.298,4.661c3.992,1.294,7.952-3.296,12.069-2.483c2.411,0.477,4.079,2.689,5.13,4.91
						c-2.028,0.825-4.256,1.152-6.435,0.945c-0.255,1.197-1.431,2.129-2.655,2.105c0.715,0.818,0.158,2.346-0.915,2.512
						c2.463-0.818,5.157-0.47,7.683,0.127c3.843,0.908,8.064,2.927,8.951,6.775c0.314,1.362,0.154,2.783-0.008,4.172
						c-0.242,2.073-1.301,4.801-3.353,4.417c-1.267-0.237-1.923-1.592-2.6-2.689c-1.485-2.407-3.951-4.188-6.703-4.841
						c-0.981,0.952,0.84,2.17,1.631,3.285c0.78,1.101,0.466,2.602,0.663,3.937c0.301,2.033,1.798,3.654,2.689,5.506
						c1.927,4.001,0.916,8.729-0.131,13.045c-0.285,1.174-1.615,2.623-2.339,1.656c1.485,0.207,2.442,1.819,2.445,3.318
						c0.003,1.499-0.699,2.898-1.384,4.232c-0.293,0.57-0.659,1.199-1.283,1.346c-0.904,0.212-1.641-0.697-2.124-1.49
						c-1.309-2.151-2.618-4.302-3.927-6.452c0.35,1.456,0.224,2.991-0.105,4.452c-0.636,2.829-2.311,5.715-5.09,6.544
						c-1.906,0.568-3.948,0.065-5.872-0.439"/>
				</g>
				<g>
					<g>
						<path style="fill:#263238;" d="M277.453,238.086c-0.853-0.351-4.267,1.046-4.83,0.316c-2.855-3.707-4.401-14.297-5.113-18.922
							c-0.712-4.624,2.176-9.787,1.74-14.446c-0.349-3.731-1.041-7.662-3.516-10.475c-1.494-1.698-3.53-2.843-5.653-3.622
							c-6.519-2.391-14.187-1.368-19.851,2.647c-2.342,1.66-4.556,3.877-7.414,4.145c-2.839,0.267-5.42-1.475-7.865-2.943
							c-2.445-1.467-5.467-2.748-8.059-1.559c-1.014,0.465-1.834,1.266-2.568,2.106c-1.782,2.042-5.449,10.995-5.514,14.542
							c0,0-1.805-8.25,1.308-15.873c3.763-9.216,13.889-19.635,30.034-22.256c25.851-4.196,37.969,10.196,42.56,20.483
							c1.97,4.414,3.609,15.981,2.18,24.898C282.99,228.991,277.453,238.086,277.453,238.086z"/>
					</g>
					<g>
						<g>
							<path style="fill:#E8505B;" d="M284.387,195.796c-0.388,0.122-1.439-2.781-4.027-6.932c-1.3-2.063-2.951-4.466-5.109-6.826
								c-2.139-2.36-4.759-4.75-7.91-6.456c-3.176-1.701-6.601-2.663-9.718-3.171c-3.139-0.486-6.033-0.501-8.446-0.293
								c-4.841,0.431-7.745,1.549-7.899,1.151c-0.065-0.154,0.579-0.625,1.874-1.223c1.288-0.611,3.257-1.283,5.782-1.753
								c2.522-0.461,5.616-0.648,9.014-0.259c3.391,0.418,7.083,1.361,10.628,3.255c3.554,1.929,6.313,4.581,8.488,7.176
								c2.191,2.6,3.758,5.23,4.905,7.501C284.249,192.543,284.688,195.723,284.387,195.796z"/>
						</g>
					</g>
					<g>
						<g>
							<path style="fill:#455A64;" d="M259.139,173.34c0.001,0.042-0.558,0.082-1.561,0.184c-1.003,0.1-2.451,0.299-4.204,0.701
								c-3.494,0.782-8.248,2.59-12.549,6.011c-4.304,3.421-7.137,7.646-8.686,10.873c-0.786,1.618-1.307,2.983-1.63,3.938
								c-0.326,0.954-0.49,1.49-0.531,1.48c-0.017-0.005,0.003-0.144,0.058-0.405c0.061-0.26,0.132-0.649,0.279-1.135
								c0.266-0.98,0.738-2.378,1.49-4.035c1.481-3.305,4.314-7.642,8.695-11.123c4.378-3.482,9.241-5.266,12.795-5.963
								c1.784-0.36,3.253-0.505,4.268-0.543c0.506-0.034,0.902-0.015,1.169-0.016C258.998,173.311,259.138,173.322,259.139,173.34z"
								/>
						</g>
					</g>
					<g>
						<g>
							<path style="fill:#455A64;" d="M266.024,176.458c0.033,0.074-1.156,0.645-3.026,1.654c-1.871,1.007-4.406,2.488-7.059,4.346
								c-2.65,1.863-4.905,3.744-6.488,5.161c-1.584,1.416-2.525,2.34-2.584,2.284c-0.026-0.025,0.18-0.284,0.576-0.732
								c0.393-0.451,0.992-1.075,1.757-1.821c1.528-1.495,3.766-3.439,6.44-5.318c2.676-1.875,5.265-3.319,7.19-4.247
								c0.962-0.466,1.753-0.817,2.31-1.033C265.696,176.531,266.009,176.425,266.024,176.458z"/>
						</g>
					</g>
					<g>
						<g>
							<path style="fill:#455A64;" d="M280.006,188.061c0.035,0.006,0.016,0.314-0.051,0.867c-0.062,0.554-0.197,1.35-0.404,2.326
								c-0.41,1.951-1.181,4.614-2.401,7.411c-1.226,2.795-2.659,5.168-3.814,6.794c-0.576,0.814-1.069,1.454-1.434,1.875
								c-0.361,0.425-0.574,0.648-0.602,0.626c-0.066-0.051,0.665-1.04,1.731-2.706c1.067-1.665,2.431-4.036,3.643-6.798
								c1.205-2.763,2.021-5.374,2.52-7.287C279.694,189.255,279.924,188.047,280.006,188.061z"/>
						</g>
					</g>
					<g>
						<g>
							<path style="fill:#455A64;" d="M272.797,219.329c-0.073-0.066,1.056-1.273,2.565-3.452c0.761-1.084,1.576-2.436,2.389-3.985
								c0.788-1.561,1.559-3.325,2.201-5.238c0.624-1.92,1.056-3.797,1.352-5.52c0.27-1.728,0.42-3.3,0.455-4.624
								c0.086-2.649-0.102-4.291-0.004-4.3c0.036-0.004,0.104,0.403,0.198,1.145c0.105,0.741,0.171,1.824,0.174,3.162
								c0.012,1.34-0.101,2.935-0.349,4.691c-0.274,1.752-0.698,3.661-1.332,5.609c-0.652,1.942-1.448,3.727-2.271,5.297
								c-0.847,1.558-1.706,2.907-2.514,3.976c-0.8,1.073-1.498,1.904-2.024,2.436C273.121,219.068,272.824,219.354,272.797,219.329
								z"/>
						</g>
					</g>
				</g>
				<g>
					<g>
						<path style="fill:#263238;" d="M190.274,196.381c0.033-0.028,0.411,0.426,1.181,1.149c0.772,0.706,1.967,1.714,3.715,2.383
							c1.703,0.653,4.139,0.865,6.258-0.374c1.042-0.601,1.89-1.637,2.318-2.87c0.426-1.219,0.377-2.709-0.396-3.823
							c-0.38-0.546-0.971-0.902-1.59-0.866c-0.625,0.01-1.093,0.459-1.225,1.065c-0.257,1.229,0.186,2.559,0.854,3.534
							c0.683,0.998,1.639,1.723,2.636,2.116c1.002,0.391,2.043,0.43,2.936,0.217c1.815-0.417,2.978-1.558,3.553-2.402
							c0.597-0.863,0.706-1.463,0.764-1.442c0.017,0.005-0.011,0.149-0.081,0.424c-0.082,0.27-0.228,0.667-0.512,1.128
							c-0.546,0.908-1.714,2.155-3.639,2.649c-0.945,0.251-2.083,0.235-3.174-0.171c-1.086-0.408-2.126-1.175-2.877-2.247
							c-0.731-1.071-1.245-2.45-0.954-3.93c0.089-0.364,0.268-0.74,0.576-1.017c0.307-0.281,0.72-0.426,1.121-0.442
							c0.819-0.053,1.598,0.437,2.036,1.08c0.901,1.304,0.926,2.955,0.456,4.293c-0.473,1.348-1.414,2.472-2.556,3.117
							c-2.313,1.314-4.874,1.026-6.636,0.304c-1.803-0.742-2.983-1.821-3.724-2.581c-0.372-0.386-0.631-0.711-0.805-0.932
							C190.341,196.516,190.261,196.392,190.274,196.381z"/>
					</g>
				</g>
				<g>
					<g>
						<path style="fill:#263238;" d="M322.983,189.938c0.002,0.018-0.198,0.061-0.583,0.126c-0.384,0.064-0.953,0.152-1.689,0.238
							c-1.461,0.142-3.654,0.408-6.277-0.249c-1.29-0.35-2.689-0.943-3.889-2.011c-1.21-1.036-2.138-2.651-2.243-4.476
							c-0.062-0.903,0.076-1.863,0.497-2.732c0.404-0.878,1.126-1.626,1.997-2.11c1.746-0.958,4.035-1.037,5.9,0.022
							c0.897,0.524,1.713,1.483,1.658,2.629c-0.062,1.13-0.862,2.018-1.77,2.461c-0.927,0.446-1.936,0.498-2.863,0.442
							c-0.932-0.066-1.834-0.216-2.692-0.447c-3.453-0.926-6.099-3.029-7.666-5.186c-1.596-2.168-2.235-4.3-2.5-5.754
							c-0.138-0.732-0.173-1.311-0.192-1.701c-0.005-0.391,0.001-0.596,0.019-0.597c0.054-0.004,0.05,0.822,0.372,2.257
							c0.321,1.421,1.003,3.49,2.595,5.573c1.562,2.07,4.15,4.074,7.495,4.943c0.831,0.217,1.704,0.356,2.599,0.415
							c0.887,0.05,1.811-0.014,2.611-0.404c0.779-0.377,1.44-1.155,1.477-2.024c0.046-0.88-0.597-1.683-1.409-2.161
							c-1.65-0.95-3.813-0.892-5.382-0.022c-1.633,0.856-2.393,2.704-2.263,4.368c0.087,1.692,0.92,3.188,2.052,4.184
							c1.12,1.022,2.455,1.617,3.698,1.977c2.525,0.682,4.703,0.484,6.161,0.402c0.69-0.057,1.251-0.103,1.695-0.14
							C322.776,189.929,322.981,189.919,322.983,189.938z"/>
					</g>
				</g>
				<g>
					<g>
						<path style="fill:#263238;" d="M221.891,142.675c0.057,0.023-0.372,0.671-0.562,1.996c-0.169,1.284-0.01,3.388,1.508,5.231
							c1.468,1.811,4.468,3.027,7.5,2.233c1.459-0.375,3.031-1.329,3.503-2.901c0.218-0.759,0.073-1.647-0.371-2.329
							c-0.436-0.685-1.278-1.091-2.08-0.87c-0.799,0.201-1.457,0.86-1.801,1.609c-0.362,0.754-0.326,1.617-0.078,2.403
							c0.52,1.583,1.747,2.801,2.966,3.762c2.493,1.933,5.324,2.78,7.686,3.005c2.383,0.213,4.328-0.128,5.61-0.505
							c1.288-0.378,1.954-0.73,1.98-0.675c0.008,0.016-0.155,0.107-0.475,0.267c-0.314,0.174-0.803,0.371-1.444,0.601
							c-1.282,0.442-3.256,0.849-5.702,0.678c-2.423-0.183-5.349-1.011-7.949-2.992c-1.264-0.987-2.566-2.232-3.158-3.988
							c-0.281-0.856-0.33-1.885,0.093-2.772c0.4-0.867,1.143-1.641,2.149-1.9c1.016-0.287,2.122,0.258,2.635,1.09
							c0.529,0.824,0.691,1.839,0.43,2.754c-0.269,0.908-0.875,1.643-1.577,2.161c-0.704,0.522-1.497,0.867-2.297,1.066
							c-3.237,0.815-6.382-0.514-7.905-2.464c-1.567-1.983-1.659-4.18-1.424-5.495c0.12-0.678,0.329-1.172,0.477-1.498
							C221.775,142.825,221.876,142.667,221.891,142.675z"/>
					</g>
				</g>
			</g>
		</g>
		<g>
			<g>
				<g>
					<g>
						<g>
							<g>
								<g>
									<g>
										<g>
											<g>
												<g>
													<g>
														<g>
															<g>
																<path style="fill:#FFBE9D;" d="M272.091,234.863c0.242-4.84,5.514-8.071,9.71-5.646
																	c2.303,1.331,4.065,4.008,3.854,9.148c-0.565,13.704-14.207,10.311-14.215,9.917
																	C271.436,248.037,271.808,240.531,272.091,234.863z"/>
															</g>
														</g>
													</g>
												</g>
											</g>
										</g>
									</g>
								</g>
							</g>
						</g>
					</g>
				</g>
			</g>
			<g>
				<g>
					<g>
						<g>
							<g>
								<g>
									<g>
										<g>
											<g>
												<g>
													<g>
														<g>
															<g>
																<g>
																	<path style="fill:#EB996E;" d="M275.841,243.262c0.062-0.041,0.232,0.177,0.628,0.379
																		c0.386,0.196,1.057,0.349,1.783,0.11c1.47-0.472,2.783-2.72,2.952-5.188c0.086-1.246-0.126-2.444-0.527-3.445
																		c-0.377-1.02-0.996-1.747-1.72-1.907c-0.718-0.197-1.252,0.217-1.436,0.596c-0.199,0.376-0.124,0.653-0.197,0.673
																		c-0.04,0.033-0.285-0.242-0.151-0.803c0.068-0.27,0.242-0.587,0.574-0.837c0.34-0.254,0.829-0.37,1.334-0.294
																		c1.054,0.117,1.965,1.128,2.407,2.227c0.499,1.107,0.767,2.455,0.67,3.854c-0.202,2.758-1.722,5.284-3.726,5.774
																		c-0.974,0.212-1.767-0.112-2.168-0.452C275.852,243.594,275.792,243.285,275.841,243.262z"/>
																</g>
															</g>
														</g>
													</g>
												</g>
											</g>
										</g>
									</g>
								</g>
							</g>
						</g>
					</g>
				</g>
			</g>
		</g>
	</g>
	<g>
		<g>
			<path style="fill:#FFBE9D;" d="M400.182,326.564c-6.873-18.008-80.605-75.921-80.605-75.921l-21.188,11.306l53.453,53.784
				l5.717,37.204c0,0,17.826,5.135,25.43,4.4C397.183,355.965,403.934,336.393,400.182,326.564z"/>
		</g>
		<g>
			<g>
				<path style="fill:#EB996E;" d="M367.02,340.06c-0.031,0.018-0.283-0.349-0.711-1.029c-0.475-0.775-1.07-1.746-1.777-2.899
					c-1.545-2.549-3.57-5.892-5.81-9.587c-2.294-3.729-4.428-7.067-5.995-9.47c-0.736-1.133-1.356-2.087-1.851-2.849
					c-0.434-0.676-0.66-1.059-0.63-1.08c0.029-0.021,0.311,0.323,0.796,0.964c0.487,0.639,1.167,1.582,1.991,2.759
					c1.647,2.354,3.836,5.668,6.133,9.402c2.295,3.734,4.28,7.17,5.684,9.675c0.702,1.252,1.26,2.272,1.634,2.983
					C366.859,339.64,367.051,340.042,367.02,340.06z"/>
			</g>
		</g>
		<g>
			<g>
				<g>
					<g>
						<path style="fill:#FFBE9D;" d="M298.322,207.934c-2.107-0.105-1.845,1.771-1.27,3.169c0.574,1.398,3.882,9.079,3.882,9.079
							s-8.017-14.429-8.89-15.296c-0.874-0.866-2.416-2.412-3.602-1.516c-1.186,0.896-0.68,2.117-0.217,3.56
							c0.415,1.291,4.61,10.963,5.493,12.995c0.104,0.239,0.85,1.818,0.446,2.07c-0.292,0.573-1.554-0.686-1.943-1.199l-6.148-8.112
							c0,0-4.816-6.759-5.929-6.327c-2.02,0.783-2.979,1.905-2.5,3.07c0.479,1.165,10.854,16.59,10.854,16.59l-8.962-10.819
							c-0.612-0.7-1.427-1.211-2.342-1.379c-0.792-0.145-1.706-0.057-2.415,0.746c-1.162,1.316,1.06,3.883,2.051,5.693
							c0.629,1.149,4.536,6.393,4.536,6.393l8.732,15.117l-1.425,0.313l-3.168-5.117l-3.327,9.798c0,0,4.634,8.115,9.063,12.919
							c1.861,2.018,7.149,2.27,7.149,2.27l21.31-9.379c0,0-0.499-8.782-1.091-10.853c-0.592-2.072-3.939-9.275-5.594-11.727
							c-1.655-2.452-5.103-6.007-6.378-8.479S300.782,208.057,298.322,207.934z"/>
					</g>
					<g>
						<g>
							<path style="fill:#EB996E;" d="M305.929,228.195c0.074,0.067-0.866,1.046-2.042,2.862c-0.596,0.903-1.207,2.039-1.788,3.341
								c-0.555,1.314-1.065,2.801-1.425,4.408c-0.341,1.612-0.496,3.176-0.538,4.602c-0.014,1.426,0.07,2.714,0.236,3.782
								c0.315,2.141,0.761,3.422,0.667,3.452c-0.034,0.012-0.164-0.3-0.372-0.878c-0.109-0.288-0.229-0.644-0.329-1.069
								c-0.105-0.423-0.25-0.901-0.329-1.446c-0.216-1.079-0.34-2.39-0.353-3.847c0.016-1.457,0.16-3.06,0.509-4.708
								c0.368-1.643,0.903-3.161,1.495-4.492c0.618-1.32,1.276-2.46,1.921-3.352c0.298-0.462,0.629-0.837,0.9-1.178
								c0.267-0.345,0.525-0.619,0.743-0.835C305.655,228.399,305.903,228.17,305.929,228.195z"/>
						</g>
					</g>
					<g>
						<g>
							<path style="fill:#EB996E;" d="M298.524,244.875c-0.056,0.15-2.434-1.067-5.62-1.088c-1.176-0.021-2.265,0.123-3.156,0.306
								l-0.149,0.031l-0.078-0.114c-0.88-1.29-1.419-2.166-1.346-2.219c0.073-0.053,0.741,0.73,1.696,1.965l-0.226-0.083
								c0.908-0.245,2.041-0.428,3.265-0.406c1.645,0.016,3.104,0.393,4.098,0.779C298.006,244.441,298.554,244.819,298.524,244.875
								z"/>
						</g>
					</g>
					<g>
						<g>
							<path style="fill:#EB996E;" d="M306.144,223.758c0.014,0.08-1.125,0.322-2.933,0.813c-1.809,0.489-4.279,1.268-6.906,2.385
								c-2.626,1.123-4.899,2.366-6.504,3.332c-1.606,0.965-2.569,1.62-2.617,1.554c-0.037-0.05,0.851-0.812,2.42-1.865
								c1.567-1.054,3.84-2.364,6.496-3.5c2.658-1.13,5.177-1.863,7.022-2.264C304.969,223.81,306.134,223.697,306.144,223.758z"/>
						</g>
					</g>
				</g>
				<g>
					<g>
						<path style="fill:#EB996E;" d="M284.745,232.524c0.031-0.017,0.171,0.186,0.398,0.575c0.215,0.393,0.491,0.989,0.699,1.773
							c0.212,0.781,0.326,1.761,0.226,2.834c-0.088,1.075-0.411,2.223-0.856,3.36c-0.441,1.128-0.883,2.213-1.416,3.139
							c-0.523,0.929-1.109,1.701-1.66,2.29c-0.556,0.586-1.072,0.993-1.451,1.235c-0.377,0.245-0.606,0.344-0.623,0.318
							c-0.054-0.077,0.792-0.6,1.799-1.797c0.498-0.6,1.03-1.364,1.515-2.277c0.493-0.908,0.91-1.97,1.35-3.095
							c0.436-1.116,0.755-2.204,0.865-3.221c0.12-1.015,0.051-1.943-0.107-2.702C285.168,233.429,284.65,232.568,284.745,232.524z"
							/>
					</g>
				</g>
			</g>
		</g>
	</g>
</g>
<g id="Desk">
	<g>
		<g>
			<path style="fill:#263238;" d="M469.72,476.958c0,0.144-98.38,0.26-219.71,0.26c-121.372,0-219.73-0.117-219.73-0.26
				c0-0.144,98.359-0.26,219.73-0.26C371.34,476.698,469.72,476.815,469.72,476.958z"/>
		</g>
	</g>
</g>
</svg>
